<svg width="128" height="63" viewBox="0 0 128 63" fill="none" xmlns="http://www.w3.org/2000/svg">
<g filter="url(#filter0_ddiiii_104_878)">
<rect x="3" y="3" width="121.006" height="56.1886" rx="12" fill="#EB6A00"/>
</g>
<path d="M66.6487 26.3161V38.8801H64.1287V33.5341H58.7467V38.8801H56.2267V26.3161H58.7467V31.4821H64.1287V26.3161H66.6487ZM73.557 39.0421C72.597 39.0421 71.733 38.8321 70.965 38.4121C70.197 37.9801 69.591 37.3741 69.147 36.5941C68.715 35.8141 68.499 34.9141 68.499 33.8941C68.499 32.8741 68.721 31.9741 69.165 31.1941C69.621 30.4141 70.239 29.8141 71.019 29.3941C71.799 28.9621 72.669 28.7461 73.629 28.7461C74.589 28.7461 75.459 28.9621 76.239 29.3941C77.019 29.8141 77.631 30.4141 78.075 31.1941C78.531 31.9741 78.759 32.8741 78.759 33.8941C78.759 34.9141 78.525 35.8141 78.057 36.5941C77.601 37.3741 76.977 37.9801 76.185 38.4121C75.405 38.8321 74.529 39.0421 73.557 39.0421ZM73.557 36.8461C74.013 36.8461 74.439 36.7381 74.835 36.5221C75.243 36.2941 75.567 35.9581 75.807 35.5141C76.047 35.0701 76.167 34.5301 76.167 33.8941C76.167 32.9461 75.915 32.2201 75.411 31.7161C74.919 31.2001 74.313 30.9421 73.593 30.9421C72.873 30.9421 72.267 31.2001 71.775 31.7161C71.295 32.2201 71.055 32.9461 71.055 33.8941C71.055 34.8421 71.289 35.5741 71.757 36.0901C72.237 36.5941 72.837 36.8461 73.557 36.8461ZM92.9915 28.7641C94.2155 28.7641 95.1995 29.1421 95.9435 29.8981C96.6995 30.6421 97.0775 31.6861 97.0775 33.0301V38.8801H94.5575V33.3721C94.5575 32.5921 94.3595 31.9981 93.9635 31.5901C93.5675 31.1701 93.0275 30.9601 92.3435 30.9601C91.6595 30.9601 91.1135 31.1701 90.7055 31.5901C90.3095 31.9981 90.1115 32.5921 90.1115 33.3721V38.8801H87.5915V33.3721C87.5915 32.5921 87.3935 31.9981 86.9975 31.5901C86.6015 31.1701 86.0615 30.9601 85.3775 30.9601C84.6815 30.9601 84.1295 31.1701 83.7215 31.5901C83.3255 31.9981 83.1275 32.5921 83.1275 33.3721V38.8801H80.6075V28.9081H83.1275V30.1141C83.4515 29.6941 83.8655 29.3641 84.3695 29.1241C84.8855 28.8841 85.4495 28.7641 86.0615 28.7641C86.8415 28.7641 87.5375 28.9321 88.1495 29.2681C88.7615 29.5921 89.2355 30.0601 89.5715 30.6721C89.8955 30.0961 90.3635 29.6341 90.9755 29.2861C91.5995 28.9381 92.2715 28.7641 92.9915 28.7641ZM108.739 33.6781C108.739 34.0381 108.715 34.3621 108.667 34.6501H101.377C101.437 35.3701 101.689 35.9341 102.133 36.3421C102.577 36.7501 103.123 36.9541 103.771 36.9541C104.707 36.9541 105.373 36.5521 105.769 35.7481H108.487C108.199 36.7081 107.647 37.5001 106.831 38.1241C106.015 38.7361 105.013 39.0421 103.825 39.0421C102.865 39.0421 102.001 38.8321 101.233 38.4121C100.477 37.9801 99.8829 37.3741 99.4509 36.5941C99.0309 35.8141 98.8209 34.9141 98.8209 33.8941C98.8209 32.8621 99.0309 31.9561 99.4509 31.1761C99.8709 30.3961 100.459 29.7961 101.215 29.3761C101.971 28.9561 102.841 28.7461 103.825 28.7461C104.773 28.7461 105.619 28.9501 106.363 29.3581C107.119 29.7661 107.701 30.3481 108.109 31.1041C108.529 31.8481 108.739 32.7061 108.739 33.6781ZM106.129 32.9581C106.117 32.3101 105.883 31.7941 105.427 31.4101C104.971 31.0141 104.413 30.8161 103.753 30.8161C103.129 30.8161 102.601 31.0081 102.169 31.3921C101.749 31.7641 101.491 32.2861 101.395 32.9581H106.129Z" fill="white"/>
<path fill-rule="evenodd" clip-rule="evenodd" d="M32.4929 17.517C32.0928 17.1092 31.5503 16.8801 30.9847 16.8801C30.419 16.8801 29.8765 17.1092 29.4765 17.517L15.2967 31.9723C15.0967 32.1765 14.9845 32.4534 14.9847 32.742C14.9849 33.0306 15.0975 33.3073 15.2978 33.5112C15.4981 33.7151 15.7696 33.8295 16.0527 33.8293C16.3357 33.8291 16.6071 33.7143 16.8071 33.5101L18.1852 32.105V43.6176C18.1852 44.4828 18.5223 45.3127 19.1224 45.9245C19.7225 46.5364 20.5364 46.8801 21.385 46.8801H40.5843C41.433 46.8801 42.2469 46.5364 42.847 45.9245C43.4471 45.3127 43.7842 44.4828 43.7842 43.6176V32.105L45.1623 33.5101C45.3623 33.7143 45.6337 33.8291 45.9167 33.8293C46.1997 33.8295 46.4713 33.7151 46.6716 33.5112C46.8718 33.3073 46.9845 33.0306 46.9847 32.742C46.9849 32.4534 46.8726 32.1765 46.6726 31.9723L41.6509 26.8544V19.692C41.6509 19.4036 41.5386 19.127 41.3385 18.923C41.1385 18.7191 40.8672 18.6045 40.5843 18.6045H38.4511C38.1682 18.6045 37.8969 18.7191 37.6968 18.923C37.4968 19.127 37.3844 19.4036 37.3844 19.692V22.5043L32.4929 17.517ZM41.6509 29.93L30.9847 19.0547L20.3184 29.93V43.6176C20.3184 43.906 20.4308 44.1826 20.6308 44.3865C20.8308 44.5905 21.1021 44.7051 21.385 44.7051H40.5843C40.8672 44.7051 41.1385 44.5905 41.3385 44.3865C41.5386 44.1826 41.6509 43.906 41.6509 43.6176V29.93ZM30.9847 29.4406C34.5344 25.8017 43.4109 32.1681 30.9847 40.355C18.5585 32.1681 27.4349 25.8017 30.9847 29.4406Z" fill="white"/>
<defs>
<filter id="filter0_ddiiii_104_878" x="-2" y="-2" width="131.006" height="66.1885" filterUnits="userSpaceOnUse" color-interpolation-filters="sRGB">
<feFlood flood-opacity="0" result="BackgroundImageFix"/>
<feColorMatrix in="SourceAlpha" type="matrix" values="0 0 0 0 0 0 0 0 0 0 0 0 0 0 0 0 0 0 127 0" result="hardAlpha"/>
<feOffset dx="-1" dy="-1"/>
<feGaussianBlur stdDeviation="1"/>
<feColorMatrix type="matrix" values="0 0 0 0 0.831373 0 0 0 0 0.372549 0 0 0 0 0 0 0 0 0.5 0"/>
<feBlend mode="normal" in2="BackgroundImageFix" result="effect1_dropShadow_104_878"/>
<feColorMatrix in="SourceAlpha" type="matrix" values="0 0 0 0 0 0 0 0 0 0 0 0 0 0 0 0 0 0 127 0" result="hardAlpha"/>
<feOffset dx="1" dy="1"/>
<feGaussianBlur stdDeviation="1"/>
<feColorMatrix type="matrix" values="0 0 0 0 1 0 0 0 0 0.458824 0 0 0 0 0 0 0 0 0.3 0"/>
<feBlend mode="normal" in2="effect1_dropShadow_104_878" result="effect2_dropShadow_104_878"/>
<feBlend mode="normal" in="SourceGraphic" in2="effect2_dropShadow_104_878" result="shape"/>
<feColorMatrix in="SourceAlpha" type="matrix" values="0 0 0 0 0 0 0 0 0 0 0 0 0 0 0 0 0 0 127 0" result="hardAlpha"/>
<feOffset dx="5" dy="5"/>
<feGaussianBlur stdDeviation="6.5"/>
<feComposite in2="hardAlpha" operator="arithmetic" k2="-1" k3="1"/>
<feColorMatrix type="matrix" values="0 0 0 0 0.831373 0 0 0 0 0.372549 0 0 0 0 0 0 0 0 0.9 0"/>
<feBlend mode="normal" in2="shape" result="effect3_innerShadow_104_878"/>
<feColorMatrix in="SourceAlpha" type="matrix" values="0 0 0 0 0 0 0 0 0 0 0 0 0 0 0 0 0 0 127 0" result="hardAlpha"/>
<feOffset dx="-5" dy="-5"/>
<feGaussianBlur stdDeviation="5"/>
<feComposite in2="hardAlpha" operator="arithmetic" k2="-1" k3="1"/>
<feColorMatrix type="matrix" values="0 0 0 0 1 0 0 0 0 0.458824 0 0 0 0 0 0 0 0 0.9 0"/>
<feBlend mode="normal" in2="effect3_innerShadow_104_878" result="effect4_innerShadow_104_878"/>
<feColorMatrix in="SourceAlpha" type="matrix" values="0 0 0 0 0 0 0 0 0 0 0 0 0 0 0 0 0 0 127 0" result="hardAlpha"/>
<feOffset dx="5" dy="-5"/>
<feGaussianBlur stdDeviation="5"/>
<feComposite in2="hardAlpha" operator="arithmetic" k2="-1" k3="1"/>
<feColorMatrix type="matrix" values="0 0 0 0 0.831373 0 0 0 0 0.372549 0 0 0 0 0 0 0 0 0.2 0"/>
<feBlend mode="normal" in2="effect4_innerShadow_104_878" result="effect5_innerShadow_104_878"/>
<feColorMatrix in="SourceAlpha" type="matrix" values="0 0 0 0 0 0 0 0 0 0 0 0 0 0 0 0 0 0 127 0" result="hardAlpha"/>
<feOffset dx="-5" dy="5"/>
<feGaussianBlur stdDeviation="5"/>
<feComposite in2="hardAlpha" operator="arithmetic" k2="-1" k3="1"/>
<feColorMatrix type="matrix" values="0 0 0 0 0.831373 0 0 0 0 0.372549 0 0 0 0 0 0 0 0 0.2 0"/>
<feBlend mode="normal" in2="effect5_innerShadow_104_878" result="effect6_innerShadow_104_878"/>
</filter>
</defs>
</svg>
