<svg width="970" height="657" viewBox="0 0 970 657" fill="none" xmlns="http://www.w3.org/2000/svg">
<path d="M52.2616 213.488L51.5896 216.632H54.4696V220.328H50.7976L50.0056 224H46.1656L46.9576 220.328H42.9736L42.1816 224H38.3416L39.1336 220.328H35.5816V216.632H39.9256L40.5976 213.488H37.1176V209.792H41.3656L42.1336 206.24H45.9736L45.2056 209.792H49.1896L49.9576 206.24H53.7976L53.0296 209.792H56.0056V213.488H52.2616ZM48.4216 213.488H44.4376L43.7656 216.632H47.7496L48.4216 213.488ZM62.3967 210.44V213.848H67.8927V217.016H62.3967V220.712H68.6127V224H58.2927V207.152H68.6127V210.44H62.3967ZM81.4771 215.36C82.4531 215.568 83.2371 216.056 83.8291 216.824C84.4211 217.576 84.7171 218.44 84.7171 219.416C84.7171 220.824 84.2211 221.944 83.2291 222.776C82.2531 223.592 80.8851 224 79.1251 224H71.2771V207.152H78.8611C80.5731 207.152 81.9091 207.544 82.8691 208.328C83.8451 209.112 84.3331 210.176 84.3331 211.52C84.3331 212.512 84.0691 213.336 83.5411 213.992C83.0291 214.648 82.3411 215.104 81.4771 215.36ZM75.3811 213.968H78.0691C78.7411 213.968 79.2531 213.824 79.6051 213.536C79.9731 213.232 80.1571 212.792 80.1571 212.216C80.1571 211.64 79.9731 211.2 79.6051 210.896C79.2531 210.592 78.7411 210.44 78.0691 210.44H75.3811V213.968ZM78.4051 220.688C79.0931 220.688 79.6211 220.536 79.9891 220.232C80.3731 219.912 80.5651 219.456 80.5651 218.864C80.5651 218.272 80.3651 217.808 79.9651 217.472C79.5811 217.136 79.0451 216.968 78.3571 216.968H75.3811V220.688H78.4051ZM95.3534 211.208C95.2254 210.616 95.0014 210.176 94.6814 209.888C94.3614 209.584 93.9054 209.432 93.3134 209.432C92.4014 209.432 91.7454 209.832 91.3454 210.632C90.9454 211.416 90.7374 212.664 90.7214 214.376C91.0734 213.816 91.5774 213.376 92.2334 213.056C92.9054 212.736 93.6414 212.576 94.4414 212.576C96.0094 212.576 97.2654 213.072 98.2094 214.064C99.1694 215.056 99.6494 216.44 99.6494 218.216C99.6494 219.384 99.4094 220.408 98.9294 221.288C98.4654 222.168 97.7774 222.856 96.8654 223.352C95.9694 223.848 94.9054 224.096 93.6734 224.096C91.2094 224.096 89.4974 223.328 88.5374 221.792C87.5774 220.24 87.0974 218.016 87.0974 215.12C87.0974 212.08 87.6014 209.824 88.6094 208.352C89.6334 206.864 91.2654 206.12 93.5054 206.12C94.7054 206.12 95.7134 206.36 96.5294 206.84C97.3614 207.304 97.9854 207.92 98.4014 208.688C98.8334 209.456 99.0894 210.296 99.1694 211.208H95.3534ZM93.4574 215.816C92.7694 215.816 92.1934 216.024 91.7294 216.44C91.2814 216.84 91.0574 217.416 91.0574 218.168C91.0574 218.936 91.2654 219.536 91.6814 219.968C92.1134 220.4 92.7214 220.616 93.5054 220.616C94.2094 220.616 94.7614 220.408 95.1614 219.992C95.5774 219.56 95.7854 218.976 95.7854 218.24C95.7854 217.488 95.5854 216.896 95.1854 216.464C94.7854 216.032 94.2094 215.816 93.4574 215.816ZM112.867 221.024H106.579L105.571 224H101.275L107.371 207.152H112.123L118.219 224H113.875L112.867 221.024ZM111.811 217.856L109.723 211.688L107.659 217.856H111.811ZM119.666 215C119.666 212.248 120.194 210.08 121.25 208.496C122.322 206.912 124.042 206.12 126.41 206.12C128.778 206.12 130.49 206.912 131.546 208.496C132.618 210.08 133.154 212.248 133.154 215C133.154 217.784 132.618 219.968 131.546 221.552C130.49 223.136 128.778 223.928 126.41 223.928C124.042 223.928 122.322 223.136 121.25 221.552C120.194 219.968 119.666 217.784 119.666 215ZM129.122 215C129.122 213.384 128.946 212.144 128.594 211.28C128.242 210.4 127.514 209.96 126.41 209.96C125.306 209.96 124.578 210.4 124.226 211.28C123.874 212.144 123.698 213.384 123.698 215C123.698 216.088 123.762 216.992 123.89 217.712C124.018 218.416 124.274 218.992 124.658 219.44C125.058 219.872 125.642 220.088 126.41 220.088C127.178 220.088 127.754 219.872 128.138 219.44C128.538 218.992 128.802 218.416 128.93 217.712C129.058 216.992 129.122 216.088 129.122 215ZM135.322 215C135.322 212.248 135.85 210.08 136.906 208.496C137.978 206.912 139.698 206.12 142.066 206.12C144.434 206.12 146.146 206.912 147.202 208.496C148.274 210.08 148.81 212.248 148.81 215C148.81 217.784 148.274 219.968 147.202 221.552C146.146 223.136 144.434 223.928 142.066 223.928C139.698 223.928 137.978 223.136 136.906 221.552C135.85 219.968 135.322 217.784 135.322 215ZM144.778 215C144.778 213.384 144.602 212.144 144.25 211.28C143.898 210.4 143.17 209.96 142.066 209.96C140.962 209.96 140.234 210.4 139.882 211.28C139.53 212.144 139.354 213.384 139.354 215C139.354 216.088 139.418 216.992 139.546 217.712C139.674 218.416 139.93 218.992 140.314 219.44C140.714 219.872 141.298 220.088 142.066 220.088C142.834 220.088 143.41 219.872 143.794 219.44C144.194 218.992 144.458 218.416 144.586 217.712C144.714 216.992 144.778 216.088 144.778 215Z" fill="#555555"/>
<path d="M59.1991 623.488L58.5271 626.632H61.4071V630.328H57.7351L56.9431 634H53.1031L53.8951 630.328H49.9111L49.1191 634H45.2791L46.0711 630.328H42.5191V626.632H46.8631L47.5351 623.488H44.0551V619.792H48.3031L49.0711 616.24H52.9111L52.1431 619.792H56.1271L56.8951 616.24H60.7351L59.9671 619.792H62.9431V623.488H59.1991ZM55.3591 623.488H51.3751L50.7031 626.632H54.6871L55.3591 623.488ZM76.1982 617.152V620.44H69.3342V623.992H74.4702V627.184H69.3342V634H65.2302V617.152H76.1982ZM89.3232 617.152V620.44H82.4592V623.992H87.5952V627.184H82.4592V634H78.3552V617.152H89.3232ZM102.448 617.152V620.44H95.5842V623.992H100.72V627.184H95.5842V634H91.4802V617.152H102.448ZM115.093 631.024H108.805L107.797 634H103.501L109.597 617.152H114.349L120.445 634H116.101L115.093 631.024ZM114.037 627.856L111.949 621.688L109.885 627.856H114.037ZM133.269 617.152V620.44H126.405V623.992H131.541V627.184H126.405V634H122.301V617.152H133.269ZM134.586 620.296V616.48H141.234V634H136.962V620.296H134.586Z" fill="#555555"/>
<path d="M448.433 623.488L447.761 626.632H450.641V630.328H446.969L446.177 634H442.337L443.129 630.328H439.145L438.353 634H434.513L435.305 630.328H431.753V626.632H436.097L436.769 623.488H433.289V619.792H437.537L438.305 616.24H442.145L441.377 619.792H445.361L446.129 616.24H449.969L449.201 619.792H452.177V623.488H448.433ZM444.593 623.488H440.609L439.937 626.632H443.921L444.593 623.488ZM465.433 617.152V620.44H458.569V623.992H463.705V627.184H458.569V634H454.465V617.152H465.433ZM478.558 617.152V620.44H471.694V623.992H476.83V627.184H471.694V634H467.59V617.152H478.558ZM491.683 617.152V620.44H484.819V623.992H489.955V627.184H484.819V634H480.715V617.152H491.683ZM504.808 617.152V620.44H497.944V623.992H503.08V627.184H497.944V634H493.84V617.152H504.808ZM517.933 617.152V620.44H511.069V623.992H516.205V627.184H511.069V634H506.965V617.152H517.933ZM531.058 617.152V620.44H524.194V623.992H529.33V627.184H524.194V634H520.09V617.152H531.058Z" fill="#555555"/>
<path d="M443.617 213.488L442.945 216.632H445.825V220.328H442.153L441.361 224H437.521L438.313 220.328H434.329L433.537 224H429.697L430.489 220.328H426.937V216.632H431.281L431.953 213.488H428.473V209.792H432.721L433.489 206.24H437.329L436.561 209.792H440.545L441.313 206.24H445.153L444.385 209.792H447.361V213.488H443.617ZM439.777 213.488H435.793L435.121 216.632H439.105L439.777 213.488ZM453.656 218.864C453.896 220.128 454.632 220.76 455.864 220.76C456.712 220.76 457.312 220.384 457.664 219.632C458.016 218.88 458.192 217.656 458.192 215.96C457.84 216.456 457.36 216.84 456.752 217.112C456.144 217.384 455.464 217.52 454.712 217.52C453.688 217.52 452.776 217.312 451.976 216.896C451.176 216.464 450.544 215.832 450.08 215C449.632 214.152 449.408 213.128 449.408 211.928C449.408 210.744 449.648 209.712 450.128 208.832C450.624 207.952 451.32 207.272 452.216 206.792C453.128 206.312 454.2 206.072 455.432 206.072C457.8 206.072 459.456 206.808 460.4 208.28C461.344 209.752 461.816 211.92 461.816 214.784C461.816 216.864 461.624 218.584 461.24 219.944C460.872 221.288 460.24 222.312 459.344 223.016C458.464 223.72 457.256 224.072 455.72 224.072C454.504 224.072 453.464 223.832 452.6 223.352C451.752 222.872 451.096 222.24 450.632 221.456C450.184 220.672 449.928 219.808 449.864 218.864H453.656ZM455.648 214.28C456.32 214.28 456.856 214.08 457.256 213.68C457.656 213.264 457.856 212.704 457.856 212C457.856 211.232 457.648 210.64 457.232 210.224C456.816 209.808 456.256 209.6 455.552 209.6C454.848 209.6 454.288 209.816 453.872 210.248C453.472 210.664 453.272 211.24 453.272 211.976C453.272 212.664 453.472 213.224 453.872 213.656C454.288 214.072 454.88 214.28 455.648 214.28ZM468.422 218.864C468.662 220.128 469.398 220.76 470.63 220.76C471.478 220.76 472.078 220.384 472.43 219.632C472.782 218.88 472.958 217.656 472.958 215.96C472.606 216.456 472.126 216.84 471.518 217.112C470.91 217.384 470.23 217.52 469.478 217.52C468.454 217.52 467.542 217.312 466.742 216.896C465.942 216.464 465.31 215.832 464.846 215C464.398 214.152 464.174 213.128 464.174 211.928C464.174 210.744 464.414 209.712 464.894 208.832C465.39 207.952 466.086 207.272 466.982 206.792C467.894 206.312 468.966 206.072 470.198 206.072C472.566 206.072 474.222 206.808 475.166 208.28C476.11 209.752 476.582 211.92 476.582 214.784C476.582 216.864 476.39 218.584 476.006 219.944C475.638 221.288 475.006 222.312 474.11 223.016C473.23 223.72 472.022 224.072 470.486 224.072C469.27 224.072 468.23 223.832 467.366 223.352C466.518 222.872 465.862 222.24 465.398 221.456C464.95 220.672 464.694 219.808 464.63 218.864H468.422ZM470.414 214.28C471.086 214.28 471.622 214.08 472.022 213.68C472.422 213.264 472.622 212.704 472.622 212C472.622 211.232 472.414 210.64 471.998 210.224C471.582 209.808 471.022 209.6 470.318 209.6C469.614 209.6 469.054 209.816 468.638 210.248C468.238 210.664 468.038 211.24 468.038 211.976C468.038 212.664 468.238 213.224 468.638 213.656C469.054 214.072 469.646 214.28 470.414 214.28ZM483.187 218.864C483.427 220.128 484.163 220.76 485.395 220.76C486.243 220.76 486.843 220.384 487.195 219.632C487.547 218.88 487.723 217.656 487.723 215.96C487.371 216.456 486.891 216.84 486.283 217.112C485.675 217.384 484.995 217.52 484.243 217.52C483.219 217.52 482.307 217.312 481.507 216.896C480.707 216.464 480.075 215.832 479.611 215C479.163 214.152 478.939 213.128 478.939 211.928C478.939 210.744 479.179 209.712 479.659 208.832C480.155 207.952 480.851 207.272 481.747 206.792C482.659 206.312 483.731 206.072 484.963 206.072C487.331 206.072 488.987 206.808 489.931 208.28C490.875 209.752 491.347 211.92 491.347 214.784C491.347 216.864 491.155 218.584 490.771 219.944C490.403 221.288 489.771 222.312 488.875 223.016C487.995 223.72 486.787 224.072 485.251 224.072C484.035 224.072 482.995 223.832 482.131 223.352C481.283 222.872 480.627 222.24 480.163 221.456C479.715 220.672 479.459 219.808 479.395 218.864H483.187ZM485.179 214.28C485.851 214.28 486.387 214.08 486.787 213.68C487.187 213.264 487.387 212.704 487.387 212C487.387 211.232 487.179 210.64 486.763 210.224C486.347 209.808 485.787 209.6 485.083 209.6C484.379 209.6 483.819 209.816 483.403 210.248C483.003 210.664 482.803 211.24 482.803 211.976C482.803 212.664 483.003 213.224 483.403 213.656C483.819 214.072 484.411 214.28 485.179 214.28ZM505.873 210.056H498.385V213.368C498.705 213.016 499.153 212.728 499.729 212.504C500.305 212.28 500.929 212.168 501.601 212.168C502.801 212.168 503.793 212.44 504.577 212.984C505.377 213.528 505.961 214.232 506.329 215.096C506.697 215.96 506.881 216.896 506.881 217.904C506.881 219.776 506.353 221.264 505.297 222.368C504.241 223.456 502.753 224 500.833 224C499.553 224 498.441 223.784 497.497 223.352C496.553 222.904 495.825 222.288 495.313 221.504C494.801 220.72 494.521 219.816 494.473 218.792H498.481C498.577 219.288 498.809 219.704 499.177 220.04C499.545 220.36 500.049 220.52 500.689 220.52C501.441 220.52 502.001 220.28 502.369 219.8C502.737 219.32 502.921 218.68 502.921 217.88C502.921 217.096 502.729 216.496 502.345 216.08C501.961 215.664 501.401 215.456 500.665 215.456C500.121 215.456 499.673 215.592 499.321 215.864C498.969 216.12 498.737 216.464 498.625 216.896H494.665V206.456H505.873V210.056ZM509.002 220.712C509.546 220.28 509.794 220.08 509.746 220.112C511.314 218.816 512.546 217.752 513.442 216.92C514.354 216.088 515.122 215.216 515.746 214.304C516.37 213.392 516.682 212.504 516.682 211.64C516.682 210.984 516.53 210.472 516.226 210.104C515.922 209.736 515.466 209.552 514.858 209.552C514.25 209.552 513.77 209.784 513.418 210.248C513.082 210.696 512.914 211.336 512.914 212.168H508.954C508.986 210.808 509.274 209.672 509.818 208.76C510.378 207.848 511.106 207.176 512.002 206.744C512.914 206.312 513.922 206.096 515.026 206.096C516.93 206.096 518.362 206.584 519.322 207.56C520.298 208.536 520.786 209.808 520.786 211.376C520.786 213.088 520.202 214.68 519.034 216.152C517.866 217.608 516.378 219.032 514.57 220.424H521.05V223.76H509.002V220.712ZM527.273 218.864C527.513 220.128 528.249 220.76 529.481 220.76C530.329 220.76 530.929 220.384 531.281 219.632C531.633 218.88 531.809 217.656 531.809 215.96C531.457 216.456 530.977 216.84 530.369 217.112C529.761 217.384 529.081 217.52 528.329 217.52C527.305 217.52 526.393 217.312 525.593 216.896C524.793 216.464 524.161 215.832 523.697 215C523.249 214.152 523.025 213.128 523.025 211.928C523.025 210.744 523.265 209.712 523.745 208.832C524.241 207.952 524.937 207.272 525.833 206.792C526.745 206.312 527.817 206.072 529.049 206.072C531.417 206.072 533.073 206.808 534.017 208.28C534.961 209.752 535.433 211.92 535.433 214.784C535.433 216.864 535.241 218.584 534.857 219.944C534.489 221.288 533.857 222.312 532.961 223.016C532.081 223.72 530.873 224.072 529.337 224.072C528.121 224.072 527.081 223.832 526.217 223.352C525.369 222.872 524.713 222.24 524.249 221.456C523.801 220.672 523.545 219.808 523.481 218.864H527.273ZM529.265 214.28C529.937 214.28 530.473 214.08 530.873 213.68C531.273 213.264 531.473 212.704 531.473 212C531.473 211.232 531.265 210.64 530.849 210.224C530.433 209.808 529.873 209.6 529.169 209.6C528.465 209.6 527.905 209.816 527.489 210.248C527.089 210.664 526.889 211.24 526.889 211.976C526.889 212.664 527.089 213.224 527.489 213.656C527.905 214.072 528.497 214.28 529.265 214.28Z" fill="#555555"/>
<path d="M835.562 213.488L834.89 216.632H837.77V220.328H834.098L833.306 224H829.466L830.258 220.328H826.274L825.482 224H821.642L822.434 220.328H818.882V216.632H823.226L823.898 213.488H820.418V209.792H824.666L825.434 206.24H829.274L828.506 209.792H832.49L833.258 206.24H837.098L836.33 209.792H839.306V213.488H835.562ZM831.722 213.488H827.738L827.066 216.632H831.05L831.722 213.488ZM852.369 209.552L846.345 224H842.145L848.241 210.008H840.777V206.504H852.369V209.552ZM860.749 207.152C862.525 207.152 864.077 207.504 865.405 208.208C866.733 208.912 867.757 209.904 868.477 211.184C869.213 212.448 869.581 213.912 869.581 215.576C869.581 217.224 869.213 218.688 868.477 219.968C867.757 221.248 866.725 222.24 865.381 222.944C864.053 223.648 862.509 224 860.749 224H854.437V207.152H860.749ZM860.485 220.448C862.037 220.448 863.245 220.024 864.109 219.176C864.973 218.328 865.405 217.128 865.405 215.576C865.405 214.024 864.973 212.816 864.109 211.952C863.245 211.088 862.037 210.656 860.485 210.656H858.541V220.448H860.485ZM871.563 220.88V217.568L879.147 206.72H883.731V217.328H885.699V220.88H883.731V224H879.627V220.88H871.563ZM879.915 211.232L875.883 217.328H879.915V211.232ZM894.429 207.152C896.205 207.152 897.757 207.504 899.085 208.208C900.413 208.912 901.437 209.904 902.157 211.184C902.893 212.448 903.261 213.912 903.261 215.576C903.261 217.224 902.893 218.688 902.157 219.968C901.437 221.248 900.405 222.24 899.061 222.944C897.733 223.648 896.189 224 894.429 224H888.117V207.152H894.429ZM894.165 220.448C895.717 220.448 896.925 220.024 897.789 219.176C898.653 218.328 899.085 217.128 899.085 215.576C899.085 214.024 898.653 212.816 897.789 211.952C896.925 211.088 895.717 210.656 894.165 210.656H892.221V220.448H894.165ZM905.002 220.712C905.546 220.28 905.794 220.08 905.746 220.112C907.314 218.816 908.546 217.752 909.442 216.92C910.354 216.088 911.122 215.216 911.746 214.304C912.37 213.392 912.682 212.504 912.682 211.64C912.682 210.984 912.53 210.472 912.226 210.104C911.922 209.736 911.466 209.552 910.858 209.552C910.25 209.552 909.77 209.784 909.418 210.248C909.082 210.696 908.914 211.336 908.914 212.168H904.954C904.986 210.808 905.274 209.672 905.818 208.76C906.378 207.848 907.106 207.176 908.002 206.744C908.914 206.312 909.922 206.096 911.026 206.096C912.93 206.096 914.362 206.584 915.322 207.56C916.298 208.536 916.786 209.808 916.786 211.376C916.786 213.088 916.202 214.68 915.034 216.152C913.866 217.608 912.378 219.032 910.57 220.424H917.05V223.76H905.002V220.712ZM929.465 215.36C930.441 215.568 931.225 216.056 931.817 216.824C932.409 217.576 932.705 218.44 932.705 219.416C932.705 220.824 932.209 221.944 931.217 222.776C930.241 223.592 928.873 224 927.113 224H919.265V207.152H926.849C928.561 207.152 929.897 207.544 930.857 208.328C931.833 209.112 932.321 210.176 932.321 211.52C932.321 212.512 932.057 213.336 931.529 213.992C931.017 214.648 930.329 215.104 929.465 215.36ZM923.369 213.968H926.057C926.729 213.968 927.241 213.824 927.593 213.536C927.961 213.232 928.145 212.792 928.145 212.216C928.145 211.64 927.961 211.2 927.593 210.896C927.241 210.592 926.729 210.44 926.057 210.44H923.369V213.968ZM926.393 220.688C927.081 220.688 927.609 220.536 927.977 220.232C928.361 219.912 928.553 219.456 928.553 218.864C928.553 218.272 928.353 217.808 927.953 217.472C927.569 217.136 927.033 216.968 926.345 216.968H923.369V220.688H926.393Z" fill="#555555"/>
<path d="M835.48 623.488L834.808 626.632H837.688V630.328H834.016L833.224 634H829.384L830.176 630.328H826.192L825.4 634H821.56L822.352 630.328H818.8V626.632H823.144L823.816 623.488H820.336V619.792H824.584L825.352 616.24H829.192L828.424 619.792H832.408L833.176 616.24H837.016L836.248 619.792H839.224V623.488H835.48ZM831.64 623.488H827.656L826.984 626.632H830.968L831.64 623.488ZM853.439 620.056H845.951V623.368C846.271 623.016 846.719 622.728 847.295 622.504C847.871 622.28 848.495 622.168 849.167 622.168C850.367 622.168 851.359 622.44 852.143 622.984C852.943 623.528 853.527 624.232 853.895 625.096C854.263 625.96 854.447 626.896 854.447 627.904C854.447 629.776 853.919 631.264 852.863 632.368C851.807 633.456 850.319 634 848.399 634C847.119 634 846.007 633.784 845.063 633.352C844.119 632.904 843.391 632.288 842.879 631.504C842.367 630.72 842.087 629.816 842.039 628.792H846.047C846.143 629.288 846.375 629.704 846.743 630.04C847.111 630.36 847.615 630.52 848.255 630.52C849.007 630.52 849.567 630.28 849.935 629.8C850.303 629.32 850.487 628.68 850.487 627.88C850.487 627.096 850.295 626.496 849.911 626.08C849.527 625.664 848.967 625.456 848.231 625.456C847.687 625.456 847.239 625.592 846.887 625.864C846.535 626.12 846.303 626.464 846.191 626.896H842.231V616.456H853.439V620.056ZM869.049 620.056H861.561V623.368C861.881 623.016 862.329 622.728 862.905 622.504C863.481 622.28 864.105 622.168 864.777 622.168C865.977 622.168 866.969 622.44 867.753 622.984C868.553 623.528 869.137 624.232 869.505 625.096C869.873 625.96 870.057 626.896 870.057 627.904C870.057 629.776 869.529 631.264 868.473 632.368C867.417 633.456 865.929 634 864.009 634C862.729 634 861.617 633.784 860.673 633.352C859.729 632.904 859.001 632.288 858.489 631.504C857.977 630.72 857.697 629.816 857.649 628.792H861.657C861.753 629.288 861.985 629.704 862.353 630.04C862.721 630.36 863.225 630.52 863.865 630.52C864.617 630.52 865.177 630.28 865.545 629.8C865.913 629.32 866.097 628.68 866.097 627.88C866.097 627.096 865.905 626.496 865.521 626.08C865.137 625.664 864.577 625.456 863.841 625.456C863.297 625.456 862.849 625.592 862.497 625.864C862.145 626.12 861.913 626.464 861.801 626.896H857.841V616.456H869.049V620.056ZM884.658 620.056H877.17V623.368C877.49 623.016 877.938 622.728 878.514 622.504C879.09 622.28 879.714 622.168 880.386 622.168C881.586 622.168 882.578 622.44 883.362 622.984C884.162 623.528 884.746 624.232 885.114 625.096C885.482 625.96 885.666 626.896 885.666 627.904C885.666 629.776 885.138 631.264 884.082 632.368C883.026 633.456 881.538 634 879.618 634C878.338 634 877.226 633.784 876.282 633.352C875.338 632.904 874.61 632.288 874.098 631.504C873.586 630.72 873.306 629.816 873.258 628.792H877.266C877.362 629.288 877.594 629.704 877.962 630.04C878.33 630.36 878.834 630.52 879.474 630.52C880.226 630.52 880.786 630.28 881.154 629.8C881.522 629.32 881.706 628.68 881.706 627.88C881.706 627.096 881.514 626.496 881.13 626.08C880.746 625.664 880.186 625.456 879.45 625.456C878.906 625.456 878.458 625.592 878.106 625.864C877.754 626.12 877.522 626.464 877.41 626.896H873.45V616.456H884.658V620.056ZM900.268 620.056H892.78V623.368C893.1 623.016 893.548 622.728 894.124 622.504C894.7 622.28 895.324 622.168 895.996 622.168C897.196 622.168 898.188 622.44 898.972 622.984C899.772 623.528 900.356 624.232 900.724 625.096C901.092 625.96 901.276 626.896 901.276 627.904C901.276 629.776 900.748 631.264 899.692 632.368C898.636 633.456 897.148 634 895.228 634C893.948 634 892.836 633.784 891.892 633.352C890.948 632.904 890.22 632.288 889.708 631.504C889.196 630.72 888.916 629.816 888.868 628.792H892.876C892.972 629.288 893.204 629.704 893.572 630.04C893.94 630.36 894.444 630.52 895.084 630.52C895.836 630.52 896.396 630.28 896.764 629.8C897.132 629.32 897.316 628.68 897.316 627.88C897.316 627.096 897.124 626.496 896.74 626.08C896.356 625.664 895.796 625.456 895.06 625.456C894.516 625.456 894.068 625.592 893.716 625.864C893.364 626.12 893.132 626.464 893.02 626.896H889.06V616.456H900.268V620.056ZM915.877 620.056H908.389V623.368C908.709 623.016 909.157 622.728 909.733 622.504C910.309 622.28 910.933 622.168 911.605 622.168C912.805 622.168 913.797 622.44 914.581 622.984C915.381 623.528 915.965 624.232 916.333 625.096C916.701 625.96 916.885 626.896 916.885 627.904C916.885 629.776 916.357 631.264 915.301 632.368C914.245 633.456 912.757 634 910.837 634C909.557 634 908.445 633.784 907.501 633.352C906.557 632.904 905.829 632.288 905.317 631.504C904.805 630.72 904.525 629.816 904.477 628.792H908.485C908.581 629.288 908.813 629.704 909.181 630.04C909.549 630.36 910.053 630.52 910.693 630.52C911.445 630.52 912.005 630.28 912.373 629.8C912.741 629.32 912.925 628.68 912.925 627.88C912.925 627.096 912.733 626.496 912.349 626.08C911.965 625.664 911.405 625.456 910.669 625.456C910.125 625.456 909.677 625.592 909.325 625.864C908.973 626.12 908.741 626.464 908.629 626.896H904.669V616.456H915.877V620.056ZM931.486 620.056H923.998V623.368C924.318 623.016 924.766 622.728 925.342 622.504C925.918 622.28 926.542 622.168 927.214 622.168C928.414 622.168 929.406 622.44 930.19 622.984C930.99 623.528 931.574 624.232 931.942 625.096C932.31 625.96 932.494 626.896 932.494 627.904C932.494 629.776 931.966 631.264 930.91 632.368C929.854 633.456 928.366 634 926.446 634C925.166 634 924.054 633.784 923.11 633.352C922.166 632.904 921.438 632.288 920.926 631.504C920.414 630.72 920.134 629.816 920.086 628.792H924.094C924.19 629.288 924.422 629.704 924.79 630.04C925.158 630.36 925.662 630.52 926.302 630.52C927.054 630.52 927.614 630.28 927.982 629.8C928.35 629.32 928.534 628.68 928.534 627.88C928.534 627.096 928.342 626.496 927.958 626.08C927.574 625.664 927.014 625.456 926.278 625.456C925.734 625.456 925.286 625.592 924.934 625.864C924.582 626.12 924.35 626.464 924.238 626.896H920.278V616.456H931.486V620.056Z" fill="#555555"/>
<path d="M43.4128 242.091C42.7801 242.091 42.2081 241.983 41.6968 241.766C41.1941 241.549 40.7955 241.237 40.5008 240.83C40.2061 240.423 40.0545 239.942 40.0458 239.387H41.9958C42.0218 239.76 42.1518 240.054 42.3858 240.271C42.6285 240.488 42.9578 240.596 43.3738 240.596C43.7985 240.596 44.1321 240.496 44.3748 240.297C44.6175 240.089 44.7388 239.82 44.7388 239.491C44.7388 239.222 44.6565 239.001 44.4918 238.828C44.3271 238.655 44.1191 238.52 43.8678 238.425C43.6251 238.321 43.2871 238.208 42.8538 238.087C42.2645 237.914 41.7835 237.745 41.4108 237.58C41.0468 237.407 40.7305 237.151 40.4618 236.813C40.2018 236.466 40.0718 236.007 40.0718 235.435C40.0718 234.898 40.2061 234.43 40.4748 234.031C40.7435 233.632 41.1205 233.329 41.6058 233.121C42.0911 232.904 42.6458 232.796 43.2698 232.796C44.2058 232.796 44.9641 233.026 45.5448 233.485C46.1341 233.936 46.4591 234.568 46.5198 235.383H44.5178C44.5005 235.071 44.3661 234.815 44.1148 234.616C43.8721 234.408 43.5471 234.304 43.1398 234.304C42.7845 234.304 42.4985 234.395 42.2818 234.577C42.0738 234.759 41.9698 235.023 41.9698 235.37C41.9698 235.613 42.0478 235.816 42.2038 235.981C42.3685 236.137 42.5678 236.267 42.8018 236.371C43.0445 236.466 43.3825 236.579 43.8158 236.709C44.4051 236.882 44.8861 237.056 45.2588 237.229C45.6315 237.402 45.9521 237.662 46.2208 238.009C46.4895 238.356 46.6238 238.811 46.6238 239.374C46.6238 239.859 46.4981 240.31 46.2468 240.726C45.9955 241.142 45.6271 241.476 45.1418 241.727C44.6565 241.97 44.0801 242.091 43.4128 242.091ZM50.0217 235.838C50.2557 235.509 50.5764 235.236 50.9837 235.019C51.3997 234.794 51.872 234.681 52.4007 234.681C53.016 234.681 53.5707 234.833 54.0647 235.136C54.5674 235.439 54.9617 235.873 55.2477 236.436C55.5424 236.991 55.6897 237.636 55.6897 238.373C55.6897 239.11 55.5424 239.764 55.2477 240.336C54.9617 240.899 54.5674 241.337 54.0647 241.649C53.5707 241.961 53.016 242.117 52.4007 242.117C51.872 242.117 51.404 242.009 50.9967 241.792C50.598 241.575 50.273 241.302 50.0217 240.973V245.432H48.2017V234.798H50.0217V235.838ZM53.8307 238.373C53.8307 237.94 53.7397 237.567 53.5577 237.255C53.3844 236.934 53.1504 236.692 52.8557 236.527C52.5697 236.362 52.2577 236.28 51.9197 236.28C51.5904 236.28 51.2784 236.367 50.9837 236.54C50.6977 236.705 50.4637 236.947 50.2817 237.268C50.1084 237.589 50.0217 237.966 50.0217 238.399C50.0217 238.832 50.1084 239.209 50.2817 239.53C50.4637 239.851 50.6977 240.098 50.9837 240.271C51.2784 240.436 51.5904 240.518 51.9197 240.518C52.2577 240.518 52.5697 240.431 52.8557 240.258C53.1504 240.085 53.3844 239.838 53.5577 239.517C53.7397 239.196 53.8307 238.815 53.8307 238.373ZM56.5442 238.373C56.5442 237.645 56.6872 236.999 56.9732 236.436C57.2679 235.873 57.6622 235.439 58.1562 235.136C58.6589 234.833 59.2179 234.681 59.8332 234.681C60.3706 234.681 60.8386 234.789 61.2372 235.006C61.6446 235.223 61.9696 235.496 62.2122 235.825V234.798H64.0452V242H62.2122V240.947C61.9782 241.285 61.6532 241.567 61.2372 241.792C60.8299 242.009 60.3576 242.117 59.8202 242.117C59.2136 242.117 58.6589 241.961 58.1562 241.649C57.6622 241.337 57.2679 240.899 56.9732 240.336C56.6872 239.764 56.5442 239.11 56.5442 238.373ZM62.2122 238.399C62.2122 237.957 62.1256 237.58 61.9522 237.268C61.7789 236.947 61.5449 236.705 61.2502 236.54C60.9556 236.367 60.6392 236.28 60.3012 236.28C59.9632 236.28 59.6512 236.362 59.3652 236.527C59.0792 236.692 58.8452 236.934 58.6632 237.255C58.4899 237.567 58.4032 237.94 58.4032 238.373C58.4032 238.806 58.4899 239.188 58.6632 239.517C58.8452 239.838 59.0792 240.085 59.3652 240.258C59.6599 240.431 59.9719 240.518 60.3012 240.518C60.6392 240.518 60.9556 240.436 61.2502 240.271C61.5449 240.098 61.7789 239.855 61.9522 239.543C62.1256 239.222 62.2122 238.841 62.2122 238.399ZM69.8138 234.694C70.6718 234.694 71.3651 234.967 71.8938 235.513C72.4224 236.05 72.6868 236.804 72.6868 237.775V242H70.8668V238.022C70.8668 237.45 70.7238 237.012 70.4378 236.709C70.1518 236.397 69.7618 236.241 69.2678 236.241C68.7651 236.241 68.3664 236.397 68.0718 236.709C67.7858 237.012 67.6428 237.45 67.6428 238.022V242H65.8228V234.798H67.6428V235.695C67.8854 235.383 68.1931 235.14 68.5658 234.967C68.9471 234.785 69.3631 234.694 69.8138 234.694ZM75.3405 233.94C75.0198 233.94 74.7512 233.84 74.5345 233.641C74.3265 233.433 74.2225 233.177 74.2225 232.874C74.2225 232.571 74.3265 232.319 74.5345 232.12C74.7512 231.912 75.0198 231.808 75.3405 231.808C75.6612 231.808 75.9255 231.912 76.1335 232.12C76.3502 232.319 76.4585 232.571 76.4585 232.874C76.4585 233.177 76.3502 233.433 76.1335 233.641C75.9255 233.84 75.6612 233.94 75.3405 233.94ZM76.2375 234.798V242H74.4175V234.798H76.2375ZM80.7917 242.117C80.2023 242.117 79.6737 242.013 79.2057 241.805C78.7377 241.588 78.365 241.298 78.0877 240.934C77.819 240.57 77.6717 240.167 77.6457 239.725H79.4787C79.5133 240.002 79.6477 240.232 79.8817 240.414C80.1243 240.596 80.4233 240.687 80.7787 240.687C81.1253 240.687 81.394 240.618 81.5847 240.479C81.784 240.34 81.8837 240.163 81.8837 239.946C81.8837 239.712 81.7623 239.539 81.5197 239.426C81.2857 239.305 80.9087 239.175 80.3887 239.036C79.8513 238.906 79.4093 238.772 79.0627 238.633C78.7247 238.494 78.43 238.282 78.1787 237.996C77.936 237.71 77.8147 237.324 77.8147 236.839C77.8147 236.44 77.9273 236.076 78.1527 235.747C78.3867 235.418 78.716 235.158 79.1407 234.967C79.574 234.776 80.081 234.681 80.6617 234.681C81.5197 234.681 82.2043 234.898 82.7157 235.331C83.227 235.756 83.5087 236.332 83.5607 237.06H81.8187C81.7927 236.774 81.6713 236.549 81.4547 236.384C81.2467 236.211 80.965 236.124 80.6097 236.124C80.2803 236.124 80.0247 236.185 79.8427 236.306C79.6693 236.427 79.5827 236.596 79.5827 236.813C79.5827 237.056 79.704 237.242 79.9467 237.372C80.1893 237.493 80.5663 237.619 81.0777 237.749C81.5977 237.879 82.0267 238.013 82.3647 238.152C82.7027 238.291 82.993 238.507 83.2357 238.802C83.487 239.088 83.617 239.469 83.6257 239.946C83.6257 240.362 83.5087 240.735 83.2747 241.064C83.0493 241.393 82.72 241.653 82.2867 241.844C81.862 242.026 81.3637 242.117 80.7917 242.117ZM89.1757 234.694C89.7217 234.694 90.207 234.815 90.6317 235.058C91.0563 235.292 91.3857 235.643 91.6197 236.111C91.8623 236.57 91.9837 237.125 91.9837 237.775V242H90.1637V238.022C90.1637 237.45 90.0207 237.012 89.7347 236.709C89.4487 236.397 89.0587 236.241 88.5647 236.241C88.062 236.241 87.6633 236.397 87.3687 236.709C87.0827 237.012 86.9397 237.45 86.9397 238.022V242H85.1197V232.38H86.9397V235.695C87.1737 235.383 87.4857 235.14 87.8757 234.967C88.2657 234.785 88.699 234.694 89.1757 234.694ZM101.024 242.091C100.175 242.091 99.3947 241.892 98.684 241.493C97.9734 241.094 97.41 240.544 96.994 239.842C96.578 239.131 96.37 238.33 96.37 237.437C96.37 236.553 96.578 235.76 96.994 235.058C97.41 234.347 97.9734 233.793 98.684 233.394C99.3947 232.995 100.175 232.796 101.024 232.796C101.882 232.796 102.662 232.995 103.364 233.394C104.075 233.793 104.634 234.347 105.041 235.058C105.457 235.76 105.665 236.553 105.665 237.437C105.665 238.33 105.457 239.131 105.041 239.842C104.634 240.544 104.075 241.094 103.364 241.493C102.653 241.892 101.873 242.091 101.024 242.091ZM101.024 240.466C101.57 240.466 102.051 240.345 102.467 240.102C102.883 239.851 103.208 239.495 103.442 239.036C103.676 238.577 103.793 238.044 103.793 237.437C103.793 236.83 103.676 236.302 103.442 235.851C103.208 235.392 102.883 235.041 102.467 234.798C102.051 234.555 101.57 234.434 101.024 234.434C100.478 234.434 99.9927 234.555 99.568 234.798C99.152 235.041 98.827 235.392 98.593 235.851C98.359 236.302 98.242 236.83 98.242 237.437C98.242 238.044 98.359 238.577 98.593 239.036C98.827 239.495 99.152 239.851 99.568 240.102C99.9927 240.345 100.478 240.466 101.024 240.466ZM108.839 235.916C109.073 235.535 109.376 235.236 109.749 235.019C110.13 234.802 110.564 234.694 111.049 234.694V236.605H110.568C109.996 236.605 109.563 236.739 109.268 237.008C108.982 237.277 108.839 237.745 108.839 238.412V242H107.019V234.798H108.839V235.916ZM111.807 238.373C111.807 237.645 111.95 236.999 112.236 236.436C112.531 235.873 112.925 235.439 113.419 235.136C113.922 234.833 114.481 234.681 115.096 234.681C115.633 234.681 116.101 234.789 116.5 235.006C116.907 235.223 117.232 235.496 117.475 235.825V234.798H119.308V242H117.475V240.947C117.241 241.285 116.916 241.567 116.5 241.792C116.093 242.009 115.62 242.117 115.083 242.117C114.476 242.117 113.922 241.961 113.419 241.649C112.925 241.337 112.531 240.899 112.236 240.336C111.95 239.764 111.807 239.11 111.807 238.373ZM117.475 238.399C117.475 237.957 117.388 237.58 117.215 237.268C117.042 236.947 116.808 236.705 116.513 236.54C116.218 236.367 115.902 236.28 115.564 236.28C115.226 236.28 114.914 236.362 114.628 236.527C114.342 236.692 114.108 236.934 113.926 237.255C113.753 237.567 113.666 237.94 113.666 238.373C113.666 238.806 113.753 239.188 113.926 239.517C114.108 239.838 114.342 240.085 114.628 240.258C114.923 240.431 115.235 240.518 115.564 240.518C115.902 240.518 116.218 240.436 116.513 240.271C116.808 240.098 117.042 239.855 117.215 239.543C117.388 239.222 117.475 238.841 117.475 238.399ZM125.076 234.694C125.934 234.694 126.628 234.967 127.156 235.513C127.685 236.05 127.949 236.804 127.949 237.775V242H126.129V238.022C126.129 237.45 125.986 237.012 125.7 236.709C125.414 236.397 125.024 236.241 124.53 236.241C124.028 236.241 123.629 236.397 123.334 236.709C123.048 237.012 122.905 237.45 122.905 238.022V242H121.085V234.798H122.905V235.695C123.148 235.383 123.456 235.14 123.828 234.967C124.21 234.785 124.626 234.694 125.076 234.694ZM132.501 234.681C133.039 234.681 133.511 234.789 133.918 235.006C134.326 235.214 134.646 235.487 134.88 235.825V234.798H136.713V242.052C136.713 242.719 136.579 243.313 136.31 243.833C136.042 244.362 135.639 244.778 135.101 245.081C134.564 245.393 133.914 245.549 133.151 245.549C132.129 245.549 131.288 245.311 130.629 244.834C129.979 244.357 129.611 243.707 129.524 242.884H131.331C131.427 243.213 131.63 243.473 131.942 243.664C132.263 243.863 132.649 243.963 133.099 243.963C133.628 243.963 134.057 243.803 134.386 243.482C134.716 243.17 134.88 242.693 134.88 242.052V240.934C134.646 241.272 134.321 241.554 133.905 241.779C133.498 242.004 133.03 242.117 132.501 242.117C131.895 242.117 131.34 241.961 130.837 241.649C130.335 241.337 129.936 240.899 129.641 240.336C129.355 239.764 129.212 239.11 129.212 238.373C129.212 237.645 129.355 236.999 129.641 236.436C129.936 235.873 130.33 235.439 130.824 235.136C131.327 234.833 131.886 234.681 132.501 234.681ZM134.88 238.399C134.88 237.957 134.794 237.58 134.62 237.268C134.447 236.947 134.213 236.705 133.918 236.54C133.624 236.367 133.307 236.28 132.969 236.28C132.631 236.28 132.319 236.362 132.033 236.527C131.747 236.692 131.513 236.934 131.331 237.255C131.158 237.567 131.071 237.94 131.071 238.373C131.071 238.806 131.158 239.188 131.331 239.517C131.513 239.838 131.747 240.085 132.033 240.258C132.328 240.431 132.64 240.518 132.969 240.518C133.307 240.518 133.624 240.436 133.918 240.271C134.213 240.098 134.447 239.855 134.62 239.543C134.794 239.222 134.88 238.841 134.88 238.399ZM145.186 238.243C145.186 238.503 145.168 238.737 145.134 238.945H139.869C139.912 239.465 140.094 239.872 140.415 240.167C140.735 240.462 141.13 240.609 141.598 240.609C142.274 240.609 142.755 240.319 143.041 239.738H145.004C144.796 240.431 144.397 241.003 143.808 241.454C143.218 241.896 142.495 242.117 141.637 242.117C140.943 242.117 140.319 241.965 139.765 241.662C139.219 241.35 138.79 240.912 138.478 240.349C138.174 239.786 138.023 239.136 138.023 238.399C138.023 237.654 138.174 236.999 138.478 236.436C138.781 235.873 139.206 235.439 139.752 235.136C140.298 234.833 140.926 234.681 141.637 234.681C142.321 234.681 142.932 234.828 143.47 235.123C144.016 235.418 144.436 235.838 144.731 236.384C145.034 236.921 145.186 237.541 145.186 238.243ZM143.301 237.723C143.292 237.255 143.123 236.882 142.794 236.605C142.464 236.319 142.061 236.176 141.585 236.176C141.134 236.176 140.753 236.315 140.441 236.592C140.137 236.861 139.951 237.238 139.882 237.723H143.301Z" fill="#555555"/>
<path d="M59.9111 642.926V644.395H56.1281V646.722H59.0271V648.165H56.1281V652H54.3081V642.926H59.9111ZM63.0217 642.38V652H61.2017V642.38H63.0217ZM68.0179 652.117C67.3245 652.117 66.7005 651.965 66.1459 651.662C65.5912 651.35 65.1535 650.912 64.8329 650.349C64.5209 649.786 64.3649 649.136 64.3649 648.399C64.3649 647.662 64.5252 647.012 64.8459 646.449C65.1752 645.886 65.6215 645.452 66.1849 645.149C66.7482 644.837 67.3765 644.681 68.0699 644.681C68.7632 644.681 69.3915 644.837 69.9549 645.149C70.5182 645.452 70.9602 645.886 71.2809 646.449C71.6102 647.012 71.7749 647.662 71.7749 648.399C71.7749 649.136 71.6059 649.786 71.2679 650.349C70.9385 650.912 70.4879 651.35 69.9159 651.662C69.3525 651.965 68.7199 652.117 68.0179 652.117ZM68.0179 650.531C68.3472 650.531 68.6549 650.453 68.9409 650.297C69.2355 650.132 69.4695 649.89 69.6429 649.569C69.8162 649.248 69.9029 648.858 69.9029 648.399C69.9029 647.714 69.7209 647.19 69.3569 646.826C69.0015 646.453 68.5639 646.267 68.0439 646.267C67.5239 646.267 67.0862 646.453 66.7309 646.826C66.3842 647.19 66.2109 647.714 66.2109 648.399C66.2109 649.084 66.3799 649.612 66.7179 649.985C67.0645 650.349 67.4979 650.531 68.0179 650.531ZM74.9299 645.916C75.1639 645.535 75.4672 645.236 75.8399 645.019C76.2212 644.802 76.6546 644.694 77.1399 644.694V646.605H76.6589C76.0869 646.605 75.6536 646.739 75.3589 647.008C75.0729 647.277 74.9299 647.745 74.9299 648.412V652H73.1099V644.798H74.9299V645.916ZM77.8977 648.373C77.8977 647.645 78.0407 646.999 78.3267 646.436C78.6214 645.873 79.0158 645.439 79.5098 645.136C80.0124 644.833 80.5714 644.681 81.1868 644.681C81.7241 644.681 82.1921 644.789 82.5908 645.006C82.9981 645.223 83.3231 645.496 83.5658 645.825V644.798H85.3988V652H83.5658V650.947C83.3318 651.285 83.0068 651.567 82.5908 651.792C82.1834 652.009 81.7111 652.117 81.1738 652.117C80.5671 652.117 80.0124 651.961 79.5098 651.649C79.0158 651.337 78.6214 650.899 78.3267 650.336C78.0407 649.764 77.8977 649.11 77.8977 648.373ZM83.5658 648.399C83.5658 647.957 83.4791 647.58 83.3058 647.268C83.1324 646.947 82.8984 646.705 82.6038 646.54C82.3091 646.367 81.9928 646.28 81.6548 646.28C81.3168 646.28 81.0048 646.362 80.7188 646.527C80.4328 646.692 80.1988 646.934 80.0168 647.255C79.8434 647.567 79.7568 647.94 79.7568 648.373C79.7568 648.806 79.8434 649.188 80.0168 649.517C80.1988 649.838 80.4328 650.085 80.7188 650.258C81.0134 650.431 81.3254 650.518 81.6548 650.518C81.9928 650.518 82.3091 650.436 82.6038 650.271C82.8984 650.098 83.1324 649.855 83.3058 649.543C83.4791 649.222 83.5658 648.841 83.5658 648.399ZM88.9963 642.38V652H87.1763V642.38H88.9963ZM106.021 642.926L103.486 652H101.341L99.6381 645.539L97.8571 652L95.7251 652.013L93.2811 642.926H95.2311L96.8301 649.972L98.6761 642.926H100.704L102.446 649.933L104.058 642.926H106.021ZM111.266 644.694C111.812 644.694 112.297 644.815 112.722 645.058C113.146 645.292 113.476 645.643 113.71 646.111C113.952 646.57 114.074 647.125 114.074 647.775V652H112.254V648.022C112.254 647.45 112.111 647.012 111.825 646.709C111.539 646.397 111.149 646.241 110.655 646.241C110.152 646.241 109.753 646.397 109.459 646.709C109.173 647.012 109.03 647.45 109.03 648.022V652H107.21V642.38H109.03V645.695C109.264 645.383 109.576 645.14 109.966 644.967C110.356 644.785 110.789 644.694 111.266 644.694ZM116.727 643.94C116.407 643.94 116.138 643.84 115.921 643.641C115.713 643.433 115.609 643.177 115.609 642.874C115.609 642.571 115.713 642.319 115.921 642.12C116.138 641.912 116.407 641.808 116.727 641.808C117.048 641.808 117.312 641.912 117.52 642.12C117.737 642.319 117.845 642.571 117.845 642.874C117.845 643.177 117.737 643.433 117.52 643.641C117.312 643.84 117.048 643.94 116.727 643.94ZM117.624 644.798V652H115.804V644.798H117.624ZM121.541 646.293V649.777C121.541 650.02 121.598 650.197 121.71 650.31C121.832 650.414 122.031 650.466 122.308 650.466H123.153V652H122.009C120.475 652 119.708 651.255 119.708 649.764V646.293H118.85V644.798H119.708V643.017H121.541V644.798H123.153V646.293H121.541ZM131.157 648.243C131.157 648.503 131.14 648.737 131.105 648.945H125.84C125.884 649.465 126.066 649.872 126.386 650.167C126.707 650.462 127.101 650.609 127.569 650.609C128.245 650.609 128.726 650.319 129.012 649.738H130.975C130.767 650.431 130.369 651.003 129.779 651.454C129.19 651.896 128.466 652.117 127.608 652.117C126.915 652.117 126.291 651.965 125.736 651.662C125.19 651.35 124.761 650.912 124.449 650.349C124.146 649.786 123.994 649.136 123.994 648.399C123.994 647.654 124.146 646.999 124.449 646.436C124.753 645.873 125.177 645.439 125.723 645.136C126.269 644.833 126.898 644.681 127.608 644.681C128.293 644.681 128.904 644.828 129.441 645.123C129.987 645.418 130.408 645.838 130.702 646.384C131.006 646.921 131.157 647.541 131.157 648.243ZM129.272 647.723C129.264 647.255 129.095 646.882 128.765 646.605C128.436 646.319 128.033 646.176 127.556 646.176C127.106 646.176 126.724 646.315 126.412 646.592C126.109 646.861 125.923 647.238 125.853 647.723H129.272Z" fill="#555555"/>
<path d="M475.229 642.926L472.694 652H470.549L468.846 645.539L467.065 652L464.933 652.013L462.489 642.926H464.439L466.038 649.972L467.884 642.926H469.912L471.654 649.933L473.266 642.926H475.229ZM480.474 644.694C481.02 644.694 481.505 644.815 481.93 645.058C482.354 645.292 482.684 645.643 482.918 646.111C483.16 646.57 483.282 647.125 483.282 647.775V652H481.462V648.022C481.462 647.45 481.319 647.012 481.033 646.709C480.747 646.397 480.357 646.241 479.863 646.241C479.36 646.241 478.961 646.397 478.667 646.709C478.381 647.012 478.238 647.45 478.238 648.022V652H476.418V642.38H478.238V645.695C478.472 645.383 478.784 645.14 479.174 644.967C479.564 644.785 479.997 644.694 480.474 644.694ZM485.935 643.94C485.615 643.94 485.346 643.84 485.129 643.641C484.921 643.433 484.817 643.177 484.817 642.874C484.817 642.571 484.921 642.319 485.129 642.12C485.346 641.912 485.615 641.808 485.935 641.808C486.256 641.808 486.52 641.912 486.728 642.12C486.945 642.319 487.053 642.571 487.053 642.874C487.053 643.177 486.945 643.433 486.728 643.641C486.52 643.84 486.256 643.94 485.935 643.94ZM486.832 644.798V652H485.012V644.798H486.832ZM490.749 646.293V649.777C490.749 650.02 490.806 650.197 490.918 650.31C491.04 650.414 491.239 650.466 491.516 650.466H492.361V652H491.217C489.683 652 488.916 651.255 488.916 649.764V646.293H488.058V644.798H488.916V643.017H490.749V644.798H492.361V646.293H490.749ZM500.365 648.243C500.365 648.503 500.348 648.737 500.313 648.945H495.048C495.092 649.465 495.274 649.872 495.594 650.167C495.915 650.462 496.309 650.609 496.777 650.609C497.453 650.609 497.934 650.319 498.22 649.738H500.183C499.975 650.431 499.577 651.003 498.987 651.454C498.398 651.896 497.674 652.117 496.816 652.117C496.123 652.117 495.499 651.965 494.944 651.662C494.398 651.35 493.969 650.912 493.657 650.349C493.354 649.786 493.202 649.136 493.202 648.399C493.202 647.654 493.354 646.999 493.657 646.436C493.961 645.873 494.385 645.439 494.931 645.136C495.477 644.833 496.106 644.681 496.816 644.681C497.501 644.681 498.112 644.828 498.649 645.123C499.195 645.418 499.616 645.838 499.91 646.384C500.214 646.921 500.365 647.541 500.365 648.243ZM498.48 647.723C498.472 647.255 498.303 646.882 497.973 646.605C497.644 646.319 497.241 646.176 496.764 646.176C496.314 646.176 495.932 646.315 495.62 646.592C495.317 646.861 495.131 647.238 495.061 647.723H498.48Z" fill="#555555"/>
<path d="M439.58 237.45C439.58 236.557 439.779 235.76 440.178 235.058C440.585 234.347 441.135 233.797 441.829 233.407C442.531 233.008 443.315 232.809 444.182 232.809C445.196 232.809 446.084 233.069 446.847 233.589C447.609 234.109 448.142 234.828 448.446 235.747H446.353C446.145 235.314 445.85 234.989 445.469 234.772C445.096 234.555 444.663 234.447 444.169 234.447C443.64 234.447 443.168 234.573 442.752 234.824C442.344 235.067 442.024 235.413 441.79 235.864C441.564 236.315 441.452 236.843 441.452 237.45C441.452 238.048 441.564 238.577 441.79 239.036C442.024 239.487 442.344 239.838 442.752 240.089C443.168 240.332 443.64 240.453 444.169 240.453C444.663 240.453 445.096 240.345 445.469 240.128C445.85 239.903 446.145 239.573 446.353 239.14H448.446C448.142 240.067 447.609 240.791 446.847 241.311C446.093 241.822 445.204 242.078 444.182 242.078C443.315 242.078 442.531 241.883 441.829 241.493C441.135 241.094 440.585 240.544 440.178 239.842C439.779 239.14 439.58 238.343 439.58 237.45ZM450.923 233.94C450.602 233.94 450.334 233.84 450.117 233.641C449.909 233.433 449.805 233.177 449.805 232.874C449.805 232.571 449.909 232.319 450.117 232.12C450.334 231.912 450.602 231.808 450.923 231.808C451.244 231.808 451.508 231.912 451.716 232.12C451.933 232.319 452.041 232.571 452.041 232.874C452.041 233.177 451.933 233.433 451.716 233.641C451.508 233.84 451.244 233.94 450.923 233.94ZM451.82 234.798V242H450V234.798H451.82ZM455.737 236.293V239.777C455.737 240.02 455.794 240.197 455.906 240.31C456.028 240.414 456.227 240.466 456.504 240.466H457.349V242H456.205C454.671 242 453.904 241.255 453.904 239.764V236.293H453.046V234.798H453.904V233.017H455.737V234.798H457.349V236.293H455.737ZM460.478 235.916C460.712 235.535 461.016 235.236 461.388 235.019C461.77 234.802 462.203 234.694 462.688 234.694V236.605H462.207C461.635 236.605 461.202 236.739 460.907 237.008C460.621 237.277 460.478 237.745 460.478 238.412V242H458.658V234.798H460.478V235.916ZM467.112 242.117C466.419 242.117 465.795 241.965 465.24 241.662C464.685 241.35 464.248 240.912 463.927 240.349C463.615 239.786 463.459 239.136 463.459 238.399C463.459 237.662 463.619 237.012 463.94 236.449C464.269 235.886 464.716 235.452 465.279 235.149C465.842 234.837 466.471 234.681 467.164 234.681C467.857 234.681 468.486 234.837 469.049 235.149C469.612 235.452 470.054 235.886 470.375 236.449C470.704 237.012 470.869 237.662 470.869 238.399C470.869 239.136 470.7 239.786 470.362 240.349C470.033 240.912 469.582 241.35 469.01 241.662C468.447 241.965 467.814 242.117 467.112 242.117ZM467.112 240.531C467.441 240.531 467.749 240.453 468.035 240.297C468.33 240.132 468.564 239.89 468.737 239.569C468.91 239.248 468.997 238.858 468.997 238.399C468.997 237.714 468.815 237.19 468.451 236.826C468.096 236.453 467.658 236.267 467.138 236.267C466.618 236.267 466.18 236.453 465.825 236.826C465.478 237.19 465.305 237.714 465.305 238.399C465.305 239.084 465.474 239.612 465.812 239.985C466.159 240.349 466.592 240.531 467.112 240.531ZM476.195 234.694C477.053 234.694 477.746 234.967 478.275 235.513C478.804 236.05 479.068 236.804 479.068 237.775V242H477.248V238.022C477.248 237.45 477.105 237.012 476.819 236.709C476.533 236.397 476.143 236.241 475.649 236.241C475.146 236.241 474.748 236.397 474.453 236.709C474.167 237.012 474.024 237.45 474.024 238.022V242H472.204V234.798H474.024V235.695C474.267 235.383 474.574 235.14 474.947 234.967C475.328 234.785 475.744 234.694 476.195 234.694ZM490.215 235.656C490.007 235.275 489.721 234.984 489.357 234.785C488.993 234.586 488.568 234.486 488.083 234.486C487.545 234.486 487.069 234.607 486.653 234.85C486.237 235.093 485.912 235.439 485.678 235.89C485.444 236.341 485.327 236.861 485.327 237.45C485.327 238.057 485.444 238.585 485.678 239.036C485.92 239.487 486.254 239.833 486.679 240.076C487.103 240.319 487.597 240.44 488.161 240.44C488.854 240.44 489.422 240.258 489.864 239.894C490.306 239.521 490.596 239.006 490.735 238.347H487.615V236.956H492.529V238.542C492.407 239.175 492.147 239.76 491.749 240.297C491.35 240.834 490.834 241.268 490.202 241.597C489.578 241.918 488.876 242.078 488.096 242.078C487.22 242.078 486.427 241.883 485.717 241.493C485.015 241.094 484.46 240.544 484.053 239.842C483.654 239.14 483.455 238.343 483.455 237.45C483.455 236.557 483.654 235.76 484.053 235.058C484.46 234.347 485.015 233.797 485.717 233.407C486.427 233.008 487.216 232.809 488.083 232.809C489.105 232.809 489.994 233.06 490.748 233.563C491.502 234.057 492.022 234.755 492.308 235.656H490.215ZM495.695 235.916C495.929 235.535 496.232 235.236 496.605 235.019C496.986 234.802 497.42 234.694 497.905 234.694V236.605H497.424C496.852 236.605 496.419 236.739 496.124 237.008C495.838 237.277 495.695 237.745 495.695 238.412V242H493.875V234.798H495.695V235.916ZM505.826 238.243C505.826 238.503 505.809 238.737 505.774 238.945H500.509C500.552 239.465 500.734 239.872 501.055 240.167C501.376 240.462 501.77 240.609 502.238 240.609C502.914 240.609 503.395 240.319 503.681 239.738H505.644C505.436 240.431 505.037 241.003 504.448 241.454C503.859 241.896 503.135 242.117 502.277 242.117C501.584 242.117 500.96 241.965 500.405 241.662C499.859 241.35 499.43 240.912 499.118 240.349C498.815 239.786 498.663 239.136 498.663 238.399C498.663 237.654 498.815 236.999 499.118 236.436C499.421 235.873 499.846 235.439 500.392 235.136C500.938 234.833 501.566 234.681 502.277 234.681C502.962 234.681 503.573 234.828 504.11 235.123C504.656 235.418 505.076 235.838 505.371 236.384C505.674 236.921 505.826 237.541 505.826 238.243ZM503.941 237.723C503.932 237.255 503.763 236.882 503.434 236.605C503.105 236.319 502.702 236.176 502.225 236.176C501.774 236.176 501.393 236.315 501.081 236.592C500.778 236.861 500.591 237.238 500.522 237.723H503.941ZM513.849 238.243C513.849 238.503 513.832 238.737 513.797 238.945H508.532C508.576 239.465 508.758 239.872 509.078 240.167C509.399 240.462 509.793 240.609 510.261 240.609C510.937 240.609 511.418 240.319 511.704 239.738H513.667C513.459 240.431 513.061 241.003 512.471 241.454C511.882 241.896 511.158 242.117 510.3 242.117C509.607 242.117 508.983 241.965 508.428 241.662C507.882 241.35 507.453 240.912 507.141 240.349C506.838 239.786 506.686 239.136 506.686 238.399C506.686 237.654 506.838 236.999 507.141 236.436C507.445 235.873 507.869 235.439 508.415 235.136C508.961 234.833 509.59 234.681 510.3 234.681C510.985 234.681 511.596 234.828 512.133 235.123C512.679 235.418 513.1 235.838 513.394 236.384C513.698 236.921 513.849 237.541 513.849 238.243ZM511.964 237.723C511.956 237.255 511.787 236.882 511.457 236.605C511.128 236.319 510.725 236.176 510.248 236.176C509.798 236.176 509.416 236.315 509.104 236.592C508.801 236.861 508.615 237.238 508.545 237.723H511.964ZM519.169 234.694C520.027 234.694 520.72 234.967 521.249 235.513C521.777 236.05 522.042 236.804 522.042 237.775V242H520.222V238.022C520.222 237.45 520.079 237.012 519.793 236.709C519.507 236.397 519.117 236.241 518.623 236.241C518.12 236.241 517.721 236.397 517.427 236.709C517.141 237.012 516.998 237.45 516.998 238.022V242H515.178V234.798H516.998V235.695C517.24 235.383 517.548 235.14 517.921 234.967C518.302 234.785 518.718 234.694 519.169 234.694Z" fill="#555555"/>
<path d="M837.72 242L835.718 238.464H834.86V242H833.04V232.926H836.446C837.148 232.926 837.746 233.052 838.24 233.303C838.734 233.546 839.102 233.879 839.345 234.304C839.596 234.72 839.722 235.188 839.722 235.708C839.722 236.306 839.548 236.848 839.202 237.333C838.855 237.81 838.339 238.139 837.655 238.321L839.826 242H837.72ZM834.86 237.099H836.381C836.875 237.099 837.243 236.982 837.486 236.748C837.728 236.505 837.85 236.172 837.85 235.747C837.85 235.331 837.728 235.01 837.486 234.785C837.243 234.551 836.875 234.434 836.381 234.434H834.86V237.099ZM848.167 234.798V242H846.334V241.09C846.1 241.402 845.792 241.649 845.411 241.831C845.038 242.004 844.631 242.091 844.189 242.091C843.625 242.091 843.127 241.974 842.694 241.74C842.26 241.497 841.918 241.146 841.667 240.687C841.424 240.219 841.303 239.664 841.303 239.023V234.798H843.123V238.763C843.123 239.335 843.266 239.777 843.552 240.089C843.838 240.392 844.228 240.544 844.722 240.544C845.224 240.544 845.619 240.392 845.905 240.089C846.191 239.777 846.334 239.335 846.334 238.763V234.798H848.167ZM852.718 242.117C852.129 242.117 851.6 242.013 851.132 241.805C850.664 241.588 850.292 241.298 850.014 240.934C849.746 240.57 849.598 240.167 849.572 239.725H851.405C851.44 240.002 851.574 240.232 851.808 240.414C852.051 240.596 852.35 240.687 852.705 240.687C853.052 240.687 853.321 240.618 853.511 240.479C853.711 240.34 853.81 240.163 853.81 239.946C853.81 239.712 853.689 239.539 853.446 239.426C853.212 239.305 852.835 239.175 852.315 239.036C851.778 238.906 851.336 238.772 850.989 238.633C850.651 238.494 850.357 238.282 850.105 237.996C849.863 237.71 849.741 237.324 849.741 236.839C849.741 236.44 849.854 236.076 850.079 235.747C850.313 235.418 850.643 235.158 851.067 234.967C851.501 234.776 852.008 234.681 852.588 234.681C853.446 234.681 854.131 234.898 854.642 235.331C855.154 235.756 855.435 236.332 855.487 237.06H853.745C853.719 236.774 853.598 236.549 853.381 236.384C853.173 236.211 852.892 236.124 852.536 236.124C852.207 236.124 851.951 236.185 851.769 236.306C851.596 236.427 851.509 236.596 851.509 236.813C851.509 237.056 851.631 237.242 851.873 237.372C852.116 237.493 852.493 237.619 853.004 237.749C853.524 237.879 853.953 238.013 854.291 238.152C854.629 238.291 854.92 238.507 855.162 238.802C855.414 239.088 855.544 239.469 855.552 239.946C855.552 240.362 855.435 240.735 855.201 241.064C854.976 241.393 854.647 241.653 854.213 241.844C853.789 242.026 853.29 242.117 852.718 242.117ZM859.802 242.117C859.213 242.117 858.684 242.013 858.216 241.805C857.748 241.588 857.376 241.298 857.098 240.934C856.83 240.57 856.682 240.167 856.656 239.725H858.489C858.524 240.002 858.658 240.232 858.892 240.414C859.135 240.596 859.434 240.687 859.789 240.687C860.136 240.687 860.405 240.618 860.595 240.479C860.795 240.34 860.894 240.163 860.894 239.946C860.894 239.712 860.773 239.539 860.53 239.426C860.296 239.305 859.919 239.175 859.399 239.036C858.862 238.906 858.42 238.772 858.073 238.633C857.735 238.494 857.441 238.282 857.189 237.996C856.947 237.71 856.825 237.324 856.825 236.839C856.825 236.44 856.938 236.076 857.163 235.747C857.397 235.418 857.727 235.158 858.151 234.967C858.585 234.776 859.092 234.681 859.672 234.681C860.53 234.681 861.215 234.898 861.726 235.331C862.238 235.756 862.519 236.332 862.571 237.06H860.829C860.803 236.774 860.682 236.549 860.465 236.384C860.257 236.211 859.976 236.124 859.62 236.124C859.291 236.124 859.035 236.185 858.853 236.306C858.68 236.427 858.593 236.596 858.593 236.813C858.593 237.056 858.715 237.242 858.957 237.372C859.2 237.493 859.577 237.619 860.088 237.749C860.608 237.879 861.037 238.013 861.375 238.152C861.713 238.291 862.004 238.507 862.246 238.802C862.498 239.088 862.628 239.469 862.636 239.946C862.636 240.362 862.519 240.735 862.285 241.064C862.06 241.393 861.731 241.653 861.297 241.844C860.873 242.026 860.374 242.117 859.802 242.117ZM870.825 238.243C870.825 238.503 870.808 238.737 870.773 238.945H865.508C865.552 239.465 865.734 239.872 866.054 240.167C866.375 240.462 866.769 240.609 867.237 240.609C867.913 240.609 868.394 240.319 868.68 239.738H870.643C870.435 240.431 870.037 241.003 869.447 241.454C868.858 241.896 868.134 242.117 867.276 242.117C866.583 242.117 865.959 241.965 865.404 241.662C864.858 241.35 864.429 240.912 864.117 240.349C863.814 239.786 863.662 239.136 863.662 238.399C863.662 237.654 863.814 236.999 864.117 236.436C864.421 235.873 864.845 235.439 865.391 235.136C865.937 234.833 866.566 234.681 867.276 234.681C867.961 234.681 868.572 234.828 869.109 235.123C869.655 235.418 870.076 235.838 870.37 236.384C870.674 236.921 870.825 237.541 870.825 238.243ZM868.94 237.723C868.932 237.255 868.763 236.882 868.433 236.605C868.104 236.319 867.701 236.176 867.224 236.176C866.774 236.176 866.392 236.315 866.08 236.592C865.777 236.861 865.591 237.238 865.521 237.723H868.94ZM874.273 236.293V239.777C874.273 240.02 874.329 240.197 874.442 240.31C874.563 240.414 874.763 240.466 875.04 240.466H875.885V242H874.741C873.207 242 872.44 241.255 872.44 239.764V236.293H871.582V234.798H872.44V233.017H874.273V234.798H875.885V236.293H874.273ZM885.44 237.346C885.951 237.441 886.371 237.697 886.701 238.113C887.03 238.529 887.195 239.006 887.195 239.543C887.195 240.028 887.073 240.457 886.831 240.83C886.597 241.194 886.254 241.48 885.804 241.688C885.353 241.896 884.82 242 884.205 242H880.292V232.926H884.036C884.651 232.926 885.18 233.026 885.622 233.225C886.072 233.424 886.41 233.702 886.636 234.057C886.87 234.412 886.987 234.815 886.987 235.266C886.987 235.795 886.844 236.237 886.558 236.592C886.28 236.947 885.908 237.199 885.44 237.346ZM882.112 236.67H883.776C884.209 236.67 884.543 236.575 884.777 236.384C885.011 236.185 885.128 235.903 885.128 235.539C885.128 235.175 885.011 234.893 884.777 234.694C884.543 234.495 884.209 234.395 883.776 234.395H882.112V236.67ZM883.945 240.518C884.387 240.518 884.729 240.414 884.972 240.206C885.223 239.998 885.349 239.703 885.349 239.322C885.349 238.932 885.219 238.629 884.959 238.412C884.699 238.187 884.348 238.074 883.906 238.074H882.112V240.518H883.945ZM890.465 235.916C890.699 235.535 891.002 235.236 891.375 235.019C891.756 234.802 892.19 234.694 892.675 234.694V236.605H892.194C891.622 236.605 891.189 236.739 890.894 237.008C890.608 237.277 890.465 237.745 890.465 238.412V242H888.645V234.798H890.465V235.916ZM897.099 242.117C896.406 242.117 895.782 241.965 895.227 241.662C894.672 241.35 894.235 240.912 893.914 240.349C893.602 239.786 893.446 239.136 893.446 238.399C893.446 237.662 893.606 237.012 893.927 236.449C894.256 235.886 894.703 235.452 895.266 235.149C895.829 234.837 896.458 234.681 897.151 234.681C897.844 234.681 898.473 234.837 899.036 235.149C899.599 235.452 900.041 235.886 900.362 236.449C900.691 237.012 900.856 237.662 900.856 238.399C900.856 239.136 900.687 239.786 900.349 240.349C900.02 240.912 899.569 241.35 898.997 241.662C898.434 241.965 897.801 242.117 897.099 242.117ZM897.099 240.531C897.428 240.531 897.736 240.453 898.022 240.297C898.317 240.132 898.551 239.89 898.724 239.569C898.897 239.248 898.984 238.858 898.984 238.399C898.984 237.714 898.802 237.19 898.438 236.826C898.083 236.453 897.645 236.267 897.125 236.267C896.605 236.267 896.167 236.453 895.812 236.826C895.465 237.19 895.292 237.714 895.292 238.399C895.292 239.084 895.461 239.612 895.799 239.985C896.146 240.349 896.579 240.531 897.099 240.531ZM912.175 234.798L910.069 242H908.106L906.793 236.969L905.48 242H903.504L901.385 234.798H903.231L904.505 240.284L905.883 234.798H907.807L909.159 240.271L910.433 234.798H912.175ZM917.151 234.694C918.009 234.694 918.702 234.967 919.231 235.513C919.759 236.05 920.024 236.804 920.024 237.775V242H918.204V238.022C918.204 237.45 918.061 237.012 917.775 236.709C917.489 236.397 917.099 236.241 916.605 236.241C916.102 236.241 915.703 236.397 915.409 236.709C915.123 237.012 914.98 237.45 914.98 238.022V242H913.16V234.798H914.98V235.695C915.222 235.383 915.53 235.14 915.903 234.967C916.284 234.785 916.7 234.694 917.151 234.694Z" fill="#555555"/>
<path d="M842.523 642.926C843.476 642.926 844.312 643.112 845.032 643.485C845.76 643.858 846.319 644.391 846.709 645.084C847.107 645.769 847.307 646.566 847.307 647.476C847.307 648.386 847.107 649.183 846.709 649.868C846.319 650.544 845.76 651.068 845.032 651.441C844.312 651.814 843.476 652 842.523 652H839.351V642.926H842.523ZM842.458 650.453C843.411 650.453 844.148 650.193 844.668 649.673C845.188 649.153 845.448 648.421 845.448 647.476C845.448 646.531 845.188 645.795 844.668 645.266C844.148 644.729 843.411 644.46 842.458 644.46H841.171V650.453H842.458ZM848.201 648.373C848.201 647.645 848.344 646.999 848.63 646.436C848.925 645.873 849.319 645.439 849.813 645.136C850.316 644.833 850.875 644.681 851.49 644.681C852.027 644.681 852.495 644.789 852.894 645.006C853.301 645.223 853.626 645.496 853.869 645.825V644.798H855.702V652H853.869V650.947C853.635 651.285 853.31 651.567 852.894 651.792C852.487 652.009 852.014 652.117 851.477 652.117C850.87 652.117 850.316 651.961 849.813 651.649C849.319 651.337 848.925 650.899 848.63 650.336C848.344 649.764 848.201 649.11 848.201 648.373ZM853.869 648.399C853.869 647.957 853.782 647.58 853.609 647.268C853.436 646.947 853.202 646.705 852.907 646.54C852.612 646.367 852.296 646.28 851.958 646.28C851.62 646.28 851.308 646.362 851.022 646.527C850.736 646.692 850.502 646.934 850.32 647.255C850.147 647.567 850.06 647.94 850.06 648.373C850.06 648.806 850.147 649.188 850.32 649.517C850.502 649.838 850.736 650.085 851.022 650.258C851.317 650.431 851.629 650.518 851.958 650.518C852.296 650.518 852.612 650.436 852.907 650.271C853.202 650.098 853.436 649.855 853.609 649.543C853.782 649.222 853.869 648.841 853.869 648.399ZM860.483 650.323L862.303 644.798H864.24L861.575 652H859.365L856.713 644.798H858.663L860.483 650.323ZM872.152 644.798L867.693 655.406H865.756L867.316 651.818L864.43 644.798H866.471L868.33 649.829L870.215 644.798H872.152ZM875.889 652.117C875.3 652.117 874.771 652.013 874.303 651.805C873.835 651.588 873.462 651.298 873.185 650.934C872.916 650.57 872.769 650.167 872.743 649.725H874.576C874.611 650.002 874.745 650.232 874.979 650.414C875.222 650.596 875.521 650.687 875.876 650.687C876.223 650.687 876.491 650.618 876.682 650.479C876.881 650.34 876.981 650.163 876.981 649.946C876.981 649.712 876.86 649.539 876.617 649.426C876.383 649.305 876.006 649.175 875.486 649.036C874.949 648.906 874.507 648.772 874.16 648.633C873.822 648.494 873.527 648.282 873.276 647.996C873.033 647.71 872.912 647.324 872.912 646.839C872.912 646.44 873.025 646.076 873.25 645.747C873.484 645.418 873.813 645.158 874.238 644.967C874.671 644.776 875.178 644.681 875.759 644.681C876.617 644.681 877.302 644.898 877.813 645.331C878.324 645.756 878.606 646.332 878.658 647.06H876.916C876.89 646.774 876.769 646.549 876.552 646.384C876.344 646.211 876.062 646.124 875.707 646.124C875.378 646.124 875.122 646.185 874.94 646.306C874.767 646.427 874.68 646.596 874.68 646.813C874.68 647.056 874.801 647.242 875.044 647.372C875.287 647.493 875.664 647.619 876.175 647.749C876.695 647.879 877.124 648.013 877.462 648.152C877.8 648.291 878.09 648.507 878.333 648.802C878.584 649.088 878.714 649.469 878.723 649.946C878.723 650.362 878.606 650.735 878.372 651.064C878.147 651.393 877.817 651.653 877.384 651.844C876.959 652.026 876.461 652.117 875.889 652.117ZM889.632 645.656C889.424 645.275 889.138 644.984 888.774 644.785C888.41 644.586 887.986 644.486 887.5 644.486C886.963 644.486 886.486 644.607 886.07 644.85C885.654 645.093 885.329 645.439 885.095 645.89C884.861 646.341 884.744 646.861 884.744 647.45C884.744 648.057 884.861 648.585 885.095 649.036C885.338 649.487 885.672 649.833 886.096 650.076C886.521 650.319 887.015 650.44 887.578 650.44C888.272 650.44 888.839 650.258 889.281 649.894C889.723 649.521 890.014 649.006 890.152 648.347H887.032V646.956H891.946V648.542C891.825 649.175 891.565 649.76 891.166 650.297C890.768 650.834 890.252 651.268 889.619 651.597C888.995 651.918 888.293 652.078 887.513 652.078C886.638 652.078 885.845 651.883 885.134 651.493C884.432 651.094 883.878 650.544 883.47 649.842C883.072 649.14 882.872 648.343 882.872 647.45C882.872 646.557 883.072 645.76 883.47 645.058C883.878 644.347 884.432 643.797 885.134 643.407C885.845 643.008 886.634 642.809 887.5 642.809C888.523 642.809 889.411 643.06 890.165 643.563C890.919 644.057 891.439 644.755 891.725 645.656H889.632ZM895.113 645.916C895.347 645.535 895.65 645.236 896.023 645.019C896.404 644.802 896.838 644.694 897.323 644.694V646.605H896.842C896.27 646.605 895.837 646.739 895.542 647.008C895.256 647.277 895.113 647.745 895.113 648.412V652H893.293V644.798H895.113V645.916ZM905.244 648.243C905.244 648.503 905.227 648.737 905.192 648.945H899.927C899.97 649.465 900.152 649.872 900.473 650.167C900.794 650.462 901.188 650.609 901.656 650.609C902.332 650.609 902.813 650.319 903.099 649.738H905.062C904.854 650.431 904.455 651.003 903.866 651.454C903.277 651.896 902.553 652.117 901.695 652.117C901.002 652.117 900.378 651.965 899.823 651.662C899.277 651.35 898.848 650.912 898.536 650.349C898.233 649.786 898.081 649.136 898.081 648.399C898.081 647.654 898.233 646.999 898.536 646.436C898.839 645.873 899.264 645.439 899.81 645.136C900.356 644.833 900.984 644.681 901.695 644.681C902.38 644.681 902.991 644.828 903.528 645.123C904.074 645.418 904.494 645.838 904.789 646.384C905.092 646.921 905.244 647.541 905.244 648.243ZM903.359 647.723C903.35 647.255 903.181 646.882 902.852 646.605C902.523 646.319 902.12 646.176 901.643 646.176C901.192 646.176 900.811 646.315 900.499 646.592C900.196 646.861 900.009 647.238 899.94 647.723H903.359ZM913.462 644.798L909.003 655.406H907.066L908.626 651.818L905.74 644.798H907.781L909.64 649.829L911.525 644.798H913.462Z" fill="#555555"/>
<g filter="url(#filter0_d_103_743)">
<circle cx="92.807" cy="88.807" r="88.807" fill="#EB6A00"/>
</g>
<g filter="url(#filter1_d_103_743)">
<circle cx="92.807" cy="469.807" r="88.807" fill="#FFFAF1"/>
</g>
<g filter="url(#filter2_d_103_743)">
<circle cx="484.898" cy="88.807" r="88.807" fill="#999529"/>
</g>
<g filter="url(#filter3_d_103_743)">
<circle cx="876.989" cy="88.807" r="88.807" fill="#7D4D2B"/>
</g>
<g filter="url(#filter4_d_103_743)">
<circle cx="484.898" cy="469.807" r="88.807" fill="white"/>
</g>
<g filter="url(#filter5_d_103_743)">
<circle cx="876.989" cy="469.807" r="88.807" fill="#555555"/>
</g>
<defs>
<filter id="filter0_d_103_743" x="0" y="0" width="185.614" height="185.614" filterUnits="userSpaceOnUse" color-interpolation-filters="sRGB">
<feFlood flood-opacity="0" result="BackgroundImageFix"/>
<feColorMatrix in="SourceAlpha" type="matrix" values="0 0 0 0 0 0 0 0 0 0 0 0 0 0 0 0 0 0 127 0" result="hardAlpha"/>
<feOffset dy="4"/>
<feGaussianBlur stdDeviation="2"/>
<feComposite in2="hardAlpha" operator="out"/>
<feColorMatrix type="matrix" values="0 0 0 0 0 0 0 0 0 0 0 0 0 0 0 0 0 0 0.25 0"/>
<feBlend mode="normal" in2="BackgroundImageFix" result="effect1_dropShadow_103_743"/>
<feBlend mode="normal" in="SourceGraphic" in2="effect1_dropShadow_103_743" result="shape"/>
</filter>
<filter id="filter1_d_103_743" x="0" y="381" width="185.614" height="185.614" filterUnits="userSpaceOnUse" color-interpolation-filters="sRGB">
<feFlood flood-opacity="0" result="BackgroundImageFix"/>
<feColorMatrix in="SourceAlpha" type="matrix" values="0 0 0 0 0 0 0 0 0 0 0 0 0 0 0 0 0 0 127 0" result="hardAlpha"/>
<feOffset dy="4"/>
<feGaussianBlur stdDeviation="2"/>
<feComposite in2="hardAlpha" operator="out"/>
<feColorMatrix type="matrix" values="0 0 0 0 0 0 0 0 0 0 0 0 0 0 0 0 0 0 0.25 0"/>
<feBlend mode="normal" in2="BackgroundImageFix" result="effect1_dropShadow_103_743"/>
<feBlend mode="normal" in="SourceGraphic" in2="effect1_dropShadow_103_743" result="shape"/>
</filter>
<filter id="filter2_d_103_743" x="392.091" y="0" width="185.614" height="185.614" filterUnits="userSpaceOnUse" color-interpolation-filters="sRGB">
<feFlood flood-opacity="0" result="BackgroundImageFix"/>
<feColorMatrix in="SourceAlpha" type="matrix" values="0 0 0 0 0 0 0 0 0 0 0 0 0 0 0 0 0 0 127 0" result="hardAlpha"/>
<feOffset dy="4"/>
<feGaussianBlur stdDeviation="2"/>
<feComposite in2="hardAlpha" operator="out"/>
<feColorMatrix type="matrix" values="0 0 0 0 0 0 0 0 0 0 0 0 0 0 0 0 0 0 0.25 0"/>
<feBlend mode="normal" in2="BackgroundImageFix" result="effect1_dropShadow_103_743"/>
<feBlend mode="normal" in="SourceGraphic" in2="effect1_dropShadow_103_743" result="shape"/>
</filter>
<filter id="filter3_d_103_743" x="784.182" y="0" width="185.614" height="185.614" filterUnits="userSpaceOnUse" color-interpolation-filters="sRGB">
<feFlood flood-opacity="0" result="BackgroundImageFix"/>
<feColorMatrix in="SourceAlpha" type="matrix" values="0 0 0 0 0 0 0 0 0 0 0 0 0 0 0 0 0 0 127 0" result="hardAlpha"/>
<feOffset dy="4"/>
<feGaussianBlur stdDeviation="2"/>
<feComposite in2="hardAlpha" operator="out"/>
<feColorMatrix type="matrix" values="0 0 0 0 0 0 0 0 0 0 0 0 0 0 0 0 0 0 0.25 0"/>
<feBlend mode="normal" in2="BackgroundImageFix" result="effect1_dropShadow_103_743"/>
<feBlend mode="normal" in="SourceGraphic" in2="effect1_dropShadow_103_743" result="shape"/>
</filter>
<filter id="filter4_d_103_743" x="392.091" y="381" width="185.614" height="185.614" filterUnits="userSpaceOnUse" color-interpolation-filters="sRGB">
<feFlood flood-opacity="0" result="BackgroundImageFix"/>
<feColorMatrix in="SourceAlpha" type="matrix" values="0 0 0 0 0 0 0 0 0 0 0 0 0 0 0 0 0 0 127 0" result="hardAlpha"/>
<feOffset dy="4"/>
<feGaussianBlur stdDeviation="2"/>
<feComposite in2="hardAlpha" operator="out"/>
<feColorMatrix type="matrix" values="0 0 0 0 0 0 0 0 0 0 0 0 0 0 0 0 0 0 0.25 0"/>
<feBlend mode="normal" in2="BackgroundImageFix" result="effect1_dropShadow_103_743"/>
<feBlend mode="normal" in="SourceGraphic" in2="effect1_dropShadow_103_743" result="shape"/>
</filter>
<filter id="filter5_d_103_743" x="784.182" y="381" width="185.614" height="185.614" filterUnits="userSpaceOnUse" color-interpolation-filters="sRGB">
<feFlood flood-opacity="0" result="BackgroundImageFix"/>
<feColorMatrix in="SourceAlpha" type="matrix" values="0 0 0 0 0 0 0 0 0 0 0 0 0 0 0 0 0 0 127 0" result="hardAlpha"/>
<feOffset dy="4"/>
<feGaussianBlur stdDeviation="2"/>
<feComposite in2="hardAlpha" operator="out"/>
<feColorMatrix type="matrix" values="0 0 0 0 0 0 0 0 0 0 0 0 0 0 0 0 0 0 0.25 0"/>
<feBlend mode="normal" in2="BackgroundImageFix" result="effect1_dropShadow_103_743"/>
<feBlend mode="normal" in="SourceGraphic" in2="effect1_dropShadow_103_743" result="shape"/>
</filter>
</defs>
</svg>
