<svg width="296" height="86" viewBox="0 0 296 86" fill="none" xmlns="http://www.w3.org/2000/svg">
<g filter="url(#filter0_ddiiii_104_863)">
<rect x="3" y="3" width="290" height="80" rx="12" fill="white"/>
<rect x="3" y="3" width="290" height="80" rx="12" fill="#EB6A00"/>
<path d="M79.1 31.94V53H73.97V44.33H65.99V53H60.86V31.94H65.99V40.19H73.97V31.94H79.1ZM90.4234 53.24C88.7834 53.24 87.3034 52.89 85.9834 52.19C84.6834 51.49 83.6534 50.49 82.8934 49.19C82.1534 47.89 81.7834 46.37 81.7834 44.63C81.7834 42.91 82.1634 41.4 82.9234 40.1C83.6834 38.78 84.7234 37.77 86.0434 37.07C87.3634 36.37 88.8434 36.02 90.4834 36.02C92.1234 36.02 93.6034 36.37 94.9234 37.07C96.2434 37.77 97.2834 38.78 98.0434 40.1C98.8034 41.4 99.1834 42.91 99.1834 44.63C99.1834 46.35 98.7934 47.87 98.0134 49.19C97.2534 50.49 96.2034 51.49 94.8634 52.19C93.5434 52.89 92.0634 53.24 90.4234 53.24ZM90.4234 48.8C91.4034 48.8 92.2334 48.44 92.9134 47.72C93.6134 47 93.9634 45.97 93.9634 44.63C93.9634 43.29 93.6234 42.26 92.9434 41.54C92.2834 40.82 91.4634 40.46 90.4834 40.46C89.4834 40.46 88.6534 40.82 87.9934 41.54C87.3334 42.24 87.0034 43.27 87.0034 44.63C87.0034 45.97 87.3234 47 87.9634 47.72C88.6234 48.44 89.4434 48.8 90.4234 48.8ZM125.935 36.26L121.405 53H115.735L113.095 42.14L110.365 53H104.725L100.165 36.26H105.295L107.665 48.23L110.485 36.26H115.915L118.765 48.17L121.105 36.26H125.935ZM143.579 48.65V53H140.969C139.109 53 137.659 52.55 136.619 51.65C135.579 50.73 135.059 49.24 135.059 47.18V40.52H133.019V36.26H135.059V32.18H140.189V36.26H143.549V40.52H140.189V47.24C140.189 47.74 140.309 48.1 140.549 48.32C140.789 48.54 141.189 48.65 141.749 48.65H143.579ZM154.056 53.24C152.416 53.24 150.936 52.89 149.616 52.19C148.316 51.49 147.286 50.49 146.526 49.19C145.786 47.89 145.416 46.37 145.416 44.63C145.416 42.91 145.796 41.4 146.556 40.1C147.316 38.78 148.356 37.77 149.676 37.07C150.996 36.37 152.476 36.02 154.116 36.02C155.756 36.02 157.236 36.37 158.556 37.07C159.876 37.77 160.916 38.78 161.676 40.1C162.436 41.4 162.816 42.91 162.816 44.63C162.816 46.35 162.426 47.87 161.646 49.19C160.886 50.49 159.836 51.49 158.496 52.19C157.176 52.89 155.696 53.24 154.056 53.24ZM154.056 48.8C155.036 48.8 155.866 48.44 156.546 47.72C157.246 47 157.596 45.97 157.596 44.63C157.596 43.29 157.256 42.26 156.576 41.54C155.916 40.82 155.096 40.46 154.116 40.46C153.116 40.46 152.286 40.82 151.626 41.54C150.966 42.24 150.636 43.27 150.636 44.63C150.636 45.97 150.956 47 151.596 47.72C152.256 48.44 153.076 48.8 154.056 48.8ZM187.945 38.72C187.945 39.94 187.665 41.06 187.105 42.08C186.545 43.08 185.685 43.89 184.525 44.51C183.365 45.13 181.925 45.44 180.205 45.44H177.025V53H171.895V31.94H180.205C181.885 31.94 183.305 32.23 184.465 32.81C185.625 33.39 186.495 34.19 187.075 35.21C187.655 36.23 187.945 37.4 187.945 38.72ZM179.815 41.36C180.795 41.36 181.525 41.13 182.005 40.67C182.485 40.21 182.725 39.56 182.725 38.72C182.725 37.88 182.485 37.23 182.005 36.77C181.525 36.31 180.795 36.08 179.815 36.08H177.025V41.36H179.815ZM195.746 30.8V53H190.616V30.8H195.746ZM198.444 44.6C198.444 42.88 198.764 41.37 199.404 40.07C200.064 38.77 200.954 37.77 202.074 37.07C203.194 36.37 204.444 36.02 205.824 36.02C207.004 36.02 208.034 36.26 208.914 36.74C209.814 37.22 210.504 37.85 210.984 38.63V36.26H216.114V53H210.984V50.63C210.484 51.41 209.784 52.04 208.884 52.52C208.004 53 206.974 53.24 205.794 53.24C204.434 53.24 203.194 52.89 202.074 52.19C200.954 51.47 200.064 50.46 199.404 49.16C198.764 47.84 198.444 46.32 198.444 44.6ZM210.984 44.63C210.984 43.35 210.624 42.34 209.904 41.6C209.204 40.86 208.344 40.49 207.324 40.49C206.304 40.49 205.434 40.86 204.714 41.6C204.014 42.32 203.664 43.32 203.664 44.6C203.664 45.88 204.014 46.9 204.714 47.66C205.434 48.4 206.304 48.77 207.324 48.77C208.344 48.77 209.204 48.4 209.904 47.66C210.624 46.92 210.984 45.91 210.984 44.63ZM236.925 36.26L226.425 60.95H220.905L224.745 52.43L217.935 36.26H223.665L227.535 46.73L231.375 36.26H236.925Z" fill="white"/>
</g>
<defs>
<filter id="filter0_ddiiii_104_863" x="-2" y="-2" width="300" height="90" filterUnits="userSpaceOnUse" color-interpolation-filters="sRGB">
<feFlood flood-opacity="0" result="BackgroundImageFix"/>
<feColorMatrix in="SourceAlpha" type="matrix" values="0 0 0 0 0 0 0 0 0 0 0 0 0 0 0 0 0 0 127 0" result="hardAlpha"/>
<feOffset dx="-1" dy="-1"/>
<feGaussianBlur stdDeviation="1"/>
<feColorMatrix type="matrix" values="0 0 0 0 0.901961 0 0 0 0 0.901961 0 0 0 0 0.901961 0 0 0 0.5 0"/>
<feBlend mode="normal" in2="BackgroundImageFix" result="effect1_dropShadow_104_863"/>
<feColorMatrix in="SourceAlpha" type="matrix" values="0 0 0 0 0 0 0 0 0 0 0 0 0 0 0 0 0 0 127 0" result="hardAlpha"/>
<feOffset dx="1" dy="1"/>
<feGaussianBlur stdDeviation="1"/>
<feColorMatrix type="matrix" values="0 0 0 0 1 0 0 0 0 1 0 0 0 0 1 0 0 0 0.3 0"/>
<feBlend mode="normal" in2="effect1_dropShadow_104_863" result="effect2_dropShadow_104_863"/>
<feBlend mode="normal" in="SourceGraphic" in2="effect2_dropShadow_104_863" result="shape"/>
<feColorMatrix in="SourceAlpha" type="matrix" values="0 0 0 0 0 0 0 0 0 0 0 0 0 0 0 0 0 0 127 0" result="hardAlpha"/>
<feOffset dx="5" dy="5"/>
<feGaussianBlur stdDeviation="6.5"/>
<feComposite in2="hardAlpha" operator="arithmetic" k2="-1" k3="1"/>
<feColorMatrix type="matrix" values="0 0 0 0 0.901961 0 0 0 0 0.901961 0 0 0 0 0.901961 0 0 0 0.9 0"/>
<feBlend mode="normal" in2="shape" result="effect3_innerShadow_104_863"/>
<feColorMatrix in="SourceAlpha" type="matrix" values="0 0 0 0 0 0 0 0 0 0 0 0 0 0 0 0 0 0 127 0" result="hardAlpha"/>
<feOffset dx="-5" dy="-5"/>
<feGaussianBlur stdDeviation="5"/>
<feComposite in2="hardAlpha" operator="arithmetic" k2="-1" k3="1"/>
<feColorMatrix type="matrix" values="0 0 0 0 1 0 0 0 0 1 0 0 0 0 1 0 0 0 0.9 0"/>
<feBlend mode="normal" in2="effect3_innerShadow_104_863" result="effect4_innerShadow_104_863"/>
<feColorMatrix in="SourceAlpha" type="matrix" values="0 0 0 0 0 0 0 0 0 0 0 0 0 0 0 0 0 0 127 0" result="hardAlpha"/>
<feOffset dx="5" dy="-5"/>
<feGaussianBlur stdDeviation="5"/>
<feComposite in2="hardAlpha" operator="arithmetic" k2="-1" k3="1"/>
<feColorMatrix type="matrix" values="0 0 0 0 0.901961 0 0 0 0 0.901961 0 0 0 0 0.901961 0 0 0 0.2 0"/>
<feBlend mode="normal" in2="effect4_innerShadow_104_863" result="effect5_innerShadow_104_863"/>
<feColorMatrix in="SourceAlpha" type="matrix" values="0 0 0 0 0 0 0 0 0 0 0 0 0 0 0 0 0 0 127 0" result="hardAlpha"/>
<feOffset dx="-5" dy="5"/>
<feGaussianBlur stdDeviation="5"/>
<feComposite in2="hardAlpha" operator="arithmetic" k2="-1" k3="1"/>
<feColorMatrix type="matrix" values="0 0 0 0 0.901961 0 0 0 0 0.901961 0 0 0 0 0.901961 0 0 0 0.2 0"/>
<feBlend mode="normal" in2="effect5_innerShadow_104_863" result="effect6_innerShadow_104_863"/>
</filter>
</defs>
</svg>
