<svg width="111" height="64" viewBox="0 0 111 64" fill="none" xmlns="http://www.w3.org/2000/svg">
<rect width="110.429" height="63.5897" rx="12" fill="#EB6A00"/>
<path d="M22.982 35.768H18.266L17.51 38H14.288L18.86 25.364H22.424L26.996 38H23.738L22.982 35.768ZM22.19 33.392L20.624 28.766L19.076 33.392H22.19ZM34.5075 27.848C35.6835 27.848 36.6195 28.232 37.3155 29C38.0235 29.756 38.3775 30.8 38.3775 32.132V38H35.3175V32.546C35.3175 31.874 35.1435 31.352 34.7955 30.98C34.4475 30.608 33.9795 30.422 33.3915 30.422C32.8035 30.422 32.3355 30.608 31.9875 30.98C31.6395 31.352 31.4655 31.874 31.4655 32.546V38H28.3875V27.956H31.4655V29.288C31.7775 28.844 32.1975 28.496 32.7255 28.244C33.2535 27.98 33.8475 27.848 34.5075 27.848ZM44.6024 38.144C43.7264 38.144 42.9464 37.994 42.2624 37.694C41.5784 37.394 41.0384 36.986 40.6424 36.47C40.2464 35.942 40.0244 35.354 39.9764 34.706H43.0184C43.0544 35.054 43.2164 35.336 43.5044 35.552C43.7924 35.768 44.1464 35.876 44.5664 35.876C44.9504 35.876 45.2444 35.804 45.4484 35.66C45.6644 35.504 45.7724 35.306 45.7724 35.066C45.7724 34.778 45.6224 34.568 45.3224 34.436C45.0224 34.292 44.5364 34.136 43.8644 33.968C43.1444 33.8 42.5444 33.626 42.0644 33.446C41.5844 33.254 41.1704 32.96 40.8224 32.564C40.4744 32.156 40.3004 31.61 40.3004 30.926C40.3004 30.35 40.4564 29.828 40.7684 29.36C41.0924 28.88 41.5604 28.502 42.1724 28.226C42.7964 27.95 43.5344 27.812 44.3864 27.812C45.6464 27.812 46.6364 28.124 47.3564 28.748C48.0884 29.372 48.5084 30.2 48.6164 31.232H45.7724C45.7244 30.884 45.5684 30.608 45.3044 30.404C45.0524 30.2 44.7164 30.098 44.2964 30.098C43.9364 30.098 43.6604 30.17 43.4684 30.314C43.2764 30.446 43.1804 30.632 43.1804 30.872C43.1804 31.16 43.3304 31.376 43.6304 31.52C43.9424 31.664 44.4224 31.808 45.0704 31.952C45.8144 32.144 46.4204 32.336 46.8884 32.528C47.3564 32.708 47.7644 33.008 48.1124 33.428C48.4724 33.836 48.6584 34.388 48.6704 35.084C48.6704 35.672 48.5024 36.2 48.1664 36.668C47.8424 37.124 47.3684 37.484 46.7444 37.748C46.1324 38.012 45.4184 38.144 44.6024 38.144ZM64.9715 27.956L62.2535 38H58.8515L57.2675 31.484L55.6295 38H52.2455L49.5095 27.956H52.5875L54.0095 35.138L55.7015 27.956H58.9595L60.6695 35.102L62.0735 27.956H64.9715ZM75.6133 32.816C75.6133 33.104 75.5953 33.404 75.5593 33.716H68.5933C68.6413 34.34 68.8393 34.82 69.1873 35.156C69.5473 35.48 69.9853 35.642 70.5013 35.642C71.2693 35.642 71.8033 35.318 72.1033 34.67H75.3793C75.2113 35.33 74.9053 35.924 74.4613 36.452C74.0293 36.98 73.4833 37.394 72.8233 37.694C72.1633 37.994 71.4253 38.144 70.6093 38.144C69.6253 38.144 68.7493 37.934 67.9813 37.514C67.2133 37.094 66.6133 36.494 66.1813 35.714C65.7493 34.934 65.5333 34.022 65.5333 32.978C65.5333 31.934 65.7433 31.022 66.1633 30.242C66.5953 29.462 67.1953 28.862 67.9633 28.442C68.7313 28.022 69.6133 27.812 70.6093 27.812C71.5813 27.812 72.4453 28.016 73.2013 28.424C73.9573 28.832 74.5453 29.414 74.9653 30.17C75.3973 30.926 75.6133 31.808 75.6133 32.816ZM72.4633 32.006C72.4633 31.478 72.2833 31.058 71.9233 30.746C71.5633 30.434 71.1133 30.278 70.5733 30.278C70.0573 30.278 69.6193 30.428 69.2593 30.728C68.9113 31.028 68.6953 31.454 68.6113 32.006H72.4633ZM80.3151 29.63C80.6751 29.078 81.1251 28.646 81.6651 28.334C82.2051 28.01 82.8051 27.848 83.4651 27.848V31.106H82.6191C81.8511 31.106 81.2751 31.274 80.8911 31.61C80.5071 31.934 80.3151 32.51 80.3151 33.338V38H77.2371V27.956H80.3151V29.63ZM88.1208 27.722V24.86H93.1068V38H89.9028V27.722H88.1208Z" fill="white"/>
</svg>
