<svg width="264" height="55" viewBox="0 0 264 55" fill="none" xmlns="http://www.w3.org/2000/svg">
<rect width="264" height="54.6294" rx="12" fill="#EB6A00"/>
<path d="M89.9583 27.664C89.9583 26.416 90.2283 25.306 90.7683 24.334C91.3083 23.35 92.0583 22.588 93.0183 22.048C93.9903 21.496 95.0883 21.22 96.3123 21.22C97.8123 21.22 99.0963 21.616 100.164 22.408C101.232 23.2 101.946 24.28 102.306 25.648H98.9223C98.6703 25.12 98.3103 24.718 97.8423 24.442C97.3863 24.166 96.8643 24.028 96.2763 24.028C95.3283 24.028 94.5603 24.358 93.9723 25.018C93.3843 25.678 93.0903 26.56 93.0903 27.664C93.0903 28.768 93.3843 29.65 93.9723 30.31C94.5603 30.97 95.3283 31.3 96.2763 31.3C96.8643 31.3 97.3863 31.162 97.8423 30.886C98.3103 30.61 98.6703 30.208 98.9223 29.68H102.306C101.946 31.048 101.232 32.128 100.164 32.92C99.0963 33.7 97.8123 34.09 96.3123 34.09C95.0883 34.09 93.9903 33.82 93.0183 33.28C92.0583 32.728 91.3083 31.966 90.7683 30.994C90.2283 30.022 89.9583 28.912 89.9583 27.664ZM108.763 34.144C107.779 34.144 106.891 33.934 106.099 33.514C105.319 33.094 104.701 32.494 104.245 31.714C103.801 30.934 103.579 30.022 103.579 28.978C103.579 27.946 103.807 27.04 104.263 26.26C104.719 25.468 105.343 24.862 106.135 24.442C106.927 24.022 107.815 23.812 108.799 23.812C109.783 23.812 110.671 24.022 111.463 24.442C112.255 24.862 112.879 25.468 113.335 26.26C113.791 27.04 114.019 27.946 114.019 28.978C114.019 30.01 113.785 30.922 113.317 31.714C112.861 32.494 112.231 33.094 111.427 33.514C110.635 33.934 109.747 34.144 108.763 34.144ZM108.763 31.48C109.351 31.48 109.849 31.264 110.257 30.832C110.677 30.4 110.887 29.782 110.887 28.978C110.887 28.174 110.683 27.556 110.275 27.124C109.879 26.692 109.387 26.476 108.799 26.476C108.199 26.476 107.701 26.692 107.305 27.124C106.909 27.544 106.711 28.162 106.711 28.978C106.711 29.782 106.903 30.4 107.287 30.832C107.683 31.264 108.175 31.48 108.763 31.48ZM121.772 23.848C122.948 23.848 123.884 24.232 124.58 25C125.288 25.756 125.642 26.8 125.642 28.132V34H122.582V28.546C122.582 27.874 122.408 27.352 122.06 26.98C121.712 26.608 121.244 26.422 120.656 26.422C120.068 26.422 119.6 26.608 119.252 26.98C118.904 27.352 118.73 27.874 118.73 28.546V34H115.652V23.956H118.73V25.288C119.042 24.844 119.462 24.496 119.99 24.244C120.518 23.98 121.112 23.848 121.772 23.848ZM133.379 31.39V34H131.813C130.697 34 129.827 33.73 129.203 33.19C128.579 32.638 128.267 31.744 128.267 30.508V26.512H127.043V23.956H128.267V21.508H131.345V23.956H133.361V26.512H131.345V30.544C131.345 30.844 131.417 31.06 131.561 31.192C131.705 31.324 131.945 31.39 132.281 31.39H133.379ZM136.642 22.912C136.102 22.912 135.658 22.756 135.31 22.444C134.974 22.12 134.806 21.724 134.806 21.256C134.806 20.776 134.974 20.38 135.31 20.068C135.658 19.744 136.102 19.582 136.642 19.582C137.17 19.582 137.602 19.744 137.938 20.068C138.286 20.38 138.46 20.776 138.46 21.256C138.46 21.724 138.286 22.12 137.938 22.444C137.602 22.756 137.17 22.912 136.642 22.912ZM138.172 23.956V34H135.094V23.956H138.172ZM146.522 23.848C147.698 23.848 148.634 24.232 149.33 25C150.038 25.756 150.392 26.8 150.392 28.132V34H147.332V28.546C147.332 27.874 147.158 27.352 146.81 26.98C146.462 26.608 145.994 26.422 145.406 26.422C144.818 26.422 144.35 26.608 144.002 26.98C143.654 27.352 143.48 27.874 143.48 28.546V34H140.402V23.956H143.48V25.288C143.792 24.844 144.212 24.496 144.74 24.244C145.268 23.98 145.862 23.848 146.522 23.848ZM162.449 23.956V34H159.371V32.632C159.059 33.076 158.633 33.436 158.093 33.712C157.565 33.976 156.977 34.108 156.329 34.108C155.561 34.108 154.883 33.94 154.295 33.604C153.707 33.256 153.251 32.758 152.927 32.11C152.603 31.462 152.441 30.7 152.441 29.824V23.956H155.501V29.41C155.501 30.082 155.675 30.604 156.023 30.976C156.371 31.348 156.839 31.534 157.427 31.534C158.027 31.534 158.501 31.348 158.849 30.976C159.197 30.604 159.371 30.082 159.371 29.41V23.956H162.449ZM174.128 28.816C174.128 29.104 174.11 29.404 174.074 29.716H167.108C167.156 30.34 167.354 30.82 167.702 31.156C168.062 31.48 168.5 31.642 169.016 31.642C169.784 31.642 170.318 31.318 170.618 30.67H173.894C173.726 31.33 173.42 31.924 172.976 32.452C172.544 32.98 171.998 33.394 171.338 33.694C170.678 33.994 169.94 34.144 169.124 34.144C168.14 34.144 167.264 33.934 166.496 33.514C165.728 33.094 165.128 32.494 164.696 31.714C164.264 30.934 164.048 30.022 164.048 28.978C164.048 27.934 164.258 27.022 164.678 26.242C165.11 25.462 165.71 24.862 166.478 24.442C167.246 24.022 168.128 23.812 169.124 23.812C170.096 23.812 170.96 24.016 171.716 24.424C172.472 24.832 173.06 25.414 173.48 26.17C173.912 26.926 174.128 27.808 174.128 28.816ZM170.978 28.006C170.978 27.478 170.798 27.058 170.438 26.746C170.078 26.434 169.628 26.278 169.088 26.278C168.572 26.278 168.134 26.428 167.774 26.728C167.426 27.028 167.21 27.454 167.126 28.006H170.978Z" fill="white"/>
</svg>
