<svg width="122" height="57" viewBox="0 0 122 57" fill="none" xmlns="http://www.w3.org/2000/svg">
<rect width="121.006" height="56.1886" rx="12" fill="#EB6A00"/>
<path d="M63.6487 23.3161V35.8801H61.1287V30.5341H55.7467V35.8801H53.2267V23.3161H55.7467V28.4821H61.1287V23.3161H63.6487ZM70.557 36.0421C69.597 36.0421 68.733 35.8321 67.965 35.4121C67.197 34.9801 66.591 34.3741 66.147 33.5941C65.715 32.8141 65.499 31.9141 65.499 30.8941C65.499 29.8741 65.721 28.9741 66.165 28.1941C66.621 27.4141 67.239 26.8141 68.019 26.3941C68.799 25.9621 69.669 25.7461 70.629 25.7461C71.589 25.7461 72.459 25.9621 73.239 26.3941C74.019 26.8141 74.631 27.4141 75.075 28.1941C75.531 28.9741 75.759 29.8741 75.759 30.8941C75.759 31.9141 75.525 32.8141 75.057 33.5941C74.601 34.3741 73.977 34.9801 73.185 35.4121C72.405 35.8321 71.529 36.0421 70.557 36.0421ZM70.557 33.8461C71.013 33.8461 71.439 33.7381 71.835 33.5221C72.243 33.2941 72.567 32.9581 72.807 32.5141C73.047 32.0701 73.167 31.5301 73.167 30.8941C73.167 29.9461 72.915 29.2201 72.411 28.7161C71.919 28.2001 71.313 27.9421 70.593 27.9421C69.873 27.9421 69.267 28.2001 68.775 28.7161C68.295 29.2201 68.055 29.9461 68.055 30.8941C68.055 31.8421 68.289 32.5741 68.757 33.0901C69.237 33.5941 69.837 33.8461 70.557 33.8461ZM89.9915 25.7641C91.2155 25.7641 92.1995 26.1421 92.9435 26.8981C93.6995 27.6421 94.0775 28.6861 94.0775 30.0301V35.8801H91.5575V30.3721C91.5575 29.5921 91.3595 28.9981 90.9635 28.5901C90.5675 28.1701 90.0275 27.9601 89.3435 27.9601C88.6595 27.9601 88.1135 28.1701 87.7055 28.5901C87.3095 28.9981 87.1115 29.5921 87.1115 30.3721V35.8801H84.5915V30.3721C84.5915 29.5921 84.3935 28.9981 83.9975 28.5901C83.6015 28.1701 83.0615 27.9601 82.3775 27.9601C81.6815 27.9601 81.1295 28.1701 80.7215 28.5901C80.3255 28.9981 80.1275 29.5921 80.1275 30.3721V35.8801H77.6075V25.9081H80.1275V27.1141C80.4515 26.6941 80.8655 26.3641 81.3695 26.1241C81.8855 25.8841 82.4495 25.7641 83.0615 25.7641C83.8415 25.7641 84.5375 25.9321 85.1495 26.2681C85.7615 26.5921 86.2355 27.0601 86.5715 27.6721C86.8955 27.0961 87.3635 26.6341 87.9755 26.2861C88.5995 25.9381 89.2715 25.7641 89.9915 25.7641ZM105.739 30.6781C105.739 31.0381 105.715 31.3621 105.667 31.6501H98.3769C98.4369 32.3701 98.6889 32.9341 99.1329 33.3421C99.5769 33.7501 100.123 33.9541 100.771 33.9541C101.707 33.9541 102.373 33.5521 102.769 32.7481H105.487C105.199 33.7081 104.647 34.5001 103.831 35.1241C103.015 35.7361 102.013 36.0421 100.825 36.0421C99.8649 36.0421 99.0009 35.8321 98.2329 35.4121C97.4769 34.9801 96.8829 34.3741 96.4509 33.5941C96.0309 32.8141 95.8209 31.9141 95.8209 30.8941C95.8209 29.8621 96.0309 28.9561 96.4509 28.1761C96.8709 27.3961 97.4589 26.7961 98.2149 26.3761C98.9709 25.9561 99.8409 25.7461 100.825 25.7461C101.773 25.7461 102.619 25.9501 103.363 26.3581C104.119 26.7661 104.701 27.3481 105.109 28.1041C105.529 28.8481 105.739 29.7061 105.739 30.6781ZM103.129 29.9581C103.117 29.3101 102.883 28.7941 102.427 28.4101C101.971 28.0141 101.413 27.8161 100.753 27.8161C100.129 27.8161 99.6009 28.0081 99.1689 28.3921C98.7489 28.7641 98.4909 29.2861 98.3949 29.9581H103.129Z" fill="white"/>
<path fill-rule="evenodd" clip-rule="evenodd" d="M29.4929 14.517C29.0928 14.1092 28.5503 13.8801 27.9847 13.8801C27.419 13.8801 26.8765 14.1092 26.4765 14.517L12.2967 28.9723C12.0967 29.1765 11.9845 29.4534 11.9847 29.742C11.9849 30.0306 12.0975 30.3073 12.2978 30.5112C12.4981 30.7151 12.7696 30.8295 13.0527 30.8293C13.3357 30.8291 13.6071 30.7143 13.8071 30.5101L15.1852 29.105V40.6176C15.1852 41.4828 15.5223 42.3127 16.1224 42.9245C16.7225 43.5364 17.5364 43.8801 18.385 43.8801H37.5843C38.433 43.8801 39.2469 43.5364 39.847 42.9245C40.4471 42.3127 40.7842 41.4828 40.7842 40.6176V29.105L42.1623 30.5101C42.3623 30.7143 42.6337 30.8291 42.9167 30.8293C43.1997 30.8295 43.4713 30.7151 43.6716 30.5112C43.8718 30.3073 43.9845 30.0306 43.9847 29.742C43.9849 29.4534 43.8726 29.1765 43.6726 28.9723L38.6509 23.8544V16.692C38.6509 16.4036 38.5386 16.127 38.3385 15.923C38.1385 15.7191 37.8672 15.6045 37.5843 15.6045H35.4511C35.1682 15.6045 34.8969 15.7191 34.6968 15.923C34.4968 16.127 34.3844 16.4036 34.3844 16.692V19.5043L29.4929 14.517ZM38.6509 26.93L27.9847 16.0547L17.3184 26.93V40.6176C17.3184 40.906 17.4308 41.1826 17.6308 41.3865C17.8308 41.5905 18.1021 41.7051 18.385 41.7051H37.5843C37.8672 41.7051 38.1385 41.5905 38.3385 41.3865C38.5386 41.1826 38.6509 40.906 38.6509 40.6176V26.93ZM27.9847 26.4406C31.5344 22.8017 40.4109 29.1681 27.9847 37.355C15.5585 29.1681 24.4349 22.8017 27.9847 26.4406Z" fill="white"/>
</svg>
