<svg width="1081" height="110" viewBox="0 0 1081 110" fill="none" xmlns="http://www.w3.org/2000/svg">
<g clip-path="url(#clip0_96_490)">
<rect width="1081" height="110" fill="white"/>
<rect x="540" width="541" height="702" fill="#999529"/>
<rect x="1" width="541" height="702" fill="#FFFAF1"/>
<path d="M986 41L998 53L986 65" stroke="#FFF8EC" stroke-width="6" stroke-linecap="round" stroke-linejoin="round"/>
<path d="M951 41L939 53L951 65" stroke="#FFF8EC" stroke-width="6" stroke-linecap="round" stroke-linejoin="round"/>
<path d="M884.72 52.58L895.22 63.08L912.72 42.08" stroke="white" stroke-width="8" stroke-linecap="round" stroke-linejoin="round"/>
<path fill-rule="evenodd" clip-rule="evenodd" d="M834.697 35.7027C834.247 35.2527 833.636 35 833 35C832.364 35 831.753 35.2527 831.303 35.7027L814.196 52.6525C813.971 52.8778 813.845 53.1833 813.845 53.5017C813.845 53.8201 813.972 54.1254 814.197 54.3504C814.423 54.5754 814.728 54.7017 815.047 54.7015C815.365 54.7012 815.67 54.5745 815.895 54.3492L817.446 52.7989V65.5016C817.446 66.4563 817.825 67.372 818.5 68.0471C819.175 68.7222 820.091 69.1014 821.045 69.1014H844.648C845.603 69.1014 846.518 68.7222 847.194 68.0471C847.869 67.372 848.248 66.4563 848.248 65.5016V52.7989L849.798 54.3492C850.023 54.5745 850.329 54.7012 850.647 54.7015C850.965 54.7017 851.271 54.5754 851.496 54.3504C851.722 54.1254 851.848 53.8201 851.848 53.5017C851.849 53.1833 851.722 52.8778 851.497 52.6525L845 45.7514V37.8485C845 37.5302 844.873 37.225 844.648 37C844.423 36.775 844.118 36.6485 843.8 36.6485H841.4C841.081 36.6485 840.776 36.775 840.551 37C840.326 37.225 840.2 37.5302 840.2 37.8485V40.9516L834.697 35.7027ZM845 50.3989L833 38.3994L821 50.3989V65.5016C821 65.8198 821.127 66.125 821.352 66.3501C821.577 66.5751 821.882 66.7015 822.2 66.7015H843.8C844.118 66.7015 844.423 66.5751 844.648 66.3501C844.873 66.125 845 65.8198 845 65.5016V50.3989ZM833 49.859C836.993 45.8439 846.979 52.8685 833 61.9017C819.021 52.8685 829.007 45.8439 833 49.859Z" fill="#FFF8EC"/>
<path d="M351.412 63.0615C351.626 62.7249 353.367 60.2433 352.42 59.8695C350.886 59.8422 349.388 59.9314 347.978 59.1881C346.118 58.2092 344.736 56.873 343.354 55.3004C342.981 54.8769 342.989 54.3399 343.354 53.9145C345.561 51.1769 348.186 49.243 350.948 46.8948C352.191 45.7899 350.119 43.8556 348.6 43.7171C347.909 43.7171 347.219 44.1314 346.527 44.4077C344.041 45.9272 342.522 48.2759 340.616 50.3078C340.403 50.567 340.099 50.637 339.808 50.5821C339.517 50.528 339.238 50.349 339.077 50.11C338.013 48.5296 337.044 46.8425 336.378 45.0514C336.021 44.095 335.687 43.126 335.446 42.1323C335.09 40.6444 334.549 41.4546 333.928 42.2564C332.231 44.4463 331.587 46.1265 333.078 48.7237C334.176 50.6374 335.357 52.4664 336.713 54.2069C336.966 54.5318 337.145 55.0128 336.866 55.3943C336.252 56.2359 335.494 57.2881 334.615 58.2519C334.323 58.5741 334.016 58.8821 333.695 59.1749C332.436 60.5696 329.812 60.4315 329.397 61.6752C328.846 62.7801 330.779 64.713 332.64 64.7796C332.983 64.7512 333.322 64.6778 333.646 64.5612C335.94 63.7524 337.842 61.002 339.185 59.2515C339.547 58.779 340.257 58.5377 340.723 59.053C342.495 61.0083 344.548 63.6718 347.212 64.4143C348.917 64.889 350.412 64.6345 351.41 63.0604" fill="#7D4D2B"/>
<path d="M331.431 61.6731C331.846 60.4294 334.47 60.5682 335.729 59.1727C336.049 58.8825 336.355 58.5717 336.649 58.2498C337.528 57.286 338.286 56.2337 338.899 55.3922C339.179 55.011 338.999 54.5296 338.747 54.2048C337.391 52.4642 336.208 50.6356 335.111 48.7216C333.731 46.3162 334.181 44.6979 335.603 42.7323C335.547 42.5325 335.495 42.3317 335.445 42.1302C335.088 40.6423 334.548 41.4525 333.927 42.2543C332.23 44.4442 331.586 46.1244 333.076 48.7216C334.174 50.6353 335.356 52.4642 336.712 54.2048C336.964 54.5296 337.143 55.0106 336.864 55.3922C336.25 56.2337 335.493 57.286 334.613 58.2498C334.322 58.572 334.014 58.88 333.693 59.1727C332.435 60.5675 329.81 60.4294 329.396 61.6731C328.844 62.778 330.777 64.7108 332.639 64.7775C332.979 64.7487 333.314 64.6761 333.636 64.5617C332.176 64.0166 330.982 62.5703 331.431 61.6731Z" fill="#694124"/>
<circle cx="341" cy="53" r="21.9" stroke="#7D4D2B" stroke-width="3"/>
<path d="M260.368 42.1739C257.268 44.8969 254.646 47.489 252.245 50.871C251.186 52.3627 250.009 54.1183 249.239 55.7759C248.8 56.6549 248.008 58.0284 247.738 59.3489C246.261 57.9541 244.675 56.3711 243.052 55.1312C241.895 54.2477 238.563 56.0489 239.919 57.0849C242.35 58.9409 244.372 61.2526 246.736 63.1914C247.725 64.0013 249.917 62.2423 250.432 61.5043C252.122 59.0729 252.354 56.1008 253.586 53.4486C255.467 49.3924 258.803 46.0604 262.098 43.1669C264.28 41.1006 262.026 40.7195 260.371 42.1739" fill="#999529"/>
<circle cx="251.3" cy="53" r="21.9" stroke="#999529" stroke-width="3"/>
<path d="M134.127 71.4037L134.161 71.4384C135.562 72.8395 137.833 72.8395 139.233 71.4384L173.683 36.9883C174.086 36.5847 174.313 36.0374 174.313 35.4666C174.313 34.8959 174.086 34.3485 173.683 33.9449L171.619 31.8808C171.215 31.4773 170.668 31.2505 170.097 31.2505C169.526 31.2505 168.979 31.4773 168.575 31.8808L134.125 66.3308C132.726 67.7319 132.726 70.0026 134.127 71.4037V71.4037Z" fill="#F4900C"/>
<path d="M159.339 37.0331L164.447 31.9256C164.853 31.5194 165.404 31.2912 165.979 31.2912C166.553 31.2912 167.104 31.5194 167.511 31.9256L172.617 37.0331C175.691 40.0549 178.178 41.3881 181.363 41.4473C181.61 43.7195 180.402 48.9483 178.522 51.0558C176.078 53.7945 171.957 54.6597 168.088 54.6005C168.282 51.1872 167.457 48.2131 164.447 45.2029L159.341 40.0953C159.139 39.8946 158.979 39.656 158.87 39.3933C158.761 39.1306 158.705 38.849 158.705 38.5645C158.705 38.2801 158.761 37.9984 158.869 37.7356C158.978 37.4728 159.138 37.2341 159.339 37.0331V37.0331Z" fill="#66757F"/>
<path d="M181.363 41.4474C182.448 41.4676 183.61 41.3434 184.908 41.0834C185.929 48.2334 174.694 59.4683 167.544 58.447C167.823 57.0936 168.018 55.8196 168.087 54.6005C174.469 52.5653 179.797 47.2743 181.363 41.4474V41.4474Z" fill="#CCD6DD"/>
<path fill-rule="evenodd" clip-rule="evenodd" d="M634 40C634 39.7914 633.935 39.588 633.814 39.4183C633.693 39.2485 633.522 39.1209 633.324 39.0532C633.127 38.9855 632.914 38.9812 632.714 39.0409C632.514 39.1006 632.338 39.2212 632.21 39.386L625.21 48.386C625.073 48.5615 624.999 48.7776 624.999 49C624.999 49.2224 625.073 49.4384 625.21 49.614L632.21 58.614C632.338 58.7787 632.514 58.8994 632.714 58.9591C632.914 59.0187 633.127 59.0144 633.324 58.9468C633.522 58.8791 633.693 58.7515 633.814 58.5817C633.935 58.4119 634 58.2085 634 58V54.01C639.379 54.122 641.963 55.143 643.261 56.253C644.495 57.308 644.721 58.549 644.956 59.849L645.017 60.184C645.062 60.4237 645.193 60.6387 645.385 60.7887C645.577 60.9386 645.818 61.0131 646.061 60.9981C646.305 60.9831 646.534 60.8797 646.707 60.7073C646.879 60.5349 646.983 60.3054 646.998 60.062C647.169 57.314 646.912 53.332 644.971 50.001C643.087 46.768 639.694 44.282 634 44.022V40Z" fill="#FFF8EC"/>
<path d="M663.166 51.5713C663.525 51.0397 664.017 50.6078 664.641 50.2756C665.279 49.9433 666.003 49.7772 666.814 49.7772C667.758 49.7772 668.608 50.0098 669.366 50.4749C670.136 50.94 670.741 51.6045 671.18 52.4683C671.631 53.3188 671.857 54.3089 671.857 55.4384C671.857 56.568 671.631 57.5714 671.18 58.4485C670.741 59.3123 670.136 59.9834 669.366 60.4618C668.608 60.9402 667.758 61.1794 666.814 61.1794C665.99 61.1794 665.266 61.0199 664.641 60.701C664.03 60.3688 663.538 59.9435 663.166 59.4252V61H660.375V46.2489H663.166V51.5713ZM669.007 55.4384C669.007 54.774 668.867 54.2025 668.588 53.7241C668.322 53.2324 667.964 52.8603 667.512 52.6078C667.073 52.3553 666.595 52.2291 666.077 52.2291C665.572 52.2291 665.093 52.362 664.641 52.6278C664.203 52.8803 663.844 53.2524 663.565 53.7441C663.299 54.2358 663.166 54.8139 663.166 55.4783C663.166 56.1428 663.299 56.7209 663.565 57.2126C663.844 57.7043 664.203 58.083 664.641 58.3488C665.093 58.6013 665.572 58.7275 666.077 58.7275C666.595 58.7275 667.073 58.5946 667.512 58.3289C667.964 58.0631 668.322 57.6843 668.588 57.1926C668.867 56.7009 669.007 56.1162 669.007 55.4384ZM673.168 55.4384C673.168 54.3221 673.387 53.3321 673.826 52.4683C674.277 51.6045 674.882 50.94 675.639 50.4749C676.41 50.0098 677.267 49.7772 678.211 49.7772C679.035 49.7772 679.753 49.9433 680.364 50.2756C680.988 50.6078 681.487 51.0264 681.859 51.5314V49.9566H684.67V61H681.859V59.3854C681.5 59.9036 681.002 60.3355 680.364 60.6811C679.739 61.0133 679.015 61.1794 678.191 61.1794C677.261 61.1794 676.41 60.9402 675.639 60.4618C674.882 59.9834 674.277 59.3123 673.826 58.4485C673.387 57.5714 673.168 56.568 673.168 55.4384ZM681.859 55.4783C681.859 54.8006 681.726 54.2225 681.46 53.7441C681.194 53.2524 680.836 52.8803 680.384 52.6278C679.932 52.362 679.447 52.2291 678.929 52.2291C678.41 52.2291 677.932 52.3553 677.493 52.6078C677.055 52.8603 676.696 53.2324 676.417 53.7241C676.151 54.2025 676.018 54.774 676.018 55.4384C676.018 56.1029 676.151 56.6876 676.417 57.1926C676.696 57.6843 677.055 58.0631 677.493 58.3289C677.945 58.5946 678.424 58.7275 678.929 58.7275C679.447 58.7275 679.932 58.6013 680.384 58.3488C680.836 58.083 681.194 57.7109 681.46 57.2325C681.726 56.7408 681.859 56.1561 681.859 55.4783ZM686.678 55.4783C686.678 54.3354 686.91 53.3387 687.375 52.4882C687.84 51.6244 688.485 50.96 689.309 50.4948C690.133 50.0164 691.076 49.7772 692.139 49.7772C693.508 49.7772 694.638 50.1227 695.528 50.8138C696.432 51.4915 697.037 52.4484 697.342 53.6843H694.332C694.173 53.2059 693.9 52.8338 693.515 52.568C693.143 52.2889 692.678 52.1494 692.12 52.1494C691.322 52.1494 690.691 52.4417 690.226 53.0264C689.761 53.5979 689.528 54.4152 689.528 55.4783C689.528 56.5282 689.761 57.3455 690.226 57.9302C690.691 58.5016 691.322 58.7873 692.12 58.7873C693.249 58.7873 693.987 58.2823 694.332 57.2724H697.342C697.037 58.4684 696.432 59.4186 695.528 60.1229C694.625 60.8272 693.495 61.1794 692.139 61.1794C691.076 61.1794 690.133 60.9468 689.309 60.4817C688.485 60.0033 687.84 59.3388 687.375 58.4883C686.91 57.6245 686.678 56.6212 686.678 55.4783ZM705.925 61L702.177 56.2956V61H699.387V46.2489H702.177V54.6411L705.885 49.9566H709.513L704.649 55.4982L709.553 61H705.925Z" fill="#FFF8EC"/>
<path d="M769.761 70.4166H763.239C762.83 70.4167 762.434 70.2771 762.116 70.021C761.797 69.7648 761.576 69.4076 761.489 69.0084L760.759 65.6329C759.787 65.2067 758.864 64.6737 758.009 64.0437L754.718 65.0918C754.328 65.216 753.908 65.2033 753.527 65.0556C753.145 64.908 752.826 64.6344 752.622 64.2802L749.354 58.6346C749.151 58.2801 749.076 57.8675 749.138 57.4642C749.201 57.061 749.399 56.691 749.699 56.4148L752.253 54.0856C752.136 53.0305 752.136 51.9659 752.253 50.9108L749.699 48.587C749.399 48.3107 749.201 47.9403 749.138 47.5367C749.075 47.133 749.151 46.72 749.354 46.3653L752.615 40.7162C752.819 40.362 753.138 40.0884 753.52 39.9407C753.901 39.7931 754.321 39.7803 754.711 39.9046L758.002 40.9527C758.439 40.6302 758.894 40.3292 759.364 40.0569C759.817 39.8024 760.283 39.5713 760.759 39.3653L761.49 35.9934C761.577 35.5942 761.798 35.2367 762.116 34.9803C762.434 34.7238 762.831 34.5837 763.239 34.5833H769.761C770.169 34.5837 770.565 34.7238 770.884 34.9803C771.202 35.2367 771.422 35.5942 771.509 35.9934L772.248 39.3671C773.219 39.7958 774.141 40.3286 774.998 40.9563L778.291 39.9081C778.68 39.7844 779.1 39.7974 779.481 39.945C779.862 40.0926 780.181 40.366 780.385 40.7198L783.646 46.3689C784.062 47.0981 783.919 48.0208 783.3 48.5888L780.747 50.9179C780.863 51.973 780.863 53.0377 780.747 54.0928L783.3 56.4219C783.919 56.9917 784.062 57.9126 783.646 58.6418L780.385 64.2909C780.181 64.6451 779.862 64.9188 779.48 65.0664C779.099 65.214 778.679 65.2268 778.289 65.1026L774.998 64.0544C774.143 64.6839 773.222 65.2164 772.249 65.6419L771.509 69.0084C771.422 69.4073 771.201 69.7643 770.883 70.0204C770.565 70.2765 770.169 70.4163 769.761 70.4166V70.4166ZM766.493 45.3333C764.592 45.3333 762.769 46.0884 761.425 47.4324C760.081 48.7764 759.326 50.5993 759.326 52.5C759.326 54.4007 760.081 56.2236 761.425 57.5676C762.769 58.9116 764.592 59.6666 766.493 59.6666C768.393 59.6666 770.216 58.9116 771.56 57.5676C772.904 56.2236 773.659 54.4007 773.659 52.5C773.659 50.5993 772.904 48.7764 771.56 47.4324C770.216 46.0884 768.393 45.3333 766.493 45.3333V45.3333Z" fill="#FFF8EC"/>
</g>
<defs>
<clipPath id="clip0_96_490">
<rect width="1081" height="110" fill="white"/>
</clipPath>
</defs>
</svg>
