<svg width="258" height="86" viewBox="0 0 258 86" fill="none" xmlns="http://www.w3.org/2000/svg">
<g filter="url(#filter0_ddiiii_104_869)">
<rect x="3" y="3" width="252" height="80" rx="12" fill="white"/>
<rect x="3" y="3" width="252" height="80" rx="12" fill="#FFF8EC"/>
<path d="M54.82 54.21C52.84 54.21 51.02 53.75 49.36 52.83C47.72 51.91 46.41 50.63 45.43 48.99C44.47 47.33 43.99 45.47 43.99 43.41C43.99 41.35 44.47 39.5 45.43 37.86C46.41 36.22 47.72 34.94 49.36 34.02C51.02 33.1 52.84 32.64 54.82 32.64C56.8 32.64 58.61 33.1 60.25 34.02C61.91 34.94 63.21 36.22 64.15 37.86C65.11 39.5 65.59 41.35 65.59 43.41C65.59 45.47 65.11 47.33 64.15 48.99C63.19 50.63 61.89 51.91 60.25 52.83C58.61 53.75 56.8 54.21 54.82 54.21ZM54.82 49.53C56.5 49.53 57.84 48.97 58.84 47.85C59.86 46.73 60.37 45.25 60.37 43.41C60.37 41.55 59.86 40.07 58.84 38.97C57.84 37.85 56.5 37.29 54.82 37.29C53.12 37.29 51.76 37.84 50.74 38.94C49.74 40.04 49.24 41.53 49.24 43.41C49.24 45.27 49.74 46.76 50.74 47.88C51.76 48.98 53.12 49.53 54.82 49.53ZM73.574 31.8V54H68.444V31.8H73.574ZM76.2716 45.6C76.2716 43.88 76.5916 42.37 77.2316 41.07C77.8916 39.77 78.7816 38.77 79.9016 38.07C81.0216 37.37 82.2716 37.02 83.6516 37.02C84.7516 37.02 85.7516 37.25 86.6516 37.71C87.5716 38.17 88.2916 38.79 88.8116 39.57V31.8H93.9416V54H88.8116V51.6C88.3316 52.4 87.6416 53.04 86.7416 53.52C85.8616 54 84.8316 54.24 83.6516 54.24C82.2716 54.24 81.0216 53.89 79.9016 53.19C78.7816 52.47 77.8916 51.46 77.2316 50.16C76.5916 48.84 76.2716 47.32 76.2716 45.6ZM88.8116 45.63C88.8116 44.35 88.4516 43.34 87.7316 42.6C87.0316 41.86 86.1716 41.49 85.1516 41.49C84.1316 41.49 83.2616 41.86 82.5416 42.6C81.8416 43.32 81.4916 44.32 81.4916 45.6C81.4916 46.88 81.8416 47.9 82.5416 48.66C83.2616 49.4 84.1316 49.77 85.1516 49.77C86.1716 49.77 87.0316 49.4 87.7316 48.66C88.4516 47.92 88.8116 46.91 88.8116 45.63ZM117.99 39.6C117.61 38.9 117.06 38.37 116.34 38.01C115.64 37.63 114.81 37.44 113.85 37.44C112.19 37.44 110.86 37.99 109.86 39.09C108.86 40.17 108.36 41.62 108.36 43.44C108.36 45.38 108.88 46.9 109.92 48C110.98 49.08 112.43 49.62 114.27 49.62C115.53 49.62 116.59 49.3 117.45 48.66C118.33 48.02 118.97 47.1 119.37 45.9H112.86V42.12H124.02V46.89C123.64 48.17 122.99 49.36 122.07 50.46C121.17 51.56 120.02 52.45 118.62 53.13C117.22 53.81 115.64 54.15 113.88 54.15C111.8 54.15 109.94 53.7 108.3 52.8C106.68 51.88 105.41 50.61 104.49 48.99C103.59 47.37 103.14 45.52 103.14 43.44C103.14 41.36 103.59 39.51 104.49 37.89C105.41 36.25 106.68 34.98 108.3 34.08C109.92 33.16 111.77 32.7 113.85 32.7C116.37 32.7 118.49 33.31 120.21 34.53C121.95 35.75 123.1 37.44 123.66 39.6H117.99ZM131.992 40.05C132.592 39.13 133.342 38.41 134.242 37.89C135.142 37.35 136.142 37.08 137.242 37.08V42.51H135.832C134.552 42.51 133.592 42.79 132.952 43.35C132.312 43.89 131.992 44.85 131.992 46.23V54H126.862V37.26H131.992V40.05ZM147.314 54.24C145.674 54.24 144.194 53.89 142.874 53.19C141.574 52.49 140.544 51.49 139.784 50.19C139.044 48.89 138.674 47.37 138.674 45.63C138.674 43.91 139.054 42.4 139.814 41.1C140.574 39.78 141.614 38.77 142.934 38.07C144.254 37.37 145.734 37.02 147.374 37.02C149.014 37.02 150.494 37.37 151.814 38.07C153.134 38.77 154.174 39.78 154.934 41.1C155.694 42.4 156.074 43.91 156.074 45.63C156.074 47.35 155.684 48.87 154.904 50.19C154.144 51.49 153.094 52.49 151.754 53.19C150.434 53.89 148.954 54.24 147.314 54.24ZM147.314 49.8C148.294 49.8 149.124 49.44 149.804 48.72C150.504 48 150.854 46.97 150.854 45.63C150.854 44.29 150.514 43.26 149.834 42.54C149.174 41.82 148.354 41.46 147.374 41.46C146.374 41.46 145.544 41.82 144.884 42.54C144.224 43.24 143.894 44.27 143.894 45.63C143.894 46.97 144.214 48 144.854 48.72C145.514 49.44 146.334 49.8 147.314 49.8ZM182.826 37.26L178.296 54H172.626L169.986 43.14L167.256 54H161.616L157.056 37.26H162.186L164.556 49.23L167.376 37.26H172.806L175.656 49.17L177.996 37.26H182.826ZM194.112 49.65V54H191.502C189.642 54 188.192 53.55 187.152 52.65C186.112 51.73 185.592 50.24 185.592 48.18V41.52H183.552V37.26H185.592V33.18H190.722V37.26H194.082V41.52H190.722V48.24C190.722 48.74 190.842 49.1 191.082 49.32C191.322 49.54 191.722 49.65 192.282 49.65H194.112ZM207.259 37.08C209.179 37.08 210.719 37.72 211.879 39C213.039 40.26 213.619 42 213.619 44.22V54H208.519V44.91C208.519 43.79 208.229 42.92 207.649 42.3C207.069 41.68 206.289 41.37 205.309 41.37C204.329 41.37 203.549 41.68 202.969 42.3C202.389 42.92 202.099 43.79 202.099 44.91V54H196.969V31.8H202.099V39.51C202.619 38.77 203.329 38.18 204.229 37.74C205.129 37.3 206.139 37.08 207.259 37.08Z" fill="#999529"/>
</g>
<defs>
<filter id="filter0_ddiiii_104_869" x="-2" y="-2" width="262" height="90" filterUnits="userSpaceOnUse" color-interpolation-filters="sRGB">
<feFlood flood-opacity="0" result="BackgroundImageFix"/>
<feColorMatrix in="SourceAlpha" type="matrix" values="0 0 0 0 0 0 0 0 0 0 0 0 0 0 0 0 0 0 127 0" result="hardAlpha"/>
<feOffset dx="-1" dy="-1"/>
<feGaussianBlur stdDeviation="1"/>
<feColorMatrix type="matrix" values="0 0 0 0 0.901961 0 0 0 0 0.901961 0 0 0 0 0.901961 0 0 0 0.5 0"/>
<feBlend mode="normal" in2="BackgroundImageFix" result="effect1_dropShadow_104_869"/>
<feColorMatrix in="SourceAlpha" type="matrix" values="0 0 0 0 0 0 0 0 0 0 0 0 0 0 0 0 0 0 127 0" result="hardAlpha"/>
<feOffset dx="1" dy="1"/>
<feGaussianBlur stdDeviation="1"/>
<feColorMatrix type="matrix" values="0 0 0 0 1 0 0 0 0 1 0 0 0 0 1 0 0 0 0.3 0"/>
<feBlend mode="normal" in2="effect1_dropShadow_104_869" result="effect2_dropShadow_104_869"/>
<feBlend mode="normal" in="SourceGraphic" in2="effect2_dropShadow_104_869" result="shape"/>
<feColorMatrix in="SourceAlpha" type="matrix" values="0 0 0 0 0 0 0 0 0 0 0 0 0 0 0 0 0 0 127 0" result="hardAlpha"/>
<feOffset dx="5" dy="5"/>
<feGaussianBlur stdDeviation="6.5"/>
<feComposite in2="hardAlpha" operator="arithmetic" k2="-1" k3="1"/>
<feColorMatrix type="matrix" values="0 0 0 0 0.901961 0 0 0 0 0.901961 0 0 0 0 0.901961 0 0 0 0.9 0"/>
<feBlend mode="normal" in2="shape" result="effect3_innerShadow_104_869"/>
<feColorMatrix in="SourceAlpha" type="matrix" values="0 0 0 0 0 0 0 0 0 0 0 0 0 0 0 0 0 0 127 0" result="hardAlpha"/>
<feOffset dx="-5" dy="-5"/>
<feGaussianBlur stdDeviation="5"/>
<feComposite in2="hardAlpha" operator="arithmetic" k2="-1" k3="1"/>
<feColorMatrix type="matrix" values="0 0 0 0 1 0 0 0 0 1 0 0 0 0 1 0 0 0 0.9 0"/>
<feBlend mode="normal" in2="effect3_innerShadow_104_869" result="effect4_innerShadow_104_869"/>
<feColorMatrix in="SourceAlpha" type="matrix" values="0 0 0 0 0 0 0 0 0 0 0 0 0 0 0 0 0 0 127 0" result="hardAlpha"/>
<feOffset dx="5" dy="-5"/>
<feGaussianBlur stdDeviation="5"/>
<feComposite in2="hardAlpha" operator="arithmetic" k2="-1" k3="1"/>
<feColorMatrix type="matrix" values="0 0 0 0 0.901961 0 0 0 0 0.901961 0 0 0 0 0.901961 0 0 0 0.2 0"/>
<feBlend mode="normal" in2="effect4_innerShadow_104_869" result="effect5_innerShadow_104_869"/>
<feColorMatrix in="SourceAlpha" type="matrix" values="0 0 0 0 0 0 0 0 0 0 0 0 0 0 0 0 0 0 127 0" result="hardAlpha"/>
<feOffset dx="-5" dy="5"/>
<feGaussianBlur stdDeviation="5"/>
<feComposite in2="hardAlpha" operator="arithmetic" k2="-1" k3="1"/>
<feColorMatrix type="matrix" values="0 0 0 0 0.901961 0 0 0 0 0.901961 0 0 0 0 0.901961 0 0 0 0.2 0"/>
<feBlend mode="normal" in2="effect5_innerShadow_104_869" result="effect6_innerShadow_104_869"/>
</filter>
</defs>
</svg>
