<?xml version="1.0" encoding="UTF-8"?><svg xmlns="http://www.w3.org/2000/svg" xmlns:xlink="http://www.w3.org/1999/xlink" viewBox="0 0 189.21 140.13"><defs><style>.m{fill:url(#d);}.n{fill:#e96b24;}.o{fill:#7e4d2c;}.p{fill:#231f20;}.q,.r{fill:#458744;}.s{fill:#386c37;}.t{fill:#633e23;}.u{fill:#614928;}.v{stroke-width:.43px;}.v,.w,.x{fill:none;stroke:#555;stroke-miterlimit:10;}.y{fill:#57a855;filter:url(#g);}.r{filter:url(#e);}.w{stroke-width:.55px;}.x{stroke-width:.68px;}</style><linearGradient id="d" x1="70.94" y1="16.95" x2="70.94" y2="73.65" gradientTransform="matrix(1, 0, 0, 1, 0, 0)" gradientUnits="userSpaceOnUse"><stop offset=".11" stop-color="#fff"/><stop offset=".24" stop-color="#fafcfd"/><stop offset=".37" stop-color="#eef4f8"/><stop offset=".5" stop-color="#d9e7ef"/><stop offset=".63" stop-color="#bcd5e3"/><stop offset=".77" stop-color="#96bdd3"/><stop offset=".9" stop-color="#68a1c0"/><stop offset=".98" stop-color="#4c8fb5"/></linearGradient><filter id="e" filterUnits="userSpaceOnUse"><feOffset dx="-1.01" dy="0"/><feGaussianBlur result="f" stdDeviation="1.68"/><feFlood flood-color="#2e5127" flood-opacity=".3"/><feComposite in2="f" operator="in"/><feComposite in="SourceGraphic"/></filter><filter id="g" filterUnits="userSpaceOnUse"><feOffset dx="-1.01" dy="0"/><feGaussianBlur result="h" stdDeviation="1.68"/><feFlood flood-color="#2e5127" flood-opacity=".3"/><feComposite in2="h" operator="in"/><feComposite in="SourceGraphic"/></filter></defs><g id="a"/><g id="b"/><g id="c"><g><path class="m" d="M95.94,32.65s-13.69-1.91-24.99-15.68v-.02h-.01v.02c-11.3,13.78-24.99,15.68-24.99,15.68,.37,32.83,24.46,40.83,24.99,41h.01c.53-.17,24.62-8.17,24.99-41Z"/><path class="n" d="M70.91,24.48l.14,.15,.03-.04c7.32,7.15,14.94,10.47,19.62,11.95-1.71,21.58-15.11,29.53-19.76,31.65-4.66-2.13-18.05-10.08-19.76-31.65,4.71-1.49,12.37-4.83,19.73-12.06m.04-7.54h-.01v.02c-11.3,13.78-24.99,15.68-24.99,15.68,.37,32.83,24.46,40.83,24.99,41h.01c.53-.17,24.62-8.16,24.99-41,0,0-13.69-1.91-24.99-15.68v-.02h0Z"/><path class="s" d="M77.61,48.35c.8,.9,6.12,3.51,8.13-1.51,4.52,.55,5.07-8.03,3.36-8.93,2.91-1,3.06-11.99-5.97-11.69,0,0-3.86-7.03-10.59-1.91-3.36-3.51-10.84-1.25-12.8,4.42-2.81-1.1-9.89,5.17-7.03,9.89-2.46,.8-.9,9.99,5.02,7.93,0,0,2.76,4.52,7.93,1.51s11.94,.3,11.94,.3Z"/><g><path class="r" d="M88.9,45.14c.89-1.46,1.2-3.55,1.05-5.13-.87-.13-1.61-.41-2.05-.85-3.92,3.32-11.43,1.57-13.07-2.58-7.94,.73-8.68-6.28-8.68-6.28-2.66-1.28-3.98-3.01-4.46-4.73-.84,.88-1.53,1.94-1.96,3.16-2.81-1.1-9.89,5.17-7.03,9.89-.16,.05-.3,.14-.43,.26,1.94,1.68,6.31,4.25,12.73,.84,2.57,1.99,7.02,2.12,10.8,.8,2.35,3.53,8.42,5.59,13.08,4.63Z"/><path class="y" d="M66.15,30.3s.73,7,8.68,6.28c1.64,4.16,9.15,5.91,13.07,2.58,.44,.44,1.17,.72,2.05,.85-.1-1.04-.39-1.85-.85-2.1,2.91-1,3.06-11.99-5.97-11.69,0,0-3.86-7.03-10.59-1.91-2.64-2.75-7.79-1.95-10.84,1.25,.48,1.73,1.8,3.45,4.46,4.73Z"/></g><path class="o" d="M62.77,62.62c2.03-2.33,9.97-11.73-2.56-19.2-3.5-2.95,.45-.53,.45-.53,0,0,3.29,2.16,5.12,2.86s-1.66-3.76-3.16-4.52-.77-.83-.03-.53c.85,.35,2.74,2.09,3.86,3.36,2.23,2.53,1.48-2.05,2.84-4.27s.55,0-.05,1.81,.98,4.72,1.93,4.52,2.46-2.01,2.11-4.17-1-4.59,.35-1.36-.58,3.61-.5,4.62,2.13-.6,2.96-1.81,2.53-2.38,2.61-2.18-1.08,.93-1.71,1.83-.78,.53-1.13,3.59,4.62-2.28,5.52-3.64,.8-.1-.18,.95-5.41,5.19-5.17,10.69c.24,5.5,2.71,8.28,2.71,8.28,0,0-6.22,5.32-7.8,5.38-3.07-1.23-8.18-5.71-8.18-5.71Z"/><path class="u" d="M70.97,46.13c-.96-.19-2.29-2.83-1.73-4.51,.6-1.81,1.41-4.03,.05-1.81-1.36,2.22-.6,6.8-2.84,4.27-1.12-1.27-3.01-3.01-3.86-3.36-.74-.3-1.48-.23,.03,.53s4.99,5.22,3.16,4.52c-1.83-.7-5.12-2.86-5.12-2.86,0,0-3.95-2.43-.45,.53,12.53,7.47,4.59,16.86,2.56,19.2,0,0,5.11,4.48,8.18,5.71h.02v-22.2Z"/></g><g><path class="n" d="M130.61,35.13l.13,.14,.02-.03c3.64,3.54,7.42,5.18,9.75,5.92-.86,10.79-7.55,14.76-9.88,15.83-2.33-1.06-9.03-5.04-9.88-15.83,2.35-.74,6.19-2.42,9.87-6.03m.02-3.77h0c-5.65,6.9-12.5,7.85-12.5,7.85,.19,16.42,12.23,20.41,12.5,20.5h0c.26-.09,12.31-4.08,12.5-20.5,0,0-6.85-.95-12.5-7.84h0Z"/><path class="q" d="M133.96,47.07c.4,.45,3.06,1.76,4.07-.75,2.26,.28,2.53-4.02,1.68-4.47,1.46-.5,1.53-6-2.99-5.85,0,0-1.93-3.51-5.29-.95-1.68-1.76-5.42-.63-6.4,2.21-1.41-.55-4.94,2.58-3.51,4.94-1.23,.4-.45,4.99,2.51,3.96,0,0,1.38,2.26,3.96,.75s5.97,.15,5.97,.15Z"/><g/><path class="o" d="M126.54,54.2c1.02-1.17,4.99-5.86-1.28-9.6-1.75-1.48,.23-.26,.23-.26,0,0,1.64,1.08,2.56,1.43s-.83-1.88-1.58-2.26-.38-.42-.01-.26c.43,.18,1.37,1.04,1.93,1.68,1.12,1.27,.74-1.02,1.42-2.13s.28,0-.03,.9,.49,2.36,.97,2.26,1.23-1,1.05-2.08-.5-2.3,.18-.68-.29,1.81-.25,2.31,1.07-.3,1.48-.9,1.27-1.19,1.3-1.09-.54,.46-.85,.92-.39,.26-.56,1.79,2.31-1.14,2.76-1.82,.4-.05-.09,.48-2.7,2.6-2.58,5.35,1.36,4.14,1.36,4.14c0,0-3.11,2.66-3.9,2.69-1.54-.61-4.09-2.85-4.09-2.85Z"/><g/></g><g><path class="t" d="M66.36,100.93c-.03,1.01-.05,2.02-.08,3.02,0,.03,0,.06,0,.09,.06,.29-.12,.44-.35,.55-.38,.17-.76,.16-1.13-.03-.23-.12-.35-.3-.35-.57,.03-1.07-.04-2.14-.03-3.21,.01-1.02,.03-1.69,.05-2.72,0-.05,0-.09,0-.14,0-.07-.02-.11-.11-.11-.05,0-.11,0-.16,0-.66,0-1.31,0-1.97,.01-.16,0-.26-.06-.35-.18-.22-.31-.25-1.13,.04-1.39,.12-.11,.35-.14,.47-.14,1.74,0,3.47,0,5.21,0,.15,0,.5,0,.65,0,.64,0,.67,.96,.41,1.4-.09,.16-.23,.26-.43,.25-.51,0-1,0-1.52,.02-.05,0-.11,0-.16,0-.08,0-.11,.04-.11,.12,0,.12-.02,.24-.02,.36-.02,1-.04,1.65-.06,2.65h0Z"/><path class="t" d="M70.11,97.7s0-.09,0-.13c0-.1-.05-.14-.16-.14-.18,0-.35,0-.53,0-.26-.01-.39-.12-.39-.35,0-.27-.09-.57,.02-.83,.07-.18,.19-.26,.41-.27,.96-.07,1.92-.01,2.88,0,.13,0,.26,.01,.38,.05,.19,.05,.26,.13,.24,.3-.02,.3,.02,.54-.02,.83-.03,.22-.1,.27-.36,.25-.14-.01-.28,.04-.42,.03-.18,0-.2,0-.2,.16-.01,.4-.1,4.1-.13,5.49,0,.16,.04,.23,.35,.21,.12,0,.24-.01,.36,0,.26,0,.39,.12,.4,.35,0,.27,0,.47-.01,.74,0,.1-.09,.22-.29,.22-.09,0-3.23,0-3.28,0-.37,.01-.54,.01-.57-.33-.02-.16-.03-.32-.03-.48,0-.26,.05-.47,.34-.47,.24,0,.48,0,.7,0,.2,0,.23-.05,.24-.22,.02-.92,.04-4.48,.07-5.4Z"/><path class="t" d="M77.7,99.5c.08-.03,.1-.1,.13-.15,.65-1.06,1.3-2.16,1.94-3.22,.06-.1,.13-.15,.27-.15,.36,0,.84,0,1.2,0,.21,0,.23,.02,.24,.2,.01,.45,.01,.96,.01,1.41,0,2.17,0,4.29,.01,6.46,0,.32,0,.31-.37,.31-.45,0-.98,0-1.4,0-.22,0-.23-.03-.23-.22,0-1.43,.03-2.56,.07-3.99,0-.04,0-.07,0-.12-.1,0-.11,.09-.14,.14-.3,.53-.64,1.04-.96,1.56-.08,.13-.18,.19-.35,.18-.32-.01-.64-.01-.96,0-.18,0-.27-.07-.35-.19-.23-.36-.46-.72-.7-1.07-.13-.2-.26-.4-.39-.6-.08,.02-.06,.07-.06,.11,0,1.28,0,2.31,.03,3.6,0,.16-.01,.32-.02,.48,0,.1-.05,.15-.16,.15-.03,0-.07,0-.1,0-.5,0-1.17-.02-1.67-.03-.26,0-.28-.02-.27-.26,0-1.39,.03-6.41,.07-7.56,.02-.46,.07-.55,.59-.57,.3,0,.91,0,1.21,0,.14,0,.22,.05,.28,.16,.65,1.06,1.3,2.15,1.95,3.21,.03,.05,.05,.12,.13,.15Z"/><path class="t" d="M87.04,99.62c.05,.07,.11,.07,.16,.09,.95,.38,1.43,1.08,1.5,2.02,.11,1.55-1.18,3.09-2.79,3.41-.44,.09-.89,.12-1.33,.03-.24-.05-.48-.14-.68-.27-.1-.07-.19-.09-.31-.08-.15,.01-.3,0-.46,0-.2-.02-.34-.11-.43-.28-.11-.2-.18-.41-.24-.63-.17-.64-.23-1.3-.25-1.96-.04-1.21,.05-2.41,.23-3.61,.1-.65,.22-1.3,.36-1.95,.03-.15,.1-.23,.26-.28,1.16-.36,2.31-.38,3.45,.04,.49,.18,.9,.46,1.22,.85,.43,.53,.47,1.1,.18,1.69-.14,.28-.35,.52-.6,.72-.09,.07-.18,.14-.28,.22Zm-3.08,1.86h.01c.03,.3,.05,.6,.08,.89s.1,.59,.14,.89c.02,.19,.13,.27,.31,.3,.66,.13,1.24-.04,1.73-.46,.41-.35,.63-.8,.58-1.32-.05-.59-.39-1.01-.97-1.23-.62-.23-1.21-.14-1.75,.21-.09,.06-.13,.14-.13,.25,0,.16,0,.31,0,.47Zm.04-2.32c0,.07,0,.15-.01,.22-.01,.2,0,.21,.21,.18,.64-.09,1.21-.33,1.7-.72,.15-.12,.28-.26,.39-.42,.47-.67,.22-1.3-.6-1.51-.4-.1-.81-.08-1.21,0-.15,.02-.2,.09-.22,.21-.13,.68-.21,1.36-.25,2.05Z"/><path class="t" d="M89.12,100.12c.01-.95,.08-1.98,.3-3,.04-.17,.09-.34,.14-.5,.15-.49,.52-.76,1.11-.78,.52-.02,1.04,0,1.57,0,.45,0,.89,.04,1.33,.09,.18,.02,.28,.1,.33,.24,.12,.35,.12,.71,.09,1.07-.01,.13-.09,.18-.24,.18-.14,0-.27-.02-.41-.04-.54-.05-1.08-.05-1.61,.06-.22,.05-.22,.05-.26,.25-.09,.5-.15,1.01-.19,1.52-.02,.2-.01,.2,.22,.19,.31-.01,.62-.02,.92,0,.38,.03,.45,.1,.51,.42,.04,.23,0,.45-.03,.67-.02,.16-.13,.31-.42,.33-.35,.02-.7,.05-1.05,.07-.22,.02-.23,.02-.23,.21,0,.49,.02,.99,.1,1.48,.03,.2,.03,.2,.26,.25,.25,.05,.51,.06,.77,.04,.26-.02,.53-.03,.8-.02,.46,.02,.57,.12,.61,.51,.02,.2,0,.39-.03,.58-.05,.25-.16,.35-.45,.39-.3,.05-.61,.06-.92,.07-.68,.03-1.37,.05-2.05-.07-.08-.01-.17-.04-.25-.05-.18-.04-.29-.14-.36-.29-.22-.5-.33-1.02-.41-1.55-.11-.74-.15-1.49-.16-2.33Z"/><path class="t" d="M97.95,101.8c.03,.08,.09,.13,.14,.19,.55,.62,1.11,1.24,1.66,1.86,.22,.25,.21,.44-.06,.64-.38,.29-.82,.36-1.3,.22-.1-.03-.17-.1-.23-.17-.21-.24-.41-.48-.61-.72-.32-.39-.64-.78-.96-1.16-.04-.05-.08-.11-.15-.15-.06,.08-.04,.15-.04,.22,0,.43-.01,.86-.02,1.29,0,.13,0,.27-.08,.4-.12,.17-.3,.26-.51,.3-.41,.06-.78-.05-1.13-.23-.1-.05-.14-.14-.17-.24-.09-.38-.11-.76-.11-1.15-.01-.75-.02-1.49-.01-2.24,.01-1.31,.14-2.62,.35-3.92,.05-.34,.22-.55,.6-.66,1.07-.31,2.12-.35,3.15,.07,1.42,.58,2.08,1.9,1.61,3.24-.31,.9-.96,1.56-1.83,2.06-.09,.05-.2,.09-.27,.16Zm-1.52-.97c.09,.02,.13-.01,.17-.03,.55-.24,.99-.59,1.33-1.05,.19-.26,.33-.54,.38-.86,.08-.56-.07-1.04-.62-1.36-.32-.19-.68-.24-1.06-.24-.11,0-.15,.05-.15,.14,0,.05,0,.11,0,.16-.02,.91-.04,1.82-.05,2.74,0,.16,0,.33,0,.5Z"/><path class="t" d="M108.42,100.93c-.03,1.01-.05,2.02-.08,3.02,0,.03,0,.06,0,.09,.06,.29-.12,.44-.35,.55-.38,.17-.76,.16-1.13-.03-.23-.12-.35-.3-.35-.57,.03-1.07-.04-2.14-.03-3.21,.01-1.02,.03-1.69,.05-2.72,0-.05,0-.09,0-.14,0-.07-.02-.11-.11-.11-.05,0-.11,0-.16,0-.66,0-1.31,0-1.97,.01-.16,0-.26-.06-.35-.18-.22-.31-.25-1.13,.04-1.39,.12-.11,.35-.14,.47-.14,1.74,0,3.47,0,5.21,0,.15,0,.5,0,.65,0,.64,0,.67,.96,.41,1.4-.09,.16-.23,.26-.43,.25-.51,0-1,0-1.52,.02-.05,0-.11,0-.16,0-.08,0-.11,.04-.11,.12,0,.12-.02,.24-.02,.36-.02,1-.04,1.65-.06,2.65h0Z"/><path class="t" d="M116.19,100.86c-.02,.92-.12,2-.53,3.04-.1,.26-.23,.51-.4,.74-.06,.08-.13,.15-.23,.19-.35,.16-.72,.19-1.1,.07-.22-.07-.25-.13-.16-.34,.39-.91,.6-1.85,.7-2.81,.02-.18,.02-.19-.19-.17-.67,.06-1.34,.13-2.01,.19-.16,.01-.18,.09-.18,.21,0,.92,.13,1.82,.44,2.71,.1,.29,0,.57-.29,.73-.38,.21-.78,.2-1.18,.03-.11-.05-.16-.14-.21-.23-.32-.55-.48-1.14-.55-1.75-.25-2.08,.13-4.07,1.15-5.95,.21-.39,.47-.75,.78-1.08,.47-.51,1.07-.65,1.77-.5,.41,.09,.75,.3,1.02,.59,.36,.38,.6,.82,.76,1.3,.31,.94,.41,1.9,.42,3.05Zm-2.61-3.75c-.12,.09-.16,.18-.22,.27-.67,1-.99,2.1-1.16,3.24-.03,.2-.01,.21,.22,.2,.64-.04,1.28-.09,1.91-.13,.19-.01,.19-.01,.19-.2-.01-.81-.14-1.6-.43-2.37-.13-.34-.28-.67-.51-.99Z"/><path class="t" d="M121.61,104.23c-.01,.11-.09,.17-.18,.2-.1,.04-.2,.05-.31,.05-.3,0-2.9,0-3.88,.01-.25,0-.35-.08-.37-.34-.02-.23,0-.43,0-.66,0-1.09,0-2.17,0-3.26h0c0-.65,0-1.29,0-1.94s-.02-1.29-.03-1.94c0-.23,.02-.26,.23-.34,.27-.11,.55-.09,.84-.08,.18,.01,.38,.04,.54,.11,.16,.07,.35,.2,.35,.41,0,1.1-.03,5.38-.02,6.45,0,.04,0,.09,0,.13,0,.06,.04,.09,.1,.09,.1,0,1.69,0,2.41,0,.17,0,.26,.07,.31,.23,.08,.29,.07,.58,.03,.87Z"/><path class="t" d="M121.84,100.12c.01-.95,.08-1.98,.3-3,.04-.17,.09-.34,.14-.5,.15-.49,.52-.76,1.11-.78,.52-.02,1.04,0,1.57,0,.45,0,.89,.04,1.33,.09,.18,.02,.28,.1,.33,.24,.12,.35,.12,.71,.09,1.07-.01,.13-.09,.18-.24,.18-.14,0-.27-.02-.41-.04-.54-.05-1.08-.05-1.61,.06-.22,.05-.22,.05-.26,.25-.09,.5-.15,1.01-.19,1.52-.02,.2-.01,.2,.22,.19,.31-.01,.62-.02,.92,0,.38,.03,.45,.1,.51,.42,.04,.23,0,.45-.03,.67-.02,.16-.13,.31-.42,.33-.35,.02-.7,.05-1.05,.07-.22,.02-.23,.02-.23,.21,0,.49,.02,.99,.1,1.48,.03,.2,.03,.2,.26,.25,.25,.05,.51,.06,.77,.04,.26-.02,.53-.03,.8-.02,.46,.02,.57,.12,.61,.51,.02,.2,0,.39-.03,.58-.05,.25-.16,.35-.45,.39-.3,.05-.61,.06-.92,.07-.68,.03-1.37,.05-2.05-.07-.08-.01-.17-.04-.25-.05-.18-.04-.29-.14-.36-.29-.22-.5-.33-1.02-.41-1.55-.11-.74-.15-1.49-.16-2.33Z"/></g><polyline class="x" points="56.88 10.98 39.7 10.98 39.7 77.99 56.88 77.99"/><polyline class="w" points="55.98 105.03 55.98 114.74 132.99 114.74 132.99 105.03"/><polyline class="v" points="135.71 26.19 147.26 26.19 147.26 65.04 135.71 65.04"/><g><path class="p" d="M16.82,41.28h-2.23l-.22,1.5c.13-.02,.26-.04,.48-.04,.45,0,.9,.1,1.26,.31,.46,.26,.84,.77,.84,1.5,0,1.14-.91,2-2.18,2-.64,0-1.18-.18-1.46-.36l.2-.6c.24,.14,.72,.32,1.25,.32,.75,0,1.39-.49,1.39-1.27,0-.76-.51-1.3-1.68-1.3-.33,0-.59,.04-.81,.06l.38-2.81h2.8v.67Z"/><path class="p" d="M21.83,43.48c0,1.99-.74,3.09-2.03,3.09-1.14,0-1.92-1.07-1.94-3.01,0-1.96,.85-3.04,2.03-3.04s1.94,1.1,1.94,2.96Zm-3.18,.09c0,1.52,.47,2.39,1.19,2.39,.81,0,1.2-.95,1.2-2.44s-.37-2.39-1.19-2.39c-.69,0-1.2,.85-1.2,2.44Z"/><path class="p" d="M22.81,43.53c0-.56-.02-1.01-.04-1.42h.71l.04,.75h.02c.32-.53,.84-.85,1.55-.85,1.05,0,1.85,.89,1.85,2.21,0,1.57-.95,2.34-1.98,2.34-.58,0-1.08-.25-1.34-.68h-.02v2.37h-.78v-4.72Zm.78,1.16c0,.12,.02,.22,.04,.32,.14,.55,.62,.93,1.19,.93,.84,0,1.32-.68,1.32-1.68,0-.87-.46-1.62-1.3-1.62-.54,0-1.04,.39-1.2,.98-.03,.1-.05,.22-.05,.32v.75Z"/><path class="p" d="M28.18,42.11l.62,.94c.16,.24,.3,.47,.44,.71h.03c.14-.26,.29-.49,.43-.72l.61-.93h.86l-1.49,2.11,1.53,2.25h-.9l-.64-.98c-.17-.25-.31-.5-.47-.76h-.02c-.14,.26-.3,.5-.46,.76l-.63,.98h-.87l1.55-2.22-1.48-2.13h.88Z"/></g><g><path class="p" d="M89.1,122.95c-.16,0-.37,0-.59,.04-1.24,.21-1.9,1.12-2.04,2.08h.03c.28-.37,.76-.68,1.41-.68,1.04,0,1.76,.75,1.76,1.89,0,1.07-.73,2.06-1.94,2.06s-2.07-.97-2.07-2.49c0-1.15,.42-2.06,.99-2.64,.49-.48,1.13-.77,1.87-.86,.23-.04,.43-.04,.58-.04v.65Zm-.22,3.38c0-.84-.48-1.34-1.21-1.34-.48,0-.92,.3-1.13,.72-.05,.09-.09,.21-.09,.35,.02,.96,.46,1.67,1.29,1.67,.68,0,1.14-.57,1.14-1.41Z"/><path class="p" d="M93.87,123.06h-2.23l-.22,1.5c.13-.02,.26-.04,.48-.04,.45,0,.9,.1,1.26,.31,.46,.26,.84,.77,.84,1.5,0,1.14-.91,2-2.18,2-.64,0-1.18-.18-1.46-.36l.2-.6c.24,.14,.72,.32,1.25,.32,.75,0,1.39-.49,1.39-1.27,0-.76-.51-1.3-1.68-1.3-.33,0-.59,.04-.81,.06l.38-2.81h2.8v.67Z"/><path class="p" d="M95.24,125.31c0-.56-.02-1.01-.04-1.42h.71l.04,.75h.02c.32-.53,.84-.85,1.55-.85,1.05,0,1.85,.89,1.85,2.21,0,1.57-.95,2.34-1.98,2.34-.58,0-1.08-.25-1.34-.68h-.02v2.37h-.78v-4.72Zm.78,1.16c0,.12,.02,.22,.04,.32,.14,.55,.62,.93,1.19,.93,.84,0,1.32-.68,1.32-1.68,0-.87-.46-1.62-1.3-1.62-.54,0-1.04,.39-1.2,.98-.03,.1-.05,.22-.05,.32v.75Z"/><path class="p" d="M100.61,123.89l.62,.94c.16,.24,.3,.47,.44,.71h.03c.14-.26,.29-.49,.43-.72l.61-.93h.86l-1.49,2.11,1.53,2.25h-.9l-.64-.98c-.17-.25-.31-.5-.47-.76h-.02c-.14,.26-.3,.5-.46,.76l-.63,.98h-.87l1.55-2.22-1.48-2.13h.88Z"/></g><g><path class="p" d="M152.54,47.56v-.49l.62-.6c1.49-1.42,2.17-2.18,2.18-3.06,0-.59-.29-1.14-1.16-1.14-.53,0-.97,.27-1.24,.5l-.25-.56c.41-.34,.98-.59,1.66-.59,1.26,0,1.79,.86,1.79,1.7,0,1.08-.78,1.95-2.02,3.14l-.47,.43v.02h2.63v.66h-3.74Z"/><path class="p" d="M160.65,42.37h-2.23l-.22,1.5c.13-.02,.26-.04,.48-.04,.45,0,.9,.1,1.26,.31,.46,.26,.84,.77,.84,1.5,0,1.14-.91,2-2.18,2-.64,0-1.18-.18-1.46-.36l.2-.6c.24,.14,.72,.32,1.25,.32,.75,0,1.39-.49,1.39-1.27,0-.76-.51-1.3-1.68-1.3-.33,0-.59,.04-.81,.06l.38-2.81h2.8v.67Z"/><path class="p" d="M162.03,44.62c0-.56-.02-1.01-.04-1.42h.71l.04,.75h.02c.32-.53,.84-.85,1.55-.85,1.05,0,1.85,.89,1.85,2.21,0,1.57-.95,2.34-1.98,2.34-.58,0-1.08-.25-1.34-.68h-.02v2.37h-.78v-4.72Zm.78,1.16c0,.12,.02,.22,.04,.32,.14,.55,.62,.93,1.19,.93,.84,0,1.32-.68,1.32-1.68,0-.87-.46-1.62-1.3-1.62-.54,0-1.04,.39-1.2,.98-.03,.1-.05,.22-.05,.32v.75Z"/><path class="p" d="M167.39,43.2l.62,.94c.16,.24,.3,.47,.44,.71h.03c.14-.26,.29-.49,.43-.72l.61-.93h.86l-1.49,2.11,1.53,2.25h-.9l-.64-.98c-.17-.25-.31-.5-.47-.76h-.02c-.14,.26-.3,.5-.46,.76l-.63,.98h-.87l1.55-2.22-1.48-2.13h.88Z"/></g></g><g id="i"/><g id="j"/><g id="k"/><g id="l"/></svg>