<?xml version="1.0" encoding="UTF-8"?><svg xmlns="http://www.w3.org/2000/svg" xmlns:xlink="http://www.w3.org/1999/xlink" viewBox="0 0 194.84 235.38"><defs><style>.l{fill:none;}.m{fill:#fff;}.n{fill:#458744;filter:url(#f);}.o{clip-path:url(#e);}.p{clip-path:url(#d);}</style><clipPath id="d"><path class="l" d="M79.44,122.89c-3.12-3.49-7.34-6.94-12.92-10.27-10.41-8.79,1.34-1.57,1.34-1.57,0,0,9.77,6.42,15.22,8.51s-4.92-11.19-9.4-13.43c-4.48-2.24-2.27-2.47-.07-1.57,2.54,1.04,8.15,6.21,11.49,10,6.64,7.54,4.4-6.08,8.43-12.68s1.64,0-.15,5.37,2.91,14.03,5.75,13.43,7.31-5.97,6.27-12.39c-1.04-6.42-2.98-13.65,1.04-4.03s-1.72,10.74-1.49,13.73c.22,2.98,6.34-1.79,8.8-5.37,2.46-3.58,7.54-7.09,7.76-6.49s-3.21,2.76-5.07,5.45c-1.87,2.69-2.31,1.57-3.36,10.67-1.04,9.1,13.73-6.79,16.41-10.82,2.69-4.03,2.39-.3-.52,2.84s-16.08,15.44-15.37,31.78c.71,16.34,8.06,24.62,8.06,24.62,0,0-16.64,17.09-23.09,15.82s-24.32-16.97-24.32-16.97c5.14-5.9,22.9-26.83,5.2-46.62"/></clipPath><clipPath id="e"><path class="l" d="M-100.15,126.81c2.39,2.69,18.21,10.45,24.17-4.48,13.43,1.64,15.07-23.88,10-26.56,8.65-2.98,9.1-35.66-17.76-34.77,0,0-11.49-20.89-31.49-5.67-10-10.45-32.23-3.73-38.05,13.13-8.36-3.28-29.4,15.37-20.89,29.4-7.31,2.39-2.69,29.7,14.92,23.58,0,0,8.21,13.43,23.58,4.48s35.52,.9,35.52,.9Z"/></clipPath><filter id="f" filterUnits="userSpaceOnUse"><feOffset dx="-3" dy="0"/><feGaussianBlur result="g" stdDeviation="5"/><feFlood flood-color="#2e5127" flood-opacity=".3"/><feComposite in2="g" operator="in"/><feComposite in="SourceGraphic"/></filter></defs><g id="a"/><g id="b"/><g id="c"><g><g><path class="m" d="M24.22,80.39s40.74-5.67,74.35-46.67V202.31S25.34,179.1,24.22,80.39Z"/><path class="m" d="M172.88,80.39s-40.74-5.67-74.35-46.67V202.31s73.23-23.2,74.35-121.92Z"/></g><path d="M152.55,96.06c8.54-2.94,9.09-34.78-16.68-34.79-.35,0-.71,0-1.07,.02,0,0-6.17-11.22-17.34-11.22-4.07,0-8.8,1.49-14.14,5.55-3.26-3.41-7.82-4.99-12.69-4.99-10.06,0-21.44,6.75-25.36,18.12-.66-.26-1.39-.38-2.18-.38-9.3,0-26.54,16.85-18.71,29.78-6.58,2.15-3.49,24.47,10.01,24.47,1.51,0,3.14-.28,4.91-.89,0,0,4.62,7.55,13.41,7.55,2.93,0,6.33-.84,10.17-3.08,.18-.1-.89-2.72-2.11-3.44-2.81,1.61-5.59,2.52-8.06,2.52-6.36,0-9.86-5.43-10-5.64-.74-1.22-2.05-1.91-3.41-1.91-.44,0-.88,.07-1.31,.22-1.28,.44-2.49,.67-3.59,.67-4.68,0-7.06-4.18-8.06-6.66-1.95-4.84-1.28-9.18-.55-10.06,1.08-.41,1.94-1.26,2.35-2.36,.42-1.14,.3-2.42-.33-3.46-2.65-4.37-1.05-9.12,.76-12.34,2.96-5.26,9.95-11.37,14.53-11.37,.4,0,.62,.06,.72,.1,.47,.18,.97,.28,1.46,.28,.57,0,1.14-.12,1.68-.37,.99-.46,1.75-1.3,2.11-2.33,3.46-10.02,13.7-15.42,21.58-15.42,2.83,0,6.83,.65,9.8,3.75,.78,.82,1.83,1.23,2.89,1.23,.85,0,1.7-.27,2.42-.82,4.13-3.14,8.07-4.74,11.72-4.74,8.61,0,13.8,9.07,13.84,9.15,.7,1.28,2.05,2.07,3.5,2.07,.04,0,.09,0,.13,0,.32-.01,.63-.02,.94-.02,13.68,0,16.89,10.35,17.64,14.8,1.19,7.09-1.21,11.85-2.26,12.21-1.51,.52-2.56,1.88-2.68,3.47-.11,1.46,.58,2.86,1.79,3.65,1.06,1.69,1.52,9.37-1.24,15.01-2.1,4.28-4.54,4.28-5.34,4.28-.24,0-.48-.02-.73-.05-.16-.02-.33-.03-.49-.03-1.62,0-3.1,.98-3.71,2.51-1.74,4.35-4.41,6.38-8.4,6.38-4.21,0-9.35-2.63-10.07-3.35-.34-.38-1.74,1.63-2.68,2.62,.43,.19,.69,.31,.69,.31,1.3,1.46,6.56,4.42,12.06,4.42,4.61,0,9.39-2.09,12.11-8.9,.42,.05,.82,.08,1.22,.08,12.31,0,13.69-24.03,8.78-26.64Z"/><g><path d="M103.3,55.62c4.1-3.12,7.83-4.7,11.18-5.28-5.36-4.76-10.73-10.24-15.92-16.58v-.04l-.02,.02-.02-.02v.04c-6.41,7.81-13.07,14.33-19.66,19.78,8.5-4.26,18.57-4.05,24.43,2.08Z"/><path d="M156.59,75.84c1.82,5.72,1.5,11.86-.2,15.9,.29,.09,.58,.19,.87,.28-2.41,30.75-13,55.79-31.54,74.56-10.57,10.7-21.26,16.64-27.16,19.4-5.91-2.76-16.6-8.71-27.17-19.4-13.58-13.74-22.88-30.87-27.83-51.12-2.06-3.82-2.84-8.44-2.39-11.97-.57-3.73-1.02-7.55-1.32-11.47,.82-.26,1.67-.54,2.54-.84-.13-12.46,15.85-25.2,22.87-22.44,1.15-3.33,2.95-6.26,5.16-8.75-24.67,17.39-46.2,20.39-46.2,20.39,1.11,97.63,72.74,121.39,74.31,121.9h.04c1.57-.51,73.21-24.28,74.31-121.9,0,0-6.43-.9-16.29-4.55Z"/></g><g/><path d="M92.01,117.5c.46,.93,.97,1.79,1.51,2.54,1.65,2.28,3.53,3.49,5.44,3.49,.3,0,.61-.03,.9-.09,1.29-.27,2.7-1.07,4-2.27,.6,.38,1.32,.59,2.11,.59,1.38,0,2.94-.71,4.45-1.75-.07,.53-.13,1.11-.2,1.72-.09,.77-.36,3.1,1.11,4.75,.79,.88,1.9,1.37,3.13,1.37,.18,0,.36-.01,.54-.04-2.64,5.18-4.58,11.36-4.28,18.19,.53,12.19,5.86,22.27,8.29,26.04-7.46,6.21-17.62,11.72-20.46,12.67-6.56-2.92-15.78-11.94-20.09-15.54,9.16-11.3,12.99-22.15,11.37-32.29-.81-5.1-3-9.9-6.53-14.36,.29,.05,.57,.08,.84,.08,1.71,0,3.12-1.09,3.5-2.7,.02-.1,.05-.22,.07-.35,.2,.03,.4,.04,.61,.04,1.75,0,2.89-.82,3.68-2.09m3.72-18.57c-.25,0-.88,.79-2.08,2.77-3.2,5.24-2.45,14.89-5.32,14.89-.75,0-1.74-.65-3.11-2.21-3.34-3.79-8.95-8.95-11.49-10-.77-.32-1.54-.5-2.03-.5-.9,0-.8,.61,2.1,2.06,4.15,2.08,13.38,13.65,10.34,13.65-.24,0-.55-.07-.94-.22-5.45-2.09-15.22-8.51-15.22-8.51,0,0-4.54-2.79-5.48-2.79-.57,0,.2,1.03,4.13,4.36,37.27,22.22,13.65,50.14,7.61,57.08,0,0,15.18,13.32,24.32,16.97,4.7-.19,23.2-16,23.2-16,0,0-7.35-8.28-8.06-24.62-.71-16.34,12.46-28.65,15.37-31.78,2-2.16,2.77-4.59,2.18-4.59-.27,0-.82,.5-1.65,1.76-2.1,3.16-11.62,13.59-15.15,13.59-.98,0-1.49-.8-1.27-2.77,1.04-9.1,1.49-7.98,3.36-10.67,1.87-2.69,5.3-4.85,5.07-5.45-.02-.05-.06-.07-.13-.07-.85,0-5.35,3.25-7.63,6.56-1.92,2.79-6.06,6.31-7.9,6.31-.52,0-.85-.28-.9-.94-.22-2.98,5.52-4.1,1.49-13.73-1.41-3.36-2.09-4.67-2.33-4.67-.45,0,.61,4.52,1.29,8.7,1.04,6.42-3.43,11.79-6.27,12.39-.09,.02-.19,.03-.29,.03-2.85,0-7.19-8.26-5.46-13.46,1.26-3.77,2.8-8.14,2.23-8.14h0Z"/><g class="p"><rect x="57.22" y="83.08" width="41.41" height="118.86"/></g></g><g class="o"><path class="n" d="M-26.82,72.08s-3.74-16.23-25.53-17.94c-.99-.08-1.97-.21-2.95-.36-.65-7.88-8.33-18.01-23.66-14.4,0,0-4.82-5.84-14.18-7.14-.14-.14-.21-.22-.21-.22-1.62-3.69-16.68-19.73-30.11-10.77-13.54-8.57-25.47,7.44-24.06,14.47-5.38-1.24-8.85-2.51-8.85-2.51-3.09-2.59-23.73-10.22-31.76,3.79-17.59-1.8-20.08,22.31-13.47,24.95-11.39,2.66-12.41,33.57,22.82,33.23,0,0,14.79,19.98,41.21,5.95,7.63,5.92,20.88,6.3,32.1,2.39,8.84,13.26,35.36,19.64,48.7,9.53,8.31,7.79,40.93,4.76,37.1-12.15,9.56,2.39,16.02-23.35-7.16-28.8Z"/></g></g><g id="h"/><g id="i"/><g id="j"/><g id="k"/></svg>