<?xml version="1.0" encoding="UTF-8"?><svg xmlns="http://www.w3.org/2000/svg" xmlns:xlink="http://www.w3.org/1999/xlink" viewBox="0 0 427.97 98.55"><defs><style>.i{fill:url(#g);}.j{fill:#e96b24;}.k{fill:#7e4d2c;}.l{fill:#458744;}.m{fill:#57a855;}.n{fill:#386c37;}.o{fill:#633e23;}</style><linearGradient id="g" x1="81.68" y1="36.06" x2="81.68" y2="103.65" gradientTransform="matrix(1, 0, 0, 1, 0, 0)" gradientUnits="userSpaceOnUse"><stop offset=".33" stop-color="#fff"/><stop offset=".78" stop-color="#4c8fb5"/></linearGradient></defs><g id="a"/><g id="b"/><g id="c"/><g id="d"/><g id="e"/><g id="f"><g><path class="i" d="M110.86,37.62s-15.98-2.22-29.17-18.3v-.02h-.01v.02c-13.19,16.08-29.17,18.3-29.17,18.3,.43,38.33,28.56,47.66,29.17,47.86h.01c.62-.2,28.74-9.53,29.17-47.86Z"/><path class="j" d="M81.94,28.35c8.5,8.26,17.33,12.11,22.78,13.84-2,25.16-17.61,34.43-23.04,36.91-5.44-2.49-21.05-11.76-23.05-36.91,5.44-1.73,14.27-5.57,22.78-13.84l.27,.33,.27-.33m-.26-9.05h-.01v.02c-13.19,16.08-29.17,18.3-29.17,18.3,.43,38.33,28.56,47.66,29.17,47.86h.01c.62-.2,28.74-9.53,29.17-47.86,0,0-15.98-2.22-29.17-18.3v-.02h0Z"/><path class="n" d="M89.46,55.96c.94,1.05,7.15,4.1,9.49-1.76,5.27,.64,5.92-9.37,3.93-10.43,3.4-1.17,3.57-14-6.97-13.65,0,0-4.51-8.2-12.36-2.23-3.93-4.1-12.65-1.46-14.94,5.16-3.28-1.29-11.54,6.03-8.2,11.54-2.87,.94-1.05,11.66,5.86,9.26,0,0,3.22,5.27,9.26,1.76s13.94,.35,13.94,.35Z"/><g><path class="l" d="M89.65,45.82c-.72,.38-1.49,.7-2.28,.98,2.74,4.12,9.82,6.55,15.27,5.42,1.04-1.7,1.41-4.14,1.24-5.98-1.03-.15-1.89-.49-2.4-1.01-3.16,2.68-8.31,2.53-11.83,.59Z"/><path class="l" d="M59.9,44.89c2.26,1.97,7.37,4.96,14.86,.98,3,2.33,8.2,2.46,12.6,.92,.79-.28,1.56-.6,2.28-.98-1.58-.87-2.83-2.1-3.43-3.61-9.27,.85-10.13-7.33-10.13-7.33-3.1-1.49-4.65-3.51-5.2-5.52-.98,1.03-1.79,2.26-2.28,3.69-3.28-1.29-11.54,6.03-8.2,11.54-.19,.06-.35,.16-.5,.3Z"/><path class="m" d="M76.09,34.88s.86,8.17,10.13,7.33c.59,1.5,1.85,2.74,3.43,3.61,3.52,1.94,8.67,2.08,11.83-.59,.51,.52,1.37,.86,2.4,1.01-.11-1.22-.46-2.17-1-2.46,3.4-1.17,3.57-14-6.97-13.65,0,0-4.51-8.2-12.36-2.23-3.08-3.21-9.09-2.28-12.66,1.46,.56,2.01,2.1,4.03,5.2,5.52Z"/></g><path class="k" d="M72.13,72.61c2.37-2.72,11.64-13.69-2.99-22.41-4.09-3.45,.53-.62,.53-.62,0,0,3.84,2.52,5.98,3.34s-1.93-4.39-3.69-5.27c-1.76-.88-.89-.97-.03-.62,1,.41,3.2,2.44,4.51,3.93,2.61,2.96,1.73-2.39,3.31-4.98s.64,0-.06,2.11,1.14,5.51,2.26,5.27,2.87-2.34,2.46-4.86c-.41-2.52-1.17-5.36,.41-1.58,1.58,3.78-.67,4.22-.59,5.39s2.49-.7,3.46-2.11c.97-1.41,2.96-2.78,3.05-2.55s-1.26,1.08-1.99,2.14c-.73,1.05-.91,.62-1.32,4.19s5.39-2.67,6.44-4.25,.94-.12-.21,1.11-6.31,6.06-6.03,12.48,3.16,9.67,3.16,9.67c0,0-7.26,6.21-9.11,6.28-3.59-1.44-9.55-6.66-9.55-6.66Z"/><path class="o" d="M81.71,53.44c-1.12-.15-2.72-3.28-2.06-5.27,.7-2.11,1.64-4.7,.06-2.11-1.58,2.59-.7,7.94-3.31,4.98-1.31-1.49-3.52-3.51-4.51-3.93-.86-.36-1.73-.26,.03,.62,1.76,.88,5.83,6.09,3.69,5.27-2.14-.82-5.98-3.34-5.98-3.34,0,0-4.61-2.83-.53,.62,14.63,8.72,5.4,19.61,3.03,22.33,0,0,7.02,6.17,9.55,6.66,0,0,.02,0,.02,0v-25.83Z"/></g><g><path class="o" d="M149.31,54.03c-.1,3.82-.19,7.64-.29,11.46,0,.12-.03,.23,0,.34,.23,1.09-.44,1.67-1.32,2.07-1.43,.65-2.88,.62-4.28-.12-.86-.46-1.34-1.14-1.31-2.17,.11-4.05-.17-8.1-.12-12.15,.05-3.88,.13-6.42,.2-10.29,0-.17,0-.35,.01-.52,.02-.28-.09-.43-.4-.43-.21,0-.42,0-.62,0-2.49,0-4.98,0-7.48,.04-.62,.01-1-.23-1.32-.68-.84-1.19-.95-4.28,.16-5.26,.45-.4,1.31-.52,1.77-.52,6.59,0,13.17,0,19.76,0,.56,0,1.89-.03,2.46,0,2.42,0,2.53,3.63,1.57,5.31-.35,.62-.85,.97-1.64,.96-1.93-.03-3.8,.03-5.78,.08-.2-.02-.41,.03-.62,.04-.29,.01-.42,.17-.43,.44-.02,.46-.06,.92-.07,1.38-.08,3.79-.15,6.24-.22,10.03h-.01Z"/><path class="o" d="M163.52,41.79c0-.17-.03-.33-.01-.49,.03-.4-.17-.53-.6-.51-.67,.02-1.34,.03-2.01,0-.99-.04-1.49-.45-1.49-1.33,0-1.04-.32-2.14,.09-3.15,.27-.67,.71-.98,1.54-1.04,3.64-.25,7.27-.04,10.9,0,.49,0,.98,.05,1.45,.17,.72,.19,.97,.47,.92,1.14-.09,1.12,.09,2.04-.06,3.16-.11,.84-.38,1.01-1.35,.94-.55-.04-1.06,.15-1.61,.13-.69-.03-.74,0-.76,.62-.06,1.51-.4,15.53-.48,20.8,.03,.62,.14,.87,1.34,.8,.46-.02,.92-.05,1.37-.04,.98,.03,1.49,.44,1.52,1.31,.03,1.01,0,1.78-.04,2.8-.02,.36-.33,.83-1.11,.83-.34,0-12.23,0-12.42,0-1.4,.05-2.03,.05-2.18-1.24-.07-.6-.1-1.21-.1-1.81,0-1,.2-1.77,1.3-1.77,.93,0,1.84,.02,2.66-.02,.74-.04,.88-.17,.89-.85,.06-3.5,.15-16.97,.25-20.46Z"/><path class="o" d="M192.29,48.64c.31-.11,.36-.37,.49-.58,2.45-4,4.92-8.19,7.35-12.19,.23-.38,.49-.57,1.01-.56,1.37,.03,3.18-.02,4.56,0,.78,0,.89,.09,.9,.77,.04,1.72,.04,3.63,.05,5.36,.02,8.21,.03,16.26,.04,24.47,0,1.2,0,1.17-1.39,1.18-1.7,.03-3.71,0-5.32,0-.84-.02-.88-.11-.88-.83,.02-5.42,.13-9.69,.25-15.11,0-.14,0-.27,0-.45-.4,.04-.41,.34-.52,.52-1.15,2-2.41,3.96-3.64,5.93-.31,.5-.68,.7-1.33,.68-1.22-.04-2.44-.04-3.65,0-.68,.03-1.03-.28-1.32-.73-.87-1.36-1.76-2.71-2.64-4.07-.49-.76-.98-1.52-1.47-2.27-.32,.08-.22,.28-.22,.42,0,4.87-.04,8.76,.12,13.63,.02,.6-.05,1.2-.06,1.8,0,.38-.21,.55-.62,.56-.12,0-.25,0-.37,0-1.9-.04-4.42-.06-6.32-.11-.99-.03-1.06-.09-1.03-.97,0-5.27,.11-24.3,.25-28.64,.06-1.74,.27-2.1,2.23-2.15,1.15-.03,3.45,.02,4.6,0,.54,0,.82,.18,1.08,.6,2.45,4,4.91,8.17,7.38,12.16,.13,.21,.21,.46,.48,.58Z"/><path class="o" d="M227.72,49.06c.2,.25,.43,.26,.62,.33,3.62,1.44,5.43,4.1,5.68,7.67,.42,5.88-4.48,11.7-10.56,12.95-1.67,.34-3.36,.47-5.05,.1-.92-.2-1.8-.52-2.57-1.04-.37-.25-.73-.35-1.18-.31-.57,.05-1.15,.03-1.73-.04-.75-.09-1.28-.43-1.63-1.07-.42-.76-.7-1.57-.92-2.4-.65-2.44-.86-4.93-.95-7.43-.17-4.58,.18-9.13,.87-13.67,.38-2.47,.82-4.93,1.38-7.38,.13-.55,.38-.87,.98-1.05,4.39-1.38,8.75-1.44,13.08,.15,1.84,.68,3.41,1.73,4.62,3.21,1.63,2,1.79,4.16,.7,6.41-.52,1.07-1.32,1.96-2.28,2.73-.34,.28-.7,.54-1.07,.82Zm-11.68,7.04h.05c.1,1.13,.17,2.26,.31,3.39s.39,2.24,.52,3.36c.08,.71,.49,1.01,1.19,1.15,2.51,.5,4.68-.16,6.54-1.74,1.56-1.33,2.37-3.02,2.19-5.01-.21-2.23-1.47-3.83-3.69-4.65-2.34-.87-4.57-.52-6.65,.78-.35,.22-.5,.53-.48,.94,.03,.59,0,1.19,0,1.78Zm.17-8.8c-.02,.28-.03,.57-.05,.85-.05,.74-.03,.79,.79,.67,2.41-.36,4.58-1.24,6.45-2.74,.58-.46,1.07-1,1.49-1.6,1.78-2.53,.83-4.92-2.28-5.72-1.52-.39-3.05-.29-4.59-.04-.55,.09-.76,.32-.85,.81-.49,2.57-.8,5.16-.96,7.77Z"/><path class="o" d="M235.6,50.99c.04-3.59,.3-7.5,1.14-11.37,.14-.64,.33-1.27,.52-1.9,.58-1.87,1.97-2.88,4.21-2.96,1.98-.06,3.96,0,5.93,0,1.69,.01,3.37,.14,5.04,.34,.67,.08,1.05,.38,1.24,.93,.46,1.33,.46,2.69,.35,4.05-.04,.49-.34,.7-.92,.69-.52,0-1.03-.09-1.55-.13-2.04-.17-4.08-.19-6.1,.22-.84,.17-.84,.18-.97,.93-.34,1.91-.57,3.83-.73,5.76-.06,.74-.04,.74,.83,.71,1.17-.04,2.34-.06,3.5,.02,1.44,.1,1.71,.37,1.92,1.59,.14,.86-.03,1.7-.1,2.55-.06,.62-.49,1.17-1.59,1.24-1.33,.08-2.65,.18-3.98,.27-.85,.06-.87,.06-.86,.79,.02,1.88,.09,3.75,.38,5.61,.11,.75,.13,.75,.98,.93,.96,.21,1.93,.21,2.9,.14,1-.07,2.01-.12,3.01-.07,1.74,.09,2.15,.44,2.33,1.94,.09,.74,.03,1.48-.1,2.21-.18,.96-.61,1.31-1.7,1.49-1.15,.19-2.32,.22-3.49,.28-2.59,.13-5.19,.2-7.76-.25-.32-.06-.63-.14-.94-.21-.68-.16-1.09-.53-1.35-1.11-.84-1.9-1.26-3.88-1.56-5.88-.43-2.82-.57-5.66-.59-8.83Z"/><path class="o" d="M269.07,57.33c.1,.29,.35,.48,.55,.7,2.09,2.35,4.19,4.69,6.28,7.04,.84,.94,.81,1.65-.23,2.43-1.45,1.08-3.12,1.36-4.94,.84-.39-.11-.64-.36-.88-.64-.78-.91-1.57-1.8-2.33-2.72-1.22-1.47-2.43-2.94-3.65-4.41-.16-.2-.29-.44-.58-.55-.21,.29-.15,.58-.15,.85-.04,1.63-.06,3.26-.09,4.89-.01,.51,0,1.04-.3,1.5-.44,.66-1.13,1-1.95,1.12-1.56,.22-2.97-.18-4.29-.88-.38-.2-.53-.53-.63-.91-.36-1.43-.41-2.89-.43-4.35-.04-2.83-.08-5.66-.05-8.49,.05-4.98,.54-9.93,1.31-14.87,.2-1.3,.83-2.09,2.28-2.51,4.04-1.17,8.02-1.32,11.95,.28,5.39,2.19,7.88,7.21,6.12,12.27-1.18,3.4-3.63,5.92-6.95,7.81-.35,.2-.74,.33-1.03,.61Zm-5.77-3.69c.33,.06,.49-.04,.66-.12,2.07-.93,3.77-2.24,5.04-3.97,.72-.99,1.26-2.06,1.44-3.24,.32-2.12-.26-3.93-2.36-5.15-1.21-.71-2.59-.93-4.02-.91-.42,0-.57,.17-.55,.52,0,.2,0,.4,0,.6-.07,3.46-.13,6.92-.2,10.37-.01,.62,0,1.25,0,1.89Z"/><path class="o" d="M308.77,54.03c-.1,3.82-.19,7.64-.29,11.46,0,.12-.03,.23,0,.34,.23,1.09-.44,1.67-1.32,2.07-1.43,.65-2.88,.62-4.28-.12-.86-.46-1.34-1.14-1.31-2.17,.11-4.05-.17-8.1-.12-12.15,.05-3.88,.13-6.42,.2-10.29,0-.17,0-.35,.01-.52,.02-.28-.09-.43-.4-.43-.21,0-.42,0-.62,0-2.49,0-4.98,0-7.48,.04-.62,.01-1-.23-1.32-.68-.84-1.19-.95-4.28,.16-5.26,.45-.4,1.31-.52,1.77-.52,6.59,0,13.17,0,19.76,0,.56,0,1.89-.03,2.46,0,2.42,0,2.53,3.63,1.57,5.31-.35,.62-.85,.97-1.64,.96-1.93-.03-3.8,.03-5.78,.08-.21-.02-.41,.03-.62,.04-.29,.01-.42,.17-.43,.44-.02,.46-.06,.92-.07,1.38-.08,3.79-.15,6.24-.22,10.03h-.01Z"/><path class="o" d="M338.21,53.76c-.09,3.47-.45,7.57-2,11.51-.38,.99-.88,1.92-1.53,2.79-.23,.3-.49,.56-.86,.72-1.35,.59-2.74,.71-4.16,.26-.85-.27-.94-.51-.62-1.27,1.46-3.43,2.26-7,2.67-10.64,.08-.69,.06-.72-.73-.65-2.54,.23-5.09,.49-7.63,.72-.59,.05-.67,.34-.67,.78,.03,3.49,.48,6.92,1.67,10.25,.4,1.11,.02,2.16-1.09,2.77-1.45,.8-2.96,.76-4.47,.11-.42-.18-.61-.52-.81-.87-1.19-2.09-1.83-4.33-2.1-6.64-.94-7.88,.48-15.42,4.36-22.56,.8-1.47,1.78-2.85,2.95-4.11,1.78-1.92,4.05-2.48,6.7-1.9,1.57,.34,2.82,1.14,3.87,2.24,1.38,1.45,2.28,3.12,2.87,4.93,1.17,3.56,1.55,7.21,1.58,11.56Zm-9.9-14.2c-.45,.32-.62,.68-.84,1.01-2.54,3.78-3.77,7.94-4.41,12.27-.12,.77-.05,.8,.83,.75,2.42-.17,4.84-.33,7.26-.51,.72-.05,.73-.05,.72-.75-.05-3.07-.54-6.08-1.63-9-.48-1.29-1.06-2.55-1.92-3.76Z"/><path class="o" d="M358.76,66.53c-.05,.4-.35,.63-.7,.77-.37,.15-.76,.2-1.16,.2-1.15,0-11,0-14.72,.05-.96,.01-1.32-.31-1.39-1.27-.06-.89-.03-1.62-.04-2.52-.01-4.12-.02-8.24-.04-12.36h-.03c0-2.45,.03-4.9,.02-7.35s-.07-4.9-.1-7.35c0-.87,.07-.98,.88-1.29,1.03-.4,2.1-.36,3.17-.29,.67,.04,1.42,.14,2.05,.42,.62,.28,1.33,.77,1.33,1.54,0,4.18-.12,20.39-.09,24.45,0,.17,.01,.33,.02,.5,0,.24,.14,.33,.38,.33,.38,0,6.4-.02,9.12-.02,.65,0,1,.26,1.16,.87,.29,1.09,.25,2.21,.11,3.32Z"/><path class="o" d="M359.63,50.99c.04-3.59,.3-7.5,1.14-11.37,.14-.64,.33-1.27,.52-1.9,.58-1.87,1.97-2.88,4.21-2.96,1.98-.06,3.96,0,5.93,0,1.69,.01,3.37,.14,5.04,.34,.67,.08,1.05,.38,1.24,.93,.46,1.33,.46,2.69,.35,4.05-.04,.49-.34,.7-.92,.69-.52,0-1.03-.09-1.55-.13-2.04-.17-4.08-.19-6.1,.22-.84,.17-.84,.18-.97,.93-.34,1.91-.57,3.83-.73,5.76-.06,.74-.04,.74,.83,.71,1.17-.04,2.34-.06,3.5,.02,1.44,.1,1.71,.37,1.92,1.59,.14,.86-.03,1.7-.1,2.55-.06,.62-.49,1.17-1.59,1.24-1.33,.08-2.65,.18-3.98,.27-.85,.06-.87,.06-.86,.79,.02,1.88,.09,3.75,.38,5.61,.11,.75,.13,.75,.98,.93,.96,.21,1.93,.21,2.9,.14,1-.07,2.01-.12,3.01-.07,1.74,.09,2.15,.44,2.33,1.94,.09,.74,.03,1.48-.1,2.21-.18,.96-.61,1.31-1.7,1.49-1.15,.19-2.32,.22-3.49,.28-2.59,.13-5.19,.2-7.76-.25-.32-.06-.63-.14-.94-.21-.68-.16-1.09-.53-1.35-1.11-.84-1.9-1.26-3.88-1.56-5.88-.43-2.82-.57-5.66-.59-8.83Z"/></g></g><g id="h"/></svg>