<?xml version="1.0" encoding="UTF-8"?><svg xmlns="http://www.w3.org/2000/svg" viewBox="0 0 194.84 235.38"><defs><style>.h{fill:#e96b24;}.i{fill:#7e4d2c;}.j{fill:#458744;}</style></defs><g id="a"/><g id="b"/><g id="c"><g><path class="h" d="M97.05,47.97c21.67,21.08,44.17,30.88,58.02,35.26-2.4,30.73-12.98,55.76-31.51,74.51-10.57,10.69-21.26,16.63-27.15,19.39-5.9-2.75-16.59-8.7-27.15-19.39-18.53-18.75-29.11-43.78-31.51-74.51,13.84-4.38,36.31-14.16,57.96-35.2l.64,.79,.7-.85m-.62-22.91l-.02,.02-.02-.02v.04C62.85,65.99,22.21,71.65,22.21,71.65c1.11,97.46,72.62,121.19,74.19,121.7h.04c1.57-.51,73.08-24.24,74.19-121.7,0,0-40.64-5.66-74.19-46.55v-.04h0Z"/><path class="j" d="M116.21,118.28c2.38,2.68,18.17,10.43,24.13-4.47,13.41,1.64,15.05-23.84,9.98-26.52,8.64-2.98,9.09-35.6-17.73-34.71,0,0-11.47-20.86-31.43-5.66-9.98-10.43-32.18-3.72-37.99,13.11-8.34-3.28-29.35,15.34-20.86,29.35-7.3,2.38-2.68,29.65,14.9,23.54,0,0,8.19,13.41,23.54,4.47,15.34-8.94,35.46,.89,35.46,.89Z"/><g/><path class="i" d="M72.15,160.62c6.03-6.93,29.61-34.8-7.6-56.98-10.39-8.77,1.34-1.56,1.34-1.56,0,0,9.76,6.41,15.2,8.49,5.44,2.09-4.92-11.17-9.39-13.41s-2.27-2.47-.07-1.56c2.53,1.04,8.14,6.2,11.47,9.98,6.63,7.52,4.39-6.07,8.42-12.66,4.02-6.59,1.64,0-.15,5.36-1.79,5.36,2.9,14,5.74,13.41,2.83-.6,7.3-5.96,6.26-12.36-1.04-6.41-2.98-13.63,1.04-4.02,4.02,9.61-1.71,10.73-1.49,13.71,.22,2.98,6.33-1.79,8.79-5.36,2.46-3.58,7.52-7.08,7.75-6.48,.22,.6-3.2,2.76-5.07,5.44-1.86,2.68-2.31,1.56-3.35,10.65-1.04,9.09,13.71-6.78,16.39-10.8,2.68-4.02,2.38-.3-.52,2.83s-16.05,15.42-15.34,31.73c.71,16.31,8.04,24.58,8.04,24.58,0,0-18.47,15.79-23.16,15.98-9.12-3.65-24.28-16.95-24.28-16.95Z"/><g/></g></g><g id="d"/><g id="e"/><g id="f"/><g id="g"/></svg>