<?xml version="1.0" encoding="UTF-8"?><svg xmlns="http://www.w3.org/2000/svg" xmlns:xlink="http://www.w3.org/1999/xlink" viewBox="0 0 194.28 288.32"><defs><style>.i{fill:url(#f);}.j{fill:#e96b24;}.k{fill:#7e4d2c;}.l{fill:#458744;}.m{fill:#57a855;}.n{fill:#386c37;}.o{fill:#633e23;}</style><linearGradient id="f" x1="100.52" y1="62.11" x2="100.52" y2="185.47" gradientTransform="matrix(1, 0, 0, 1, 0, 0)" gradientUnits="userSpaceOnUse"><stop offset=".33" stop-color="#fff"/><stop offset=".78" stop-color="#4c8fb5"/></linearGradient></defs><g id="a"/><g id="b"><g><path class="o" d="M45.16,196.74c-.1,3.82-.19,7.64-.29,11.46,0,.12-.03,.23,0,.34,.23,1.09-.44,1.67-1.32,2.07-1.43,.65-2.88,.62-4.28-.12-.86-.46-1.34-1.14-1.31-2.17,.11-4.05-.17-8.1-.12-12.15,.05-3.88,.13-6.42,.2-10.29,0-.17,0-.35,.01-.52,.02-.28-.09-.43-.4-.43-.21,0-.42,0-.62,0-2.49,0-4.98,0-7.48,.04-.62,.01-1-.23-1.32-.68-.84-1.19-.95-4.28,.16-5.26,.45-.4,1.31-.52,1.77-.52,6.59,0,13.17,0,19.76,0,.56,0,1.89-.03,2.46,0,2.42,0,2.53,3.63,1.57,5.31-.35,.62-.85,.97-1.64,.96-1.93-.03-3.8,.03-5.78,.08-.2-.02-.41,.03-.62,.04-.29,.01-.42,.17-.43,.44-.02,.46-.06,.92-.07,1.38-.08,3.79-.15,6.24-.22,10.03h-.01Z"/><path class="o" d="M59.37,184.5c0-.17-.03-.33-.01-.49,.03-.4-.17-.53-.6-.51-.67,.02-1.34,.03-2.01,0-.99-.04-1.49-.45-1.49-1.33,0-1.04-.32-2.14,.09-3.15,.27-.67,.71-.98,1.54-1.04,3.64-.25,7.27-.04,10.9,0,.49,0,.98,.05,1.45,.17,.72,.19,.97,.47,.92,1.14-.09,1.12,.09,2.04-.06,3.16-.11,.84-.38,1.01-1.35,.94-.55-.04-1.06,.15-1.61,.13-.69-.03-.74,0-.76,.62-.06,1.51-.4,15.53-.48,20.8,.03,.62,.14,.87,1.34,.8,.46-.02,.92-.05,1.37-.04,.98,.03,1.49,.44,1.52,1.31,.03,1.01,0,1.78-.04,2.8-.02,.36-.33,.83-1.11,.83-.34,0-12.23,0-12.42,0-1.4,.05-2.03,.05-2.18-1.24-.07-.6-.1-1.21-.1-1.81,0-1,.2-1.77,1.3-1.77,.93,0,1.84,.02,2.66-.02,.74-.04,.88-.17,.89-.85,.06-3.5,.15-16.97,.25-20.46Z"/><path class="o" d="M88.14,191.35c.31-.11,.36-.37,.49-.58,2.45-4,4.92-8.19,7.35-12.19,.23-.38,.49-.57,1.01-.56,1.37,.03,3.18-.02,4.56,0,.78,0,.89,.09,.9,.77,.04,1.72,.04,3.63,.05,5.36,.02,8.21,.03,16.26,.04,24.47,0,1.2,0,1.17-1.39,1.18-1.7,.03-3.71,0-5.32,0-.84-.02-.88-.11-.88-.83,.02-5.42,.13-9.69,.25-15.11,0-.14,0-.27,0-.45-.4,.04-.41,.34-.52,.52-1.15,2-2.41,3.96-3.64,5.93-.31,.5-.68,.7-1.33,.68-1.22-.04-2.44-.04-3.65,0-.68,.03-1.03-.28-1.32-.73-.87-1.36-1.76-2.71-2.64-4.07-.49-.76-.98-1.52-1.47-2.27-.32,.08-.22,.28-.22,.42,0,4.87-.04,8.76,.12,13.63,.02,.6-.05,1.2-.06,1.8,0,.38-.21,.55-.62,.56-.12,0-.25,0-.37,0-1.9-.04-4.42-.06-6.32-.11-.99-.03-1.06-.09-1.03-.97,0-5.27,.11-24.3,.25-28.64,.06-1.74,.27-2.1,2.23-2.15,1.15-.03,3.45,.02,4.6,0,.54,0,.82,.18,1.08,.6,2.45,4,4.91,8.17,7.38,12.16,.13,.21,.21,.46,.48,.58Z"/><path class="o" d="M123.56,191.77c.2,.25,.43,.26,.62,.33,3.62,1.44,5.43,4.1,5.68,7.67,.42,5.88-4.48,11.7-10.56,12.95-1.67,.34-3.36,.47-5.05,.1-.92-.2-1.8-.52-2.57-1.04-.37-.25-.73-.35-1.18-.31-.57,.05-1.15,.03-1.73-.04-.75-.09-1.28-.43-1.63-1.07-.42-.76-.7-1.57-.92-2.4-.65-2.44-.86-4.93-.95-7.43-.17-4.58,.18-9.13,.87-13.67,.38-2.47,.82-4.93,1.38-7.38,.13-.55,.38-.87,.98-1.05,4.39-1.38,8.75-1.44,13.08,.15,1.84,.68,3.41,1.73,4.62,3.21,1.63,2,1.79,4.16,.7,6.41-.52,1.07-1.32,1.96-2.28,2.73-.34,.28-.7,.54-1.07,.82Zm-11.68,7.04h.05c.1,1.13,.17,2.26,.31,3.39s.39,2.24,.52,3.36c.08,.71,.49,1.01,1.19,1.15,2.51,.5,4.68-.16,6.54-1.74,1.56-1.33,2.37-3.02,2.19-5.01-.21-2.23-1.47-3.83-3.69-4.65-2.34-.87-4.57-.52-6.65,.78-.35,.22-.5,.53-.48,.94,.03,.59,0,1.19,0,1.78Zm.17-8.8c-.02,.28-.03,.57-.05,.85-.05,.74-.03,.79,.79,.67,2.41-.36,4.58-1.24,6.45-2.74,.58-.46,1.07-1,1.49-1.6,1.78-2.53,.83-4.92-2.28-5.72-1.52-.39-3.05-.29-4.59-.04-.55,.09-.76,.32-.85,.81-.49,2.57-.8,5.16-.96,7.77Z"/><path class="o" d="M131.45,193.7c.04-3.59,.3-7.5,1.14-11.37,.14-.64,.33-1.27,.52-1.9,.58-1.87,1.97-2.88,4.21-2.96,1.98-.06,3.96,0,5.93,0,1.69,.01,3.37,.14,5.04,.34,.67,.08,1.05,.38,1.24,.93,.46,1.33,.46,2.69,.35,4.05-.04,.49-.34,.7-.92,.69-.52,0-1.03-.09-1.55-.13-2.04-.17-4.08-.19-6.1,.22-.84,.17-.84,.18-.97,.93-.34,1.91-.57,3.83-.73,5.76-.06,.74-.04,.74,.83,.71,1.17-.04,2.34-.06,3.5,.02,1.44,.1,1.71,.37,1.92,1.59,.14,.86-.03,1.7-.1,2.55-.06,.62-.49,1.17-1.59,1.24-1.33,.08-2.65,.18-3.98,.27-.85,.06-.87,.06-.86,.79,.02,1.88,.09,3.75,.38,5.61,.11,.75,.13,.75,.98,.93,.96,.21,1.93,.21,2.9,.14,1-.07,2.01-.12,3.01-.07,1.74,.09,2.15,.44,2.33,1.94,.09,.74,.03,1.48-.1,2.21-.18,.96-.61,1.31-1.7,1.49-1.15,.19-2.32,.22-3.49,.28-2.59,.13-5.19,.2-7.76-.25-.32-.06-.63-.14-.94-.21-.68-.16-1.09-.53-1.35-1.11-.84-1.9-1.26-3.88-1.56-5.88-.43-2.82-.57-5.66-.59-8.83Z"/><path class="o" d="M164.92,200.05c.1,.29,.35,.48,.55,.7,2.09,2.35,4.19,4.69,6.28,7.04,.84,.94,.81,1.65-.23,2.43-1.45,1.08-3.12,1.36-4.94,.84-.39-.11-.64-.36-.88-.64-.78-.91-1.57-1.8-2.33-2.72-1.22-1.47-2.43-2.94-3.65-4.41-.16-.2-.29-.44-.58-.55-.21,.29-.15,.58-.15,.85-.04,1.63-.06,3.26-.09,4.89-.01,.51,0,1.04-.3,1.5-.44,.66-1.13,1-1.95,1.12-1.56,.22-2.97-.18-4.29-.88-.38-.2-.53-.53-.63-.91-.36-1.43-.41-2.89-.43-4.35-.04-2.83-.08-5.66-.05-8.49,.05-4.98,.54-9.93,1.31-14.87,.2-1.3,.83-2.09,2.28-2.51,4.04-1.17,8.02-1.32,11.95,.28,5.39,2.19,7.88,7.21,6.12,12.27-1.18,3.4-3.63,5.92-6.95,7.81-.35,.2-.74,.33-1.03,.61Zm-5.77-3.69c.33,.06,.49-.04,.66-.12,2.07-.93,3.77-2.24,5.04-3.97,.72-.99,1.26-2.06,1.44-3.24,.32-2.12-.26-3.93-2.36-5.15-1.21-.71-2.59-.93-4.02-.91-.42,0-.57,.17-.55,.52,0,.2,0,.4,0,.6-.07,3.46-.13,6.92-.2,10.37-.01,.62,0,1.25,0,1.89Z"/></g><g><path class="o" d="M74.63,243.58c-.1,3.82-.19,7.64-.29,11.46,0,.12-.03,.23,0,.34,.23,1.09-.44,1.67-1.32,2.07-1.43,.65-2.88,.62-4.28-.12-.86-.46-1.34-1.14-1.31-2.17,.11-4.05-.17-8.1-.12-12.15,.05-3.88,.13-6.42,.2-10.29,0-.17,0-.35,.01-.52,.02-.28-.09-.43-.4-.43-.21,0-.42,0-.62,0-2.49,0-4.98,0-7.48,.04-.62,.01-1-.23-1.32-.68-.84-1.19-.95-4.28,.16-5.26,.45-.4,1.31-.52,1.77-.52,6.59,0,13.17,0,19.76,0,.56,0,1.89-.03,2.46,0,2.42,0,2.53,3.63,1.57,5.31-.35,.62-.85,.97-1.64,.96-1.93-.03-3.8,.03-5.78,.08-.21-.02-.41,.03-.62,.04-.29,.01-.42,.17-.43,.44-.02,.46-.06,.92-.07,1.38-.08,3.79-.15,6.24-.22,10.03h-.01Z"/><path class="o" d="M104.07,243.3c-.09,3.47-.45,7.57-2,11.51-.38,.99-.88,1.92-1.53,2.79-.23,.3-.49,.56-.86,.72-1.35,.59-2.74,.71-4.16,.26-.85-.27-.94-.51-.62-1.27,1.46-3.43,2.26-7,2.67-10.64,.08-.69,.06-.72-.73-.65-2.54,.23-5.09,.49-7.63,.72-.59,.05-.67,.34-.67,.78,.03,3.49,.48,6.92,1.67,10.25,.4,1.11,.02,2.16-1.09,2.77-1.45,.8-2.96,.76-4.47,.11-.42-.18-.61-.52-.81-.87-1.19-2.09-1.83-4.33-2.1-6.64-.94-7.88,.48-15.42,4.36-22.56,.8-1.47,1.78-2.85,2.95-4.11,1.78-1.92,4.05-2.48,6.7-1.9,1.57,.34,2.82,1.14,3.87,2.24,1.38,1.45,2.28,3.12,2.87,4.93,1.17,3.56,1.55,7.21,1.58,11.56Zm-9.9-14.2c-.45,.32-.62,.68-.84,1.01-2.54,3.78-3.77,7.94-4.41,12.27-.12,.77-.05,.8,.83,.75,2.42-.17,4.84-.33,7.26-.51,.72-.05,.73-.05,.72-.75-.05-3.07-.54-6.08-1.63-9-.48-1.29-1.06-2.55-1.92-3.76Z"/><path class="o" d="M124.62,256.08c-.05,.4-.35,.63-.7,.77-.37,.15-.76,.2-1.16,.2-1.15,0-11,0-14.72,.05-.96,.01-1.32-.31-1.39-1.27-.06-.89-.03-1.62-.04-2.52-.01-4.12-.02-8.24-.04-12.36h-.03c0-2.45,.03-4.9,.02-7.35s-.07-4.9-.1-7.35c0-.87,.07-.98,.88-1.29,1.03-.4,2.1-.36,3.17-.29,.67,.04,1.42,.14,2.05,.42,.62,.28,1.33,.77,1.33,1.54,0,4.18-.12,20.39-.09,24.45,0,.17,.01,.33,.02,.5,0,.24,.14,.33,.38,.33,.38,0,6.4-.02,9.12-.02,.65,0,1,.26,1.16,.87,.29,1.09,.25,2.21,.11,3.32Z"/><path class="o" d="M125.49,240.53c.04-3.59,.3-7.5,1.14-11.37,.14-.64,.33-1.27,.52-1.9,.58-1.87,1.97-2.88,4.21-2.96,1.98-.06,3.96,0,5.93,0,1.69,.01,3.37,.14,5.04,.34,.67,.08,1.05,.38,1.24,.93,.46,1.33,.46,2.69,.35,4.05-.04,.49-.34,.7-.92,.69-.52,0-1.03-.09-1.55-.13-2.04-.17-4.08-.19-6.1,.22-.84,.17-.84,.18-.97,.93-.34,1.91-.57,3.83-.73,5.76-.06,.74-.04,.74,.83,.71,1.17-.04,2.34-.06,3.5,.02,1.44,.1,1.71,.37,1.92,1.59,.14,.86-.03,1.7-.1,2.55-.06,.62-.49,1.17-1.59,1.24-1.33,.08-2.65,.18-3.98,.27-.85,.06-.87,.06-.86,.79,.02,1.88,.09,3.75,.38,5.61,.11,.75,.13,.75,.98,.93,.96,.21,1.93,.21,2.9,.14,1-.07,2.01-.12,3.01-.07,1.74,.09,2.15,.44,2.33,1.94,.09,.74,.03,1.48-.1,2.21-.18,.96-.61,1.31-1.7,1.49-1.15,.19-2.32,.22-3.49,.28-2.59,.13-5.19,.2-7.76-.25-.32-.06-.63-.14-.94-.21-.68-.16-1.09-.53-1.35-1.11-.84-1.9-1.26-3.88-1.56-5.88-.43-2.82-.57-5.66-.59-8.83Z"/></g></g><g id="c"/><g id="d"/><g id="e"><g><path class="i" d="M153.77,64.96s-29.17-4.06-53.24-33.41v-.02l-.03-.02v.03c-24.08,29.35-53.24,33.41-53.24,33.41,.79,69.94,52.11,86.97,53.24,87.34h.03c1.13-.37,52.45-17.39,53.24-87.34Z"/><path class="j" d="M99.99,48.09l.57,.71,.53-.67c15.5,15.03,31.57,22.03,41.49,25.17-1.73,22.03-9.31,39.97-22.6,53.42-7.57,7.66-15.23,11.92-19.46,13.9-4.23-1.98-11.89-6.24-19.46-13.9-13.29-13.45-20.87-31.39-22.6-53.42,9.93-3.14,26.02-10.15,41.53-25.21m.54-16.56v.02l-.03-.02v.03c-24.08,29.35-53.24,33.41-53.24,33.41,.79,69.94,52.11,86.97,53.24,87.34h.03c1.13-.37,52.45-17.39,53.24-87.34,0,0-29.17-4.06-53.24-33.41v-.03h0Z"/><g><path class="n" d="M114.72,98.43c1.71,1.92,13.04,7.48,17.32-3.21,9.62,1.18,10.8-17.11,7.16-19.03,6.2-2.14,6.52-25.55-12.72-24.91,0,0-8.23-14.97-22.56-4.06-7.16-7.48-23.09-2.67-27.26,9.41-5.99-2.35-21.06,11.01-14.97,21.06-5.24,1.71-1.92,21.28,10.69,16.89,0,0,5.88,9.62,16.89,3.21s25.44,.64,25.44,.64Z"/><g><path class="l" d="M138.76,91.61c1.9-3.11,2.57-7.57,2.27-10.93-1.87-.28-3.44-.89-4.38-1.84-5.76,4.88-15.16,4.62-21.58,1.09-1.32,.7-2.71,1.3-4.16,1.8,5.01,7.51,17.93,11.93,27.85,9.88Z"/><path class="l" d="M108.81,73.34c-16.92,1.55-18.49-13.37-18.49-13.37-5.68-2.74-8.5-6.43-9.5-10.12-1.8,1.88-3.25,4.16-4.16,6.77-5.99-2.35-21.06,11.01-14.97,21.06-.34,.11-.64,.3-.91,.55,4.12,3.59,13.45,9.04,27.12,1.78,5.46,4.24,14.96,4.51,23,1.71,1.44-.5,2.84-1.11,4.16-1.8-2.89-1.59-5.18-3.84-6.26-6.59Z"/><path class="m" d="M90.32,59.97s1.57,14.92,18.49,13.37c1.08,2.75,3.37,5,6.26,6.59,6.42,3.54,15.82,3.79,21.58-1.09,.93,.95,2.5,1.56,4.38,1.84-.2-2.23-.83-3.97-1.82-4.49,6.2-2.14,6.52-25.55-12.72-24.91,0,0-8.23-14.97-22.56-4.06-5.61-5.86-16.6-4.18-23.11,2.63,1.01,3.69,3.82,7.38,9.5,10.12Z"/></g></g><path class="k" d="M83.1,128.82c4.33-4.97,21.25-24.98-5.45-40.89-7.46-6.29,.96-1.12,.96-1.12,0,0,7,4.6,10.9,6.09s-3.53-8.02-6.74-9.62c-3.21-1.6-1.63-1.77-.05-1.12,1.82,.75,5.84,4.45,8.23,7.16,4.76,5.4,3.15-4.36,6.04-9.09,2.89-4.73,1.18,0-.11,3.85-1.28,3.85,2.08,10.05,4.12,9.62s5.24-4.28,4.49-8.87c-.75-4.6-2.14-9.78,.75-2.89s-1.23,7.7-1.07,9.84c.16,2.14,4.54-1.28,6.31-3.85,1.76-2.57,5.4-5.08,5.56-4.65s-2.3,1.98-3.63,3.9c-1.34,1.92-1.66,1.12-2.41,7.64-.75,6.52,9.84-4.86,11.76-7.75,1.92-2.89,1.71-.21-.37,2.03s-11.52,11.07-11.01,22.77c.51,11.71,5.77,17.64,5.77,17.64,0,0-13.26,11.33-16.62,11.47-6.55-2.62-17.43-12.16-17.43-12.16Z"/><path class="o" d="M100.57,93.83c-2.04-.27-4.97-5.99-3.76-9.63,1.28-3.85,2.99-8.58,.11-3.85-2.89,4.73-1.28,14.49-6.04,9.09-2.39-2.71-6.41-6.41-8.23-7.16-1.58-.65-3.15-.48,.05,1.12,3.21,1.6,10.64,11.12,6.74,9.62-3.9-1.5-10.91-6.09-10.91-6.09,0,0-8.42-5.17-.96,1.12,26.7,15.92,9.86,35.79,5.53,40.76,0,0,12.8,11.25,17.43,12.16,.01,0,.03,0,.04,0v-47.15Z"/></g></g><g id="g"/><g id="h"/></svg>