<?xml version="1.0" encoding="UTF-8"?><svg xmlns="http://www.w3.org/2000/svg" viewBox="0 0 372.36 91.3"><defs><style>.h{fill:#335b7f;}.i{fill:#633e23;}.j{font-size:9px;}.j,.k{fill:#fff;}.j,.k,.l{font-family:MyriadPro-Regular, Myriad Pro;}.k{font-size:6px;}.m{fill:none;stroke:#335b7f;stroke-miterlimit:10;stroke-width:.33px;}.l{fill:#231f20;font-size:10px;}</style></defs><g id="a"><g><path class="i" d="M45.17,46.7c-.13,5.1-.26,10.21-.39,15.31,0,.15-.04,.31-.01,.46,.31,1.46-.59,2.24-1.76,2.77-1.91,.87-3.85,.83-5.71-.16-1.15-.61-1.79-1.53-1.75-2.9,.15-5.41-.22-10.82-.16-16.24,.06-5.18,.18-8.57,.27-13.75,0-.23,0-.46,.02-.69,.02-.37-.13-.58-.54-.57-.28,0-.56,0-.83,0-3.33,.01-6.66,0-9.99,.05-.83,.01-1.34-.31-1.77-.91-1.12-1.59-1.27-5.72,.21-7.03,.6-.53,1.75-.7,2.37-.7,8.8,0,17.6,0,26.4,0,.75,0,2.53-.04,3.28,0,3.23,0,3.38,4.85,2.09,7.1-.47,.83-1.14,1.29-2.2,1.28-2.57-.04-5.08,.04-7.72,.1-.27-.02-.55,.04-.83,.05-.39,.01-.55,.22-.57,.58-.03,.61-.08,1.23-.09,1.84-.1,5.07-.19,8.34-.29,13.41h-.02Z"/><path class="i" d="M64.15,30.34c0-.22-.04-.44-.02-.66,.04-.53-.23-.7-.8-.69-.9,.03-1.8,.04-2.69,0-1.32-.06-1.98-.6-1.99-1.78,0-1.39-.43-2.87,.11-4.21,.36-.89,.95-1.31,2.06-1.39,4.86-.33,9.71-.05,14.56,0,.66,0,1.31,.07,1.94,.23,.96,.25,1.3,.63,1.23,1.52-.12,1.5,.12,2.73-.08,4.23-.15,1.13-.51,1.35-1.81,1.25-.73-.05-1.42,.2-2.15,.18-.93-.04-.99,0-1.02,.83-.08,2.02-.53,20.76-.63,27.8,.04,.83,.19,1.16,1.79,1.08,.61-.03,1.23-.07,1.84-.05,1.3,.04,2,.59,2.03,1.75,.04,1.36,0,2.38-.06,3.74-.02,.49-.44,1.11-1.49,1.11-.45,0-16.35,0-16.59,0-1.86,.06-2.72,.07-2.91-1.66-.09-.8-.14-1.61-.14-2.42,0-1.33,.26-2.36,1.74-2.36,1.24,0,2.45,.03,3.55-.02,1-.05,1.18-.23,1.19-1.13,.08-4.68,.2-22.68,.34-27.34Z"/><path class="i" d="M102.6,39.49c.42-.14,.48-.5,.65-.77,3.27-5.35,6.57-10.94,9.82-16.3,.31-.51,.66-.77,1.35-.75,1.83,.04,4.25-.02,6.09,0,1.05,.01,1.19,.12,1.21,1.03,.05,2.3,.06,4.85,.06,7.16,.02,10.97,.04,21.73,.06,32.7,0,1.6,0,1.56-1.86,1.58-2.27,.04-4.95,0-7.11,0-1.12-.03-1.18-.14-1.18-1.11,.03-7.24,.17-12.95,.34-20.19,0-.18,0-.36,0-.6-.53,.05-.55,.45-.7,.7-1.54,2.68-3.22,5.29-4.86,7.92-.42,.67-.91,.94-1.77,.91-1.62-.05-3.25-.06-4.88,0-.91,.03-1.37-.37-1.77-.98-1.17-1.81-2.35-3.62-3.52-5.43-.66-1.01-1.31-2.03-1.97-3.03-.42,.11-.3,.37-.3,.56,0,6.51-.05,11.71,.17,18.21,.03,.8-.07,1.6-.08,2.41,0,.5-.27,.74-.83,.75-.17,0-.33,0-.5,0-2.54-.05-5.91-.08-8.45-.15-1.32-.03-1.41-.13-1.38-1.29,0-7.05,.14-32.47,.34-38.28,.08-2.32,.36-2.81,2.98-2.87,1.54-.04,4.6,.03,6.15,0,.72-.01,1.1,.24,1.44,.81,3.27,5.35,6.56,10.91,9.86,16.25,.17,.28,.28,.61,.64,.77Z"/><path class="i" d="M149.94,40.06c.26,.34,.57,.34,.83,.45,4.83,1.93,7.26,5.48,7.6,10.25,.56,7.86-5.98,15.63-14.11,17.3-2.24,.46-4.49,.63-6.75,.13-1.23-.27-2.41-.69-3.44-1.39-.49-.33-.97-.47-1.58-.42-.77,.07-1.54,.04-2.31-.05-1-.12-1.72-.58-2.18-1.43-.56-1.02-.93-2.1-1.23-3.2-.87-3.26-1.14-6.58-1.27-9.92-.23-6.12,.24-12.21,1.16-18.27,.5-3.31,1.1-6.59,1.84-9.86,.17-.74,.51-1.16,1.31-1.41,5.86-1.84,11.69-1.92,17.48,.2,2.46,.9,4.55,2.31,6.17,4.29,2.18,2.68,2.4,5.56,.93,8.57-.7,1.44-1.77,2.63-3.05,3.65-.46,.37-.93,.72-1.43,1.1Zm-15.61,9.4s.05,0,.07,0c.14,1.51,.23,3.02,.42,4.52s.52,2.99,.69,4.49c.11,.96,.65,1.35,1.59,1.53,3.36,.66,6.26-.22,8.74-2.33,2.09-1.77,3.17-4.03,2.92-6.69-.28-2.98-1.97-5.11-4.93-6.22-3.12-1.16-6.11-.7-8.88,1.04-.47,.3-.67,.7-.64,1.26,.05,.79,.01,1.59,.01,2.38Zm.22-11.76c-.02,.38-.04,.76-.07,1.13-.06,.99-.03,1.05,1.05,.89,3.22-.48,6.13-1.65,8.62-3.66,.77-.62,1.43-1.34,1.99-2.13,2.38-3.38,1.11-6.58-3.05-7.64-2.04-.52-4.08-.38-6.14-.05-.74,.12-1.01,.43-1.14,1.08-.65,3.44-1.07,6.9-1.28,10.38Z"/><path class="i" d="M160.47,42.63c.05-4.8,.4-10.03,1.53-15.19,.19-.86,.43-1.7,.7-2.54,.78-2.49,2.63-3.85,5.63-3.95,2.64-.08,5.29-.01,7.93,0,2.26,.02,4.5,.19,6.74,.46,.89,.11,1.4,.51,1.65,1.24,.61,1.78,.62,3.6,.46,5.42-.06,.66-.45,.93-1.23,.93-.69,0-1.38-.12-2.07-.18-2.73-.23-5.45-.26-8.15,.3-1.12,.23-1.12,.24-1.3,1.25-.46,2.55-.76,5.12-.98,7.69-.08,.99-.05,.99,1.11,.96,1.56-.05,3.12-.08,4.68,.03,1.92,.14,2.29,.49,2.56,2.12,.19,1.15-.03,2.28-.14,3.4-.08,.82-.65,1.56-2.13,1.65-1.77,.11-3.54,.24-5.32,.36-1.14,.08-1.16,.08-1.14,1.06,.03,2.51,.13,5.01,.5,7.5,.15,1,.17,1,1.31,1.25,1.28,.27,2.58,.28,3.88,.19,1.34-.09,2.68-.16,4.03-.09,2.32,.12,2.87,.58,3.11,2.59,.11,.99,.04,1.98-.14,2.95-.24,1.28-.82,1.75-2.27,2-1.54,.26-3.1,.29-4.66,.37-3.47,.17-6.93,.27-10.37-.34-.42-.08-.84-.18-1.26-.28-.91-.21-1.46-.71-1.8-1.49-1.13-2.53-1.68-5.18-2.08-7.85-.57-3.77-.76-7.56-.79-11.8Z"/><path class="i" d="M205.2,51.11c.13,.39,.47,.65,.73,.94,2.8,3.14,5.6,6.26,8.39,9.4,1.12,1.26,1.08,2.21-.31,3.24-1.94,1.45-4.17,1.82-6.6,1.12-.52-.15-.86-.48-1.18-.85-1.04-1.21-2.09-2.41-3.11-3.64-1.64-1.96-3.24-3.93-4.87-5.9-.22-.26-.38-.58-.77-.74-.29,.39-.2,.78-.21,1.14-.05,2.18-.07,4.35-.13,6.53-.02,.68,0,1.39-.41,2-.59,.88-1.51,1.34-2.61,1.5-2.08,.3-3.97-.24-5.74-1.18-.51-.27-.71-.71-.84-1.22-.48-1.92-.55-3.86-.57-5.81-.06-3.78-.1-7.56-.06-11.35,.07-6.66,.73-13.27,1.76-19.86,.27-1.74,1.1-2.79,3.05-3.36,5.4-1.57,10.72-1.77,15.97,.37,7.2,2.93,10.53,9.64,8.18,16.4-1.58,4.55-4.85,7.91-9.29,10.43-.46,.26-.99,.44-1.38,.81Zm-7.71-4.93c.44,.08,.66-.05,.88-.16,2.77-1.24,5.04-2.99,6.74-5.31,.97-1.32,1.68-2.75,1.92-4.33,.43-2.83-.35-5.25-3.15-6.88-1.62-.95-3.46-1.24-5.38-1.21-.57,.01-.76,.23-.74,.7,.01,.27,0,.53-.01,.8-.09,4.62-.18,9.24-.26,13.86-.02,.84,0,1.67,0,2.53Z"/><path class="i" d="M258.25,46.7c-.13,5.1-.26,10.21-.39,15.31,0,.15-.04,.31-.01,.46,.31,1.46-.59,2.24-1.76,2.77-1.91,.87-3.85,.83-5.71-.16-1.15-.61-1.79-1.53-1.75-2.9,.15-5.41-.22-10.82-.16-16.24,.06-5.18,.18-8.57,.27-13.75,0-.23,0-.46,.02-.69,.02-.37-.13-.58-.54-.57-.28,0-.55,0-.83,0-3.33,.01-6.66,0-9.99,.05-.83,.01-1.34-.31-1.77-.91-1.12-1.59-1.27-5.72,.21-7.03,.6-.53,1.75-.7,2.37-.7,8.8,0,17.6,0,26.4,0,.75,0,2.53-.04,3.28,0,3.23,0,3.38,4.85,2.09,7.1-.47,.83-1.14,1.29-2.2,1.28-2.57-.04-5.08,.04-7.72,.1-.27-.02-.55,.04-.83,.05-.39,.01-.55,.22-.57,.58-.03,.61-.08,1.23-.09,1.84-.1,5.07-.2,8.34-.29,13.41h-.02Z"/><path class="i" d="M297.59,46.33c-.12,4.64-.61,10.11-2.67,15.39-.51,1.32-1.18,2.56-2.04,3.72-.3,.41-.65,.75-1.14,.97-1.8,.79-3.66,.95-5.55,.34-1.14-.37-1.26-.68-.83-1.7,1.96-4.59,3.02-9.35,3.57-14.21,.1-.92,.08-.97-.97-.87-3.4,.31-6.8,.66-10.2,.96-.79,.07-.9,.46-.89,1.04,.04,4.66,.64,9.24,2.23,13.7,.53,1.49,.03,2.89-1.46,3.7-1.94,1.07-3.96,1.01-5.98,.15-.56-.24-.81-.7-1.08-1.16-1.6-2.79-2.44-5.79-2.81-8.87-1.25-10.53,.64-20.6,5.82-30.15,1.07-1.97,2.38-3.81,3.94-5.49,2.37-2.57,5.41-3.31,8.96-2.54,2.1,.46,3.77,1.53,5.17,2.99,1.85,1.94,3.04,4.17,3.84,6.59,1.57,4.76,2.07,9.63,2.11,15.44Zm-13.23-18.98c-.6,.43-.84,.91-1.13,1.35-3.4,5.05-5.03,10.61-5.89,16.39-.15,1.03-.07,1.08,1.1,1,3.23-.22,6.46-.45,9.7-.68,.97-.07,.98-.07,.96-1.01-.07-4.1-.72-8.13-2.18-12.03-.65-1.73-1.42-3.4-2.57-5.02Z"/><path class="i" d="M325.05,63.4c-.07,.54-.47,.84-.94,1.03-.49,.2-1.01,.27-1.55,.27-1.53,0-14.7,0-19.66,.06-1.28,.02-1.77-.42-1.86-1.7-.08-1.18-.04-2.17-.05-3.36-.02-5.5-.03-11.01-.05-16.51h-.04c.01-3.27,.05-6.54,.03-9.82s-.09-6.54-.13-9.82c-.01-1.16,.09-1.31,1.17-1.73,1.37-.54,2.81-.48,4.24-.39,.9,.06,1.9,.19,2.74,.57,.83,.38,1.78,1.03,1.78,2.06,0,5.58-.17,27.24-.13,32.67,0,.22,.01,.45,.02,.67,.01,.33,.19,.44,.51,.44,.51,0,8.56-.03,12.19-.03,.87,0,1.34,.34,1.55,1.16,.38,1.46,.33,2.95,.15,4.43Z"/><path class="i" d="M326.21,42.63c.05-4.8,.4-10.03,1.53-15.19,.19-.86,.43-1.7,.7-2.54,.78-2.49,2.63-3.85,5.63-3.95,2.64-.08,5.29-.01,7.93,0,2.26,.02,4.5,.19,6.74,.46,.89,.11,1.4,.51,1.65,1.24,.61,1.78,.62,3.6,.46,5.42-.06,.66-.45,.93-1.23,.93-.69,0-1.38-.12-2.07-.18-2.73-.23-5.45-.26-8.15,.3-1.12,.23-1.12,.24-1.3,1.25-.46,2.55-.76,5.12-.98,7.69-.08,.99-.05,.99,1.11,.96,1.56-.05,3.12-.08,4.68,.03,1.92,.14,2.29,.49,2.56,2.12,.19,1.15-.03,2.28-.14,3.4-.08,.82-.65,1.56-2.13,1.65-1.77,.11-3.54,.24-5.32,.36-1.14,.08-1.16,.08-1.14,1.06,.03,2.51,.13,5.01,.5,7.5,.15,1,.17,1,1.31,1.25,1.28,.27,2.58,.28,3.88,.19,1.34-.09,2.68-.16,4.03-.09,2.32,.12,2.87,.58,3.11,2.59,.11,.99,.04,1.98-.14,2.95-.24,1.28-.82,1.75-2.27,2-1.54,.26-3.1,.29-4.66,.37-3.47,.17-6.93,.27-10.37-.34-.42-.08-.84-.18-1.26-.28-.91-.21-1.46-.71-1.8-1.49-1.13-2.53-1.68-5.18-2.08-7.85-.57-3.77-.76-7.56-.79-11.8Z"/></g><line class="m" x1="21.43" y1="-2.93" x2="21.43" y2="98.65"/><line class="m" x1="351.02" y1="-2.93" x2="351.02" y2="98.65"/><rect class="h" x="-.02" y="-.19" width="21.38" height="21.38"/><rect class="h" x="-.15" y="70.42" width="21.38" height="21.38"/><rect class="h" x="351.05" y="70.44" width="21.38" height="21.38"/><rect class="h" x="351.1" y="-.45" width="21.38" height="21.38"/></g><g id="b"/><g id="c"><line class="m" x1="-5.86" y1="21.07" x2="416.23" y2="21.07"/><line class="m" x1="-12.26" y1="70.29" x2="409.84" y2="70.29"/><text class="k" transform="translate(3 83.04)"><tspan x="0" y="0" xml:space="preserve">1/2  </tspan></text><text class="j" transform="translate(13.76 83.04) scale(.7)"><tspan x="0" y="0">X</tspan></text><text class="k" transform="translate(3.69 12.84)"><tspan x="0" y="0" xml:space="preserve">1/2  </tspan></text><text class="j" transform="translate(14.44 12.84) scale(.7)"><tspan x="0" y="0">X</tspan></text><text class="k" transform="translate(354.76 83.47)"><tspan x="0" y="0" xml:space="preserve">1/2  </tspan></text><text class="j" transform="translate(365.51 83.47) scale(.7)"><tspan x="0" y="0">X</tspan></text><text class="k" transform="translate(354.81 12.57)"><tspan x="0" y="0" xml:space="preserve">1/2  </tspan></text><text class="j" transform="translate(365.56 12.57) scale(.7)"><tspan x="0" y="0">X</tspan></text><text class="l" transform="translate(6.93 49.33) scale(.7)"><tspan x="0" y="0">X</tspan></text><text class="l" transform="translate(360.34 49.33) scale(.7)"><tspan x="0" y="0">X</tspan></text></g><g id="d"/><g id="e"/><g id="f"/><g id="g"/></svg>