<?xml version="1.0" encoding="UTF-8"?><svg xmlns="http://www.w3.org/2000/svg" viewBox="0 0 793.44 246.65"><defs><style>.h{fill:#e96b24;}.i{fill:#458744;}.j{fill:#555;}.k{fill:#633e23;}</style></defs><g id="a"><g><path class="k" d="M71.81,73.94c-.13,5.1-.26,10.21-.39,15.31,0,.15-.04,.31-.01,.46,.31,1.46-.59,2.24-1.76,2.77-1.91,.87-3.85,.83-5.71-.16-1.15-.61-1.79-1.53-1.75-2.9,.15-5.41-.22-10.82-.16-16.24,.06-5.18,.18-8.57,.27-13.75,0-.23,0-.46,.02-.69,.02-.37-.13-.58-.54-.57-.28,0-.56,0-.83,0-3.33,.01-6.66,0-9.99,.05-.83,.01-1.34-.31-1.77-.91-1.12-1.59-1.27-5.72,.21-7.03,.6-.53,1.75-.7,2.37-.7,8.8,0,17.6,0,26.4,0,.75,0,2.53-.04,3.28,0,3.23,0,3.38,4.85,2.09,7.1-.47,.83-1.14,1.29-2.2,1.28-2.57-.04-5.08,.04-7.72,.1-.27-.02-.55,.04-.83,.05-.39,.01-.55,.22-.57,.58-.03,.61-.08,1.23-.09,1.84-.1,5.07-.19,8.34-.29,13.41h-.02Z"/><path class="k" d="M90.79,57.58c0-.22-.04-.44-.02-.66,.04-.53-.23-.7-.8-.69-.9,.03-1.8,.04-2.69,0-1.32-.06-1.98-.6-1.99-1.78,0-1.39-.43-2.87,.11-4.21,.36-.89,.95-1.31,2.06-1.39,4.86-.33,9.71-.05,14.56,0,.66,0,1.31,.07,1.94,.23,.96,.25,1.3,.63,1.23,1.52-.12,1.5,.12,2.73-.08,4.23-.15,1.13-.51,1.35-1.81,1.25-.73-.05-1.42,.2-2.15,.18-.93-.04-.99,0-1.02,.83-.08,2.02-.53,20.76-.63,27.8,.04,.83,.19,1.16,1.79,1.08,.61-.03,1.23-.07,1.84-.05,1.3,.04,2,.59,2.03,1.75,.04,1.36,0,2.38-.06,3.74-.02,.49-.44,1.11-1.49,1.11-.45,0-16.35,0-16.59,0-1.86,.06-2.72,.07-2.91-1.66-.09-.8-.14-1.61-.14-2.42,0-1.33,.26-2.36,1.74-2.36,1.24,0,2.45,.03,3.55-.02,1-.05,1.18-.23,1.19-1.13,.08-4.68,.2-22.68,.34-27.34Z"/><path class="k" d="M129.24,66.73c.42-.14,.48-.5,.65-.77,3.27-5.35,6.57-10.94,9.82-16.3,.31-.51,.66-.77,1.35-.75,1.83,.04,4.25-.02,6.09,0,1.05,.01,1.19,.12,1.21,1.03,.05,2.3,.06,4.85,.06,7.16,.02,10.97,.04,21.73,.06,32.7,0,1.6,0,1.56-1.86,1.58-2.27,.04-4.95,0-7.11,0-1.12-.03-1.18-.14-1.18-1.11,.03-7.24,.17-12.95,.34-20.19,0-.18,0-.36,0-.6-.53,.05-.55,.45-.7,.7-1.54,2.68-3.22,5.29-4.86,7.92-.42,.67-.91,.94-1.77,.91-1.62-.05-3.25-.06-4.88,0-.91,.03-1.37-.37-1.77-.98-1.17-1.81-2.35-3.62-3.52-5.43-.66-1.01-1.31-2.03-1.97-3.03-.42,.11-.3,.37-.3,.56,0,6.51-.05,11.71,.17,18.21,.03,.8-.07,1.6-.08,2.41,0,.5-.27,.74-.83,.75-.17,0-.33,0-.5,0-2.54-.05-5.91-.08-8.45-.15-1.32-.03-1.41-.13-1.38-1.29,0-7.05,.14-32.47,.34-38.28,.08-2.32,.36-2.81,2.98-2.87,1.54-.04,4.6,.03,6.15,0,.72-.01,1.1,.24,1.44,.81,3.27,5.35,6.56,10.91,9.86,16.25,.17,.28,.28,.61,.64,.77Z"/><path class="k" d="M176.57,67.3c.26,.34,.57,.34,.83,.45,4.83,1.93,7.26,5.48,7.6,10.25,.56,7.86-5.98,15.63-14.11,17.3-2.24,.46-4.49,.63-6.75,.13-1.23-.27-2.41-.69-3.44-1.39-.49-.33-.97-.47-1.58-.42-.77,.07-1.54,.04-2.31-.05-1-.12-1.72-.58-2.18-1.43-.56-1.02-.93-2.1-1.23-3.2-.87-3.26-1.14-6.58-1.27-9.92-.23-6.12,.24-12.21,1.16-18.27,.5-3.31,1.1-6.59,1.84-9.86,.17-.74,.51-1.16,1.31-1.41,5.86-1.84,11.69-1.92,17.48,.2,2.46,.9,4.55,2.31,6.17,4.29,2.18,2.68,2.4,5.56,.93,8.57-.7,1.44-1.77,2.63-3.05,3.65-.46,.37-.93,.72-1.43,1.1Zm-15.61,9.4s.05,0,.07,0c.14,1.51,.23,3.02,.42,4.52s.52,2.99,.69,4.49c.11,.96,.65,1.35,1.59,1.53,3.36,.66,6.26-.22,8.74-2.33,2.09-1.77,3.17-4.03,2.92-6.69-.28-2.98-1.97-5.11-4.93-6.22-3.12-1.16-6.11-.7-8.88,1.04-.47,.3-.67,.7-.64,1.26,.05,.79,.01,1.59,.01,2.38Zm.22-11.76c-.02,.38-.04,.76-.07,1.13-.06,.99-.03,1.05,1.05,.89,3.22-.48,6.13-1.65,8.62-3.66,.77-.62,1.43-1.34,1.99-2.13,2.38-3.38,1.11-6.58-3.05-7.64-2.04-.52-4.08-.38-6.14-.05-.74,.12-1.01,.43-1.14,1.08-.65,3.44-1.07,6.9-1.28,10.38Z"/><path class="k" d="M187.11,69.87c.05-4.8,.4-10.03,1.53-15.19,.19-.86,.43-1.7,.7-2.54,.78-2.49,2.63-3.85,5.63-3.95,2.64-.08,5.29-.01,7.93,0,2.26,.02,4.5,.19,6.74,.46,.89,.11,1.4,.51,1.65,1.24,.61,1.78,.62,3.6,.46,5.42-.06,.66-.45,.93-1.23,.93-.69,0-1.38-.12-2.07-.18-2.73-.23-5.45-.26-8.15,.3-1.12,.23-1.12,.24-1.3,1.25-.46,2.55-.76,5.12-.98,7.69-.08,.99-.05,.99,1.11,.96,1.56-.05,3.12-.08,4.68,.03,1.92,.14,2.29,.49,2.56,2.12,.19,1.15-.03,2.28-.14,3.4-.08,.82-.65,1.56-2.13,1.65-1.77,.11-3.54,.24-5.32,.36-1.14,.08-1.16,.08-1.14,1.06,.03,2.51,.13,5.01,.5,7.5,.15,1,.17,1,1.31,1.25,1.28,.27,2.58,.28,3.88,.19,1.34-.09,2.68-.16,4.03-.09,2.32,.12,2.87,.58,3.11,2.59,.11,.99,.04,1.98-.14,2.95-.24,1.28-.82,1.75-2.27,2-1.54,.26-3.1,.29-4.66,.37-3.47,.17-6.93,.27-10.37-.34-.42-.08-.84-.18-1.26-.28-.91-.21-1.46-.71-1.8-1.49-1.13-2.53-1.68-5.18-2.08-7.85-.57-3.77-.76-7.56-.79-11.8Z"/><path class="k" d="M231.83,78.35c.13,.39,.47,.65,.73,.94,2.8,3.14,5.6,6.26,8.39,9.4,1.12,1.26,1.08,2.21-.31,3.24-1.94,1.45-4.17,1.82-6.6,1.12-.52-.15-.86-.48-1.18-.85-1.04-1.21-2.09-2.41-3.11-3.64-1.64-1.96-3.24-3.93-4.87-5.9-.22-.26-.38-.58-.77-.74-.29,.39-.2,.78-.21,1.14-.05,2.18-.07,4.35-.13,6.53-.02,.68,0,1.39-.41,2-.59,.88-1.51,1.34-2.61,1.5-2.08,.3-3.97-.24-5.74-1.18-.51-.27-.71-.71-.84-1.22-.48-1.92-.55-3.86-.57-5.81-.06-3.78-.1-7.56-.06-11.35,.07-6.66,.73-13.27,1.76-19.86,.27-1.74,1.1-2.79,3.05-3.36,5.4-1.57,10.72-1.77,15.97,.37,7.2,2.93,10.53,9.64,8.18,16.4-1.58,4.55-4.85,7.91-9.29,10.43-.46,.26-.99,.44-1.38,.81Zm-7.71-4.93c.44,.08,.66-.05,.88-.16,2.77-1.24,5.04-2.99,6.74-5.31,.97-1.32,1.68-2.75,1.92-4.33,.43-2.83-.35-5.25-3.15-6.88-1.62-.95-3.46-1.24-5.38-1.21-.57,.01-.76,.23-.74,.7,.01,.27,0,.53-.01,.8-.09,4.62-.18,9.24-.26,13.86-.02,.84,0,1.67,0,2.53Z"/><path class="k" d="M284.88,73.94c-.13,5.1-.26,10.21-.39,15.31,0,.15-.04,.31-.01,.46,.31,1.46-.59,2.24-1.76,2.77-1.91,.87-3.85,.83-5.71-.16-1.15-.61-1.79-1.53-1.75-2.9,.15-5.41-.22-10.82-.16-16.24,.06-5.18,.18-8.57,.27-13.75,0-.23,0-.46,.02-.69,.02-.37-.13-.58-.54-.57-.28,0-.55,0-.83,0-3.33,.01-6.66,0-9.99,.05-.83,.01-1.34-.31-1.77-.91-1.12-1.59-1.27-5.72,.21-7.03,.6-.53,1.75-.7,2.37-.7,8.8,0,17.6,0,26.4,0,.75,0,2.53-.04,3.28,0,3.23,0,3.38,4.85,2.09,7.1-.47,.83-1.14,1.29-2.2,1.28-2.57-.04-5.08,.04-7.72,.1-.27-.02-.55,.04-.83,.05-.39,.01-.55,.22-.57,.58-.03,.61-.08,1.23-.09,1.84-.1,5.07-.2,8.34-.29,13.41h-.02Z"/><path class="k" d="M324.23,73.57c-.12,4.64-.61,10.11-2.67,15.39-.51,1.32-1.18,2.56-2.04,3.72-.3,.41-.65,.75-1.14,.97-1.8,.79-3.66,.95-5.55,.34-1.14-.37-1.26-.68-.83-1.7,1.96-4.59,3.02-9.35,3.57-14.21,.1-.92,.08-.97-.97-.87-3.4,.31-6.8,.66-10.2,.96-.79,.07-.9,.46-.89,1.04,.04,4.66,.64,9.24,2.23,13.7,.53,1.49,.03,2.89-1.46,3.7-1.94,1.07-3.96,1.01-5.98,.15-.56-.24-.81-.7-1.08-1.16-1.6-2.79-2.44-5.79-2.81-8.87-1.25-10.53,.64-20.6,5.82-30.15,1.07-1.97,2.38-3.81,3.94-5.49,2.37-2.57,5.41-3.31,8.96-2.54,2.1,.46,3.77,1.53,5.17,2.99,1.85,1.94,3.04,4.17,3.84,6.59,1.57,4.76,2.07,9.63,2.11,15.44Zm-13.23-18.98c-.6,.43-.84,.91-1.13,1.35-3.4,5.05-5.03,10.61-5.89,16.39-.15,1.03-.07,1.08,1.1,1,3.23-.22,6.46-.45,9.7-.68,.97-.07,.98-.07,.96-1.01-.07-4.1-.72-8.13-2.18-12.03-.65-1.73-1.42-3.4-2.57-5.02Z"/><path class="k" d="M351.69,90.64c-.07,.54-.47,.84-.94,1.03-.49,.2-1.01,.27-1.55,.27-1.53,0-14.7,0-19.66,.06-1.28,.02-1.77-.42-1.86-1.7-.08-1.18-.04-2.17-.05-3.36-.02-5.5-.03-11.01-.05-16.51h-.04c.01-3.27,.05-6.54,.03-9.82s-.09-6.54-.13-9.82c-.01-1.16,.09-1.31,1.17-1.73,1.37-.54,2.81-.48,4.24-.39,.9,.06,1.9,.19,2.74,.57,.83,.38,1.78,1.03,1.78,2.06,0,5.58-.17,27.24-.13,32.67,0,.22,.01,.45,.02,.67,.01,.33,.19,.44,.51,.44,.51,0,8.56-.03,12.19-.03,.87,0,1.34,.34,1.55,1.16,.38,1.46,.33,2.95,.15,4.43Z"/><path class="k" d="M352.85,69.87c.05-4.8,.4-10.03,1.53-15.19,.19-.86,.43-1.7,.7-2.54,.78-2.49,2.63-3.85,5.63-3.95,2.64-.08,5.29-.01,7.93,0,2.26,.02,4.5,.19,6.74,.46,.89,.11,1.4,.51,1.65,1.24,.61,1.78,.62,3.6,.46,5.42-.06,.66-.45,.93-1.23,.93-.69,0-1.38-.12-2.07-.18-2.73-.23-5.45-.26-8.15,.3-1.12,.23-1.12,.24-1.3,1.25-.46,2.55-.76,5.12-.98,7.69-.08,.99-.05,.99,1.11,.96,1.56-.05,3.12-.08,4.68,.03,1.92,.14,2.29,.49,2.56,2.12,.19,1.15-.03,2.28-.14,3.4-.08,.82-.65,1.56-2.13,1.65-1.77,.11-3.54,.24-5.32,.36-1.14,.08-1.16,.08-1.14,1.06,.03,2.51,.13,5.01,.5,7.5,.15,1,.17,1,1.31,1.25,1.28,.27,2.58,.28,3.88,.19,1.34-.09,2.68-.16,4.03-.09,2.32,.12,2.87,.58,3.11,2.59,.11,.99,.04,1.98-.14,2.95-.24,1.28-.82,1.75-2.27,2-1.54,.26-3.1,.29-4.66,.37-3.47,.17-6.93,.27-10.37-.34-.42-.08-.84-.18-1.26-.28-.91-.21-1.46-.71-1.8-1.49-1.13-2.53-1.68-5.18-2.08-7.85-.57-3.77-.76-7.56-.79-11.8Z"/></g><g><path class="i" d="M451.95,73.94c-.13,5.1-.26,10.21-.39,15.31,0,.15-.04,.31-.01,.46,.31,1.46-.59,2.24-1.76,2.77-1.91,.87-3.85,.83-5.71-.16-1.15-.61-1.79-1.53-1.75-2.9,.15-5.41-.22-10.82-.16-16.24,.06-5.18,.18-8.57,.27-13.75,0-.23,0-.46,.02-.69,.02-.37-.13-.58-.54-.57-.28,0-.56,0-.83,0-3.33,.01-6.66,0-9.99,.05-.83,.01-1.34-.31-1.77-.91-1.12-1.59-1.27-5.72,.21-7.03,.6-.53,1.75-.7,2.37-.7,8.8,0,17.6,0,26.4,0,.75,0,2.53-.04,3.28,0,3.23,0,3.38,4.85,2.09,7.1-.47,.83-1.14,1.29-2.2,1.28-2.57-.04-5.08,.04-7.72,.1-.27-.02-.55,.04-.83,.05-.39,.01-.55,.22-.57,.58-.03,.61-.08,1.23-.09,1.84-.1,5.07-.19,8.34-.29,13.41h-.02Z"/><path class="i" d="M470.93,57.58c0-.22-.04-.44-.02-.66,.04-.53-.23-.7-.8-.69-.9,.03-1.8,.04-2.69,0-1.32-.06-1.98-.6-1.99-1.78,0-1.39-.43-2.87,.11-4.21,.36-.89,.95-1.31,2.06-1.39,4.86-.33,9.71-.05,14.56,0,.66,0,1.31,.07,1.94,.23,.96,.25,1.3,.63,1.23,1.52-.12,1.5,.12,2.73-.08,4.23-.15,1.13-.51,1.35-1.81,1.25-.73-.05-1.42,.2-2.15,.18-.93-.04-.99,0-1.02,.83-.08,2.02-.53,20.76-.63,27.8,.04,.83,.19,1.16,1.79,1.08,.61-.03,1.23-.07,1.84-.05,1.3,.04,2,.59,2.03,1.75,.04,1.36,0,2.38-.06,3.74-.02,.49-.44,1.11-1.49,1.11-.45,0-16.35,0-16.59,0-1.86,.06-2.72,.07-2.91-1.66-.09-.8-.14-1.61-.14-2.42,0-1.33,.26-2.36,1.74-2.36,1.24,0,2.45,.03,3.55-.02,1-.05,1.18-.23,1.19-1.13,.08-4.68,.2-22.68,.34-27.34Z"/><path class="i" d="M509.37,66.73c.42-.14,.48-.5,.65-.77,3.27-5.35,6.57-10.94,9.82-16.3,.31-.51,.66-.77,1.35-.75,1.83,.04,4.25-.02,6.09,0,1.05,.01,1.19,.12,1.21,1.03,.05,2.3,.06,4.85,.06,7.16,.02,10.97,.04,21.73,.06,32.7,0,1.6,0,1.56-1.86,1.58-2.27,.04-4.95,0-7.11,0-1.12-.03-1.18-.14-1.18-1.11,.03-7.24,.17-12.95,.34-20.19,0-.18,0-.36,0-.6-.53,.05-.55,.45-.7,.7-1.54,2.68-3.22,5.29-4.86,7.92-.42,.67-.91,.94-1.77,.91-1.62-.05-3.25-.06-4.88,0-.91,.03-1.37-.37-1.77-.98-1.17-1.81-2.35-3.62-3.52-5.43-.66-1.01-1.31-2.03-1.97-3.03-.42,.11-.3,.37-.3,.56,0,6.51-.05,11.71,.17,18.21,.03,.8-.07,1.6-.08,2.41,0,.5-.27,.74-.83,.75-.17,0-.33,0-.5,0-2.54-.05-5.91-.08-8.45-.15-1.32-.03-1.41-.13-1.38-1.29,0-7.05,.14-32.47,.34-38.28,.08-2.32,.36-2.81,2.98-2.87,1.54-.04,4.6,.03,6.15,0,.72-.01,1.1,.24,1.44,.81,3.27,5.35,6.56,10.91,9.86,16.25,.17,.28,.28,.61,.64,.77Z"/><path class="i" d="M556.71,67.3c.26,.34,.57,.34,.83,.45,4.83,1.93,7.26,5.48,7.6,10.25,.56,7.86-5.98,15.63-14.11,17.3-2.24,.46-4.49,.63-6.75,.13-1.23-.27-2.41-.69-3.44-1.39-.49-.33-.97-.47-1.58-.42-.77,.07-1.54,.04-2.31-.05-1-.12-1.72-.58-2.18-1.43-.56-1.02-.93-2.1-1.23-3.2-.87-3.26-1.14-6.58-1.27-9.92-.23-6.12,.24-12.21,1.16-18.27,.5-3.31,1.1-6.59,1.84-9.86,.17-.74,.51-1.16,1.31-1.41,5.86-1.84,11.69-1.92,17.48,.2,2.46,.9,4.55,2.31,6.17,4.29,2.18,2.68,2.4,5.56,.93,8.57-.7,1.44-1.77,2.63-3.05,3.65-.46,.37-.93,.72-1.43,1.1Zm-15.61,9.4s.05,0,.07,0c.14,1.51,.23,3.02,.42,4.52s.52,2.99,.69,4.49c.11,.96,.65,1.35,1.59,1.53,3.36,.66,6.26-.22,8.74-2.33,2.09-1.77,3.17-4.03,2.92-6.69-.28-2.98-1.97-5.11-4.93-6.22-3.12-1.16-6.11-.7-8.88,1.04-.47,.3-.67,.7-.64,1.26,.05,.79,.01,1.59,.01,2.38Zm.22-11.76c-.02,.38-.04,.76-.07,1.13-.06,.99-.03,1.05,1.05,.89,3.22-.48,6.13-1.65,8.62-3.66,.77-.62,1.43-1.34,1.99-2.13,2.38-3.38,1.11-6.58-3.05-7.64-2.04-.52-4.08-.38-6.14-.05-.74,.12-1.01,.43-1.14,1.08-.65,3.44-1.07,6.9-1.28,10.38Z"/><path class="i" d="M567.24,69.87c.05-4.8,.4-10.03,1.53-15.19,.19-.86,.43-1.7,.7-2.54,.78-2.49,2.63-3.85,5.63-3.95,2.64-.08,5.29-.01,7.93,0,2.26,.02,4.5,.19,6.74,.46,.89,.11,1.4,.51,1.65,1.24,.61,1.78,.62,3.6,.46,5.42-.06,.66-.45,.93-1.23,.93-.69,0-1.38-.12-2.07-.18-2.73-.23-5.45-.26-8.15,.3-1.12,.23-1.12,.24-1.3,1.25-.46,2.55-.76,5.12-.98,7.69-.08,.99-.05,.99,1.11,.96,1.56-.05,3.12-.08,4.68,.03,1.92,.14,2.29,.49,2.56,2.12,.19,1.15-.03,2.28-.14,3.4-.08,.82-.65,1.56-2.13,1.65-1.77,.11-3.54,.24-5.32,.36-1.14,.08-1.16,.08-1.14,1.06,.03,2.51,.13,5.01,.5,7.5,.15,1,.17,1,1.31,1.25,1.28,.27,2.58,.28,3.88,.19,1.34-.09,2.68-.16,4.03-.09,2.32,.12,2.87,.58,3.11,2.59,.11,.99,.04,1.98-.14,2.95-.24,1.28-.82,1.75-2.27,2-1.54,.26-3.1,.29-4.66,.37-3.47,.17-6.93,.27-10.37-.34-.42-.08-.84-.18-1.26-.28-.91-.21-1.46-.71-1.8-1.49-1.13-2.53-1.68-5.18-2.08-7.85-.57-3.77-.76-7.56-.79-11.8Z"/><path class="i" d="M611.97,78.35c.13,.39,.47,.65,.73,.94,2.8,3.14,5.6,6.26,8.39,9.4,1.12,1.26,1.08,2.21-.31,3.24-1.94,1.45-4.17,1.82-6.6,1.12-.52-.15-.86-.48-1.18-.85-1.04-1.21-2.09-2.41-3.11-3.64-1.64-1.96-3.24-3.93-4.87-5.9-.22-.26-.38-.58-.77-.74-.29,.39-.2,.78-.21,1.14-.05,2.18-.07,4.35-.13,6.53-.02,.68,0,1.39-.41,2-.59,.88-1.51,1.34-2.61,1.5-2.08,.3-3.97-.24-5.74-1.18-.51-.27-.71-.71-.84-1.22-.48-1.92-.55-3.86-.57-5.81-.06-3.78-.1-7.56-.06-11.35,.07-6.66,.73-13.27,1.76-19.86,.27-1.74,1.1-2.79,3.05-3.36,5.4-1.57,10.72-1.77,15.97,.37,7.2,2.93,10.53,9.64,8.18,16.4-1.58,4.55-4.85,7.91-9.29,10.43-.46,.26-.99,.44-1.38,.81Zm-7.71-4.93c.44,.08,.66-.05,.88-.16,2.77-1.24,5.04-2.99,6.74-5.31,.97-1.32,1.68-2.75,1.92-4.33,.43-2.83-.35-5.25-3.15-6.88-1.62-.95-3.46-1.24-5.38-1.21-.57,.01-.76,.23-.74,.7,.01,.27,0,.53-.01,.8-.09,4.62-.18,9.24-.26,13.86-.02,.84,0,1.67,0,2.53Z"/><path class="i" d="M665.02,73.94c-.13,5.1-.26,10.21-.39,15.31,0,.15-.04,.31-.01,.46,.31,1.46-.59,2.24-1.76,2.77-1.91,.87-3.85,.83-5.71-.16-1.15-.61-1.79-1.53-1.75-2.9,.15-5.41-.22-10.82-.16-16.24,.06-5.18,.18-8.57,.27-13.75,0-.23,0-.46,.02-.69,.02-.37-.13-.58-.54-.57-.28,0-.55,0-.83,0-3.33,.01-6.66,0-9.99,.05-.83,.01-1.34-.31-1.77-.91-1.12-1.59-1.27-5.72,.21-7.03,.6-.53,1.75-.7,2.37-.7,8.8,0,17.6,0,26.4,0,.75,0,2.53-.04,3.28,0,3.23,0,3.38,4.85,2.09,7.1-.47,.83-1.14,1.29-2.2,1.28-2.57-.04-5.08,.04-7.72,.1-.27-.02-.55,.04-.83,.05-.39,.01-.55,.22-.57,.58-.03,.61-.08,1.23-.09,1.84-.1,5.07-.2,8.34-.29,13.41h-.02Z"/><path class="i" d="M704.36,73.57c-.12,4.64-.61,10.11-2.67,15.39-.51,1.32-1.18,2.56-2.04,3.72-.3,.41-.65,.75-1.14,.97-1.8,.79-3.66,.95-5.55,.34-1.14-.37-1.26-.68-.83-1.7,1.96-4.59,3.02-9.35,3.57-14.21,.1-.92,.08-.97-.97-.87-3.4,.31-6.8,.66-10.2,.96-.79,.07-.9,.46-.89,1.04,.04,4.66,.64,9.24,2.23,13.7,.53,1.49,.03,2.89-1.46,3.7-1.94,1.07-3.96,1.01-5.98,.15-.56-.24-.81-.7-1.08-1.16-1.6-2.79-2.44-5.79-2.81-8.87-1.25-10.53,.64-20.6,5.82-30.15,1.07-1.97,2.38-3.81,3.94-5.49,2.37-2.57,5.41-3.31,8.96-2.54,2.1,.46,3.77,1.53,5.17,2.99,1.85,1.94,3.04,4.17,3.84,6.59,1.57,4.76,2.07,9.63,2.11,15.44Zm-13.23-18.98c-.6,.43-.84,.91-1.13,1.35-3.4,5.05-5.03,10.61-5.89,16.39-.15,1.03-.07,1.08,1.1,1,3.23-.22,6.46-.45,9.7-.68,.97-.07,.98-.07,.96-1.01-.07-4.1-.72-8.13-2.18-12.03-.65-1.73-1.42-3.4-2.57-5.02Z"/><path class="i" d="M731.82,90.64c-.07,.54-.47,.84-.94,1.03-.49,.2-1.01,.27-1.55,.27-1.53,0-14.7,0-19.66,.06-1.28,.02-1.77-.42-1.86-1.7-.08-1.18-.04-2.17-.05-3.36-.02-5.5-.03-11.01-.05-16.51h-.04c.01-3.27,.05-6.54,.03-9.82s-.09-6.54-.13-9.82c-.01-1.16,.09-1.31,1.17-1.73,1.37-.54,2.81-.48,4.24-.39,.9,.06,1.9,.19,2.74,.57,.83,.38,1.78,1.03,1.78,2.06,0,5.58-.17,27.24-.13,32.67,0,.22,.01,.45,.02,.67,.01,.33,.19,.44,.51,.44,.51,0,8.56-.03,12.19-.03,.87,0,1.34,.34,1.55,1.16,.38,1.46,.33,2.95,.15,4.43Z"/><path class="i" d="M732.98,69.87c.05-4.8,.4-10.03,1.53-15.19,.19-.86,.43-1.7,.7-2.54,.78-2.49,2.63-3.85,5.63-3.95,2.64-.08,5.29-.01,7.93,0,2.26,.02,4.5,.19,6.74,.46,.89,.11,1.4,.51,1.65,1.24,.61,1.78,.62,3.6,.46,5.42-.06,.66-.45,.93-1.23,.93-.69,0-1.38-.12-2.07-.18-2.73-.23-5.45-.26-8.15,.3-1.12,.23-1.12,.24-1.3,1.25-.46,2.55-.76,5.12-.98,7.69-.08,.99-.05,.99,1.11,.96,1.56-.05,3.12-.08,4.68,.03,1.92,.14,2.29,.49,2.56,2.12,.19,1.15-.03,2.28-.14,3.4-.08,.82-.65,1.56-2.13,1.65-1.77,.11-3.54,.24-5.32,.36-1.14,.08-1.16,.08-1.14,1.06,.03,2.51,.13,5.01,.5,7.5,.15,1,.17,1,1.31,1.25,1.28,.27,2.58,.28,3.88,.19,1.34-.09,2.68-.16,4.03-.09,2.32,.12,2.87,.58,3.11,2.59,.11,.99,.04,1.98-.14,2.95-.24,1.28-.82,1.75-2.27,2-1.54,.26-3.1,.29-4.66,.37-3.47,.17-6.93,.27-10.37-.34-.42-.08-.84-.18-1.26-.28-.91-.21-1.46-.71-1.8-1.49-1.13-2.53-1.68-5.18-2.08-7.85-.57-3.77-.76-7.56-.79-11.8Z"/></g><g><path class="h" d="M80.45,157.4c-.81,0-1.78,.02-2.29,.02-8.8,0-17.6,0-26.4,0-.62,0-1.77,.16-2.37,.7-1.48,1.3-1.33,5.44-.21,7.03,.42,.6,.92,.92,1.72,.92h.05c3.33-.06,6.66-.04,9.99-.05,.21,0,.42,0,.63,0,.07,0,.13,0,.2,0h.03c.39,0,.53,.2,.51,.57-.01,.23-.01,.46-.02,.69-.09,5.18-.21,8.57-.27,13.75-.06,5.41,.31,10.82,.16,16.24-.04,1.37,.6,2.28,1.75,2.9,.98,.52,1.98,.78,2.99,.78,.91,0,1.82-.21,2.73-.62,1.17-.53,2.07-1.31,1.76-2.77-.03-.15,0-.31,.01-.46,.13-5.1,.26-10.21,.39-15.31h.02c.1-5.07,.19-8.34,.29-13.41,.01-.61,.07-1.23,.09-1.84,.02-.36,.18-.57,.57-.58,.24,0,.47-.05,.71-.05,.04,0,.08,0,.12,0,2.12-.05,4.15-.12,6.19-.12,.51,0,1.02,0,1.53,.01h.06c1.02,0,1.68-.46,2.14-1.28,1.28-2.25,1.14-7.1-2.09-7.1-.25-.01-.6-.02-.99-.02h0Z"/><path class="h" d="M92.71,156.53c-1.75,0-3.49,.04-5.24,.16-1.11,.08-1.7,.5-2.06,1.39-.55,1.35-.12,2.82-.11,4.21,0,1.17,.67,1.72,1.99,1.78,.43,.02,.85,.03,1.28,.03,.47,0,.94,0,1.41-.03,.03,0,.06,0,.08,0,.51,0,.76,.18,.72,.69-.02,.22,.01,.44,.02,.66-.13,4.66-.26,22.66-.34,27.34-.02,.9-.2,1.08-1.19,1.13-.52,.03-1.07,.03-1.64,.03-.62,0-1.26,0-1.91,0-1.48,0-1.74,1.03-1.74,2.36,0,.81,.05,1.62,.14,2.42,.16,1.45,.79,1.68,2.08,1.68,.25,0,.53,0,.83-.02,.08,0,1.9,0,4.31,0,4.82,0,11.98,0,12.28,0,1.05,0,1.46-.62,1.48-1.11,.07-1.36,.09-2.38,.06-3.74-.03-1.16-.72-1.71-2.03-1.75-.12,0-.23,0-.35,0-.49,0-.99,.03-1.49,.05-.16,0-.3,.01-.43,.01-1.19,0-1.32-.34-1.35-1.09,.11-7.04,.56-25.77,.63-27.8,.03-.71,.08-.84,.66-.84,.1,0,.22,0,.36,0,.04,0,.08,0,.12,0,.62,0,1.21-.19,1.83-.19,.07,0,.14,0,.21,0,.17,.01,.33,.02,.47,.02,.91,0,1.21-.3,1.33-1.27,.2-1.5-.04-2.73,.08-4.23,.07-.89-.27-1.27-1.23-1.52-.63-.17-1.28-.22-1.94-.23-3.11-.04-6.21-.17-9.32-.17h0Z"/><path class="h" d="M112.39,156.72c-.47,0-.89,0-1.24,.01-2.62,.06-2.9,.55-2.98,2.87-.19,5.81-.34,31.23-.34,38.28-.04,1.17,.05,1.26,1.38,1.29,2.54,.07,5.9,.1,8.45,.15,.04,0,.07,0,.11,0,.13,0,.26,0,.39,0,.56-.01,.82-.25,.83-.75,.01-.8,.1-1.61,.08-2.41-.22-6.51-.16-11.71-.17-18.21,0-.19-.12-.45,.3-.56,.65,1,1.31,2.02,1.97,3.03,1.18,1.81,2.36,3.62,3.52,5.43,.38,.59,.82,.98,1.66,.98,.03,0,.07,0,.11,0,.8-.03,1.6-.04,2.4-.04,.83,0,1.66,.01,2.48,.04,.04,0,.08,0,.12,0,.79,0,1.26-.28,1.66-.92,1.63-2.63,3.31-5.24,4.86-7.92,.14-.25,.17-.65,.7-.7,0,.23,0,.42,0,.6-.17,7.24-.31,12.95-.34,20.19,0,.96,.06,1.07,1.18,1.11,1.45,0,3.15,.03,4.79,.03,.8,0,1.58,0,2.33-.02,1.86-.02,1.86,.02,1.86-1.58-.02-10.97-.03-21.73-.06-32.7,0-2.3,0-4.85-.06-7.16-.02-.91-.16-1.02-1.21-1.03-.24,0-.48,0-.73,0-1.25,0-2.68,.02-3.98,.02-.48,0-.94,0-1.37-.01h-.05c-.66,0-.99,.25-1.3,.75-3.25,5.36-6.55,10.95-9.82,16.29-.17,.28-.24,.63-.65,.77-.36-.16-.47-.5-.64-.77-3.3-5.33-6.59-10.9-9.86-16.25-.33-.55-.7-.81-1.39-.81h-.05c-.27,0-.57,0-.91,0-1.19,0-2.74-.02-3.99-.02h0Z"/><path class="h" d="M165.09,155.93c-2.87,0-5.74,.48-8.63,1.38-.8,.25-1.14,.67-1.31,1.41-.74,3.27-1.34,6.55-1.84,9.86-.92,6.06-1.39,12.14-1.16,18.27,.12,3.34,.39,6.67,1.27,9.92,.3,1.11,.67,2.18,1.23,3.2,.47,.85,1.18,1.31,2.18,1.43,.47,.06,.94,.09,1.42,.09,.3,0,.59-.01,.89-.04,.09,0,.17-.01,.25-.01,.49,0,.9,.14,1.32,.43,1.03,.7,2.2,1.12,3.44,1.39,.96,.21,1.91,.3,2.86,.3,1.3,0,2.59-.17,3.88-.43,8.13-1.67,14.67-9.44,14.11-17.3-.34-4.77-2.77-8.33-7.6-10.25-.26-.1-.56-.11-.83-.45,.49-.38,.97-.73,1.43-1.1,1.28-1.03,2.35-2.22,3.05-3.65,1.46-3.01,1.25-5.9-.93-8.57-1.62-1.98-3.71-3.39-6.17-4.29-2.94-1.08-5.89-1.59-8.85-1.59h0Zm-3.56,18.94c-.45,0-.45-.22-.41-.96,.02-.38,.05-.76,.07-1.13,.21-3.48,.63-6.94,1.28-10.38,.12-.64,.4-.96,1.14-1.08,1.08-.18,2.16-.3,3.23-.3,.97,0,1.94,.1,2.9,.35,4.16,1.06,5.43,4.27,3.05,7.64-.56,.79-1.22,1.51-1.99,2.13-2.49,2-5.39,3.17-8.62,3.66-.28,.04-.49,.07-.65,.07h0Zm4.36,20.43c-.69,0-1.41-.07-2.15-.22-.94-.19-1.48-.58-1.59-1.53-.18-1.5-.51-2.99-.69-4.49-.19-1.5-.28-3.02-.42-4.52-.02,0-.05,0-.07,0,0-.79,.03-1.59-.01-2.38-.03-.55,.16-.96,.64-1.26,1.74-1.09,3.56-1.68,5.45-1.68,1.12,0,2.26,.21,3.43,.64,2.96,1.1,4.65,3.23,4.93,6.22,.25,2.66-.83,4.92-2.92,6.69-1.93,1.65-4.12,2.54-6.59,2.54h0Z"/><path class="h" d="M197.79,155.98c-.94,0-1.89,.01-2.83,.04-2.99,.1-4.84,1.46-5.63,3.95-.26,.84-.51,1.69-.7,2.54-1.13,5.16-1.48,10.39-1.53,15.19,.03,4.24,.22,8.03,.79,11.8,.4,2.68,.96,5.32,2.08,7.85,.34,.78,.89,1.28,1.8,1.49,.42,.1,.84,.2,1.26,.28,2,.36,4.01,.47,6.03,.47,1.44,0,2.89-.06,4.34-.13,1.56-.08,3.12-.11,4.66-.37,1.45-.24,2.02-.71,2.27-2,.18-.97,.25-1.96,.14-2.95-.23-2-.78-2.47-3.11-2.59-.39-.02-.79-.03-1.18-.03-.95,0-1.9,.05-2.84,.12-.46,.03-.92,.05-1.38,.05-.84,0-1.68-.07-2.5-.24-1.14-.25-1.16-.25-1.31-1.25-.38-2.49-.47-4.99-.5-7.5-.01-.98,0-.98,1.14-1.06,1.77-.12,3.54-.25,5.32-.36,1.47-.09,2.05-.83,2.13-1.65,.11-1.12,.33-2.25,.14-3.4-.27-1.63-.64-1.98-2.56-2.12-.78-.06-1.55-.08-2.33-.08s-1.57,.02-2.35,.05c-.19,0-.34,.01-.48,.01-.69,0-.7-.14-.63-.97,.22-2.57,.52-5.14,.98-7.69,.18-1.01,.17-1.02,1.3-1.25,1.59-.33,3.18-.45,4.79-.45,1.12,0,2.24,.06,3.36,.16,.69,.06,1.38,.17,2.07,.18h.03c.76,0,1.15-.28,1.2-.93,.15-1.82,.15-3.64-.46-5.42-.25-.73-.76-1.13-1.65-1.24-2.24-.27-4.48-.45-6.74-.46-1.7-.01-3.4-.04-5.1-.04h0Z"/><path class="h" d="M226.21,156.97c-2.6,0-5.22,.44-7.86,1.2-1.94,.56-2.77,1.61-3.05,3.36-1.03,6.59-1.68,13.21-1.76,19.86-.04,3.78,0,7.56,.06,11.35,.03,1.95,.1,3.89,.57,5.81,.13,.51,.33,.95,.84,1.22,1.44,.76,2.95,1.26,4.59,1.26,.38,0,.76-.03,1.15-.08,1.1-.16,2.02-.62,2.61-1.5,.41-.61,.39-1.32,.41-2,.05-2.18,.08-4.36,.13-6.53,0-.36-.08-.75,.21-1.14,.39,.15,.56,.47,.77,.74,1.63,1.96,3.24,3.94,4.87,5.9,1.02,1.22,2.07,2.43,3.11,3.64,.32,.37,.66,.7,1.18,.85,.79,.23,1.56,.34,2.31,.34,1.54,0,2.98-.48,4.29-1.46,1.39-1.04,1.43-1.98,.31-3.24-2.79-3.14-5.59-6.27-8.39-9.4-.26-.29-.6-.55-.73-.94,.38-.37,.91-.55,1.38-.81,4.44-2.52,7.71-5.89,9.29-10.43,2.35-6.76-.98-13.47-8.18-16.4-2.68-1.09-5.39-1.57-8.11-1.57h0Zm-1.83,24.31c-.08,0-.16,0-.25-.02,0-.86-.01-1.7,0-2.53,.08-4.62,.17-9.24,.26-13.86,0-.27,.02-.54,.01-.8-.02-.46,.17-.69,.74-.7,.09,0,.18,0,.27,0,1.82,0,3.56,.31,5.11,1.21,2.8,1.63,3.58,4.06,3.15,6.88-.24,1.58-.95,3.01-1.92,4.33-1.7,2.32-3.97,4.07-6.74,5.31-.18,.08-.35,.18-.63,.18h0Z"/><path class="h" d="M293.52,157.4c-.81,0-1.78,.02-2.29,.02-8.8,0-17.6,0-26.4,0-.62,0-1.77,.16-2.37,.7-1.48,1.3-1.33,5.44-.21,7.03,.42,.6,.92,.92,1.72,.92h.05c3.33-.06,6.66-.04,9.99-.05,.21,0,.42,0,.63,0,.07,0,.13,0,.2,0h.03c.39,0,.53,.2,.51,.57-.01,.23-.01,.46-.02,.69-.09,5.18-.21,8.57-.27,13.75-.06,5.41,.31,10.82,.16,16.24-.04,1.37,.6,2.28,1.75,2.9,.98,.52,1.98,.78,2.99,.78,.91,0,1.82-.21,2.73-.62,1.17-.53,2.07-1.31,1.76-2.77-.03-.15,0-.31,.01-.46,.13-5.1,.26-10.21,.39-15.31h.02c.1-5.07,.19-8.34,.29-13.41,.01-.61,.07-1.23,.09-1.84,.02-.36,.18-.57,.57-.58,.24,0,.47-.05,.71-.05,.04,0,.08,0,.12,0,2.12-.05,4.15-.12,6.19-.12,.51,0,1.02,0,1.53,.01h.06c1.02,0,1.68-.46,2.14-1.28,1.28-2.25,1.14-7.1-2.09-7.1-.25-.01-.6-.02-.99-.02h0Z"/><path class="h" d="M310.56,156.09c-2.47,0-4.62,.9-6.4,2.83-1.56,1.69-2.87,3.52-3.94,5.49-5.18,9.55-7.07,19.62-5.82,30.15,.37,3.08,1.21,6.08,2.81,8.87,.27,.46,.52,.92,1.08,1.16,.99,.42,1.97,.65,2.95,.65,1.02,0,2.04-.25,3.03-.8,1.49-.82,1.98-2.22,1.46-3.7-1.59-4.46-2.18-9.04-2.23-13.7,0-.58,.1-.97,.89-1.04,3.4-.3,6.8-.65,10.2-.96,.23-.02,.41-.04,.55-.04,.51,0,.5,.18,.42,.9-.54,4.87-1.61,9.63-3.57,14.21-.44,1.02-.31,1.33,.83,1.7,.78,.25,1.55,.37,2.32,.37,1.1,0,2.18-.25,3.23-.71,.49-.22,.84-.56,1.14-.97,.86-1.16,1.53-2.41,2.04-3.72,2.06-5.27,2.55-10.74,2.67-15.39-.04-5.81-.54-10.69-2.11-15.44-.8-2.42-1.99-4.65-3.84-6.59-1.39-1.46-3.07-2.53-5.17-2.99-.88-.19-1.74-.29-2.55-.29h0Zm-6.05,25.1c-.64,0-.67-.19-.54-1.02,.86-5.78,2.49-11.34,5.89-16.39,.29-.43,.53-.91,1.13-1.35,1.15,1.62,1.92,3.29,2.57,5.02,1.46,3.9,2.11,7.92,2.18,12.03,.01,.94,0,.94-.96,1.01-3.23,.23-6.46,.46-9.7,.68-.23,.02-.41,.03-.56,.03h0Z"/><path class="h" d="M331.37,156.45c-.93,0-1.85,.1-2.74,.45-1.08,.42-1.19,.57-1.17,1.73,.04,3.27,.11,6.54,.13,9.82s-.02,6.55-.03,9.82h.04c.02,5.5,.03,11.01,.05,16.51,0,1.19-.04,2.18,.05,3.36,.09,1.26,.56,1.7,1.79,1.7h.07c4.78-.06,17.14-.06,19.44-.06h.22c.54,0,1.06-.06,1.55-.27,.47-.19,.87-.5,.94-1.03,.18-1.48,.23-2.97-.15-4.43-.22-.81-.68-1.16-1.55-1.16-3.64,0-11.69,.03-12.19,.03-.32,0-.5-.11-.51-.44,0-.22-.02-.45-.02-.67-.04-5.43,.13-27.09,.13-32.67,0-1.03-.95-1.68-1.78-2.06-.84-.38-1.84-.51-2.74-.57-.5-.03-1-.06-1.5-.06h0Z"/><path class="h" d="M363.53,155.98c-.94,0-1.89,.01-2.83,.04-2.99,.1-4.84,1.46-5.63,3.95-.26,.84-.51,1.69-.7,2.54-1.13,5.16-1.48,10.39-1.53,15.19,.03,4.24,.22,8.03,.79,11.8,.4,2.68,.96,5.32,2.08,7.85,.34,.78,.89,1.28,1.8,1.49,.42,.1,.84,.2,1.26,.28,2,.36,4.01,.47,6.03,.47,1.44,0,2.89-.06,4.34-.13,1.56-.08,3.12-.11,4.66-.37,1.45-.24,2.02-.71,2.27-2,.18-.97,.25-1.96,.14-2.95-.23-2-.78-2.47-3.11-2.59-.39-.02-.79-.03-1.18-.03-.95,0-1.9,.05-2.84,.12-.46,.03-.92,.05-1.38,.05-.84,0-1.68-.07-2.5-.24-1.14-.25-1.16-.25-1.31-1.25-.38-2.49-.47-4.99-.5-7.5-.01-.98,0-.98,1.14-1.06,1.77-.12,3.54-.25,5.32-.36,1.47-.09,2.05-.83,2.13-1.65,.11-1.12,.33-2.25,.14-3.4-.27-1.63-.64-1.98-2.56-2.12-.78-.06-1.55-.08-2.33-.08s-1.57,.02-2.35,.05c-.19,0-.34,.01-.48,.01-.69,0-.7-.14-.63-.97,.22-2.57,.52-5.14,.98-7.69,.18-1.01,.17-1.02,1.3-1.25,1.59-.33,3.18-.45,4.79-.45,1.12,0,2.24,.06,3.36,.16,.69,.06,1.38,.17,2.07,.18h.03c.76,0,1.15-.28,1.2-.93,.15-1.82,.15-3.64-.46-5.42-.25-.73-.76-1.13-1.65-1.24-2.24-.27-4.48-.45-6.74-.46-1.7-.01-3.4-.04-5.1-.04h0Z"/></g><g><path class="j" d="M460.58,157.4c-.81,0-1.78,.02-2.29,.02-8.8,0-17.6,0-26.4,0-.62,0-1.77,.16-2.37,.7-1.48,1.3-1.34,5.44-.21,7.03,.42,.6,.92,.92,1.72,.92h.05c3.33-.06,6.66-.04,9.99-.05,.21,0,.42,0,.63,0,.07,0,.13,0,.2,0h.03c.39,0,.53,.2,.51,.57-.01,.23-.01,.46-.02,.69-.09,5.18-.21,8.57-.27,13.75-.06,5.41,.31,10.82,.16,16.24-.04,1.37,.6,2.28,1.75,2.9,.98,.52,1.98,.78,2.99,.78,.91,0,1.82-.21,2.73-.62,1.17-.53,2.07-1.31,1.76-2.77-.03-.15,0-.31,.01-.46,.13-5.1,.26-10.21,.39-15.31h.02c.1-5.07,.19-8.34,.29-13.41,.01-.61,.07-1.23,.09-1.84,.02-.36,.18-.57,.57-.58,.24,0,.47-.05,.71-.05,.04,0,.08,0,.12,0,2.12-.05,4.15-.12,6.19-.12,.51,0,1.02,0,1.53,.01h.06c1.02,0,1.68-.46,2.14-1.28,1.28-2.25,1.14-7.1-2.09-7.1-.25-.01-.6-.02-.99-.02h0Z"/><path class="j" d="M472.84,156.53c-1.75,0-3.49,.04-5.24,.16-1.11,.08-1.7,.5-2.06,1.39-.55,1.35-.12,2.82-.11,4.21,0,1.17,.67,1.72,1.99,1.78,.43,.02,.85,.03,1.28,.03,.47,0,.94,0,1.41-.03,.03,0,.06,0,.08,0,.51,0,.76,.18,.72,.69-.02,.22,.01,.44,.02,.66-.13,4.66-.26,22.66-.34,27.34-.02,.9-.2,1.08-1.19,1.13-.52,.03-1.07,.03-1.64,.03-.62,0-1.26,0-1.91,0-1.48,0-1.74,1.03-1.74,2.36,0,.81,.05,1.62,.14,2.42,.16,1.45,.79,1.68,2.08,1.68,.25,0,.53,0,.83-.02,.08,0,1.9,0,4.31,0,4.82,0,11.98,0,12.28,0,1.05,0,1.46-.62,1.49-1.11,.07-1.36,.09-2.38,.06-3.74-.03-1.16-.72-1.71-2.03-1.75-.12,0-.23,0-.35,0-.49,0-.99,.03-1.49,.05-.16,0-.3,.01-.43,.01-1.19,0-1.32-.34-1.35-1.09,.11-7.04,.56-25.77,.64-27.8,.03-.71,.08-.84,.66-.84,.1,0,.22,0,.36,0,.04,0,.08,0,.12,0,.62,0,1.21-.19,1.83-.19,.07,0,.14,0,.21,0,.17,.01,.33,.02,.47,.02,.91,0,1.21-.3,1.33-1.27,.2-1.5-.04-2.73,.08-4.23,.07-.89-.27-1.27-1.23-1.52-.63-.17-1.28-.22-1.94-.23-3.11-.04-6.21-.17-9.32-.17h0Z"/><path class="j" d="M492.52,156.72c-.47,0-.89,0-1.24,.01-2.62,.06-2.9,.55-2.98,2.87-.19,5.81-.34,31.23-.34,38.28-.04,1.17,.05,1.26,1.38,1.29,2.54,.07,5.9,.1,8.45,.15,.04,0,.07,0,.11,0,.13,0,.26,0,.39,0,.56-.01,.82-.25,.83-.75,.01-.8,.1-1.61,.08-2.41-.22-6.51-.16-11.71-.17-18.21,0-.19-.12-.45,.3-.56,.65,1,1.31,2.02,1.97,3.03,1.18,1.81,2.36,3.62,3.52,5.43,.38,.59,.82,.98,1.66,.98,.03,0,.07,0,.11,0,.8-.03,1.6-.04,2.4-.04,.83,0,1.66,.01,2.48,.04,.04,0,.08,0,.12,0,.79,0,1.26-.28,1.66-.92,1.63-2.63,3.31-5.24,4.86-7.92,.15-.25,.17-.65,.7-.7,0,.23,0,.42,0,.6-.17,7.24-.31,12.95-.34,20.19,0,.96,.06,1.07,1.18,1.11,1.45,0,3.15,.03,4.79,.03,.8,0,1.58,0,2.33-.02,1.86-.02,1.86,.02,1.86-1.58-.02-10.97-.03-21.73-.06-32.7,0-2.3,0-4.85-.06-7.16-.02-.91-.16-1.02-1.21-1.03-.24,0-.48,0-.73,0-1.25,0-2.68,.02-3.98,.02-.48,0-.94,0-1.37-.01h-.05c-.66,0-.99,.25-1.3,.75-3.25,5.36-6.55,10.95-9.82,16.29-.17,.28-.24,.63-.65,.77-.36-.16-.47-.5-.64-.77-3.3-5.33-6.59-10.9-9.86-16.25-.33-.55-.7-.81-1.39-.81h-.05c-.27,0-.57,0-.91,0-1.19,0-2.74-.02-3.99-.02h0Z"/><path class="j" d="M545.22,155.93c-2.87,0-5.74,.48-8.63,1.38-.8,.25-1.14,.67-1.31,1.41-.74,3.27-1.34,6.55-1.84,9.86-.92,6.06-1.39,12.14-1.16,18.27,.12,3.34,.39,6.67,1.27,9.92,.3,1.11,.67,2.18,1.23,3.2,.47,.85,1.18,1.31,2.18,1.43,.47,.06,.94,.09,1.42,.09,.3,0,.59-.01,.89-.04,.09,0,.17-.01,.25-.01,.49,0,.9,.14,1.32,.43,1.03,.7,2.2,1.12,3.44,1.39,.96,.21,1.91,.3,2.86,.3,1.3,0,2.59-.17,3.88-.43,8.13-1.67,14.67-9.44,14.11-17.3-.34-4.77-2.77-8.33-7.6-10.25-.26-.1-.56-.11-.83-.45,.49-.38,.97-.73,1.43-1.1,1.28-1.03,2.35-2.22,3.05-3.65,1.46-3.01,1.25-5.9-.93-8.57-1.62-1.98-3.71-3.39-6.17-4.29-2.94-1.08-5.89-1.59-8.85-1.59h0Zm-3.56,18.94c-.45,0-.45-.22-.41-.96,.02-.38,.05-.76,.07-1.13,.21-3.48,.63-6.94,1.28-10.38,.12-.64,.4-.96,1.14-1.08,1.08-.18,2.16-.3,3.23-.3,.97,0,1.94,.1,2.9,.35,4.16,1.06,5.43,4.27,3.05,7.64-.56,.79-1.22,1.51-1.99,2.13-2.49,2-5.39,3.17-8.62,3.66-.28,.04-.49,.07-.65,.07h0Zm4.36,20.43c-.69,0-1.41-.07-2.15-.22-.94-.19-1.48-.58-1.59-1.53-.18-1.5-.51-2.99-.69-4.49-.19-1.5-.28-3.02-.42-4.52-.02,0-.05,0-.07,0,0-.79,.03-1.59-.01-2.38-.03-.55,.16-.96,.64-1.26,1.74-1.09,3.56-1.68,5.45-1.68,1.12,0,2.26,.21,3.43,.64,2.96,1.1,4.65,3.23,4.93,6.22,.25,2.66-.83,4.92-2.92,6.69-1.93,1.65-4.12,2.54-6.59,2.54h0Z"/><path class="j" d="M577.92,155.98c-.94,0-1.89,.01-2.83,.04-2.99,.1-4.84,1.46-5.63,3.95-.26,.84-.51,1.69-.7,2.54-1.13,5.16-1.48,10.39-1.53,15.19,.03,4.24,.22,8.03,.79,11.8,.4,2.68,.96,5.32,2.08,7.85,.34,.78,.89,1.28,1.8,1.49,.42,.1,.83,.2,1.26,.28,2,.36,4.01,.47,6.03,.47,1.44,0,2.89-.06,4.34-.13,1.56-.08,3.12-.11,4.66-.37,1.45-.24,2.02-.71,2.27-2,.18-.97,.25-1.96,.14-2.95-.23-2-.78-2.47-3.11-2.59-.39-.02-.79-.03-1.18-.03-.95,0-1.9,.05-2.84,.12-.46,.03-.92,.05-1.38,.05-.84,0-1.68-.07-2.5-.24-1.14-.25-1.16-.25-1.31-1.25-.38-2.49-.47-4.99-.5-7.5-.01-.98,0-.98,1.14-1.06,1.77-.12,3.54-.25,5.32-.36,1.47-.09,2.05-.83,2.13-1.65,.11-1.12,.33-2.25,.14-3.4-.27-1.63-.64-1.98-2.56-2.12-.78-.06-1.55-.08-2.33-.08s-1.57,.02-2.35,.05c-.19,0-.34,.01-.48,.01-.69,0-.7-.14-.63-.97,.22-2.57,.52-5.14,.98-7.69,.18-1.01,.17-1.02,1.3-1.25,1.59-.33,3.18-.45,4.79-.45,1.12,0,2.24,.06,3.36,.16,.69,.06,1.38,.17,2.07,.18h.03c.76,0,1.15-.28,1.2-.93,.15-1.82,.15-3.64-.46-5.42-.25-.73-.76-1.13-1.65-1.24-2.24-.27-4.48-.45-6.74-.46-1.7-.01-3.4-.04-5.1-.04h0Z"/><path class="j" d="M606.34,156.97c-2.6,0-5.22,.44-7.86,1.2-1.94,.56-2.77,1.61-3.05,3.36-1.03,6.59-1.68,13.21-1.76,19.86-.04,3.78,0,7.56,.06,11.35,.03,1.95,.1,3.89,.57,5.81,.13,.51,.33,.95,.84,1.22,1.44,.76,2.95,1.26,4.59,1.26,.38,0,.76-.03,1.15-.08,1.1-.16,2.02-.62,2.61-1.5,.41-.61,.39-1.32,.41-2,.05-2.18,.08-4.36,.13-6.53,0-.36-.08-.75,.21-1.14,.39,.15,.56,.47,.77,.74,1.63,1.96,3.24,3.94,4.87,5.9,1.02,1.22,2.07,2.43,3.11,3.64,.32,.37,.66,.7,1.18,.85,.79,.23,1.56,.34,2.31,.34,1.54,0,2.98-.48,4.29-1.46,1.39-1.04,1.43-1.98,.31-3.24-2.79-3.14-5.59-6.27-8.39-9.4-.26-.29-.6-.55-.73-.94,.38-.37,.91-.55,1.38-.81,4.44-2.52,7.71-5.89,9.29-10.43,2.35-6.76-.98-13.47-8.18-16.4-2.68-1.09-5.39-1.57-8.11-1.57h0Zm-1.83,24.31c-.08,0-.16,0-.25-.02,0-.86-.01-1.7,0-2.53,.08-4.62,.17-9.24,.26-13.86,0-.27,.02-.54,.01-.8-.02-.46,.17-.69,.74-.7,.09,0,.18,0,.27,0,1.82,0,3.56,.31,5.11,1.21,2.8,1.63,3.58,4.06,3.15,6.88-.24,1.58-.95,3.01-1.92,4.33-1.7,2.32-3.97,4.07-6.74,5.31-.18,.08-.35,.18-.63,.18h0Z"/><path class="j" d="M673.66,157.4c-.81,0-1.78,.02-2.29,.02-8.8,0-17.6,0-26.4,0-.62,0-1.77,.16-2.37,.7-1.48,1.3-1.33,5.44-.21,7.03,.42,.6,.92,.92,1.72,.92h.05c3.33-.06,6.66-.04,9.99-.05,.21,0,.42,0,.63,0,.07,0,.13,0,.2,0h.03c.39,0,.53,.2,.51,.57-.01,.23-.01,.46-.02,.69-.09,5.18-.21,8.57-.27,13.75-.06,5.41,.31,10.82,.16,16.24-.04,1.37,.6,2.28,1.75,2.9,.98,.52,1.98,.78,2.99,.78,.91,0,1.82-.21,2.73-.62,1.17-.53,2.07-1.31,1.76-2.77-.03-.15,0-.31,.01-.46,.13-5.1,.26-10.21,.39-15.31h.02c.1-5.07,.19-8.34,.29-13.41,.01-.61,.07-1.23,.09-1.84,.02-.36,.18-.57,.57-.58,.24,0,.47-.05,.71-.05,.04,0,.08,0,.12,0,2.12-.05,4.15-.12,6.19-.12,.51,0,1.02,0,1.53,.01h.06c1.02,0,1.68-.46,2.14-1.28,1.28-2.25,1.14-7.1-2.09-7.1-.25-.01-.6-.02-.99-.02h0Z"/><path class="j" d="M690.7,156.09c-2.47,0-4.62,.9-6.4,2.83-1.56,1.69-2.87,3.52-3.94,5.49-5.18,9.55-7.07,19.62-5.82,30.15,.37,3.08,1.21,6.08,2.81,8.87,.27,.46,.52,.92,1.08,1.16,.99,.42,1.97,.65,2.95,.65,1.02,0,2.04-.25,3.03-.8,1.49-.82,1.98-2.22,1.46-3.7-1.59-4.46-2.18-9.04-2.23-13.7,0-.58,.1-.97,.89-1.04,3.4-.3,6.8-.65,10.2-.96,.23-.02,.41-.04,.55-.04,.51,0,.5,.18,.42,.9-.54,4.87-1.61,9.63-3.57,14.21-.44,1.02-.31,1.33,.83,1.7,.78,.25,1.55,.37,2.32,.37,1.1,0,2.18-.25,3.23-.71,.49-.22,.84-.56,1.14-.97,.86-1.16,1.53-2.41,2.04-3.72,2.06-5.27,2.55-10.74,2.67-15.39-.04-5.81-.54-10.69-2.11-15.44-.8-2.42-1.99-4.65-3.84-6.59-1.39-1.46-3.07-2.53-5.17-2.99-.88-.19-1.74-.29-2.55-.29h0Zm-6.05,25.1c-.64,0-.67-.19-.54-1.02,.86-5.78,2.49-11.34,5.89-16.39,.29-.43,.53-.91,1.13-1.35,1.15,1.62,1.92,3.29,2.57,5.02,1.46,3.9,2.11,7.92,2.18,12.03,.01,.94,0,.94-.96,1.01-3.23,.23-6.46,.46-9.7,.68-.23,.02-.41,.03-.56,.03h0Z"/><path class="j" d="M711.5,156.45c-.93,0-1.85,.1-2.74,.45-1.08,.42-1.19,.57-1.17,1.73,.04,3.27,.11,6.54,.13,9.82,.02,3.27-.02,6.55-.03,9.82h.04c.02,5.5,.03,11.01,.05,16.51,0,1.19-.04,2.18,.05,3.36,.09,1.26,.56,1.7,1.79,1.7h.07c4.78-.06,17.14-.06,19.44-.06h.22c.54,0,1.06-.06,1.55-.27,.47-.19,.87-.5,.94-1.03,.18-1.48,.23-2.97-.15-4.43-.22-.81-.68-1.16-1.55-1.16-3.64,0-11.69,.03-12.19,.03-.32,0-.5-.11-.51-.44,0-.22-.02-.45-.02-.67-.04-5.43,.13-27.09,.13-32.67,0-1.03-.95-1.68-1.78-2.06-.84-.38-1.84-.51-2.74-.57-.5-.03-1-.06-1.5-.06h0Z"/><path class="j" d="M743.66,155.98c-.94,0-1.89,.01-2.83,.04-2.99,.1-4.84,1.46-5.63,3.95-.26,.84-.51,1.69-.7,2.54-1.13,5.16-1.48,10.39-1.53,15.19,.03,4.24,.22,8.03,.79,11.8,.4,2.68,.96,5.32,2.08,7.85,.34,.78,.89,1.28,1.8,1.49,.42,.1,.83,.2,1.26,.28,2,.36,4.01,.47,6.03,.47,1.44,0,2.89-.06,4.34-.13,1.56-.08,3.12-.11,4.66-.37,1.45-.24,2.02-.71,2.27-2,.18-.97,.25-1.96,.14-2.95-.23-2-.78-2.47-3.11-2.59-.39-.02-.79-.03-1.18-.03-.95,0-1.9,.05-2.84,.12-.46,.03-.92,.05-1.38,.05-.84,0-1.68-.07-2.5-.24-1.14-.25-1.16-.25-1.31-1.25-.38-2.49-.47-4.99-.5-7.5-.01-.98,0-.98,1.14-1.06,1.77-.12,3.54-.25,5.32-.36,1.47-.09,2.05-.83,2.13-1.65,.11-1.12,.33-2.25,.14-3.4-.27-1.63-.64-1.98-2.56-2.12-.78-.06-1.55-.08-2.33-.08s-1.57,.02-2.35,.05c-.19,0-.34,.01-.48,.01-.69,0-.7-.14-.63-.97,.22-2.57,.52-5.14,.98-7.69,.18-1.01,.17-1.02,1.3-1.25,1.59-.33,3.18-.45,4.79-.45,1.12,0,2.24,.06,3.36,.16,.69,.06,1.38,.17,2.07,.18h.03c.76,0,1.15-.28,1.2-.93,.15-1.82,.15-3.64-.46-5.42-.25-.73-.76-1.13-1.65-1.24-2.24-.27-4.48-.45-6.74-.46-1.7-.01-3.4-.04-5.1-.04h0Z"/></g></g><g id="b"/><g id="c"/><g id="d"/><g id="e"/><g id="f"/><g id="g"/></svg>