<?xml version="1.0" encoding="UTF-8"?><svg xmlns="http://www.w3.org/2000/svg" viewBox="0 0 40 40"><defs><style>.h{fill:#e96b24;}.i{fill:#7e4d2c;}.j{fill:#458744;}</style></defs><g id="a"/><g id="b"/><g id="c"><g><path class="h" d="M20.19,5.73c5,4.88,10.2,7.14,13.4,8.15-1.17,14.76-10.33,20.2-13.52,21.65-3.19-1.46-12.35-6.89-13.52-21.65,3.18-1.01,8.35-3.26,13.33-8.09l.12,.15,.18-.21m-.11-5.25h0C12.34,9.91,2.98,11.21,2.98,11.21c.25,22.46,16.73,27.93,17.1,28.04h0c.36-.12,16.84-5.58,17.1-28.04,0,0-9.36-1.3-17.1-10.73h0Z"/><path class="j" d="M24.64,21.96c.55,.62,4.19,2.4,5.56-1.03,3.09,.38,3.47-5.49,2.3-6.11,1.99-.69,2.09-8.2-4.09-8,0,0-2.64-4.81-7.24-1.3-2.3-2.4-7.42-.86-8.75,3.02-1.92-.76-6.76,3.54-4.81,6.76-1.68,.55-.62,6.83,3.43,5.42,0,0,1.89,3.09,5.42,1.03,3.54-2.06,8.17,.21,8.17,.21Z"/><g/><path class="i" d="M14.48,31.72c1.39-1.6,6.82-8.02-1.75-13.13-2.39-2.02,.31-.36,.31-.36,0,0,2.25,1.48,3.5,1.96s-1.13-2.57-2.16-3.09-.52-.57-.02-.36c.58,.24,1.88,1.43,2.64,2.3,1.53,1.73,1.01-1.4,1.94-2.92s.38,0-.03,1.24,.67,3.23,1.32,3.09,1.68-1.37,1.44-2.85-.69-3.14,.24-.93c.93,2.21-.39,2.47-.34,3.16s1.46-.41,2.03-1.24,1.73-1.63,1.79-1.49-.74,.64-1.17,1.25-.53,.36-.77,2.45,3.16-1.56,3.78-2.49,.55-.07-.12,.65-3.7,3.55-3.54,7.31,1.85,5.66,1.85,5.66c0,0-4.26,3.64-5.34,3.68-2.1-.84-5.6-3.9-5.6-3.9Z"/><g/></g></g><g id="d"/><g id="e"/><g id="f"/><g id="g"/></svg>