<?xml version="1.0" encoding="UTF-8"?><svg xmlns="http://www.w3.org/2000/svg" xmlns:xlink="http://www.w3.org/1999/xlink" viewBox="0 0 320.98 226.37"><defs><style>.q{fill:url(#f);}.r{fill:#e96b24;}.s{fill:#7e4d2c;}.t{fill:#386c37;}.u{fill:#633e23;}.v{fill:#614928;}.w{fill:#57a855;filter:url(#i);}.x{fill:#458744;filter:url(#g);}.y{filter:url(#d);}.a`{filter:url(#m);}.aa{fill:none;stroke:#e02726;stroke-miterlimit:10;stroke-width:2px;}</style><filter id="d" filterUnits="userSpaceOnUse"><feOffset dx="-2" dy="7"/><feGaussianBlur result="e" stdDeviation="4"/><feFlood flood-color="#1f231e" flood-opacity=".52"/><feComposite in2="e" operator="in"/><feComposite in="SourceGraphic"/></filter><linearGradient id="f" x1="161.56" y1="32.22" x2="161.56" y2="133.79" gradientTransform="matrix(1, 0, 0, 1, 0, 0)" gradientUnits="userSpaceOnUse"><stop offset=".11" stop-color="#fff"/><stop offset=".24" stop-color="#fafcfd"/><stop offset=".37" stop-color="#eef4f8"/><stop offset=".5" stop-color="#d9e7ef"/><stop offset=".63" stop-color="#bcd5e3"/><stop offset=".77" stop-color="#96bdd3"/><stop offset=".9" stop-color="#68a1c0"/><stop offset=".98" stop-color="#4c8fb5"/></linearGradient><filter id="g" filterUnits="userSpaceOnUse"><feOffset dx="-1.81" dy="0"/><feGaussianBlur result="h" stdDeviation="3.01"/><feFlood flood-color="#2e5127" flood-opacity=".3"/><feComposite in2="h" operator="in"/><feComposite in="SourceGraphic"/></filter><filter id="i" filterUnits="userSpaceOnUse"><feOffset dx="-1.81" dy="0"/><feGaussianBlur result="j" stdDeviation="3.01"/><feFlood flood-color="#2e5127" flood-opacity=".3"/><feComposite in2="j" operator="in"/><feComposite in="SourceGraphic"/></filter><filter id="m" filterUnits="userSpaceOnUse"><feOffset dx="-2" dy="7"/><feGaussianBlur result="n" stdDeviation="4"/><feFlood flood-color="#1f231e" flood-opacity=".52"/><feComposite in2="n" operator="in"/><feComposite in="SourceGraphic"/></filter></defs><g id="a"/><g id="b"/><g id="c"><g class="y"><path class="q" d="M206.34,60.34s-24.53-3.41-44.77-28.09v-.03h-.02v.03c-20.25,24.68-44.77,28.09-44.77,28.09,.67,58.82,43.82,73.14,44.77,73.45h.02c.95-.31,44.11-14.63,44.77-73.45Z"/><path class="r" d="M161.28,45.94l.55,.64,.29-.37c13.02,12.61,26.52,18.48,34.84,21.11-1.45,18.55-7.83,33.65-19.02,44.96-6.38,6.45-12.83,10.04-16.39,11.7-3.56-1.66-10.01-5.25-16.39-11.7-11.18-11.32-17.57-26.42-19.02-44.96,8.38-2.65,22.01-8.59,35.12-21.38m.29-13.72h-.02v.03c-20.25,24.68-44.77,28.09-44.77,28.09,.67,58.82,43.82,73.14,44.77,73.45h.02c.95-.31,44.11-14.63,44.77-73.45,0,0-24.53-3.41-44.77-28.09v-.03h0Z"/><path class="t" d="M173.51,88.48c1.44,1.62,10.97,6.29,14.56-2.7,8.09,.99,9.08-14.38,6.02-16,5.21-1.8,5.48-21.49-10.7-20.95,0,0-6.92-12.59-18.97-3.42-6.02-6.29-19.42-2.25-22.93,7.91-5.03-1.98-17.71,9.26-12.59,17.71-4.41,1.44-1.62,17.89,8.99,14.21,0,0,4.94,8.09,14.21,2.7s21.4,.54,21.4,.54Z"/><g><path class="x" d="M193.72,82.75c1.6-2.61,2.16-6.37,1.91-9.19-1.58-.24-2.9-.75-3.68-1.55-7.02,5.95-20.48,2.82-23.41-4.63-14.23,1.3-15.54-11.24-15.54-11.24-4.78-2.3-7.15-5.41-7.99-8.51-1.51,1.58-2.74,3.5-3.5,5.7-5.03-1.98-17.71,9.26-12.59,17.71-.29,.09-.54,.25-.76,.46,3.47,3.02,11.31,7.6,22.81,1.5,4.59,3.57,12.58,3.8,19.34,1.44,4.21,6.31,15.08,10.04,23.42,8.31Z"/><path class="w" d="M152.99,56.14s1.32,12.54,15.54,11.24c2.94,7.45,16.39,10.58,23.41,4.63,.79,.8,2.11,1.31,3.68,1.55-.17-1.87-.7-3.34-1.53-3.78,5.21-1.8,5.48-21.49-10.7-20.95,0,0-6.92-12.59-18.97-3.42-4.72-4.93-13.96-3.51-19.43,2.22,.85,3.1,3.21,6.21,7.99,8.51Z"/></g><path class="s" d="M146.92,114.04c3.64-4.18,17.87-21-4.59-34.39-6.27-5.29,.81-.94,.81-.94,0,0,5.89,3.87,9.17,5.12,3.28,1.26-2.97-6.74-5.66-8.09s-1.37-1.49-.04-.94c1.53,.63,4.91,3.74,6.92,6.02,4,4.54,2.65-3.66,5.08-7.64,2.43-3.98,.99,0-.09,3.24s1.75,8.45,3.46,8.09,4.41-3.6,3.78-7.46-1.8-8.23,.63-2.43-1.03,6.47-.9,8.27,3.82-1.08,5.3-3.24c1.48-2.16,4.54-4.27,4.68-3.91s-1.93,1.66-3.06,3.28-1.39,.94-2.02,6.43c-.63,5.48,8.27-4.09,9.89-6.52,1.62-2.43,1.44-.18-.31,1.71-1.75,1.89-9.69,9.31-9.26,19.15s4.85,14.83,4.85,14.83c0,0-11.15,9.53-13.98,9.64-5.51-2.2-14.65-10.23-14.65-10.23Z"/><path class="v" d="M161.61,84.49c-1.71-.35-4.1-5.07-3.09-8.08,1.08-3.24,2.52-7.21,.09-3.24-2.43,3.98-1.08,12.18-5.08,7.64-2.01-2.28-5.39-5.39-6.92-6.02-1.33-.55-2.65-.4,.04,.94s8.95,9.35,5.66,8.09c-3.28-1.26-9.17-5.12-9.17-5.12,0,0-7.08-4.35-.81,.94,22.45,13.38,8.23,30.21,4.59,34.39,0,0,9.15,8.02,14.65,10.23,.01,0,.03,0,.04,0v-39.76Z"/></g></g><g id="k"/><g id="l"><g class="a`"><path class="u" d="M52.62,180.3c-.1,3.82-.19,7.64-.29,11.46,0,.12-.03,.23,0,.34,.23,1.09-.44,1.67-1.32,2.07-1.43,.65-2.88,.62-4.28-.12-.86-.46-1.34-1.14-1.31-2.17,.11-4.05-.17-8.1-.12-12.15,.05-3.88,.13-6.42,.2-10.29,0-.17,0-.35,.01-.52,.02-.28-.09-.43-.4-.43-.21,0-.42,0-.62,0-2.49,0-4.98,0-7.48,.04-.62,.01-1-.23-1.32-.68-.84-1.19-.95-4.28,.16-5.26,.45-.4,1.31-.52,1.77-.52,6.59,0,13.17,0,19.76,0,.56,0,1.89-.03,2.46,0,2.42,0,2.53,3.63,1.57,5.31-.35,.62-.85,.97-1.64,.96-1.93-.03-3.8,.03-5.78,.08-.2-.02-.41,.03-.62,.04-.29,.01-.42,.17-.43,.44-.02,.46-.06,.92-.07,1.38-.08,3.79-.15,6.24-.22,10.03h-.01Z"/><path class="u" d="M66.83,168.05c0-.17-.03-.33-.01-.49,.03-.4-.17-.53-.6-.51-.67,.02-1.34,.03-2.01,0-.99-.04-1.49-.45-1.49-1.33,0-1.04-.32-2.14,.09-3.15,.27-.67,.71-.98,1.54-1.04,3.64-.25,7.27-.04,10.9,0,.49,0,.98,.05,1.45,.17,.72,.19,.97,.47,.92,1.14-.09,1.12,.09,2.04-.06,3.16-.11,.84-.38,1.01-1.35,.94-.55-.04-1.06,.15-1.61,.13-.69-.03-.74,0-.76,.62-.06,1.51-.4,15.53-.48,20.8,.03,.62,.14,.87,1.34,.8,.46-.02,.92-.05,1.37-.04,.98,.03,1.49,.44,1.52,1.31,.03,1.01,0,1.78-.04,2.8-.02,.36-.33,.83-1.11,.83-.34,0-12.23,0-12.42,0-1.4,.05-2.03,.05-2.18-1.24-.07-.6-.1-1.21-.1-1.81,0-1,.2-1.77,1.3-1.77,.93,0,1.84,.02,2.66-.02,.74-.04,.88-.17,.89-.85,.06-3.5,.15-16.97,.25-20.46Z"/><path class="u" d="M95.6,174.9c.31-.11,.36-.37,.49-.58,2.45-4,4.92-8.19,7.35-12.19,.23-.38,.49-.57,1.01-.56,1.37,.03,3.18-.02,4.56,0,.78,0,.89,.09,.9,.77,.04,1.72,.04,3.63,.05,5.36,.02,8.21,.03,16.26,.04,24.47,0,1.2,0,1.17-1.39,1.18-1.7,.03-3.71,0-5.32,0-.84-.02-.88-.11-.88-.83,.02-5.42,.13-9.69,.25-15.11,0-.14,0-.27,0-.45-.4,.04-.41,.34-.52,.52-1.15,2-2.41,3.96-3.64,5.93-.31,.5-.68,.7-1.33,.68-1.22-.04-2.44-.04-3.65,0-.68,.03-1.03-.28-1.32-.73-.87-1.36-1.76-2.71-2.64-4.07-.49-.76-.98-1.52-1.47-2.27-.32,.08-.22,.28-.22,.42,0,4.87-.04,8.76,.12,13.63,.02,.6-.05,1.2-.06,1.8,0,.38-.21,.55-.62,.56-.12,0-.25,0-.37,0-1.9-.04-4.42-.06-6.32-.11-.99-.03-1.06-.09-1.03-.97,0-5.27,.11-24.3,.25-28.64,.06-1.74,.27-2.1,2.23-2.15,1.15-.03,3.45,.02,4.6,0,.54,0,.82,.18,1.08,.6,2.45,4,4.91,8.17,7.38,12.16,.13,.21,.21,.46,.48,.58Z"/><path class="u" d="M131.02,175.32c.2,.25,.43,.26,.62,.33,3.62,1.44,5.43,4.1,5.68,7.67,.42,5.88-4.48,11.7-10.56,12.95-1.67,.34-3.36,.47-5.05,.1-.92-.2-1.8-.52-2.57-1.04-.37-.25-.73-.35-1.18-.31-.57,.05-1.15,.03-1.73-.04-.75-.09-1.28-.43-1.63-1.07-.42-.76-.7-1.57-.92-2.4-.65-2.44-.86-4.93-.95-7.43-.17-4.58,.18-9.13,.87-13.67,.38-2.47,.82-4.93,1.38-7.38,.13-.55,.38-.87,.98-1.05,4.39-1.38,8.75-1.44,13.08,.15,1.84,.68,3.41,1.73,4.62,3.21,1.63,2,1.79,4.16,.7,6.41-.52,1.07-1.32,1.96-2.28,2.73-.34,.28-.7,.54-1.07,.82Zm-11.68,7.04h.05c.1,1.13,.17,2.26,.31,3.39s.39,2.24,.52,3.36c.08,.71,.49,1.01,1.19,1.15,2.51,.5,4.68-.16,6.54-1.74,1.56-1.33,2.37-3.02,2.19-5.01-.21-2.23-1.47-3.83-3.69-4.65-2.34-.87-4.57-.52-6.65,.78-.35,.22-.5,.53-.48,.94,.03,.59,0,1.19,0,1.78Zm.17-8.8c-.02,.28-.03,.57-.05,.85-.05,.74-.03,.79,.79,.67,2.41-.36,4.58-1.24,6.45-2.74,.58-.46,1.07-1,1.49-1.6,1.78-2.53,.83-4.92-2.28-5.72-1.52-.39-3.05-.29-4.59-.04-.55,.09-.76,.32-.85,.81-.49,2.57-.8,5.16-.96,7.77Z"/><path class="u" d="M138.91,177.25c.04-3.59,.3-7.5,1.14-11.37,.14-.64,.33-1.27,.52-1.9,.58-1.87,1.97-2.88,4.21-2.96,1.98-.06,3.96,0,5.93,0,1.69,.01,3.37,.14,5.04,.34,.67,.08,1.05,.38,1.24,.93,.46,1.33,.46,2.69,.35,4.05-.04,.49-.34,.7-.92,.69-.52,0-1.03-.09-1.55-.13-2.04-.17-4.08-.19-6.1,.22-.84,.17-.84,.18-.97,.93-.34,1.91-.57,3.83-.73,5.76-.06,.74-.04,.74,.83,.71,1.17-.04,2.34-.06,3.5,.02,1.44,.1,1.71,.37,1.92,1.59,.14,.86-.03,1.7-.1,2.55-.06,.62-.49,1.17-1.59,1.24-1.33,.08-2.65,.18-3.98,.27-.85,.06-.87,.06-.86,.79,.02,1.88,.09,3.75,.38,5.61,.11,.75,.13,.75,.98,.93,.96,.21,1.93,.21,2.9,.14,1-.07,2.01-.12,3.01-.07,1.74,.09,2.15,.44,2.33,1.94,.09,.74,.03,1.48-.1,2.21-.18,.96-.61,1.31-1.7,1.49-1.15,.19-2.32,.22-3.49,.28-2.59,.13-5.19,.2-7.76-.25-.32-.06-.63-.14-.94-.21-.68-.16-1.09-.53-1.35-1.11-.84-1.9-1.26-3.88-1.56-5.88-.43-2.82-.57-5.66-.59-8.83Z"/><path class="u" d="M172.38,183.6c.1,.29,.35,.48,.55,.7,2.09,2.35,4.19,4.69,6.28,7.04,.84,.94,.81,1.65-.23,2.43-1.45,1.08-3.12,1.36-4.94,.84-.39-.11-.64-.36-.88-.64-.78-.91-1.57-1.8-2.33-2.72-1.22-1.47-2.43-2.94-3.65-4.41-.16-.2-.29-.44-.58-.55-.21,.29-.15,.58-.15,.85-.04,1.63-.06,3.26-.09,4.89-.01,.51,0,1.04-.3,1.5-.44,.66-1.13,1-1.95,1.12-1.56,.22-2.97-.18-4.29-.88-.38-.2-.53-.53-.63-.91-.36-1.43-.41-2.89-.43-4.35-.04-2.83-.08-5.66-.05-8.49,.05-4.98,.54-9.93,1.31-14.87,.2-1.3,.83-2.09,2.28-2.51,4.04-1.17,8.02-1.32,11.95,.28,5.39,2.19,7.88,7.21,6.12,12.27-1.18,3.4-3.63,5.92-6.95,7.81-.35,.2-.74,.33-1.03,.61Zm-5.77-3.69c.33,.06,.49-.04,.66-.12,2.07-.93,3.77-2.24,5.04-3.97,.72-.99,1.26-2.06,1.44-3.24,.32-2.12-.26-3.93-2.36-5.15-1.21-.71-2.59-.93-4.02-.91-.42,0-.57,.17-.55,.52,0,.2,0,.4,0,.6-.07,3.46-.13,6.92-.2,10.37-.01,.62,0,1.25,0,1.89Z"/><path class="u" d="M212.08,180.3c-.1,3.82-.19,7.64-.29,11.46,0,.12-.03,.23,0,.34,.23,1.09-.44,1.67-1.32,2.07-1.43,.65-2.88,.62-4.28-.12-.86-.46-1.34-1.14-1.31-2.17,.11-4.05-.17-8.1-.12-12.15,.05-3.88,.13-6.42,.2-10.29,0-.17,0-.35,.01-.52,.02-.28-.09-.43-.4-.43-.21,0-.42,0-.62,0-2.49,0-4.98,0-7.48,.04-.62,.01-1-.23-1.32-.68-.84-1.19-.95-4.28,.16-5.26,.45-.4,1.31-.52,1.77-.52,6.59,0,13.17,0,19.76,0,.56,0,1.89-.03,2.46,0,2.42,0,2.53,3.63,1.57,5.31-.35,.62-.85,.97-1.64,.96-1.93-.03-3.8,.03-5.78,.08-.21-.02-.41,.03-.62,.04-.29,.01-.42,.17-.43,.44-.02,.46-.06,.92-.07,1.38-.08,3.79-.15,6.24-.22,10.03h-.01Z"/><path class="u" d="M241.52,180.02c-.09,3.47-.45,7.57-2,11.51-.38,.99-.88,1.92-1.53,2.79-.23,.3-.49,.56-.86,.72-1.35,.59-2.74,.71-4.16,.26-.85-.27-.94-.51-.62-1.27,1.46-3.43,2.26-7,2.67-10.64,.08-.69,.06-.72-.73-.65-2.54,.23-5.09,.49-7.63,.72-.59,.05-.67,.34-.67,.78,.03,3.49,.48,6.92,1.67,10.25,.4,1.11,.02,2.16-1.09,2.77-1.45,.8-2.96,.76-4.47,.11-.42-.18-.61-.52-.81-.87-1.19-2.09-1.83-4.33-2.1-6.64-.94-7.88,.48-15.42,4.36-22.56,.8-1.47,1.78-2.85,2.95-4.11,1.78-1.92,4.05-2.48,6.7-1.9,1.57,.34,2.82,1.14,3.87,2.24,1.38,1.45,2.28,3.12,2.87,4.93,1.17,3.56,1.55,7.21,1.58,11.56Zm-9.9-14.2c-.45,.32-.62,.68-.84,1.01-2.54,3.78-3.77,7.94-4.41,12.27-.12,.77-.05,.8,.83,.75,2.42-.17,4.84-.33,7.26-.51,.72-.05,.73-.05,.72-.75-.05-3.07-.54-6.08-1.63-9-.48-1.29-1.06-2.55-1.92-3.76Z"/><path class="u" d="M262.07,192.79c-.05,.4-.35,.63-.7,.77-.37,.15-.76,.2-1.16,.2-1.15,0-11,0-14.72,.05-.96,.01-1.32-.31-1.39-1.27-.06-.89-.03-1.62-.04-2.52-.01-4.12-.02-8.24-.04-12.36h-.03c0-2.45,.03-4.9,.02-7.35s-.07-4.9-.1-7.35c0-.87,.07-.98,.88-1.29,1.03-.4,2.1-.36,3.17-.29,.67,.04,1.42,.14,2.05,.42,.62,.28,1.33,.77,1.33,1.54,0,4.18-.12,20.39-.09,24.45,0,.17,.01,.33,.02,.5,0,.24,.14,.33,.38,.33,.38,0,6.4-.02,9.12-.02,.65,0,1,.26,1.16,.87,.29,1.09,.25,2.21,.11,3.32Z"/><path class="u" d="M262.94,177.25c.04-3.59,.3-7.5,1.14-11.37,.14-.64,.33-1.27,.52-1.9,.58-1.87,1.97-2.88,4.21-2.96,1.98-.06,3.96,0,5.93,0,1.69,.01,3.37,.14,5.04,.34,.67,.08,1.05,.38,1.24,.93,.46,1.33,.46,2.69,.35,4.05-.04,.49-.34,.7-.92,.69-.52,0-1.03-.09-1.55-.13-2.04-.17-4.08-.19-6.1,.22-.84,.17-.84,.18-.97,.93-.34,1.91-.57,3.83-.73,5.76-.06,.74-.04,.74,.83,.71,1.17-.04,2.34-.06,3.5,.02,1.44,.1,1.71,.37,1.92,1.59,.14,.86-.03,1.7-.1,2.55-.06,.62-.49,1.17-1.59,1.24-1.33,.08-2.65,.18-3.98,.27-.85,.06-.87,.06-.86,.79,.02,1.88,.09,3.75,.38,5.61,.11,.75,.13,.75,.98,.93,.96,.21,1.93,.21,2.9,.14,1-.07,2.01-.12,3.01-.07,1.74,.09,2.15,.44,2.33,1.94,.09,.74,.03,1.48-.1,2.21-.18,.96-.61,1.31-1.7,1.49-1.15,.19-2.32,.22-3.49,.28-2.59,.13-5.19,.2-7.76-.25-.32-.06-.63-.14-.94-.21-.68-.16-1.09-.53-1.35-1.11-.84-1.9-1.26-3.88-1.56-5.88-.43-2.82-.57-5.66-.59-8.83Z"/></g><line class="aa" x1="-6.21" y1="231.01" x2="323.12" y2="-1.04"/></g><g id="o"/><g id="p"/></svg>