<?xml version="1.0" encoding="UTF-8"?><svg xmlns="http://www.w3.org/2000/svg" xmlns:xlink="http://www.w3.org/1999/xlink" viewBox="0 0 320.98 226.37"><defs><style>.p{fill:url(#f);}.q,.r{fill:none;}.s{fill:#e96b24;}.t{fill:#7e4d2c;}.u{fill:#386c37;}.v{fill:#633e23;}.w{fill:#614928;}.x{fill:#57a855;filter:url(#j);}.y{fill:#458744;filter:url(#h);}.a`{filter:url(#d);}.r{stroke:#e02726;stroke-miterlimit:10;stroke-width:2px;}.aa{clip-path:url(#g);}</style><filter id="d" filterUnits="userSpaceOnUse"><feOffset dx="-1.45" dy="5.06"/><feGaussianBlur result="e" stdDeviation="2.89"/><feFlood flood-color="#1f231e" flood-opacity=".52"/><feComposite in2="e" operator="in"/><feComposite in="SourceGraphic"/></filter><linearGradient id="f" x1="286.87" y1="27.03" x2="286.87" y2="80.09" gradientTransform="translate(-125.97 33.19) rotate(.55)" gradientUnits="userSpaceOnUse"><stop offset=".11" stop-color="#fff"/><stop offset=".24" stop-color="#fafcfd"/><stop offset=".37" stop-color="#eef4f8"/><stop offset=".5" stop-color="#d9e7ef"/><stop offset=".63" stop-color="#bcd5e3"/><stop offset=".77" stop-color="#96bdd3"/><stop offset=".9" stop-color="#68a1c0"/><stop offset=".98" stop-color="#4c8fb5"/></linearGradient><clipPath id="g"><path class="q" d="M172.17,92.4c1.42,.85,10.91,3.34,14.59-1.34,8.08,.56,9.22-7.47,6.18-8.33,5.23-.91,5.69-11.2-10.5-10.99,0,0-6.8-6.61-18.94-1.88-5.96-3.32-19.4-1.27-23,4.02-5.02-1.06-17.8,4.75-12.76,9.19-4.42,.73-1.79,9.34,8.85,7.46,0,0,4.87,4.25,14.18,1.48s21.39,.39,21.39,.39Z"/></clipPath><filter id="h" filterUnits="userSpaceOnUse"><feOffset dx="-1.31" dy="0"/><feGaussianBlur result="i" stdDeviation="2.18"/><feFlood flood-color="#2e5127" flood-opacity=".3"/><feComposite in2="i" operator="in"/><feComposite in="SourceGraphic"/></filter><filter id="j" filterUnits="userSpaceOnUse"><feOffset dx="-1.31" dy="0"/><feGaussianBlur result="k" stdDeviation="2.18"/><feFlood flood-color="#2e5127" flood-opacity=".3"/><feComposite in2="k" operator="in"/><feComposite in="SourceGraphic"/></filter></defs><g id="a"/><g id="b"/><g id="c"><g class="a`"><path class="p" d="M205.27,77.87s-24.49-1.91-44.5-14.9h-.02c-20.48,12.79-45.04,14.45-45.04,14.45,.11,30.72,43.12,38.42,44.07,38.58h.02c.95-.16,44.24-7.42,45.47-38.14Z"/><path class="s" d="M160.82,70.69c13.73,7.94,28.49,11.37,36.94,12.79-2.26,7.61-8.39,14.01-18.31,19.08-8.27,4.23-16.69,6.18-19.62,6.77-2.91-.62-11.24-2.65-19.32-6.95-9.72-5.16-15.59-11.62-17.53-19.24,8.47-1.31,23.48-4.59,37.59-12.45l.12,.08,.13-.08m-.07-7.73h0c-20.48,12.8-45.04,14.46-45.04,14.46,.11,30.72,43.13,38.42,44.07,38.58h.02c.95-.16,44.24-7.42,45.47-38.14,0,0-24.49-1.91-44.5-14.9h-.02Z"/><path class="u" d="M172.17,92.4c1.42,.85,10.91,3.34,14.59-1.34,8.08,.56,9.22-7.47,6.18-8.33,5.23-.91,5.69-11.2-10.5-10.99,0,0-6.8-6.61-18.94-1.88-5.96-3.32-19.4-1.27-23,4.02-5.02-1.06-17.8,4.75-12.76,9.19-4.42,.73-1.79,9.34,8.85,7.46,0,0,4.87,4.25,14.18,1.48s21.39,.39,21.39,.39Z"/><g class="aa"><path class="y" d="M216.66,75.4s-2.16-5.12-15.28-5.72c-.6-.03-1.19-.07-1.77-.12-.35-2.48-4.92-5.69-14.17-4.6,0,0-2.87-1.85-8.5-2.29-.08-.05-.13-.07-.13-.07-.95-1.17-9.94-6.26-18.08-3.48-8.11-2.74-15.39,2.26-14.58,4.48-3.23-.4-5.32-.82-5.32-.82-1.85-.82-14.24-3.29-19.16,1.1-10.59-.62-12.23,6.96-8.26,7.81-6.88,.8-7.67,10.53,13.56,10.52,0,0,8.79,6.33,24.79,2,4.56,1.89,12.54,2.05,19.33,.85,5.25,4.2,21.19,6.29,29.29,3.15,4.96,2.48,24.63,1.62,22.42-3.71,5.74,.78,9.78-7.3-4.15-9.08Z"/><path class="x" d="M176.21,62.48c-.64-.98-7.24-5.11-13.93-2.51-6.77-2.36-13.66,3.35-11.59,4.72-5.31-.58-13.26,6.97,1.26,10.71,0,0,1.2,6.56,15.44,5.95,2.86,3.9,16.29,5.61,23.37,2.53,3.68,1.99,19.28,.74,18.06-3.78,4.46,.52,8.43-6.53-2.39-7.69,0,0-1.21-4.34-11.51-4.51-10.3-.17-18.71-5.43-18.71-5.43Z"/></g><path class="t" d="M145.33,105.62c3.68-2.17,18.07-10.88-4.26-17.98-6.22-2.8,.82-.49,.82-.49,0,0,5.85,2.05,9.12,2.72s-2.9-3.54-5.59-4.25-1.36-.78-.04-.49c1.52,.34,4.88,1.98,6.86,3.18,3.96,2.39,2.69-1.9,5.15-3.97s.99,0-.12,1.69,1.67,4.42,3.38,4.24,4.44-1.86,3.85-3.88-1.72-4.31,.65-1.26c2.37,3.04-1.1,3.38-.98,4.32s3.83-.54,5.34-1.66,4.58-2.21,4.71-2.02-1.95,.86-3.09,1.7-1.4,.49-2.08,3.35c-.68,2.86,8.31-2.1,9.95-3.36,1.64-1.26,1.44-.09-.33,.89s-9.78,4.81-9.44,9.96,4.71,7.77,4.71,7.77c0,0-11.24,4.92-14.07,4.97-5.49-1.18-14.56-5.41-14.56-5.41Z"/><path class="w" d="M160.31,90.26c-1.71-.19-4.05-2.67-3.02-4.24,1.11-1.69,2.59-3.76,.12-1.69-2.47,2.07-1.19,6.36-5.15,3.97-1.99-1.2-5.34-2.84-6.86-3.18-1.32-.29-2.65-.22,.04,.49s8.86,4.93,5.59,4.25c-3.27-.67-9.12-2.72-9.12-2.72,0,0-7.04-2.31-.82,.49,22.33,7.1,7.94,15.82,4.26,17.98,0,0,9.07,4.24,14.56,5.41,.01,0,.03,0,.04,0l.38-20.77Z"/></g></g><g id="l"/><g id="m"><g><path class="v" d="M54.88,144.29c-.1,2.16-.19,4.33-.29,6.49,0,.07-.03,.13,0,.19,.23,.62-.44,.95-1.32,1.17-1.43,.37-2.88,.35-4.28-.07-.86-.26-1.34-.65-1.31-1.23,.11-2.29-.17-4.59-.12-6.88,.05-2.2,.13-3.63,.2-5.83,0-.1,0-.2,.01-.29,.02-.16-.09-.25-.4-.24-.21,0-.42,0-.62,0-2.49,0-4.98,0-7.48,.02-.62,0-1-.13-1.32-.39-.84-.67-.95-2.43,.16-2.98,.45-.23,1.31-.3,1.77-.3,6.59,0,13.17,0,19.76,0,.56,0,1.89-.02,2.46,0,2.42,0,2.53,2.05,1.57,3.01-.35,.35-.85,.55-1.64,.54-1.93-.02-3.8,.02-5.78,.04-.2,0-.41,.02-.62,.02-.29,0-.42,.09-.43,.25-.02,.26-.06,.52-.07,.78-.08,2.15-.15,3.53-.22,5.68h-.01Z"/><path class="v" d="M69.08,137.36c0-.09-.03-.19-.01-.28,.03-.23-.17-.3-.6-.29-.67,.01-1.34,.02-2.01,0-.99-.02-1.49-.26-1.49-.75,0-.59-.32-1.21,.09-1.79,.27-.38,.71-.56,1.54-.59,3.64-.14,7.27-.02,10.9,0,.49,0,.98,.03,1.45,.1,.72,.11,.97,.27,.92,.65-.09,.64,.09,1.16-.06,1.79-.11,.48-.38,.57-1.35,.53-.55-.02-1.06,.09-1.61,.07-.69-.01-.74,0-.76,.35-.06,.86-.4,8.8-.48,11.78,.03,.35,.14,.49,1.34,.46,.46-.01,.92-.03,1.37-.02,.98,.02,1.49,.25,1.52,.74,.03,.57,0,1.01-.04,1.58-.02,.21-.33,.47-1.11,.47-.34,0-12.23,0-12.42,0-1.4,.03-2.03,.03-2.18-.7-.07-.34-.1-.68-.1-1.03,0-.56,.2-1,1.3-1,.93,0,1.84,.01,2.66-.01,.74-.02,.88-.1,.89-.48,.06-1.98,.15-9.61,.25-11.59Z"/><path class="v" d="M97.85,141.24c.31-.06,.36-.21,.49-.33,2.45-2.27,4.92-4.64,7.35-6.91,.23-.22,.49-.32,1.01-.32,1.37,.01,3.18-.01,4.56,0,.78,0,.89,.05,.9,.44,.04,.98,.04,2.06,.05,3.03,.02,4.65,.03,9.21,.04,13.86,0,.68,0,.66-1.39,.67-1.7,.02-3.71,0-5.32,0-.84-.01-.88-.06-.88-.47,.02-3.07,.13-5.49,.25-8.56,0-.08,0-.15,0-.25-.4,.02-.41,.19-.52,.3-1.15,1.13-2.41,2.24-3.64,3.36-.31,.28-.68,.4-1.33,.39-1.22-.02-2.44-.02-3.65,0-.68,.01-1.03-.16-1.32-.41-.87-.77-1.76-1.54-2.64-2.3-.49-.43-.98-.86-1.47-1.28-.32,.04-.22,.16-.22,.24,0,2.76-.04,4.96,.12,7.72,.02,.34-.05,.68-.06,1.02,0,.21-.21,.31-.62,.32-.12,0-.25,0-.37,0-1.9-.02-4.42-.04-6.32-.06-.99-.01-1.06-.05-1.03-.55,0-2.99,.11-13.76,.25-16.22,.06-.98,.27-1.19,2.23-1.22,1.15-.02,3.45,.01,4.6,0,.54,0,.82,.1,1.08,.34,2.45,2.27,4.91,4.63,7.38,6.88,.13,.12,.21,.26,.48,.33Z"/><path class="v" d="M133.28,141.48c.2,.14,.43,.15,.62,.19,3.62,.82,5.43,2.32,5.68,4.34,.42,3.33-4.48,6.62-10.56,7.33-1.67,.19-3.36,.27-5.05,.06-.92-.12-1.8-.29-2.57-.59-.37-.14-.73-.2-1.18-.18-.57,.03-1.15,.02-1.73-.02-.75-.05-1.28-.25-1.63-.61-.42-.43-.7-.89-.92-1.36-.65-1.38-.86-2.79-.95-4.21-.17-2.59,.18-5.17,.87-7.74,.38-1.4,.82-2.79,1.38-4.18,.13-.31,.38-.49,.98-.6,4.39-.78,8.75-.81,13.08,.09,1.84,.38,3.41,.98,4.62,1.82,1.63,1.13,1.79,2.35,.7,3.63-.52,.61-1.32,1.11-2.28,1.55-.34,.16-.7,.31-1.07,.47Zm-11.68,3.98h.05c.1,.64,.17,1.28,.31,1.92s.39,1.27,.52,1.9c.08,.4,.49,.57,1.19,.65,2.51,.28,4.68-.09,6.54-.99,1.56-.75,2.37-1.71,2.19-2.84-.21-1.26-1.47-2.17-3.69-2.63-2.34-.49-4.57-.3-6.65,.44-.35,.13-.5,.3-.48,.53,.03,.34,0,.67,0,1.01Zm.17-4.98c-.02,.16-.03,.32-.05,.48-.05,.42-.03,.45,.79,.38,2.41-.2,4.58-.7,6.45-1.55,.58-.26,1.07-.57,1.49-.9,1.78-1.43,.83-2.79-2.28-3.24-1.52-.22-3.05-.16-4.59-.02-.55,.05-.76,.18-.85,.46-.49,1.46-.8,2.92-.96,4.4Z"/><path class="v" d="M141.16,142.57c.04-2.04,.3-4.25,1.14-6.44,.14-.36,.33-.72,.52-1.08,.58-1.06,1.97-1.63,4.21-1.67,1.98-.04,3.96,0,5.93,0,1.69,0,3.37,.08,5.04,.2,.67,.05,1.05,.22,1.24,.52,.46,.75,.46,1.52,.35,2.3-.04,.28-.34,.39-.92,.39-.52,0-1.03-.05-1.55-.08-2.04-.1-4.08-.11-6.1,.13-.84,.1-.84,.1-.97,.53-.34,1.08-.57,2.17-.73,3.26-.06,.42-.04,.42,.83,.4,1.17-.02,2.34-.04,3.5,.01,1.44,.06,1.71,.21,1.92,.9,.14,.49-.03,.96-.1,1.44-.06,.35-.49,.66-1.59,.7-1.33,.05-2.65,.1-3.98,.15-.85,.03-.87,.03-.86,.45,.02,1.06,.09,2.12,.38,3.18,.11,.43,.13,.43,.98,.53,.96,.12,1.93,.12,2.9,.08,1-.04,2.01-.07,3.01-.04,1.74,.05,2.15,.25,2.33,1.1,.09,.42,.03,.84-.1,1.25-.18,.54-.61,.74-1.7,.85-1.15,.11-2.32,.12-3.49,.16-2.59,.07-5.19,.12-7.76-.14-.32-.03-.63-.08-.94-.12-.68-.09-1.09-.3-1.35-.63-.84-1.07-1.26-2.19-1.56-3.33-.43-1.6-.57-3.2-.59-5Z"/><path class="v" d="M174.63,146.16c.1,.17,.35,.27,.55,.4,2.09,1.33,4.19,2.65,6.28,3.98,.84,.53,.81,.94-.23,1.37-1.45,.61-3.12,.77-4.94,.48-.39-.06-.64-.2-.88-.36-.78-.51-1.57-1.02-2.33-1.54-1.22-.83-2.43-1.67-3.65-2.5-.16-.11-.29-.25-.58-.31-.21,.16-.15,.33-.15,.48-.04,.92-.06,1.85-.09,2.77-.01,.29,0,.59-.3,.85-.44,.37-1.13,.57-1.95,.63-1.56,.13-2.97-.1-4.29-.5-.38-.11-.53-.3-.63-.52-.36-.81-.41-1.64-.43-2.46-.04-1.6-.08-3.21-.05-4.81,.05-2.82,.54-5.62,1.31-8.42,.2-.74,.83-1.18,2.28-1.42,4.04-.66,8.02-.75,11.95,.16,5.39,1.24,7.88,4.08,6.12,6.95-1.18,1.93-3.63,3.35-6.95,4.42-.35,.11-.74,.18-1.03,.34Zm-5.77-2.09c.33,.03,.49-.02,.66-.07,2.07-.52,3.77-1.27,5.04-2.25,.72-.56,1.26-1.17,1.44-1.84,.32-1.2-.26-2.23-2.36-2.92-1.21-.4-2.59-.53-4.02-.51-.42,0-.57,.1-.55,.3,0,.11,0,.23,0,.34-.07,1.96-.13,3.92-.2,5.87-.01,.35,0,.71,0,1.07Z"/><path class="v" d="M214.33,144.29c-.1,2.16-.19,4.33-.29,6.49,0,.07-.03,.13,0,.19,.23,.62-.44,.95-1.32,1.17-1.43,.37-2.88,.35-4.28-.07-.86-.26-1.34-.65-1.31-1.23,.11-2.29-.17-4.59-.12-6.88,.05-2.2,.13-3.63,.2-5.83,0-.1,0-.2,.01-.29,.02-.16-.09-.25-.4-.24-.21,0-.42,0-.62,0-2.49,0-4.98,0-7.48,.02-.62,0-1-.13-1.32-.39-.84-.67-.95-2.43,.16-2.98,.45-.23,1.31-.3,1.77-.3,6.59,0,13.17,0,19.76,0,.56,0,1.89-.02,2.46,0,2.42,0,2.53,2.05,1.57,3.01-.35,.35-.85,.55-1.64,.54-1.93-.02-3.8,.02-5.78,.04-.21,0-.41,.02-.62,.02-.29,0-.42,.09-.43,.25-.02,.26-.06,.52-.07,.78-.08,2.15-.15,3.53-.22,5.68h-.01Z"/><path class="v" d="M243.77,144.14c-.09,1.97-.45,4.29-2,6.52-.38,.56-.88,1.08-1.53,1.58-.23,.17-.49,.32-.86,.41-1.35,.34-2.74,.4-4.16,.14-.85-.15-.94-.29-.62-.72,1.46-1.94,2.26-3.96,2.67-6.02,.08-.39,.06-.41-.73-.37-2.54,.13-5.09,.28-7.63,.41-.59,.03-.67,.19-.67,.44,.03,1.97,.48,3.92,1.67,5.81,.4,.63,.02,1.22-1.09,1.57-1.45,.45-2.96,.43-4.47,.06-.42-.1-.61-.3-.81-.49-1.19-1.18-1.83-2.45-2.1-3.76-.94-4.46,.48-8.73,4.36-12.78,.8-.83,1.78-1.61,2.95-2.33,1.78-1.09,4.05-1.4,6.7-1.07,1.57,.19,2.82,.65,3.87,1.27,1.38,.82,2.28,1.77,2.87,2.79,1.17,2.02,1.55,4.08,1.58,6.54Zm-9.9-8.04c-.45,.18-.62,.39-.84,.57-2.54,2.14-3.77,4.5-4.41,6.95-.12,.44-.05,.46,.83,.42,2.42-.09,4.84-.19,7.26-.29,.72-.03,.73-.03,.72-.43-.05-1.74-.54-3.44-1.63-5.1-.48-.73-1.06-1.44-1.92-2.13Z"/><path class="v" d="M264.32,151.37c-.05,.23-.35,.36-.7,.44-.37,.09-.76,.11-1.16,.11-1.15,0-11,0-14.72,.03-.96,0-1.32-.18-1.39-.72-.06-.5-.03-.92-.04-1.42-.01-2.33-.02-4.67-.04-7h-.03c0-1.39,.03-2.77,.02-4.16s-.07-2.77-.1-4.16c0-.49,.07-.55,.88-.73,1.03-.23,2.1-.2,3.17-.16,.67,.02,1.42,.08,2.05,.24,.62,.16,1.33,.44,1.33,.87,0,2.36-.12,11.55-.09,13.85,0,.09,.01,.19,.02,.28,0,.14,.14,.18,.38,.18,.38,0,6.4-.01,9.12-.01,.65,0,1,.15,1.16,.49,.29,.62,.25,1.25,.11,1.88Z"/><path class="v" d="M265.19,142.57c.04-2.04,.3-4.25,1.14-6.44,.14-.36,.33-.72,.52-1.08,.58-1.06,1.97-1.63,4.21-1.67,1.98-.04,3.96,0,5.93,0,1.69,0,3.37,.08,5.04,.2,.67,.05,1.05,.22,1.24,.52,.46,.75,.46,1.52,.35,2.3-.04,.28-.34,.39-.92,.39-.52,0-1.03-.05-1.55-.08-2.04-.1-4.08-.11-6.1,.13-.84,.1-.84,.1-.97,.53-.34,1.08-.57,2.17-.73,3.26-.06,.42-.04,.42,.83,.4,1.17-.02,2.34-.04,3.5,.01,1.44,.06,1.71,.21,1.92,.9,.14,.49-.03,.96-.1,1.44-.06,.35-.49,.66-1.59,.7-1.33,.05-2.65,.1-3.98,.15-.85,.03-.87,.03-.86,.45,.02,1.06,.09,2.12,.38,3.18,.11,.43,.13,.43,.98,.53,.96,.12,1.93,.12,2.9,.08,1-.04,2.01-.07,3.01-.04,1.74,.05,2.15,.25,2.33,1.1,.09,.42,.03,.84-.1,1.25-.18,.54-.61,.74-1.7,.85-1.15,.11-2.32,.12-3.49,.16-2.59,.07-5.19,.12-7.76-.14-.32-.03-.63-.08-.94-.12-.68-.09-1.09-.3-1.35-.63-.84-1.07-1.26-2.19-1.56-3.33-.43-1.6-.57-3.2-.59-5Z"/></g><line class="r" x1="-4.33" y1="229.61" x2="325" y2="-2.45"/></g><g id="n"/><g id="o"/></svg>