<?xml version="1.0" encoding="UTF-8"?><svg xmlns="http://www.w3.org/2000/svg" xmlns:xlink="http://www.w3.org/1999/xlink" viewBox="0 0 320.98 226.37"><defs><style>.p{fill:url(#f);}.q,.r{fill:none;}.s{fill:#e96b24;}.t{fill:#7e4d2c;}.u{fill:#386c37;}.v{fill:#633e23;}.w{fill:#614928;}.x{fill:#57a855;filter:url(#j);}.y{fill:#458744;filter:url(#h);}.a`{filter:url(#d);}.r{stroke:#e02726;stroke-miterlimit:10;stroke-width:2px;}.aa{clip-path:url(#g);}</style><filter id="d" filterUnits="userSpaceOnUse"><feOffset dx="-2" dy="7"/><feGaussianBlur result="e" stdDeviation="4"/><feFlood flood-color="#1f231e" flood-opacity=".52"/><feComposite in2="e" operator="in"/><feComposite in="SourceGraphic"/></filter><linearGradient id="f" x1="172.92" y1="22.33" x2="172.92" y2="123.9" gradientTransform="translate(62.28 -75.75) rotate(29.47)" gradientUnits="userSpaceOnUse"><stop offset=".11" stop-color="#fff"/><stop offset=".24" stop-color="#fafcfd"/><stop offset=".37" stop-color="#eef4f8"/><stop offset=".5" stop-color="#d9e7ef"/><stop offset=".63" stop-color="#bcd5e3"/><stop offset=".77" stop-color="#96bdd3"/><stop offset=".9" stop-color="#68a1c0"/><stop offset=".98" stop-color="#4c8fb5"/></linearGradient><clipPath id="g"><path class="q" d="M184.56,83.63c.46,2.12,6.45,10.88,14.01,4.82,6.56,4.84,14.98-8.06,13.12-10.97,5.42,1,15.35-16.01,.99-23.5,0,0,.17-14.36-14.83-12.31-2.15-8.44-15.8-11.51-23.85-4.39-3.41-4.2-19.98-.65-19.67,9.23-4.54-.92-10.21,14.78,.84,16.79,0,0,.32,9.48,11.04,9.34,10.72-.14,18.36,11,18.36,11Z"/></clipPath><filter id="h" filterUnits="userSpaceOnUse"><feOffset dx="-1.81" dy="0"/><feGaussianBlur result="i" stdDeviation="3.01"/><feFlood flood-color="#2e5127" flood-opacity=".3"/><feComposite in2="i" operator="in"/><feComposite in="SourceGraphic"/></filter><filter id="j" filterUnits="userSpaceOnUse"><feOffset dx="-1.81" dy="0"/><feGaussianBlur result="k" stdDeviation="3.01"/><feFlood flood-color="#2e5127" flood-opacity=".3"/><feComposite in2="k" operator="in"/><feComposite in="SourceGraphic"/></filter></defs><g id="a"/><g id="b"/><g id="c"><g class="a`"><path class="p" d="M226.99,75.29s-19.67-15.04-25.16-46.49v-.02h-.02c-29.77,11.53-52.8,2.44-52.8,2.44-28.36,51.53,2.17,85.23,2.84,85.97h0v.02h.01c.98,.19,45.59,8.96,75.12-41.92Z"/><path class="s" d="M194.59,40.65l.11,.7,.69-.27c5.13,17.47,14.02,29.27,19.99,35.67-18.7,27.73-42.04,32.07-54.79,32.07-1.53,0-2.84-.07-3.91-.15-2.28-3.2-6.13-9.49-8.51-18.25-4.17-15.35-2.3-31.63,5.56-48.49,4.35,.92,10.29,1.76,17.44,1.76,7.86,0,15.7-1.02,23.42-3.05m7.24-11.88v.02c-11.56,4.47-22.09,5.84-30.66,5.84-13.53,0-22.16-3.41-22.16-3.41-28.36,51.53,2.17,85.24,2.84,85.97h0v.02h.01c.26,.05,3.52,.69,8.72,.69,14.63,0,44.62-5.07,66.39-42.6,0,0-19.67-15.04-25.16-46.49v-.02h0Z"/><path class="u" d="M184.56,83.63c.46,2.12,6.45,10.88,14.01,4.82,6.56,4.84,14.98-8.06,13.12-10.97,5.42,1,15.35-16.01,.99-23.5,0,0,.17-14.36-14.83-12.31-2.15-8.44-15.8-11.51-23.85-4.39-3.41-4.2-19.98-.65-19.67,9.23-4.54-.92-10.21,14.78,.84,16.79,0,0,.32,9.48,11.04,9.34,10.72-.14,18.36,11,18.36,11Z"/><g class="aa"><path class="y" d="M239.24,76.66s2.85-9.62-8.07-16.98c-.5-.33-.97-.69-1.44-1.06,1.99-4.33,.97-11.92-8.14-14.57,0,0-.8-4.49-5.32-7.95-.03-.12-.05-.18-.05-.18,.25-2.42-2.9-15.3-12.6-14.58-4.56-8.51-15.57-3.65-16.91,.46-2.46-2.24-3.9-3.94-3.9-3.94-.86-2.27-9.42-12.4-17.78-7.43-8.69-6.16-17.15,5.75-14.46,9.09-6.76-1.98-16.46,13.93,2.12,24.19,0,0,1.83,14.86,19.85,15.34,2.25,5.37,9.08,9.49,16.13,10.77,.71,9.57,12.73,20.78,22.72,19.44,2.05,6.55,20.06,14.63,23.06,4.62,4.3,4.09,15.32-7.5,4.78-17.23Z"/><path class="x" d="M215.8,35.46c.35-1.95-1.6-12.06-9.87-10.95-3.74-7.22-15.05-.99-14.51,2.31-4.12-3.54-18.06,5.27-8.81,18.56,0,0-5.03,11.57,8,17.44-1.11,7.93,9.07,17.28,18.11,15.55,1.37,5.12,16.19,10.57,19.31,2.4,3.42,3.02,13.42-6.86,5.03-14.04,0,0,2.96-7.85-5.89-13.12s-11.35-18.15-11.35-18.15Z"/></g><path class="t" d="M148.83,92.8c5.23-1.85,25.89-9.49,12.93-32.19-2.85-7.69,1.17-.42,1.17-.42,0,0,3.22,6.26,5.46,8.97,2.24,2.71,.73-7.33-.95-9.83s-.46-1.97,.43-.84c1.02,1.3,2.43,5.67,3.06,8.65,1.25,5.92,4.11-1.88,8.18-4.15s.86,.49-1.67,2.77-2.63,8.22-.97,8.75,5.6-.96,6.96-4.64,2.48-8.05,1.74-1.8c-.74,6.24-4.09,5.13-4.85,6.76s3.86,.94,6.21-.21c2.35-1.15,6.05-1.48,5.99-1.1s-2.5,.5-4.28,1.35-1.68,.14-4.92,4.6c-3.25,4.46,9.21,.51,11.82-.81s1.34,.55-1.11,1.33-13.01,3.33-17.48,12.12-3.07,15.3-3.07,15.3c0,0-14.39,2.81-16.92,1.52-3.71-4.63-7.73-16.11-7.73-16.11Z"/><path class="w" d="M176.16,74.31c-1.32-1.14-1.07-6.43,1.28-8.56,2.53-2.29,5.74-5.04,1.67-2.77-4.07,2.27-6.93,10.07-8.18,4.15-.63-2.98-2.04-7.35-3.06-8.65-.89-1.13-2.11-1.66-.43,.84s3.19,12.54,.95,9.83c-2.24-2.71-5.46-8.97-5.46-8.97,0,0-4.02-7.27-1.17,.42,12.96,22.7-7.7,30.35-12.93,32.19,0,0,4.02,11.49,7.73,16.11,.01,0,.02,0,.04,.01l19.56-34.62Z"/></g></g><g id="l"/><g id="m"><g><path class="v" d="M41.55,105.7c-1.74,3.4-3.48,6.8-5.22,10.21-.05,.1-.13,.2-.16,.31-.26,1.08-1.12,1.32-2.08,1.29-1.57-.04-2.87-.69-3.8-1.96-.58-.78-.71-1.61-.24-2.52,1.85-3.6,3.35-7.38,5.15-11.01,1.72-3.48,2.89-5.73,4.63-9.19,.08-.15,.15-.31,.23-.46,.14-.25,.1-.43-.18-.56-.19-.09-.37-.18-.56-.27-2.25-1.07-4.49-2.16-6.76-3.2-.57-.26-.8-.64-.9-1.19-.24-1.44,1-4.27,2.42-4.67,.58-.16,1.41,.1,1.83,.3,5.94,2.85,11.87,5.7,17.81,8.55,.51,.24,1.72,.79,2.21,1.06,2.18,1.05,.71,4.36-.89,5.47-.59,.41-1.19,.5-1.9,.15-1.72-.86-3.44-1.62-5.24-2.43-.18-.1-.39-.15-.58-.24-.27-.12-.45-.03-.57,.21-.22,.41-.45,.8-.66,1.21-1.71,3.39-2.83,5.56-4.54,8.95h-.01Z"/><path class="v" d="M59.65,100.81c.07-.15,.12-.31,.2-.45,.2-.35,.07-.55-.32-.72-.61-.27-1.22-.56-1.82-.87-.88-.47-1.14-1.05-.77-1.84,.45-.94,.64-2.07,1.44-2.8,.54-.49,1.07-.58,1.84-.27,3.39,1.35,6.57,3.11,9.82,4.72,.44,.22,.86,.47,1.23,.78,.57,.48,.67,.85,.34,1.43-.57,.98-.8,1.88-1.42,2.83-.46,.71-.78,.74-1.62,.26-.48-.27-1.02-.32-1.51-.58-.61-.32-.67-.32-.96,.23-.71,1.34-7.08,13.83-9.43,18.55-.24,.57-.25,.84,.86,1.3,.42,.18,.85,.35,1.25,.56,.87,.45,1.16,1.04,.8,1.84-.41,.93-.76,1.61-1.25,2.5-.17,.32-.65,.61-1.36,.27-.31-.15-11.03-5.3-11.2-5.37-1.28-.56-1.86-.83-1.43-2.06,.2-.57,.43-1.13,.69-1.68,.43-.9,.94-1.51,1.94-1.03,.84,.4,1.65,.81,2.4,1.13,.69,.29,.87,.23,1.17-.38,1.57-3.13,7.48-15.24,9.08-18.34Z"/><path class="v" d="M82.63,119.43c.33,.04,.49-.18,.69-.31,3.94-2.55,7.98-5.25,11.9-7.81,.38-.25,.69-.3,1.15-.07,1.23,.62,2.88,1.36,4.11,1.97,.7,.35,.76,.47,.48,1.08-.71,1.57-1.53,3.29-2.28,4.85-3.54,7.41-7.01,14.67-10.55,22.08-.52,1.08-.5,1.05-1.76,.46-1.54-.7-3.34-1.6-4.8-2.31-.75-.38-.75-.48-.44-1.13,2.36-4.87,4.31-8.68,6.77-13.51,.06-.12,.12-.24,.19-.4-.37-.14-.52,.12-.7,.25-1.91,1.31-3.89,2.52-5.84,3.77-.5,.32-.92,.34-1.49,.04-1.08-.56-2.18-1.09-3.29-1.58-.63-.27-.81-.69-.87-1.23-.2-1.6-.41-3.2-.62-4.81-.12-.9-.23-1.79-.34-2.68-.32-.07-.32,.15-.38,.28-2.1,4.39-3.82,7.88-5.79,12.34-.24,.55-.56,1.06-.83,1.6-.17,.34-.42,.41-.8,.24-.11-.05-.23-.1-.34-.16-1.7-.85-3.96-1.97-5.65-2.84-.88-.45-.91-.54-.51-1.32,2.28-4.75,10.61-21.86,12.62-25.72,.8-1.54,1.15-1.78,2.94-.97,1.05,.47,3.1,1.51,4.15,1.99,.49,.22,.66,.52,.71,1.01,.48,4.67,.89,9.49,1.4,14.15,.03,.24-.01,.5,.18,.73Z"/><path class="v" d="M114.39,135.14c.07,.31,.27,.42,.41,.57,2.64,2.86,3.12,6.05,1.81,9.38-2.17,5.49-9.1,8.61-15.12,7.1-1.66-.41-3.23-1.03-4.6-2.1-.74-.58-1.4-1.24-1.87-2.05-.22-.38-.5-.63-.93-.79-.54-.2-1.05-.47-1.54-.78-.64-.41-.97-.95-1.01-1.67-.05-.87,.05-1.72,.21-2.56,.47-2.48,1.36-4.81,2.36-7.1,1.83-4.2,4.12-8.16,6.7-11.95,1.41-2.07,2.88-4.09,4.43-6.06,.35-.44,.72-.62,1.34-.53,4.55,.66,8.51,2.49,11.73,5.8,1.37,1.41,2.32,3.03,2.77,4.89,.61,2.51-.18,4.53-2.14,6.09-.93,.74-2.04,1.2-3.24,1.48-.43,.1-.86,.18-1.32,.28Zm-13.58,1.29l.05,.02c-.4,1.06-.82,2.11-1.18,3.19s-.62,2.18-.99,3.26c-.23,.68,0,1.12,.58,1.55,2.05,1.54,4.29,1.88,6.65,1.26,1.98-.52,3.44-1.69,4.14-3.57,.78-2.1,.33-4.09-1.31-5.79-1.73-1.8-3.89-2.45-6.33-2.17-.41,.05-.68,.26-.84,.64-.23,.55-.51,1.08-.76,1.61Zm3.96-7.86c-.14,.25-.27,.5-.41,.74-.36,.65-.36,.7,.42,.94,2.33,.72,4.67,.87,7,.32,.72-.17,1.4-.44,2.03-.79,2.7-1.51,2.88-4.08,.42-6.14-1.21-1.01-2.63-1.58-4.12-2.02-.54-.16-.82-.04-1.11,.36-1.55,2.11-2.95,4.31-4.22,6.59Z"/><path class="v" d="M120.66,140.29c1.59-3.22,3.52-6.64,5.95-9.75,.4-.52,.84-1.01,1.29-1.49,1.33-1.43,3.02-1.75,5.07-.84,1.81,.8,3.57,1.7,5.35,2.57,1.52,.74,2.98,1.58,4.4,2.49,.57,.36,.78,.8,.71,1.37-.16,1.4-.75,2.63-1.44,3.81-.25,.42-.61,.48-1.13,.23-.46-.23-.89-.53-1.34-.79-1.77-1.04-3.6-1.94-5.59-2.44-.83-.21-.83-.2-1.28,.42-1.13,1.57-2.17,3.21-3.15,4.87-.38,.64-.36,.65,.44,1,1.07,.47,2.13,.95,3.15,1.54,1.25,.72,1.39,1.07,1.04,2.26-.24,.84-.76,1.53-1.2,2.25-.32,.53-.95,.84-1.97,.43-1.23-.5-2.47-.99-3.7-1.48-.79-.32-.81-.32-1.12,.34-.79,1.7-1.54,3.42-2.09,5.22-.22,.73-.21,.73,.48,1.27,.77,.6,1.65,1.03,2.56,1.39,.94,.37,1.86,.76,2.75,1.25,1.53,.83,1.75,1.32,1.26,2.75-.24,.7-.61,1.35-1.05,1.94-.58,.79-1.12,.92-2.17,.61-1.12-.32-2.19-.81-3.26-1.26-2.4-1-4.77-2.06-6.88-3.59-.26-.19-.51-.39-.76-.6-.55-.43-.75-.95-.73-1.59,.06-2.07,.54-4.04,1.14-5.97,.84-2.73,1.94-5.34,3.29-8.22Z"/><path class="v" d="M148.09,160.49c-.04,.31,.11,.59,.19,.87,.87,3.02,1.75,6.04,2.62,9.06,.35,1.21,.01,1.84-1.26,2.09-1.78,.35-3.4-.13-4.81-1.38-.3-.27-.42-.6-.52-.95-.31-1.15-.63-2.31-.92-3.46-.47-1.85-.92-3.7-1.38-5.56-.06-.25-.07-.52-.28-.75-.32,.17-.38,.46-.51,.7-.74,1.45-1.46,2.91-2.2,4.37-.23,.46-.45,.94-.92,1.22-.68,.4-1.45,.41-2.24,.16-1.5-.47-2.6-1.45-3.49-2.65-.26-.35-.25-.71-.17-1.1,.3-1.45,.88-2.78,1.49-4.11,1.19-2.57,2.38-5.14,3.63-7.68,2.2-4.47,4.79-8.72,7.62-12.83,.75-1.09,1.65-1.53,3.14-1.28,4.15,.69,7.81,2.28,10.65,5.42,3.91,4.31,3.99,9.91,.21,13.71-2.54,2.56-5.83,3.77-9.65,4.03-.4,.03-.81-.03-1.19,.1Zm-3.6-5.82c.27,.2,.46,.18,.64,.18,2.27,.06,4.37-.39,6.26-1.4,1.08-.58,2.03-1.31,2.7-2.3,1.2-1.77,1.46-3.66,.1-5.66-.79-1.16-1.93-1.96-3.23-2.56-.38-.18-.59-.09-.72,.23-.08,.18-.18,.36-.27,.54-1.56,3.09-3.11,6.18-4.66,9.27-.28,.56-.54,1.13-.82,1.71Z"/><path class="v" d="M185.31,174.69c-1.74,3.4-3.48,6.8-5.22,10.21-.05,.1-.13,.2-.16,.31-.26,1.08-1.12,1.32-2.08,1.29-1.57-.04-2.87-.68-3.8-1.96-.58-.78-.71-1.61-.24-2.52,1.85-3.6,3.35-7.38,5.15-11.01,1.72-3.48,2.89-5.73,4.63-9.19,.08-.15,.15-.31,.23-.46,.14-.25,.1-.43-.18-.56-.19-.09-.37-.18-.56-.27-2.25-1.07-4.49-2.16-6.76-3.2-.57-.26-.8-.64-.9-1.19-.24-1.44,1-4.27,2.42-4.67,.58-.16,1.41,.1,1.82,.3,5.94,2.85,11.87,5.7,17.81,8.55,.51,.24,1.72,.79,2.21,1.06,2.18,1.04,.71,4.36-.89,5.47-.59,.41-1.19,.5-1.9,.15-1.72-.86-3.44-1.62-5.24-2.43-.18-.1-.39-.15-.58-.24-.27-.12-.45-.03-.57,.21-.22,.41-.45,.8-.66,1.21-1.71,3.38-2.83,5.56-4.54,8.95h-.01Z"/><path class="v" d="M211.98,187.18c-1.58,3.09-3.68,6.63-6.78,9.52-.77,.72-1.62,1.35-2.58,1.85-.34,.18-.68,.29-1.08,.28-1.47-.05-2.78-.54-3.86-1.57-.65-.61-.63-.87,0-1.41,2.81-2.46,5.07-5.33,7.01-8.44,.37-.59,.37-.62-.37-.9-2.39-.89-4.8-1.76-7.19-2.65-.56-.21-.75,.02-.94,.41-1.48,3.16-2.56,6.44-2.93,9.97-.12,1.17-.91,1.96-2.18,2.03-1.65,.09-3-.6-4.08-1.84-.3-.34-.32-.73-.35-1.13-.17-2.4,.23-4.7,.98-6.9,2.57-7.51,7.1-13.69,13.69-18.46,1.36-.98,2.83-1.8,4.44-2.43,2.43-.96,4.72-.49,6.86,1.19,1.27,.99,2.05,2.25,2.52,3.69,.62,1.91,.7,3.8,.46,5.69-.48,3.72-1.72,7.17-3.58,11.1Zm-2.79-17.09c-.54,.1-.86,.35-1.2,.54-3.93,2.31-6.83,5.53-9.28,9.15-.44,.64-.4,.7,.42,1.03,2.25,.9,4.51,1.79,6.76,2.68,.67,.27,.68,.27,.98-.37,1.28-2.79,2.15-5.71,2.42-8.82,.12-1.37,.14-2.76-.11-4.22Z"/><path class="v" d="M224.98,207.58c-.22,.34-.59,.41-.97,.39-.4-.02-.77-.15-1.13-.32-1.03-.5-9.91-4.76-13.29-6.32-.87-.4-1.06-.85-.7-1.75,.33-.83,.67-1.48,1.06-2.28,1.77-3.72,3.54-7.44,5.31-11.16h-.03c1.07-2.22,2.15-4.41,3.2-6.63,1.05-2.21,2.06-4.45,3.09-6.67,.37-.79,.49-.85,1.35-.79,1.1,.08,2.05,.59,2.98,1.11,.59,.33,1.22,.74,1.66,1.27,.44,.52,.87,1.27,.54,1.97-1.81,3.76-8.93,18.33-10.66,22-.07,.15-.13,.31-.2,.46-.1,.22-.01,.36,.21,.46,.34,.16,5.78,2.75,8.23,3.93,.59,.28,.79,.66,.67,1.28-.21,1.11-.73,2.1-1.33,3.04Z"/><path class="v" d="M232.48,193.94c1.59-3.22,3.52-6.64,5.95-9.75,.4-.52,.84-1.01,1.29-1.49,1.33-1.43,3.02-1.75,5.07-.84,1.81,.8,3.57,1.7,5.35,2.57,1.52,.74,2.98,1.58,4.4,2.49,.57,.36,.78,.8,.71,1.37-.16,1.4-.75,2.63-1.44,3.81-.25,.42-.61,.48-1.13,.23-.46-.23-.89-.53-1.34-.79-1.77-1.04-3.6-1.94-5.59-2.44-.83-.21-.83-.2-1.28,.42-1.13,1.57-2.17,3.21-3.15,4.87-.38,.64-.36,.65,.44,1,1.07,.47,2.13,.95,3.15,1.54,1.25,.72,1.39,1.07,1.04,2.26-.24,.84-.76,1.53-1.2,2.25-.32,.53-.95,.84-1.97,.43-1.23-.5-2.47-.99-3.7-1.48-.79-.32-.81-.32-1.12,.34-.79,1.7-1.54,3.42-2.09,5.22-.22,.73-.21,.73,.48,1.27,.77,.6,1.65,1.03,2.56,1.39,.94,.37,1.86,.76,2.75,1.25,1.53,.83,1.75,1.32,1.26,2.75-.24,.7-.61,1.35-1.05,1.94-.58,.79-1.12,.92-2.17,.61-1.12-.32-2.19-.81-3.26-1.26-2.4-1-4.77-2.06-6.88-3.59-.26-.19-.51-.39-.76-.6-.55-.43-.75-.95-.73-1.59,.06-2.07,.54-4.04,1.14-5.97,.84-2.73,1.94-5.34,3.29-8.22Z"/></g><line class="r" x1="-.95" y1="227.07" x2="328.38" y2="-4.98"/></g><g id="n"/><g id="o"/></svg>