<?xml version="1.0" encoding="UTF-8"?><svg xmlns="http://www.w3.org/2000/svg" xmlns:xlink="http://www.w3.org/1999/xlink" viewBox="0 0 223.65 243.27"><defs><style>.n{fill:url(#d);}.o,.p{fill:none;}.q{fill:#e96b24;}.r{fill:#7e4d2c;}.s{fill:#335b7f;}.t{fill:#386c37;}.u{fill:#614928;}.v{fill:#57a855;filter:url(#h);}.w{fill:#458744;filter:url(#f);}.x{font-size:9px;}.x,.y{fill:#fff;}.x,.y,.a`{font-family:MyriadPro-Regular, Myriad Pro;}.y{font-size:6px;}.aa{clip-path:url(#e);}.a`{fill:#231f20;font-size:10px;}.p{stroke:#335b7f;stroke-miterlimit:10;stroke-width:.5px;}</style><linearGradient id="d" x1="111.43" y1="37.52" x2="111.43" y2="206.1" gradientTransform="matrix(1, 0, 0, 1, 0, 0)" gradientUnits="userSpaceOnUse"><stop offset=".11" stop-color="#fff"/><stop offset=".24" stop-color="#fafcfd"/><stop offset=".37" stop-color="#eef4f8"/><stop offset=".5" stop-color="#d9e7ef"/><stop offset=".63" stop-color="#bcd5e3"/><stop offset=".77" stop-color="#96bdd3"/><stop offset=".9" stop-color="#68a1c0"/><stop offset=".98" stop-color="#4c8fb5"/></linearGradient><clipPath id="e"><path class="o" d="M131.26,130.89c2.39,2.69,18.21,10.45,24.17-4.48,13.43,1.64,15.07-23.88,10-26.56,8.65-2.98,9.1-35.66-17.76-34.77,0,0-11.49-20.89-31.49-5.67-10-10.45-32.23-3.73-38.05,13.13-8.36-3.28-29.4,15.37-20.89,29.4-7.31,2.39-2.69,29.7,14.92,23.58,0,0,8.21,13.43,23.58,4.48s35.52,.9,35.52,.9Z"/></clipPath><filter id="f" filterUnits="userSpaceOnUse"><feOffset dx="-3" dy="0"/><feGaussianBlur result="g" stdDeviation="5"/><feFlood flood-color="#2e5127" flood-opacity=".3"/><feComposite in2="g" operator="in"/><feComposite in="SourceGraphic"/></filter><filter id="h" filterUnits="userSpaceOnUse"><feOffset dx="-3" dy="0"/><feGaussianBlur result="i" stdDeviation="5"/><feFlood flood-color="#2e5127" flood-opacity=".3"/><feComposite in2="i" operator="in"/><feComposite in="SourceGraphic"/></filter></defs><g id="a"/><g id="b"/><g id="c"><g/><g><path class="n" d="M185.77,84.19s-40.71-5.67-74.31-46.63v-.04l-.02,.02-.02-.02v.04c-33.61,40.96-74.31,46.63-74.31,46.63,1.11,97.63,72.74,121.39,74.31,121.9h.04c1.57-.51,73.21-24.28,74.31-121.9Z"/><path class="q" d="M110.79,60.47l.64,.78,.64-.78c21.71,21.12,44.24,30.93,58.12,35.32-2.41,30.78-13,55.85-31.56,74.63-10.59,10.71-21.3,16.66-27.2,19.42-5.91-2.76-16.62-8.71-27.2-19.42-18.56-18.78-29.16-43.85-31.56-74.63,13.87-4.39,36.41-14.2,58.12-35.32m.66-22.95l-.02,.02-.02-.02v.04c-33.61,40.96-74.31,46.63-74.31,46.63,1.11,97.63,72.74,121.39,74.31,121.9h.04c1.57-.51,73.21-24.28,74.31-121.9,0,0-40.71-5.67-74.31-46.63v-.04h0Z"/><path class="t" d="M131.26,130.89c2.39,2.69,18.21,10.45,24.17-4.48,13.43,1.64,15.07-23.88,10-26.56,8.65-2.98,9.1-35.66-17.76-34.77,0,0-11.49-20.89-31.49-5.67-10-10.45-32.23-3.73-38.05,13.13-8.36-3.28-29.4,15.37-20.89,29.4-7.31,2.39-2.69,29.7,14.92,23.58,0,0,8.21,13.43,23.58,4.48s35.52,.9,35.52,.9Z"/><g class="aa"><path class="w" d="M204.59,76.17s-3.74-16.23-25.53-17.94c-.99-.08-1.97-.21-2.95-.36-.65-7.88-8.33-18.01-23.66-14.4,0,0-4.82-5.84-14.18-7.14-.14-.14-.21-.22-.21-.22-1.62-3.69-16.68-19.73-30.11-10.77-13.54-8.57-25.47,7.44-24.06,14.47-5.38-1.24-8.85-2.51-8.85-2.51-3.09-2.59-23.73-10.22-31.76,3.79-17.59-1.8-20.08,22.31-13.47,24.95-11.39,2.66-12.41,33.57,22.82,33.23,0,0,14.79,19.98,41.21,5.95,7.63,5.92,20.88,6.3,32.1,2.39,8.84,13.26,35.36,19.64,48.7,9.53,8.31,7.79,40.93,4.76,37.1-12.15,9.56,2.39,16.02-23.35-7.16-28.8Z"/><path class="v" d="M137.07,35.76c-1.09-3.09-12.17-16.12-23.2-7.75-11.3-7.38-22.56,10.86-19.09,15.18-8.84-1.75-21.79,22.37,2.42,34.02,0,0,2.19,20.82,25.8,18.66,4.87,12.36,27.21,17.56,38.86,7.68,6.16,6.28,32.03,2.04,29.86-12.3,7.41,1.58,13.79-20.87-4.2-24.39,0,0-2.13-13.76-19.23-14.15-17.1-.38-31.22-16.95-31.22-16.95Z"/></g><path class="r" d="M87.13,173.31c6.04-6.94,29.66-34.86-7.61-57.08-10.41-8.79,1.34-1.57,1.34-1.57,0,0,9.77,6.42,15.22,8.51s-4.92-11.19-9.4-13.43-2.27-2.47-.07-1.57c2.54,1.04,8.15,6.21,11.49,10,6.64,7.54,4.4-6.08,8.43-12.68s1.64,0-.15,5.37,2.91,14.03,5.75,13.43,7.31-5.97,6.27-12.39c-1.04-6.42-2.98-13.65,1.04-4.03,4.03,9.62-1.72,10.74-1.49,13.73s6.34-1.79,8.8-5.37c2.46-3.58,7.54-7.09,7.76-6.49s-3.21,2.76-5.07,5.45c-1.87,2.69-2.31,1.57-3.36,10.67-1.04,9.1,13.73-6.79,16.41-10.82,2.69-4.03,2.39-.3-.52,2.84-2.91,3.13-16.08,15.44-15.37,31.78,.71,16.34,8.06,24.62,8.06,24.62,0,0-18.5,15.82-23.2,16-9.14-3.66-24.32-16.97-24.32-16.97Z"/><path class="u" d="M111.52,124.28c-2.84-.57-6.8-8.41-5.14-13.42,1.79-5.37,4.18-11.98,.15-5.37-4.03,6.6-1.79,20.22-8.43,12.68-3.34-3.79-8.95-8.95-11.49-10-2.2-.91-4.4-.67,.07,1.57s14.85,15.52,9.4,13.43c-5.45-2.09-15.22-8.51-15.22-8.51,0,0-11.75-7.22-1.34,1.57,37.27,22.22,13.65,50.14,7.61,57.08,0,0,15.18,13.32,24.32,16.97,.02,0,.04,0,.06,0V124.28Z"/></g><text class="a`" transform="translate(109.33 229.83) scale(.7)"><tspan x="0" y="0">X</tspan></text><text class="a`" transform="translate(109.33 21.32) scale(.7)"><tspan x="0" y="0">X</tspan></text><rect class="s" x="-.17" y="-.13" width="37.5" height="37.69"/><rect class="s" x="185.99" y="-.13" width="37.5" height="37.69"/><rect class="s" x="185.99" y="205.93" width="37.5" height="37.69"/><rect class="s" x="-.21" y="205.93" width="37.5" height="37.69"/><text class="y" transform="translate(10.29 21.5)"><tspan x="0" y="0" xml:space="preserve">1/4  </tspan></text><text class="x" transform="translate(21.04 21.5) scale(.7)"><tspan x="0" y="0">X</tspan></text><text class="y" transform="translate(10.24 227.56)"><tspan x="0" y="0" xml:space="preserve">1/4  </tspan></text><text class="x" transform="translate(21 227.56) scale(.7)"><tspan x="0" y="0">X</tspan></text><text class="y" transform="translate(196.44 227.56)"><tspan x="0" y="0" xml:space="preserve">1/4  </tspan></text><text class="x" transform="translate(207.2 227.56) scale(.7)"><tspan x="0" y="0">X</tspan></text><text class="y" transform="translate(196.44 21.5)"><tspan x="0" y="0" xml:space="preserve">1/4  </tspan></text><text class="x" transform="translate(207.2 21.5) scale(.7)"><tspan x="0" y="0">X</tspan></text><line class="p" x1="186.02" y1="-6.1" x2="186.02" y2="267.58"/><line class="p" x1="37.17" y1="-4.32" x2="37.17" y2="269.36"/><line class="p" x1="-23.09" y1="37.82" x2="255.84" y2="36.7"/><line class="p" x1="-32.1" y1="206.76" x2="246.83" y2="205.63"/></g><g id="j"/><g id="k"/><g id="l"/><g id="m"/></svg>