<?xml version="1.0" encoding="UTF-8"?><svg xmlns="http://www.w3.org/2000/svg" xmlns:xlink="http://www.w3.org/1999/xlink" viewBox="0 0 320.98 226.37"><defs><style>.i,.j,.k{fill:none;}.l{fill:#fff;}.j{stroke:#e02726;stroke-miterlimit:10;stroke-width:2px;}.m{clip-path:url(#d);}.k{stroke:#231f20;}</style><clipPath id="d"><path class="i" d="M149.17,77.99c-1.85-2.07-4.35-4.11-7.65-6.08-6.17-5.2,.8-.93,.8-.93,0,0,5.79,3.8,9.02,5.04s-2.92-6.63-5.57-7.96c-2.65-1.33-1.35-1.46-.04-.93,1.5,.62,4.83,3.68,6.81,5.92,3.93,4.46,2.61-3.6,4.99-7.51s.97,0-.09,3.18c-1.06,3.18,1.72,8.31,3.4,7.96s4.33-3.54,3.71-7.34c-.62-3.8-1.77-8.09,.62-2.39s-1.02,6.37-.88,8.13c.13,1.77,3.76-1.06,5.22-3.18s4.46-4.2,4.6-3.85-1.9,1.64-3.01,3.23c-1.11,1.59-1.37,.93-1.99,6.32-.62,5.39,8.13-4.02,9.72-6.41s1.41-.18-.31,1.68-9.53,9.15-9.11,18.83c.42,9.68,4.77,14.59,4.77,14.59,0,0-9.86,10.12-13.68,9.37s-14.41-10.06-14.41-10.06c3.04-3.5,13.56-15.9,3.08-27.62"/></clipPath></defs><g id="a"/><g id="b"/><g id="c"><g><g><path class="l" d="M116.45,52.81s24.13-3.36,44.05-27.65V125.04s-43.39-13.75-44.05-72.23Z"/><path class="l" d="M204.53,52.81s-24.13-3.36-44.05-27.65V125.04s43.39-13.75,44.05-72.23Z"/></g><path d="M192.48,62.09c5.06-1.74,5.38-20.61-9.88-20.61-.21,0-.42,0-.64,.01,0,0-3.66-6.65-10.28-6.65-2.41,0-5.21,.88-8.38,3.29-1.93-2.02-4.63-2.95-7.52-2.95-5.96,0-12.7,4-15.03,10.73-.39-.15-.82-.23-1.29-.23-5.51,0-15.73,9.98-11.08,17.64-3.9,1.27-2.07,14.5,5.93,14.5,.89,0,1.86-.16,2.91-.53,0,0,2.74,4.48,7.94,4.48,1.74,0,3.75-.5,6.02-1.82,.11-.06-.53-1.61-1.25-2.04-1.67,.95-3.31,1.49-4.77,1.49-3.77,0-5.84-3.22-5.92-3.34-.44-.72-1.22-1.13-2.02-1.13-.26,0-.52,.04-.78,.13-.76,.26-1.47,.4-2.13,.4-2.77,0-4.18-2.47-4.78-3.95-1.16-2.87-.76-5.44-.33-5.96,.64-.24,1.15-.75,1.39-1.4,.25-.68,.18-1.43-.2-2.05-1.57-2.59-.62-5.41,.45-7.31,1.75-3.11,5.9-6.73,8.61-6.73,.24,0,.37,.04,.43,.06,.28,.11,.57,.16,.87,.16,.34,0,.68-.07,.99-.22,.59-.27,1.04-.77,1.25-1.38,2.05-5.94,8.12-9.14,12.79-9.14,1.68,0,4.05,.39,5.81,2.22,.46,.48,1.09,.73,1.71,.73,.5,0,1.01-.16,1.43-.48,2.45-1.86,4.78-2.81,6.94-2.81,5.1,0,8.17,5.38,8.2,5.42,.42,.76,1.21,1.23,2.08,1.23,.03,0,.05,0,.08,0,.19,0,.37,0,.56,0,8.11,0,10.01,6.13,10.45,8.77,.7,4.2-.72,7.02-1.34,7.23-.89,.31-1.52,1.12-1.59,2.06-.07,.87,.35,1.69,1.06,2.16,.63,1,.9,5.55-.74,8.89-1.24,2.54-2.69,2.54-3.17,2.54-.14,0-.29,0-.43-.03-.1-.01-.19-.02-.29-.02-.96,0-1.84,.58-2.2,1.49-1.03,2.58-2.61,3.78-4.98,3.78-2.49,0-5.54-1.56-5.97-1.98-.2-.23-1.03,.97-1.59,1.55,.26,.11,.41,.19,.41,.19,.77,.87,3.89,2.62,7.15,2.62,2.73,0,5.56-1.24,7.18-5.27,.25,.03,.49,.04,.72,.04,7.29,0,8.11-14.24,5.2-15.78Z"/><g><path d="M163.31,38.13c2.43-1.85,4.64-2.79,6.63-3.13-3.17-2.82-6.35-6.07-9.43-9.82v-.03h-.02v.03c-3.79,4.63-7.74,8.49-11.65,11.72,5.04-2.53,11-2.4,14.48,1.23Z"/><path d="M194.87,50.12c1.08,3.39,.89,7.03-.12,9.42,.17,.06,.35,.11,.51,.17-1.43,18.22-7.7,33.05-18.69,44.17-6.26,6.34-12.6,9.86-16.09,11.49-3.5-1.64-9.83-5.16-16.09-11.49-8.05-8.14-13.55-18.29-16.49-30.29-1.22-2.26-1.68-5-1.41-7.09-.34-2.21-.6-4.47-.78-6.79,.48-.15,.99-.32,1.5-.49-.08-7.38,9.39-14.93,13.55-13.29,.68-1.98,1.75-3.71,3.06-5.18-14.62,10.3-27.37,12.08-27.37,12.08,.66,57.84,43.09,71.92,44.03,72.22h.02c.93-.3,43.37-14.38,44.03-72.22,0,0-3.81-.53-9.65-2.69Z"/></g><g/><path d="M156.61,74.79c.27,.55,.57,1.06,.89,1.5,.98,1.35,2.09,2.07,3.22,2.07,.18,0,.36-.02,.54-.06,.76-.16,1.6-.63,2.37-1.34,.35,.22,.78,.35,1.25,.35,.82,0,1.74-.42,2.64-1.03-.04,.32-.08,.66-.12,1.02-.05,.45-.21,1.84,.66,2.81,.47,.52,1.13,.81,1.86,.81,.1,0,.21,0,.32-.02-1.57,3.07-2.71,6.73-2.54,10.78,.31,7.22,3.47,13.19,4.91,15.43-4.42,3.68-10.44,6.94-12.12,7.51-3.88-1.73-9.35-7.07-11.9-9.21,5.43-6.69,7.69-13.12,6.73-19.13-.48-3.02-1.78-5.86-3.87-8.51,.17,.03,.34,.05,.5,.05,1.01,0,1.85-.64,2.07-1.6,.01-.06,.03-.13,.04-.21,.12,.02,.24,.03,.36,.03,1.04,0,1.71-.49,2.18-1.24m2.2-11c-.15,0-.52,.47-1.23,1.64-1.89,3.1-1.45,8.82-3.15,8.82-.44,0-1.03-.39-1.84-1.31-1.98-2.24-5.3-5.3-6.81-5.92-.46-.19-.91-.29-1.2-.29-.53,0-.48,.36,1.25,1.22,2.46,1.23,7.92,8.09,6.13,8.09-.14,0-.33-.04-.56-.13-3.23-1.24-9.02-5.04-9.02-5.04,0,0-2.69-1.65-3.25-1.65-.34,0,.12,.61,2.45,2.58,22.08,13.16,8.09,29.7,4.51,33.82,0,0,9,7.89,14.41,10.06,2.78-.11,13.75-9.48,13.75-9.48,0,0-4.35-4.91-4.77-14.59-.42-9.68,7.38-16.97,9.11-18.83,1.19-1.28,1.64-2.72,1.29-2.72-.16,0-.48,.3-.98,1.04-1.25,1.87-6.89,8.05-8.97,8.05-.58,0-.88-.47-.75-1.64,.62-5.39,.88-4.73,1.99-6.32,1.11-1.59,3.14-2.87,3.01-3.23-.01-.03-.04-.04-.08-.04-.5,0-3.17,1.92-4.52,3.89-1.14,1.65-3.59,3.74-4.68,3.74-.31,0-.51-.17-.54-.56-.13-1.77,3.27-2.43,.88-8.13-.83-1.99-1.24-2.77-1.38-2.77-.27,0,.36,2.68,.76,5.15,.62,3.8-2.03,6.98-3.71,7.34-.06,.01-.11,.02-.17,.02-1.69,0-4.26-4.9-3.23-7.97,.74-2.23,1.66-4.82,1.32-4.82h0Z"/><g class="m"><rect x="136" y="54.4" width="24.53" height="70.42"/></g></g></g><g id="e"/><g id="f"><g><path class="k" d="M54.88,168.96c-.1,3.82-.19,7.64-.29,11.46,0,.12-.03,.23,0,.34,.23,1.09-.44,1.67-1.32,2.07-1.43,.65-2.88,.62-4.28-.12-.86-.46-1.34-1.14-1.31-2.17,.11-4.05-.17-8.1-.12-12.15,.05-3.88,.13-6.42,.2-10.29,0-.17,0-.35,.01-.52,.02-.28-.09-.43-.4-.43-.21,0-.42,0-.62,0-2.49,0-4.98,0-7.48,.04-.62,.01-1-.23-1.32-.68-.84-1.19-.95-4.28,.16-5.26,.45-.4,1.31-.52,1.77-.52,6.59,0,13.17,0,19.76,0,.56,0,1.89-.03,2.46,0,2.42,0,2.53,3.63,1.57,5.31-.35,.62-.85,.97-1.64,.96-1.93-.03-3.8,.03-5.78,.08-.2-.02-.41,.03-.62,.04-.29,.01-.42,.17-.43,.44-.02,.46-.06,.92-.07,1.38-.08,3.79-.15,6.24-.22,10.03h-.01Z"/><path class="k" d="M69.08,156.72c0-.17-.03-.33-.01-.49,.03-.4-.17-.53-.6-.51-.67,.02-1.34,.03-2.01,0-.99-.04-1.49-.45-1.49-1.33,0-1.04-.32-2.14,.09-3.15,.27-.67,.71-.98,1.54-1.04,3.64-.25,7.27-.04,10.9,0,.49,0,.98,.05,1.45,.17,.72,.19,.97,.47,.92,1.14-.09,1.12,.09,2.04-.06,3.16-.11,.84-.38,1.01-1.35,.94-.55-.04-1.06,.15-1.61,.13-.69-.03-.74,0-.76,.62-.06,1.51-.4,15.53-.48,20.8,.03,.62,.14,.87,1.34,.8,.46-.02,.92-.05,1.37-.04,.98,.03,1.49,.44,1.52,1.31,.03,1.01,0,1.78-.04,2.8-.02,.36-.33,.83-1.11,.83-.34,0-12.23,0-12.42,0-1.4,.05-2.03,.05-2.18-1.24-.07-.6-.1-1.21-.1-1.81,0-1,.2-1.77,1.3-1.77,.93,0,1.84,.02,2.66-.02,.74-.04,.88-.17,.89-.85,.06-3.5,.15-16.97,.25-20.46Z"/><path class="k" d="M97.85,163.57c.31-.11,.36-.37,.49-.58,2.45-4,4.92-8.19,7.35-12.19,.23-.38,.49-.57,1.01-.56,1.37,.03,3.18-.02,4.56,0,.78,0,.89,.09,.9,.77,.04,1.72,.04,3.63,.05,5.36,.02,8.21,.03,16.26,.04,24.47,0,1.2,0,1.17-1.39,1.18-1.7,.03-3.71,0-5.32,0-.84-.02-.88-.11-.88-.83,.02-5.42,.13-9.69,.25-15.11,0-.14,0-.27,0-.45-.4,.04-.41,.34-.52,.52-1.15,2-2.41,3.96-3.64,5.93-.31,.5-.68,.7-1.33,.68-1.22-.04-2.44-.04-3.65,0-.68,.03-1.03-.28-1.32-.73-.87-1.36-1.76-2.71-2.64-4.07-.49-.76-.98-1.52-1.47-2.27-.32,.08-.22,.28-.22,.42,0,4.87-.04,8.76,.12,13.63,.02,.6-.05,1.2-.06,1.8,0,.38-.21,.55-.62,.56-.12,0-.25,0-.37,0-1.9-.04-4.42-.06-6.32-.11-.99-.03-1.06-.09-1.03-.97,0-5.27,.11-24.3,.25-28.64,.06-1.74,.27-2.1,2.23-2.15,1.15-.03,3.45,.02,4.6,0,.54,0,.82,.18,1.08,.6,2.45,4,4.91,8.17,7.38,12.16,.13,.21,.21,.46,.48,.58Z"/><path class="k" d="M133.28,163.99c.2,.25,.43,.26,.62,.33,3.62,1.44,5.43,4.1,5.68,7.67,.42,5.88-4.48,11.7-10.56,12.95-1.67,.34-3.36,.47-5.05,.1-.92-.2-1.8-.52-2.57-1.04-.37-.25-.73-.35-1.18-.31-.57,.05-1.15,.03-1.73-.04-.75-.09-1.28-.43-1.63-1.07-.42-.76-.7-1.57-.92-2.4-.65-2.44-.86-4.93-.95-7.43-.17-4.58,.18-9.13,.87-13.67,.38-2.47,.82-4.93,1.38-7.38,.13-.55,.38-.87,.98-1.05,4.39-1.38,8.75-1.44,13.08,.15,1.84,.68,3.41,1.73,4.62,3.21,1.63,2,1.79,4.16,.7,6.41-.52,1.07-1.32,1.96-2.28,2.73-.34,.28-.7,.54-1.07,.82Zm-11.68,7.04h.05c.1,1.13,.17,2.26,.31,3.39s.39,2.24,.52,3.36c.08,.71,.49,1.01,1.19,1.15,2.51,.5,4.68-.16,6.54-1.74,1.56-1.33,2.37-3.02,2.19-5.01-.21-2.23-1.47-3.83-3.69-4.65-2.34-.87-4.57-.52-6.65,.78-.35,.22-.5,.53-.48,.94,.03,.59,0,1.19,0,1.78Zm.17-8.8c-.02,.28-.03,.57-.05,.85-.05,.74-.03,.79,.79,.67,2.41-.36,4.58-1.24,6.45-2.74,.58-.46,1.07-1,1.49-1.6,1.78-2.53,.83-4.92-2.28-5.72-1.52-.39-3.05-.29-4.59-.04-.55,.09-.76,.32-.85,.81-.49,2.57-.8,5.16-.96,7.77Z"/><path class="k" d="M141.16,165.92c.04-3.59,.3-7.5,1.14-11.37,.14-.64,.33-1.27,.52-1.9,.58-1.87,1.97-2.88,4.21-2.96,1.98-.06,3.96,0,5.93,0,1.69,.01,3.37,.14,5.04,.34,.67,.08,1.05,.38,1.24,.93,.46,1.33,.46,2.69,.35,4.05-.04,.49-.34,.7-.92,.69-.52,0-1.03-.09-1.55-.13-2.04-.17-4.08-.19-6.1,.22-.84,.17-.84,.18-.97,.93-.34,1.91-.57,3.83-.73,5.76-.06,.74-.04,.74,.83,.71,1.17-.04,2.34-.06,3.5,.02,1.44,.1,1.71,.37,1.92,1.59,.14,.86-.03,1.7-.1,2.55-.06,.62-.49,1.17-1.59,1.24-1.33,.08-2.65,.18-3.98,.27-.85,.06-.87,.06-.86,.79,.02,1.88,.09,3.75,.38,5.61,.11,.75,.13,.75,.98,.93,.96,.21,1.93,.21,2.9,.14,1-.07,2.01-.12,3.01-.07,1.74,.09,2.15,.44,2.33,1.94,.09,.74,.03,1.48-.1,2.21-.18,.96-.61,1.31-1.7,1.49-1.15,.19-2.32,.22-3.49,.28-2.59,.13-5.19,.2-7.76-.25-.32-.06-.63-.14-.94-.21-.68-.16-1.09-.53-1.35-1.11-.84-1.9-1.26-3.88-1.56-5.88-.43-2.82-.57-5.66-.59-8.83Z"/><path class="k" d="M174.63,172.26c.1,.29,.35,.48,.55,.7,2.09,2.35,4.19,4.69,6.28,7.04,.84,.94,.81,1.65-.23,2.43-1.45,1.08-3.12,1.36-4.94,.84-.39-.11-.64-.36-.88-.64-.78-.91-1.57-1.8-2.33-2.72-1.22-1.47-2.43-2.94-3.65-4.41-.16-.2-.29-.44-.58-.55-.21,.29-.15,.58-.15,.85-.04,1.63-.06,3.26-.09,4.89-.01,.51,0,1.04-.3,1.5-.44,.66-1.13,1-1.95,1.12-1.56,.22-2.97-.18-4.29-.88-.38-.2-.53-.53-.63-.91-.36-1.43-.41-2.89-.43-4.35-.04-2.83-.08-5.66-.05-8.49,.05-4.98,.54-9.93,1.31-14.87,.2-1.3,.83-2.09,2.28-2.51,4.04-1.17,8.02-1.32,11.95,.28,5.39,2.19,7.88,7.21,6.12,12.27-1.18,3.4-3.63,5.92-6.95,7.81-.35,.2-.74,.33-1.03,.61Zm-5.77-3.69c.33,.06,.49-.04,.66-.12,2.07-.93,3.77-2.24,5.04-3.97,.72-.99,1.26-2.06,1.44-3.24,.32-2.12-.26-3.93-2.36-5.15-1.21-.71-2.59-.93-4.02-.91-.42,0-.57,.17-.55,.52,0,.2,0,.4,0,.6-.07,3.46-.13,6.92-.2,10.37-.01,.62,0,1.25,0,1.89Z"/><path class="k" d="M214.33,168.96c-.1,3.82-.19,7.64-.29,11.46,0,.12-.03,.23,0,.34,.23,1.09-.44,1.67-1.32,2.07-1.43,.65-2.88,.62-4.28-.12-.86-.46-1.34-1.14-1.31-2.17,.11-4.05-.17-8.1-.12-12.15,.05-3.88,.13-6.42,.2-10.29,0-.17,0-.35,.01-.52,.02-.28-.09-.43-.4-.43-.21,0-.42,0-.62,0-2.49,0-4.98,0-7.48,.04-.62,.01-1-.23-1.32-.68-.84-1.19-.95-4.28,.16-5.26,.45-.4,1.31-.52,1.77-.52,6.59,0,13.17,0,19.76,0,.56,0,1.89-.03,2.46,0,2.42,0,2.53,3.63,1.57,5.31-.35,.62-.85,.97-1.64,.96-1.93-.03-3.8,.03-5.78,.08-.21-.02-.41,.03-.62,.04-.29,.01-.42,.17-.43,.44-.02,.46-.06,.92-.07,1.38-.08,3.79-.15,6.24-.22,10.03h-.01Z"/><path class="k" d="M243.77,168.69c-.09,3.47-.45,7.57-2,11.51-.38,.99-.88,1.92-1.53,2.79-.23,.3-.49,.56-.86,.72-1.35,.59-2.74,.71-4.16,.26-.85-.27-.94-.51-.62-1.27,1.46-3.43,2.26-7,2.67-10.64,.08-.69,.06-.72-.73-.65-2.54,.23-5.09,.49-7.63,.72-.59,.05-.67,.34-.67,.78,.03,3.49,.48,6.92,1.67,10.25,.4,1.11,.02,2.16-1.09,2.77-1.45,.8-2.96,.76-4.47,.11-.42-.18-.61-.52-.81-.87-1.19-2.09-1.83-4.33-2.1-6.64-.94-7.88,.48-15.42,4.36-22.56,.8-1.47,1.78-2.85,2.95-4.11,1.78-1.92,4.05-2.48,6.7-1.9,1.57,.34,2.82,1.14,3.87,2.24,1.38,1.45,2.28,3.12,2.87,4.93,1.17,3.56,1.55,7.21,1.58,11.56Zm-9.9-14.2c-.45,.32-.62,.68-.84,1.01-2.54,3.78-3.77,7.94-4.41,12.27-.12,.77-.05,.8,.83,.75,2.42-.17,4.84-.33,7.26-.51,.72-.05,.73-.05,.72-.75-.05-3.07-.54-6.08-1.63-9-.48-1.29-1.06-2.55-1.92-3.76Z"/><path class="k" d="M264.32,181.46c-.05,.4-.35,.63-.7,.77-.37,.15-.76,.2-1.16,.2-1.15,0-11,0-14.72,.05-.96,.01-1.32-.31-1.39-1.27-.06-.89-.03-1.62-.04-2.52-.01-4.12-.02-8.24-.04-12.36h-.03c0-2.45,.03-4.9,.02-7.35s-.07-4.9-.1-7.35c0-.87,.07-.98,.88-1.29,1.03-.4,2.1-.36,3.17-.29,.67,.04,1.42,.14,2.05,.42,.62,.28,1.33,.77,1.33,1.54,0,4.18-.12,20.39-.09,24.45,0,.17,.01,.33,.02,.5,0,.24,.14,.33,.38,.33,.38,0,6.4-.02,9.12-.02,.65,0,1,.26,1.16,.87,.29,1.09,.25,2.21,.11,3.32Z"/><path class="k" d="M265.19,165.92c.04-3.59,.3-7.5,1.14-11.37,.14-.64,.33-1.27,.52-1.9,.58-1.87,1.97-2.88,4.21-2.96,1.98-.06,3.96,0,5.93,0,1.69,.01,3.37,.14,5.04,.34,.67,.08,1.05,.38,1.24,.93,.46,1.33,.46,2.69,.35,4.05-.04,.49-.34,.7-.92,.69-.52,0-1.03-.09-1.55-.13-2.04-.17-4.08-.19-6.1,.22-.84,.17-.84,.18-.97,.93-.34,1.91-.57,3.83-.73,5.76-.06,.74-.04,.74,.83,.71,1.17-.04,2.34-.06,3.5,.02,1.44,.1,1.71,.37,1.92,1.59,.14,.86-.03,1.7-.1,2.55-.06,.62-.49,1.17-1.59,1.24-1.33,.08-2.65,.18-3.98,.27-.85,.06-.87,.06-.86,.79,.02,1.88,.09,3.75,.38,5.61,.11,.75,.13,.75,.98,.93,.96,.21,1.93,.21,2.9,.14,1-.07,2.01-.12,3.01-.07,1.74,.09,2.15,.44,2.33,1.94,.09,.74,.03,1.48-.1,2.21-.18,.96-.61,1.31-1.7,1.49-1.15,.19-2.32,.22-3.49,.28-2.59,.13-5.19,.2-7.76-.25-.32-.06-.63-.14-.94-.21-.68-.16-1.09-.53-1.35-1.11-.84-1.9-1.26-3.88-1.56-5.88-.43-2.82-.57-5.66-.59-8.83Z"/></g><line class="j" x1="-5.46" y1="230.83" x2="323.87" y2="-1.23"/></g><g id="g"/><g id="h"/></svg>