<?xml version="1.0" encoding="UTF-8"?><svg xmlns="http://www.w3.org/2000/svg" xmlns:xlink="http://www.w3.org/1999/xlink" viewBox="0 0 454.44 377.38"><defs><style>.n{fill:url(#d);}.o,.p,.q{fill:none;}.r{fill:#231f20;font-size:22px;}.r,.s,.t,.u,.v{font-family:MyriadPro-Regular, Myriad Pro;}.w{fill:#e96b24;}.x{fill:#7e4d2c;}.y{fill:#555;}.a`{fill:#386c37;}.aa{fill:#633e23;}.ab{fill:#614928;}.ac{fill:#57a855;filter:url(#h);}.ad{fill:#458744;filter:url(#f);}.p{stroke-width:1.29px;}.p,.q{stroke:#555;stroke-miterlimit:10;}.q{stroke-width:.75px;}.s{font-size:9px;}.s,.t,.u,.v{fill:#fff;}.t{font-size:6px;}.ae{clip-path:url(#e);}.u{font-size:10px;}.v{font-size:18px;}</style><linearGradient id="d" x1="219.46" y1="63.81" x2="219.46" y2="232.4" gradientTransform="matrix(1, 0, 0, 1, 0, 0)" gradientUnits="userSpaceOnUse"><stop offset=".11" stop-color="#fff"/><stop offset=".24" stop-color="#fafcfd"/><stop offset=".37" stop-color="#eef4f8"/><stop offset=".5" stop-color="#d9e7ef"/><stop offset=".63" stop-color="#bcd5e3"/><stop offset=".77" stop-color="#96bdd3"/><stop offset=".9" stop-color="#68a1c0"/><stop offset=".98" stop-color="#4c8fb5"/></linearGradient><clipPath id="e"><path class="o" d="M239.29,157.19c2.39,2.69,18.21,10.45,24.17-4.48,13.43,1.64,15.07-23.88,10-26.56,8.65-2.98,9.1-35.66-17.76-34.77,0,0-11.49-20.89-31.49-5.67-10-10.45-32.23-3.73-38.05,13.13-8.36-3.28-29.4,15.37-20.89,29.4-7.31,2.39-2.69,29.7,14.92,23.58,0,0,8.21,13.43,23.58,4.48s35.52,.9,35.52,.9Z"/></clipPath><filter id="f" filterUnits="userSpaceOnUse"><feOffset dx="-3" dy="0"/><feGaussianBlur result="g" stdDeviation="5"/><feFlood flood-color="#2e5127" flood-opacity=".3"/><feComposite in2="g" operator="in"/><feComposite in="SourceGraphic"/></filter><filter id="h" filterUnits="userSpaceOnUse"><feOffset dx="-3" dy="0"/><feGaussianBlur result="i" stdDeviation="5"/><feFlood flood-color="#2e5127" flood-opacity=".3"/><feComposite in2="i" operator="in"/><feComposite in="SourceGraphic"/></filter></defs><g id="a"/><g id="b"/><g id="c"><g><path class="aa" d="M86.75,291.3c-.13,5.1-.26,10.21-.39,15.31,0,.15-.04,.31-.01,.46,.31,1.46-.59,2.24-1.76,2.77-1.91,.87-3.85,.83-5.71-.16-1.15-.61-1.79-1.53-1.75-2.9,.15-5.41-.22-10.82-.16-16.24,.06-5.18,.18-8.57,.27-13.75,0-.23,0-.46,.02-.69,.02-.37-.13-.58-.54-.57-.28,0-.56,0-.83,0-3.33,.01-6.66,0-9.99,.05-.83,.01-1.34-.31-1.77-.91-1.12-1.59-1.27-5.72,.21-7.03,.6-.53,1.75-.7,2.37-.7,8.8,0,17.6,0,26.4,0,.75,0,2.53-.04,3.28,0,3.23,0,3.38,4.85,2.09,7.1-.47,.83-1.14,1.29-2.2,1.28-2.57-.04-5.08,.04-7.72,.1-.27-.02-.55,.04-.83,.05-.39,.01-.55,.22-.57,.58-.03,.61-.08,1.23-.09,1.84-.1,5.07-.19,8.34-.29,13.41h-.02Z"/><path class="aa" d="M105.73,274.95c0-.22-.04-.44-.02-.66,.04-.53-.23-.7-.8-.69-.9,.03-1.8,.04-2.69,0-1.32-.06-1.98-.6-1.99-1.78,0-1.39-.43-2.87,.11-4.21,.36-.89,.95-1.31,2.06-1.39,4.86-.33,9.71-.05,14.56,0,.66,0,1.31,.07,1.94,.23,.96,.25,1.3,.63,1.23,1.52-.12,1.5,.12,2.73-.08,4.23-.15,1.13-.51,1.35-1.81,1.25-.73-.05-1.42,.2-2.15,.18-.93-.04-.99,0-1.02,.83-.08,2.02-.53,20.76-.63,27.8,.04,.83,.19,1.16,1.79,1.08,.61-.03,1.23-.07,1.84-.05,1.3,.04,2,.59,2.03,1.75,.04,1.36,0,2.38-.06,3.74-.02,.49-.44,1.11-1.49,1.11-.45,0-16.35,0-16.59,0-1.86,.06-2.72,.07-2.91-1.66-.09-.8-.14-1.61-.14-2.42,0-1.33,.26-2.36,1.74-2.36,1.24,0,2.45,.03,3.55-.02,1-.05,1.18-.23,1.19-1.13,.08-4.68,.2-22.68,.34-27.34Z"/><path class="aa" d="M144.18,284.09c.42-.14,.48-.5,.65-.77,3.27-5.35,6.57-10.94,9.82-16.3,.31-.51,.66-.77,1.35-.75,1.83,.04,4.25-.02,6.09,0,1.05,.01,1.19,.12,1.21,1.03,.05,2.3,.06,4.85,.06,7.16,.02,10.97,.04,21.73,.06,32.7,0,1.6,0,1.56-1.86,1.58-2.27,.04-4.95,0-7.11,0-1.12-.03-1.18-.14-1.18-1.11,.03-7.24,.17-12.95,.34-20.19,0-.18,0-.36,0-.6-.53,.05-.55,.45-.7,.7-1.54,2.68-3.22,5.29-4.86,7.92-.42,.67-.91,.94-1.77,.91-1.62-.05-3.25-.06-4.88,0-.91,.03-1.37-.37-1.77-.98-1.17-1.81-2.35-3.62-3.52-5.43-.66-1.01-1.31-2.03-1.97-3.03-.42,.11-.3,.37-.3,.56,0,6.51-.05,11.71,.17,18.21,.03,.8-.07,1.6-.08,2.41,0,.5-.27,.74-.83,.75-.17,0-.33,0-.5,0-2.54-.05-5.91-.08-8.45-.15-1.32-.03-1.41-.13-1.38-1.29,0-7.05,.14-32.47,.34-38.28,.08-2.32,.36-2.81,2.98-2.87,1.54-.04,4.6,.03,6.15,0,.72-.01,1.1,.24,1.44,.81,3.27,5.35,6.56,10.91,9.86,16.25,.17,.28,.28,.61,.64,.77Z"/><path class="aa" d="M191.51,284.66c.26,.34,.57,.34,.83,.45,4.83,1.93,7.26,5.48,7.6,10.25,.56,7.86-5.98,15.63-14.11,17.3-2.24,.46-4.49,.63-6.75,.13-1.23-.27-2.41-.69-3.44-1.39-.49-.33-.97-.47-1.58-.42-.77,.07-1.54,.04-2.31-.05-1-.12-1.72-.58-2.18-1.43-.56-1.02-.93-2.1-1.23-3.2-.87-3.26-1.14-6.58-1.27-9.92-.23-6.12,.24-12.21,1.16-18.27,.5-3.31,1.1-6.59,1.84-9.86,.17-.74,.51-1.16,1.31-1.41,5.86-1.84,11.69-1.92,17.48,.2,2.46,.9,4.55,2.31,6.17,4.29,2.18,2.68,2.4,5.56,.93,8.57-.7,1.44-1.77,2.63-3.05,3.65-.46,.37-.93,.72-1.43,1.1Zm-15.61,9.4s.05,0,.07,0c.14,1.51,.23,3.02,.42,4.52s.52,2.99,.69,4.49c.11,.96,.65,1.35,1.59,1.53,3.36,.66,6.26-.22,8.74-2.33,2.09-1.77,3.17-4.03,2.92-6.69-.28-2.98-1.97-5.11-4.93-6.22-3.12-1.16-6.11-.7-8.88,1.04-.47,.3-.67,.7-.64,1.26,.05,.79,.01,1.59,.01,2.38Zm.22-11.76c-.02,.38-.04,.76-.07,1.13-.06,.99-.03,1.05,1.05,.89,3.22-.48,6.13-1.65,8.62-3.66,.77-.62,1.43-1.34,1.99-2.13,2.38-3.38,1.11-6.58-3.05-7.64-2.04-.52-4.08-.38-6.14-.05-.74,.12-1.01,.43-1.14,1.08-.65,3.44-1.07,6.9-1.28,10.38Z"/><path class="aa" d="M202.05,287.23c.05-4.8,.4-10.03,1.53-15.19,.19-.86,.43-1.7,.7-2.54,.78-2.49,2.63-3.85,5.63-3.95,2.64-.08,5.29-.01,7.93,0,2.26,.02,4.5,.19,6.74,.46,.89,.11,1.4,.51,1.65,1.24,.61,1.78,.62,3.6,.46,5.42-.06,.66-.45,.93-1.23,.93-.69,0-1.38-.12-2.07-.18-2.73-.23-5.45-.26-8.15,.3-1.12,.23-1.12,.24-1.3,1.25-.46,2.55-.76,5.12-.98,7.69-.08,.99-.05,.99,1.11,.96,1.56-.05,3.12-.08,4.68,.03,1.92,.14,2.29,.49,2.56,2.12,.19,1.15-.03,2.28-.14,3.4-.08,.82-.65,1.56-2.13,1.65-1.77,.11-3.54,.24-5.32,.36-1.14,.08-1.16,.08-1.14,1.06,.03,2.51,.13,5.01,.5,7.5,.15,1,.17,1,1.31,1.25,1.28,.27,2.58,.28,3.88,.19,1.34-.09,2.68-.16,4.03-.09,2.32,.12,2.87,.58,3.11,2.59,.11,.99,.04,1.98-.14,2.95-.24,1.28-.82,1.75-2.27,2-1.54,.26-3.1,.29-4.66,.37-3.47,.17-6.93,.27-10.37-.34-.42-.08-.84-.18-1.26-.28-.91-.21-1.46-.71-1.8-1.49-1.13-2.53-1.68-5.18-2.08-7.85-.57-3.77-.76-7.56-.79-11.8Z"/><path class="aa" d="M246.78,295.72c.13,.39,.47,.65,.73,.94,2.8,3.14,5.6,6.26,8.39,9.4,1.12,1.26,1.08,2.21-.31,3.24-1.94,1.45-4.17,1.82-6.6,1.12-.52-.15-.86-.48-1.18-.85-1.04-1.21-2.09-2.41-3.11-3.64-1.64-1.96-3.24-3.93-4.87-5.9-.22-.26-.38-.58-.77-.74-.29,.39-.2,.78-.21,1.14-.05,2.18-.07,4.35-.13,6.53-.02,.68,0,1.39-.41,2-.59,.88-1.51,1.34-2.61,1.5-2.08,.3-3.97-.24-5.74-1.18-.51-.27-.71-.71-.84-1.22-.48-1.92-.55-3.86-.57-5.81-.06-3.78-.1-7.56-.06-11.35,.07-6.66,.73-13.27,1.76-19.86,.27-1.74,1.1-2.79,3.05-3.36,5.4-1.57,10.72-1.77,15.97,.37,7.2,2.93,10.53,9.64,8.18,16.4-1.58,4.55-4.85,7.91-9.29,10.43-.46,.26-.99,.44-1.38,.81Zm-7.71-4.93c.44,.08,.66-.05,.88-.16,2.77-1.24,5.04-2.99,6.74-5.31,.97-1.32,1.68-2.75,1.92-4.33,.43-2.83-.35-5.25-3.15-6.88-1.62-.95-3.46-1.24-5.38-1.21-.57,.01-.76,.23-.74,.7,.01,.27,0,.53-.01,.8-.09,4.62-.18,9.24-.26,13.86-.02,.84,0,1.67,0,2.53Z"/><path class="aa" d="M299.83,291.3c-.13,5.1-.26,10.21-.39,15.31,0,.15-.04,.31-.01,.46,.31,1.46-.59,2.24-1.76,2.77-1.91,.87-3.85,.83-5.71-.16-1.15-.61-1.79-1.53-1.75-2.9,.15-5.41-.22-10.82-.16-16.24,.06-5.18,.18-8.57,.27-13.75,0-.23,0-.46,.02-.69,.02-.37-.13-.58-.54-.57-.28,0-.55,0-.83,0-3.33,.01-6.66,0-9.99,.05-.83,.01-1.34-.31-1.77-.91-1.12-1.59-1.27-5.72,.21-7.03,.6-.53,1.75-.7,2.37-.7,8.8,0,17.6,0,26.4,0,.75,0,2.53-.04,3.28,0,3.23,0,3.38,4.85,2.09,7.1-.47,.83-1.14,1.29-2.2,1.28-2.57-.04-5.08,.04-7.72,.1-.27-.02-.55,.04-.83,.05-.39,.01-.55,.22-.57,.58-.03,.61-.08,1.23-.09,1.84-.1,5.07-.2,8.34-.29,13.41h-.02Z"/><path class="aa" d="M339.17,290.93c-.12,4.64-.61,10.11-2.67,15.39-.51,1.32-1.18,2.56-2.04,3.72-.3,.41-.65,.75-1.14,.97-1.8,.79-3.66,.95-5.55,.34-1.14-.37-1.26-.68-.83-1.7,1.96-4.59,3.02-9.35,3.57-14.21,.1-.92,.08-.97-.97-.87-3.4,.31-6.8,.66-10.2,.96-.79,.07-.9,.46-.89,1.04,.04,4.66,.64,9.24,2.23,13.7,.53,1.49,.03,2.89-1.46,3.7-1.94,1.07-3.96,1.01-5.98,.15-.56-.24-.81-.7-1.08-1.16-1.6-2.79-2.44-5.79-2.81-8.87-1.25-10.53,.64-20.6,5.82-30.15,1.07-1.97,2.38-3.81,3.94-5.49,2.37-2.57,5.41-3.31,8.96-2.54,2.1,.46,3.77,1.53,5.17,2.99,1.85,1.94,3.04,4.17,3.84,6.59,1.57,4.76,2.07,9.63,2.11,15.44Zm-13.23-18.98c-.6,.43-.84,.91-1.13,1.35-3.4,5.05-5.03,10.61-5.89,16.39-.15,1.03-.07,1.08,1.1,1,3.23-.22,6.46-.45,9.7-.68,.97-.07,.98-.07,.96-1.01-.07-4.1-.72-8.13-2.18-12.03-.65-1.73-1.42-3.4-2.57-5.02Z"/><path class="aa" d="M366.63,308.01c-.07,.54-.47,.84-.94,1.03-.49,.2-1.01,.27-1.55,.27-1.53,0-14.7,0-19.66,.06-1.28,.02-1.77-.42-1.86-1.7-.08-1.18-.04-2.17-.05-3.36-.02-5.5-.03-11.01-.05-16.51h-.04c.01-3.27,.05-6.54,.03-9.82s-.09-6.54-.13-9.82c-.01-1.16,.09-1.31,1.17-1.73,1.37-.54,2.81-.48,4.24-.39,.9,.06,1.9,.19,2.74,.57,.83,.38,1.78,1.03,1.78,2.06,0,5.58-.17,27.24-.13,32.67,0,.22,.01,.45,.02,.67,.01,.33,.19,.44,.51,.44,.51,0,8.56-.03,12.19-.03,.87,0,1.34,.34,1.55,1.16,.38,1.46,.33,2.95,.15,4.43Z"/><path class="aa" d="M367.79,287.23c.05-4.8,.4-10.03,1.53-15.19,.19-.86,.43-1.7,.7-2.54,.78-2.49,2.63-3.85,5.63-3.95,2.64-.08,5.29-.01,7.93,0,2.26,.02,4.5,.19,6.74,.46,.89,.11,1.4,.51,1.65,1.24,.61,1.78,.62,3.6,.46,5.42-.06,.66-.45,.93-1.23,.93-.69,0-1.38-.12-2.07-.18-2.73-.23-5.45-.26-8.15,.3-1.12,.23-1.12,.24-1.3,1.25-.46,2.55-.76,5.12-.98,7.69-.08,.99-.05,.99,1.11,.96,1.56-.05,3.12-.08,4.68,.03,1.92,.14,2.29,.49,2.56,2.12,.19,1.15-.03,2.28-.14,3.4-.08,.82-.65,1.56-2.13,1.65-1.77,.11-3.54,.24-5.32,.36-1.14,.08-1.16,.08-1.14,1.06,.03,2.51,.13,5.01,.5,7.5,.15,1,.17,1,1.31,1.25,1.28,.27,2.58,.28,3.88,.19,1.34-.09,2.68-.16,4.03-.09,2.32,.12,2.87,.58,3.11,2.59,.11,.99,.04,1.98-.14,2.95-.24,1.28-.82,1.75-2.27,2-1.54,.26-3.1,.29-4.66,.37-3.47,.17-6.93,.27-10.37-.34-.42-.08-.84-.18-1.26-.28-.91-.21-1.46-.71-1.8-1.49-1.13-2.53-1.68-5.18-2.08-7.85-.57-3.77-.76-7.56-.79-11.8Z"/></g><line class="p" x1="63" y1="41.76" x2="63" y2="343.25"/><line class="p" x1="392.59" y1="41.77" x2="392.59" y2="343.25"/><polygon class="y" points="62.81 315.02 41.43 315.02 41.43 336.41 62.81 336.41 62.81 315.02 62.81 315.02"/><polygon class="y" points="414 315.05 392.62 315.05 392.62 336.43 414 336.43 414 315.05 414 315.05"/><polygon class="y" points="414.45 42.45 392.02 42.45 392.02 63.83 414.45 63.83 414.45 42.45 414.45 42.45"/><line class="q" x1="29.32" y1="314.89" x2="451.41" y2="314.89"/><text class="t" transform="translate(44.58 327.65)"><tspan x="0" y="0" xml:space="preserve">1/2  </tspan></text><text class="s" transform="translate(55.34 327.65) scale(.7)"><tspan x="0" y="0">X</tspan></text><text class="t" transform="translate(396.33 328.07)"><tspan x="0" y="0" xml:space="preserve">1/2  </tspan></text><text class="s" transform="translate(407.09 328.07) scale(.7)"><tspan x="0" y="0">X</tspan></text><text class="t" transform="translate(396.01 55.47)"><tspan x="0" y="0" xml:space="preserve">1/2  </tspan></text><text class="s" transform="translate(406.77 55.47) scale(.7)"><tspan x="0" y="0">X</tspan></text><text class="r" transform="translate(27.54 203.37) scale(.7)"><tspan x="0" y="0">X</tspan></text><text class="r" transform="translate(419.57 203.1) scale(.7)"><tspan x="0" y="0">X</tspan></text><g/><g><path class="n" d="M293.79,110.48s-40.71-5.67-74.31-46.63v-.04l-.02,.02-.02-.02v.04c-33.61,40.96-74.31,46.63-74.31,46.63,1.11,97.63,72.74,121.39,74.31,121.9h.04c1.57-.51,73.21-24.28,74.31-121.9Z"/><path class="w" d="M218.82,86.76l.64,.78,.64-.78c21.71,21.12,44.24,30.93,58.12,35.32-2.41,30.78-13,55.85-31.56,74.63-10.59,10.71-21.3,16.66-27.2,19.42-5.91-2.76-16.61-8.71-27.2-19.42-18.57-18.78-29.16-43.85-31.56-74.63,13.87-4.39,36.41-14.2,58.12-35.32m.66-22.95l-.02,.02-.02-.02v.04c-33.61,40.96-74.31,46.63-74.31,46.63,1.11,97.63,72.74,121.39,74.31,121.9h.04c1.57-.51,73.21-24.28,74.31-121.9,0,0-40.71-5.67-74.31-46.63v-.04h0Z"/><path class="a`" d="M239.29,157.19c2.39,2.69,18.21,10.45,24.17-4.48,13.43,1.64,15.07-23.88,10-26.56,8.65-2.98,9.1-35.66-17.76-34.77,0,0-11.49-20.89-31.49-5.67-10-10.45-32.23-3.73-38.05,13.13-8.36-3.28-29.4,15.37-20.89,29.4-7.31,2.39-2.69,29.7,14.92,23.58,0,0,8.21,13.43,23.58,4.48s35.52,.9,35.52,.9Z"/><g class="ae"><path class="ad" d="M312.61,102.46s-3.74-16.23-25.53-17.94c-.99-.08-1.97-.21-2.95-.36-.65-7.88-8.33-18.01-23.66-14.4,0,0-4.82-5.84-14.18-7.14-.14-.14-.21-.22-.21-.22-1.62-3.69-16.68-19.73-30.11-10.77-13.54-8.57-25.47,7.44-24.06,14.47-5.38-1.24-8.85-2.51-8.85-2.51-3.09-2.59-23.73-10.22-31.76,3.79-17.59-1.8-20.08,22.31-13.47,24.95-11.39,2.66-12.41,33.57,22.82,33.23,0,0,14.79,19.98,41.21,5.95,7.63,5.92,20.88,6.3,32.1,2.39,8.84,13.26,35.36,19.64,48.7,9.53,8.31,7.79,40.93,4.76,37.1-12.15,9.56,2.39,16.02-23.35-7.16-28.8Z"/><path class="ac" d="M245.1,62.06c-1.09-3.09-12.17-16.12-23.2-7.75-11.3-7.38-22.56,10.86-19.09,15.18-8.84-1.75-21.79,22.37,2.42,34.02,0,0,2.19,20.82,25.8,18.66,4.87,12.36,27.21,17.56,38.86,7.68,6.16,6.28,32.03,2.04,29.86-12.3,7.41,1.58,13.79-20.87-4.2-24.39,0,0-2.13-13.76-19.23-14.15-17.1-.38-31.22-16.95-31.22-16.95Z"/></g><path class="x" d="M195.15,199.61c6.04-6.94,29.66-34.86-7.61-57.08-10.41-8.79,1.34-1.57,1.34-1.57,0,0,9.77,6.42,15.22,8.51s-4.92-11.19-9.4-13.43-2.27-2.47-.07-1.57c2.54,1.04,8.15,6.21,11.49,10,6.64,7.54,4.4-6.08,8.43-12.68s1.64,0-.15,5.37,2.91,14.03,5.75,13.43,7.31-5.97,6.27-12.39c-1.04-6.42-2.98-13.65,1.04-4.03,4.03,9.62-1.72,10.74-1.49,13.73s6.34-1.79,8.8-5.37c2.46-3.58,7.54-7.09,7.76-6.49s-3.21,2.76-5.07,5.45c-1.87,2.69-2.31,1.57-3.36,10.67-1.04,9.1,13.73-6.79,16.41-10.82,2.69-4.03,2.39-.3-.52,2.84-2.91,3.13-16.08,15.44-15.37,31.78,.71,16.34,8.06,24.62,8.06,24.62,0,0-18.5,15.82-23.2,16-9.14-3.66-24.32-16.97-24.32-16.97Z"/><path class="ab" d="M219.54,150.58c-2.84-.57-6.8-8.41-5.14-13.42,1.79-5.37,4.18-11.98,.15-5.37-4.03,6.6-1.79,20.22-8.43,12.68-3.34-3.79-8.95-8.95-11.49-10-2.2-.91-4.4-.67,.07,1.57s14.85,15.52,9.4,13.43c-5.45-2.09-15.22-8.51-15.22-8.51,0,0-11.75-7.22-1.34,1.57,37.27,22.22,13.65,50.14,7.61,57.08,0,0,15.18,13.32,24.32,16.97,.02,0,.04,0,.06,0v-66Z"/></g><rect class="y" x="203.52" y="233.54" width="32" height="32"/><text class="u" transform="translate(210 253.78)"><tspan x="0" y="0">1/8 </tspan></text><text class="u" transform="translate(225.81 253.78) scale(.7)"><tspan x="0" y="0">X</tspan></text><line class="q" x1="62.82" y1="233.32" x2="392.45" y2="233.32"/><line class="q" x1="57.85" y1="63.37" x2="395.61" y2="63.37"/><line class="q" x1="63.11" y1="265.29" x2="392.74" y2="265.29"/><g><rect class="y" x="-.09" y="-.06" width="64" height="64"/><text class="v" transform="translate(13.08 37.28)"><tspan x="0" y="0" xml:space="preserve">1/4  </tspan></text><text class="v" transform="translate(45.35 37.28) scale(.7)"><tspan x="0" y="0">X</tspan></text></g><g><rect class="y" x="391.75" y="-.15" width="64" height="64"/><text class="v" transform="translate(404.92 37.18)"><tspan x="0" y="0" xml:space="preserve">1/4  </tspan></text><text class="v" transform="translate(437.19 37.18) scale(.7)"><tspan x="0" y="0">X</tspan></text></g><g><rect class="y" x="391.93" y="314.52" width="64" height="64"/><text class="v" transform="translate(405.11 351.86)"><tspan x="0" y="0" xml:space="preserve">1/4  </tspan></text><text class="v" transform="translate(437.38 351.86) scale(.7)"><tspan x="0" y="0">X</tspan></text></g><g><rect class="y" x="-.19" y="314.47" width="64" height="64"/><text class="v" transform="translate(12.99 351.81)"><tspan x="0" y="0" xml:space="preserve">1/4  </tspan></text><text class="v" transform="translate(45.26 351.81) scale(.7)"><tspan x="0" y="0">X</tspan></text></g></g><g id="j"/><g id="k"/><g id="l"/><g id="m"/></svg>