<svg width="560" height="926" viewBox="0 0 560 926" fill="none" xmlns="http://www.w3.org/2000/svg">
<rect width="428" height="926" fill="#FFF8EC"/>
<line y1="-0.5" x2="1000.5" y2="-0.5" transform="matrix(-0.392803 0.919623 -0.199047 -0.97999 410 0)" stroke="black"/>
<line y1="-0.5" x2="1002.88" y2="-0.5" transform="matrix(0.391002 0.92039 -0.200087 0.979778 17.8718 2.95837)" stroke="black"/>
<rect width="288" height="80" transform="translate(70 423)" fill="#F4F4F4"/>
<rect x="70" y="423" width="288" height="80" rx="12" fill="#EB6A00"/>
<path d="M184.48 473.21C182.94 473.21 181.56 472.96 180.34 472.46C179.12 471.96 178.14 471.22 177.4 470.24C176.68 469.26 176.3 468.08 176.26 466.7H181.72C181.8 467.48 182.07 468.08 182.53 468.5C182.99 468.9 183.59 469.1 184.33 469.1C185.09 469.1 185.69 468.93 186.13 468.59C186.57 468.23 186.79 467.74 186.79 467.12C186.79 466.6 186.61 466.17 186.25 465.83C185.91 465.49 185.48 465.21 184.96 464.99C184.46 464.77 183.74 464.52 182.8 464.24C181.44 463.82 180.33 463.4 179.47 462.98C178.61 462.56 177.87 461.94 177.25 461.12C176.63 460.3 176.32 459.23 176.32 457.91C176.32 455.95 177.03 454.42 178.45 453.32C179.87 452.2 181.72 451.64 184 451.64C186.32 451.64 188.19 452.2 189.61 453.32C191.03 454.42 191.79 455.96 191.89 457.94H186.34C186.3 457.26 186.05 456.73 185.59 456.35C185.13 455.95 184.54 455.75 183.82 455.75C183.2 455.75 182.7 455.92 182.32 456.26C181.94 456.58 181.75 457.05 181.75 457.67C181.75 458.35 182.07 458.88 182.71 459.26C183.35 459.64 184.35 460.05 185.71 460.49C187.07 460.95 188.17 461.39 189.01 461.81C189.87 462.23 190.61 462.84 191.23 463.64C191.85 464.44 192.16 465.47 192.16 466.73C192.16 467.93 191.85 469.02 191.23 470C190.63 470.98 189.75 471.76 188.59 472.34C187.43 472.92 186.06 473.21 184.48 473.21ZM204.647 468.65V473H202.037C200.177 473 198.727 472.55 197.687 471.65C196.647 470.73 196.127 469.24 196.127 467.18V460.52H194.087V456.26H196.127V452.18H201.257V456.26H204.617V460.52H201.257V467.24C201.257 467.74 201.377 468.1 201.617 468.32C201.857 468.54 202.257 468.65 202.817 468.65H204.647ZM206.485 464.6C206.485 462.88 206.805 461.37 207.445 460.07C208.105 458.77 208.995 457.77 210.115 457.07C211.235 456.37 212.485 456.02 213.865 456.02C215.045 456.02 216.075 456.26 216.955 456.74C217.855 457.22 218.545 457.85 219.025 458.63V456.26H224.155V473H219.025V470.63C218.525 471.41 217.825 472.04 216.925 472.52C216.045 473 215.015 473.24 213.835 473.24C212.475 473.24 211.235 472.89 210.115 472.19C208.995 471.47 208.105 470.46 207.445 469.16C206.805 467.84 206.485 466.32 206.485 464.6ZM219.025 464.63C219.025 463.35 218.665 462.34 217.945 461.6C217.245 460.86 216.385 460.49 215.365 460.49C214.345 460.49 213.475 460.86 212.755 461.6C212.055 462.32 211.705 463.32 211.705 464.6C211.705 465.88 212.055 466.9 212.755 467.66C213.475 468.4 214.345 468.77 215.365 468.77C216.385 468.77 217.245 468.4 217.945 467.66C218.665 466.92 219.025 465.91 219.025 464.63ZM232.996 459.05C233.596 458.13 234.346 457.41 235.246 456.89C236.146 456.35 237.146 456.08 238.246 456.08V461.51H236.836C235.556 461.51 234.596 461.79 233.956 462.35C233.316 462.89 232.996 463.85 232.996 465.23V473H227.866V456.26H232.996V459.05ZM250.028 468.65V473H247.418C245.558 473 244.108 472.55 243.068 471.65C242.028 470.73 241.508 469.24 241.508 467.18V460.52H239.468V456.26H241.508V452.18H246.638V456.26H249.998V460.52H246.638V467.24C246.638 467.74 246.758 468.1 246.998 468.32C247.238 468.54 247.638 468.65 248.198 468.65H250.028Z" fill="white"/>
<rect x="68" y="556" width="290" height="80" rx="12" fill="#EB6A00"/>
<path d="M144.1 584.94V606H138.97V597.33H130.99V606H125.86V584.94H130.99V593.19H138.97V584.94H144.1ZM155.423 606.24C153.783 606.24 152.303 605.89 150.983 605.19C149.683 604.49 148.653 603.49 147.893 602.19C147.153 600.89 146.783 599.37 146.783 597.63C146.783 595.91 147.163 594.4 147.923 593.1C148.683 591.78 149.723 590.77 151.043 590.07C152.363 589.37 153.843 589.02 155.483 589.02C157.123 589.02 158.603 589.37 159.923 590.07C161.243 590.77 162.283 591.78 163.043 593.1C163.803 594.4 164.183 595.91 164.183 597.63C164.183 599.35 163.793 600.87 163.013 602.19C162.253 603.49 161.203 604.49 159.863 605.19C158.543 605.89 157.063 606.24 155.423 606.24ZM155.423 601.8C156.403 601.8 157.233 601.44 157.913 600.72C158.613 600 158.963 598.97 158.963 597.63C158.963 596.29 158.623 595.26 157.943 594.54C157.283 593.82 156.463 593.46 155.483 593.46C154.483 593.46 153.653 593.82 152.993 594.54C152.333 595.24 152.003 596.27 152.003 597.63C152.003 598.97 152.323 600 152.963 600.72C153.623 601.44 154.443 601.8 155.423 601.8ZM190.935 589.26L186.405 606H180.735L178.095 595.14L175.365 606H169.725L165.165 589.26H170.295L172.665 601.23L175.485 589.26H180.915L183.765 601.17L186.105 589.26H190.935ZM208.579 601.65V606H205.969C204.109 606 202.659 605.55 201.619 604.65C200.579 603.73 200.059 602.24 200.059 600.18V593.52H198.019V589.26H200.059V585.18H205.189V589.26H208.549V593.52H205.189V600.24C205.189 600.74 205.309 601.1 205.549 601.32C205.789 601.54 206.189 601.65 206.749 601.65H208.579ZM219.056 606.24C217.416 606.24 215.936 605.89 214.616 605.19C213.316 604.49 212.286 603.49 211.526 602.19C210.786 600.89 210.416 599.37 210.416 597.63C210.416 595.91 210.796 594.4 211.556 593.1C212.316 591.78 213.356 590.77 214.676 590.07C215.996 589.37 217.476 589.02 219.116 589.02C220.756 589.02 222.236 589.37 223.556 590.07C224.876 590.77 225.916 591.78 226.676 593.1C227.436 594.4 227.816 595.91 227.816 597.63C227.816 599.35 227.426 600.87 226.646 602.19C225.886 603.49 224.836 604.49 223.496 605.19C222.176 605.89 220.696 606.24 219.056 606.24ZM219.056 601.8C220.036 601.8 220.866 601.44 221.546 600.72C222.246 600 222.596 598.97 222.596 597.63C222.596 596.29 222.256 595.26 221.576 594.54C220.916 593.82 220.096 593.46 219.116 593.46C218.116 593.46 217.286 593.82 216.626 594.54C215.966 595.24 215.636 596.27 215.636 597.63C215.636 598.97 215.956 600 216.596 600.72C217.256 601.44 218.076 601.8 219.056 601.8ZM252.945 591.72C252.945 592.94 252.665 594.06 252.105 595.08C251.545 596.08 250.685 596.89 249.525 597.51C248.365 598.13 246.925 598.44 245.205 598.44H242.025V606H236.895V584.94H245.205C246.885 584.94 248.305 585.23 249.465 585.81C250.625 586.39 251.495 587.19 252.075 588.21C252.655 589.23 252.945 590.4 252.945 591.72ZM244.815 594.36C245.795 594.36 246.525 594.13 247.005 593.67C247.485 593.21 247.725 592.56 247.725 591.72C247.725 590.88 247.485 590.23 247.005 589.77C246.525 589.31 245.795 589.08 244.815 589.08H242.025V594.36H244.815ZM260.746 583.8V606H255.616V583.8H260.746ZM263.444 597.6C263.444 595.88 263.764 594.37 264.404 593.07C265.064 591.77 265.954 590.77 267.074 590.07C268.194 589.37 269.444 589.02 270.824 589.02C272.004 589.02 273.034 589.26 273.914 589.74C274.814 590.22 275.504 590.85 275.984 591.63V589.26H281.114V606H275.984V603.63C275.484 604.41 274.784 605.04 273.884 605.52C273.004 606 271.974 606.24 270.794 606.24C269.434 606.24 268.194 605.89 267.074 605.19C265.954 604.47 265.064 603.46 264.404 602.16C263.764 600.84 263.444 599.32 263.444 597.6ZM275.984 597.63C275.984 596.35 275.624 595.34 274.904 594.6C274.204 593.86 273.344 593.49 272.324 593.49C271.304 593.49 270.434 593.86 269.714 594.6C269.014 595.32 268.664 596.32 268.664 597.6C268.664 598.88 269.014 599.9 269.714 600.66C270.434 601.4 271.304 601.77 272.324 601.77C273.344 601.77 274.204 601.4 274.904 600.66C275.624 599.92 275.984 598.91 275.984 597.63ZM301.925 589.26L291.425 613.95H285.905L289.745 605.43L282.935 589.26H288.665L292.535 599.73L296.375 589.26H301.925Z" fill="white"/>
<rect x="69" y="690" width="288" height="130" rx="12" fill="#999529"/>
<path d="M132.127 745.04H138.847V749H126.997V727.94H132.127V745.04ZM157.074 740.36C157.074 740.84 157.044 741.34 156.984 741.86H145.374C145.454 742.9 145.784 743.7 146.364 744.26C146.964 744.8 147.694 745.07 148.554 745.07C149.834 745.07 150.724 744.53 151.224 743.45H156.684C156.404 744.55 155.894 745.54 155.154 746.42C154.434 747.3 153.524 747.99 152.424 748.49C151.324 748.99 150.094 749.24 148.734 749.24C147.094 749.24 145.634 748.89 144.354 748.19C143.074 747.49 142.074 746.49 141.354 745.19C140.634 743.89 140.274 742.37 140.274 740.63C140.274 738.89 140.624 737.37 141.324 736.07C142.044 734.77 143.044 733.77 144.324 733.07C145.604 732.37 147.074 732.02 148.734 732.02C150.354 732.02 151.794 732.36 153.054 733.04C154.314 733.72 155.294 734.69 155.994 735.95C156.714 737.21 157.074 738.68 157.074 740.36ZM151.824 739.01C151.824 738.13 151.524 737.43 150.924 736.91C150.324 736.39 149.574 736.13 148.674 736.13C147.814 736.13 147.084 736.38 146.484 736.88C145.904 737.38 145.544 738.09 145.404 739.01H151.824ZM158.76 740.6C158.76 738.88 159.08 737.37 159.72 736.07C160.38 734.77 161.27 733.77 162.39 733.07C163.51 732.37 164.76 732.02 166.14 732.02C167.32 732.02 168.35 732.26 169.23 732.74C170.13 733.22 170.82 733.85 171.3 734.63V732.26H176.43V749H171.3V746.63C170.8 747.41 170.1 748.04 169.2 748.52C168.32 749 167.29 749.24 166.11 749.24C164.75 749.24 163.51 748.89 162.39 748.19C161.27 747.47 160.38 746.46 159.72 745.16C159.08 743.84 158.76 742.32 158.76 740.6ZM171.3 740.63C171.3 739.35 170.94 738.34 170.22 737.6C169.52 736.86 168.66 736.49 167.64 736.49C166.62 736.49 165.75 736.86 165.03 737.6C164.33 738.32 163.98 739.32 163.98 740.6C163.98 741.88 164.33 742.9 165.03 743.66C165.75 744.4 166.62 744.77 167.64 744.77C168.66 744.77 169.52 744.4 170.22 743.66C170.94 742.92 171.3 741.91 171.3 740.63ZM185.271 735.05C185.871 734.13 186.621 733.41 187.521 732.89C188.421 732.35 189.421 732.08 190.521 732.08V737.51H189.111C187.831 737.51 186.871 737.79 186.231 738.35C185.591 738.89 185.271 739.85 185.271 741.23V749H180.141V732.26H185.271V735.05ZM203.173 732.08C205.133 732.08 206.693 732.72 207.853 734C209.033 735.26 209.623 737 209.623 739.22V749H204.523V739.91C204.523 738.79 204.233 737.92 203.653 737.3C203.073 736.68 202.293 736.37 201.313 736.37C200.333 736.37 199.553 736.68 198.973 737.3C198.393 737.92 198.103 738.79 198.103 739.91V749H192.973V732.26H198.103V734.48C198.623 733.74 199.323 733.16 200.203 732.74C201.083 732.3 202.073 732.08 203.173 732.08ZM240.906 732.08C242.986 732.08 244.636 732.71 245.856 733.97C247.096 735.23 247.716 736.98 247.716 739.22V749H242.616V739.91C242.616 738.83 242.326 738 241.746 737.42C241.186 736.82 240.406 736.52 239.406 736.52C238.406 736.52 237.616 736.82 237.036 737.42C236.476 738 236.196 738.83 236.196 739.91V749H231.096V739.91C231.096 738.83 230.806 738 230.226 737.42C229.666 736.82 228.886 736.52 227.886 736.52C226.886 736.52 226.096 736.82 225.516 737.42C224.956 738 224.676 738.83 224.676 739.91V749H219.546V732.26H224.676V734.36C225.196 733.66 225.876 733.11 226.716 732.71C227.556 732.29 228.506 732.08 229.566 732.08C230.826 732.08 231.946 732.35 232.926 732.89C233.926 733.43 234.706 734.2 235.266 735.2C235.846 734.28 236.636 733.53 237.636 732.95C238.636 732.37 239.726 732.08 240.906 732.08ZM258.923 749.24C257.283 749.24 255.803 748.89 254.483 748.19C253.183 747.49 252.153 746.49 251.393 745.19C250.653 743.89 250.283 742.37 250.283 740.63C250.283 738.91 250.663 737.4 251.423 736.1C252.183 734.78 253.223 733.77 254.543 733.07C255.863 732.37 257.343 732.02 258.983 732.02C260.623 732.02 262.103 732.37 263.423 733.07C264.743 733.77 265.783 734.78 266.543 736.1C267.303 737.4 267.683 738.91 267.683 740.63C267.683 742.35 267.293 743.87 266.513 745.19C265.753 746.49 264.703 747.49 263.363 748.19C262.043 748.89 260.563 749.24 258.923 749.24ZM258.923 744.8C259.903 744.8 260.733 744.44 261.413 743.72C262.113 743 262.463 741.97 262.463 740.63C262.463 739.29 262.123 738.26 261.443 737.54C260.783 736.82 259.963 736.46 258.983 736.46C257.983 736.46 257.153 736.82 256.493 737.54C255.833 738.24 255.503 739.27 255.503 740.63C255.503 741.97 255.823 743 256.463 743.72C257.123 744.44 257.943 744.8 258.923 744.8ZM275.535 735.05C276.135 734.13 276.885 733.41 277.785 732.89C278.685 732.35 279.685 732.08 280.785 732.08V737.51H279.375C278.095 737.51 277.135 737.79 276.495 738.35C275.855 738.89 275.535 739.85 275.535 741.23V749H270.405V732.26H275.535V735.05ZM299.017 740.36C299.017 740.84 298.987 741.34 298.927 741.86H287.317C287.397 742.9 287.727 743.7 288.307 744.26C288.907 744.8 289.637 745.07 290.497 745.07C291.777 745.07 292.667 744.53 293.167 743.45H298.627C298.347 744.55 297.837 745.54 297.097 746.42C296.377 747.3 295.467 747.99 294.367 748.49C293.267 748.99 292.037 749.24 290.677 749.24C289.037 749.24 287.577 748.89 286.297 748.19C285.017 747.49 284.017 746.49 283.297 745.19C282.577 743.89 282.217 742.37 282.217 740.63C282.217 738.89 282.567 737.37 283.267 736.07C283.987 734.77 284.987 733.77 286.267 733.07C287.547 732.37 289.017 732.02 290.677 732.02C292.297 732.02 293.737 732.36 294.997 733.04C296.257 733.72 297.237 734.69 297.937 735.95C298.657 737.21 299.017 738.68 299.017 740.36ZM293.767 739.01C293.767 738.13 293.467 737.43 292.867 736.91C292.267 736.39 291.517 736.13 290.617 736.13C289.757 736.13 289.027 736.38 288.427 736.88C287.847 737.38 287.487 738.09 287.347 739.01H293.767ZM116.177 773.6C116.177 771.88 116.497 770.37 117.137 769.07C117.797 767.77 118.687 766.77 119.807 766.07C120.927 765.37 122.177 765.02 123.557 765.02C124.737 765.02 125.767 765.26 126.647 765.74C127.547 766.22 128.237 766.85 128.717 767.63V765.26H133.847V782H128.717V779.63C128.217 780.41 127.517 781.04 126.617 781.52C125.737 782 124.707 782.24 123.527 782.24C122.167 782.24 120.927 781.89 119.807 781.19C118.687 780.47 117.797 779.46 117.137 778.16C116.497 776.84 116.177 775.32 116.177 773.6ZM128.717 773.63C128.717 772.35 128.357 771.34 127.637 770.6C126.937 769.86 126.077 769.49 125.057 769.49C124.037 769.49 123.167 769.86 122.447 770.6C121.747 771.32 121.397 772.32 121.397 773.6C121.397 774.88 121.747 775.9 122.447 776.66C123.167 777.4 124.037 777.77 125.057 777.77C126.077 777.77 126.937 777.4 127.637 776.66C128.357 775.92 128.717 774.91 128.717 773.63ZM142.688 767.63C143.168 766.85 143.858 766.22 144.758 765.74C145.658 765.26 146.688 765.02 147.848 765.02C149.228 765.02 150.478 765.37 151.598 766.07C152.718 766.77 153.598 767.77 154.238 769.07C154.898 770.37 155.228 771.88 155.228 773.6C155.228 775.32 154.898 776.84 154.238 778.16C153.598 779.46 152.718 780.47 151.598 781.19C150.478 781.89 149.228 782.24 147.848 782.24C146.668 782.24 145.638 782.01 144.758 781.55C143.878 781.07 143.188 780.44 142.688 779.66V782H137.558V759.8H142.688V767.63ZM150.008 773.6C150.008 772.32 149.648 771.32 148.928 770.6C148.228 769.86 147.358 769.49 146.318 769.49C145.298 769.49 144.428 769.86 143.708 770.6C143.008 771.34 142.658 772.35 142.658 773.63C142.658 774.91 143.008 775.92 143.708 776.66C144.428 777.4 145.298 777.77 146.318 777.77C147.338 777.77 148.208 777.4 148.928 776.66C149.648 775.9 150.008 774.88 150.008 773.6ZM165.54 782.24C163.9 782.24 162.42 781.89 161.1 781.19C159.8 780.49 158.77 779.49 158.01 778.19C157.27 776.89 156.9 775.37 156.9 773.63C156.9 771.91 157.28 770.4 158.04 769.1C158.8 767.78 159.84 766.77 161.16 766.07C162.48 765.37 163.96 765.02 165.6 765.02C167.24 765.02 168.72 765.37 170.04 766.07C171.36 766.77 172.4 767.78 173.16 769.1C173.92 770.4 174.3 771.91 174.3 773.63C174.3 775.35 173.91 776.87 173.13 778.19C172.37 779.49 171.32 780.49 169.98 781.19C168.66 781.89 167.18 782.24 165.54 782.24ZM165.54 777.8C166.52 777.8 167.35 777.44 168.03 776.72C168.73 776 169.08 774.97 169.08 773.63C169.08 772.29 168.74 771.26 168.06 770.54C167.4 769.82 166.58 769.46 165.6 769.46C164.6 769.46 163.77 769.82 163.11 770.54C162.45 771.24 162.12 772.27 162.12 773.63C162.12 774.97 162.44 776 163.08 776.72C163.74 777.44 164.56 777.8 165.54 777.8ZM193.551 765.26V782H188.421V779.72C187.901 780.46 187.191 781.06 186.291 781.52C185.411 781.96 184.431 782.18 183.351 782.18C182.071 782.18 180.941 781.9 179.961 781.34C178.981 780.76 178.221 779.93 177.681 778.85C177.141 777.77 176.871 776.5 176.871 775.04V765.26H181.971V774.35C181.971 775.47 182.261 776.34 182.841 776.96C183.421 777.58 184.201 777.89 185.181 777.89C186.181 777.89 186.971 777.58 187.551 776.96C188.131 776.34 188.421 775.47 188.421 774.35V765.26H193.551ZM206.566 777.65V782H203.956C202.096 782 200.646 781.55 199.606 780.65C198.566 779.73 198.046 778.24 198.046 776.18V769.52H196.006V765.26H198.046V761.18H203.176V765.26H206.536V769.52H203.176V776.24C203.176 776.74 203.296 777.1 203.536 777.32C203.776 777.54 204.176 777.65 204.736 777.65H206.566ZM229.491 760.94V765.05H220.911V769.49H227.331V773.48H220.911V782H215.781V760.94H229.491ZM239.807 782.24C238.167 782.24 236.687 781.89 235.367 781.19C234.067 780.49 233.037 779.49 232.277 778.19C231.537 776.89 231.167 775.37 231.167 773.63C231.167 771.91 231.547 770.4 232.307 769.1C233.067 767.78 234.107 766.77 235.427 766.07C236.747 765.37 238.227 765.02 239.867 765.02C241.507 765.02 242.987 765.37 244.307 766.07C245.627 766.77 246.667 767.78 247.427 769.1C248.187 770.4 248.567 771.91 248.567 773.63C248.567 775.35 248.177 776.87 247.397 778.19C246.637 779.49 245.587 780.49 244.247 781.19C242.927 781.89 241.447 782.24 239.807 782.24ZM239.807 777.8C240.787 777.8 241.617 777.44 242.297 776.72C242.997 776 243.347 774.97 243.347 773.63C243.347 772.29 243.007 771.26 242.327 770.54C241.667 769.82 240.847 769.46 239.867 769.46C238.867 769.46 238.037 769.82 237.377 770.54C236.717 771.24 236.387 772.27 236.387 773.63C236.387 774.97 236.707 776 237.347 776.72C238.007 777.44 238.827 777.8 239.807 777.8ZM256.419 768.05C257.019 767.13 257.769 766.41 258.669 765.89C259.569 765.35 260.569 765.08 261.669 765.08V770.51H260.259C258.979 770.51 258.019 770.79 257.379 771.35C256.739 771.89 256.419 772.85 256.419 774.23V782H251.289V765.26H256.419V768.05ZM279.901 773.36C279.901 773.84 279.871 774.34 279.811 774.86H268.201C268.281 775.9 268.611 776.7 269.191 777.26C269.791 777.8 270.521 778.07 271.381 778.07C272.661 778.07 273.551 777.53 274.051 776.45H279.511C279.231 777.55 278.721 778.54 277.981 779.42C277.261 780.3 276.351 780.99 275.251 781.49C274.151 781.99 272.921 782.24 271.561 782.24C269.921 782.24 268.461 781.89 267.181 781.19C265.901 780.49 264.901 779.49 264.181 778.19C263.461 776.89 263.101 775.37 263.101 773.63C263.101 771.89 263.451 770.37 264.151 769.07C264.871 767.77 265.871 766.77 267.151 766.07C268.431 765.37 269.901 765.02 271.561 765.02C273.181 765.02 274.621 765.36 275.881 766.04C277.141 766.72 278.121 767.69 278.821 768.95C279.541 770.21 279.901 771.68 279.901 773.36ZM274.651 772.01C274.651 771.13 274.351 770.43 273.751 769.91C273.151 769.39 272.401 769.13 271.501 769.13C270.641 769.13 269.911 769.38 269.311 769.88C268.731 770.38 268.371 771.09 268.231 772.01H274.651ZM289.417 782.24C287.957 782.24 286.657 781.99 285.517 781.49C284.377 780.99 283.477 780.31 282.817 779.45C282.157 778.57 281.787 777.59 281.707 776.51H286.777C286.837 777.09 287.107 777.56 287.587 777.92C288.067 778.28 288.657 778.46 289.357 778.46C289.997 778.46 290.487 778.34 290.827 778.1C291.187 777.84 291.367 777.51 291.367 777.11C291.367 776.63 291.117 776.28 290.617 776.06C290.117 775.82 289.307 775.56 288.187 775.28C286.987 775 285.987 774.71 285.187 774.41C284.387 774.09 283.697 773.6 283.117 772.94C282.537 772.26 282.247 771.35 282.247 770.21C282.247 769.25 282.507 768.38 283.027 767.6C283.567 766.8 284.347 766.17 285.367 765.71C286.407 765.25 287.637 765.02 289.057 765.02C291.157 765.02 292.807 765.54 294.007 766.58C295.227 767.62 295.927 769 296.107 770.72H291.367C291.287 770.14 291.027 769.68 290.587 769.34C290.167 769 289.607 768.83 288.907 768.83C288.307 768.83 287.847 768.95 287.527 769.19C287.207 769.41 287.047 769.72 287.047 770.12C287.047 770.6 287.297 770.96 287.797 771.2C288.317 771.44 289.117 771.68 290.197 771.92C291.437 772.24 292.447 772.56 293.227 772.88C294.007 773.18 294.687 773.68 295.267 774.38C295.867 775.06 296.177 775.98 296.197 777.14C296.197 778.12 295.917 779 295.357 779.78C294.817 780.54 294.027 781.14 292.987 781.58C291.967 782.02 290.777 782.24 289.417 782.24ZM308.666 777.65V782H306.056C304.196 782 302.746 781.55 301.706 780.65C300.666 779.73 300.146 778.24 300.146 776.18V769.52H298.106V765.26H300.146V761.18H305.276V765.26H308.636V769.52H305.276V776.24C305.276 776.74 305.396 777.1 305.636 777.32C305.876 777.54 306.276 777.65 306.836 777.65H308.666Z" fill="white"/>
<g clip-path="url(#clip0_203_786)">
<path d="M276.114 184.914C276.114 184.914 244.753 180.554 218.855 149.032V149.021L218.823 149V149.032C192.925 180.554 161.564 184.914 161.564 184.914C162.414 260.029 217.608 278.319 218.823 278.716H218.855C220.071 278.319 275.265 260.039 276.114 184.914Z" fill="url(#paint0_linear_203_786)"/>
<path d="M219.286 166.667C236.009 182.916 253.379 190.477 264.08 193.86C262.219 217.52 254.067 236.788 239.774 251.233C231.632 259.459 223.394 264.035 218.845 266.161C214.295 264.035 206.057 259.459 197.916 251.233C183.622 236.788 175.47 217.52 173.61 193.86C184.278 190.488 201.562 182.97 218.232 166.828L218.683 167.397L219.286 166.667ZM218.855 149V149.021L218.823 149V149.032C192.925 180.554 161.564 184.914 161.564 184.914C162.414 260.029 217.608 278.319 218.823 278.716H218.855C220.071 278.319 275.265 260.039 276.114 184.914C276.114 184.914 244.742 180.554 218.855 149.032V149V149Z" fill="#E96B24"/>
<path d="M234.117 220.85C235.956 222.912 248.141 228.883 252.744 217.402C263.09 218.669 264.359 199.026 260.445 196.964C267.113 194.666 267.457 169.524 246.764 170.211C246.764 170.211 237.913 154.134 222.501 165.851C214.801 157.817 197.668 162.983 193.184 175.957C186.741 173.433 170.534 187.782 177.084 198.575C171.448 200.412 175.019 221.43 188.581 216.715C188.581 216.715 194.904 227.047 206.746 220.162C218.587 213.278 234.106 220.85 234.106 220.85H234.117Z" fill="#386C37"/>
<path d="M259.971 213.525C262.015 210.185 262.735 205.395 262.413 201.786C260.402 201.486 258.713 200.831 257.702 199.81C251.507 205.051 241.398 204.772 234.493 200.981C233.073 201.733 231.578 202.377 230.019 202.914C235.407 210.98 249.303 215.727 259.971 213.525Z" fill="#458744"/>
<path d="M227.761 193.903C209.563 195.568 207.875 179.544 207.875 179.544C201.766 176.601 198.733 172.638 197.658 168.675C195.722 170.695 194.162 173.143 193.184 175.946C186.742 173.422 170.534 187.771 177.084 198.564C176.718 198.683 176.395 198.887 176.105 199.155C180.536 203.011 190.57 208.864 205.272 201.067C211.144 205.621 221.361 205.911 230.008 202.903C231.557 202.366 233.063 201.711 234.482 200.97C231.374 199.263 228.911 196.846 227.75 193.893L227.761 193.903Z" fill="#458744"/>
<path d="M207.875 179.544C207.875 179.544 209.563 195.568 227.761 193.903C228.922 196.857 231.385 199.273 234.493 200.981C241.398 204.783 251.507 205.051 257.702 199.81C258.702 200.831 260.391 201.486 262.413 201.786C262.198 199.391 261.52 197.523 260.455 196.964C267.123 194.666 267.468 169.524 246.775 170.211C246.775 170.211 237.924 154.134 222.512 165.851C216.479 159.557 204.659 161.362 197.658 168.675C198.744 172.638 201.766 176.601 207.875 179.544Z" fill="#57A855"/>
<path d="M200.11 253.488C204.767 248.15 222.964 226.66 194.248 209.573C186.225 202.817 195.281 208.37 195.281 208.37C195.281 208.37 202.809 213.31 207.004 214.91C211.198 216.511 203.207 206.297 199.755 204.579C196.303 202.86 198.002 202.678 199.701 203.376C201.659 204.181 205.982 208.155 208.552 211.066C213.672 216.865 211.94 206.383 215.048 201.303C218.156 196.223 216.317 201.303 214.93 205.438C213.543 209.573 217.167 216.231 219.361 215.77C221.555 215.308 224.997 211.173 224.19 206.243C223.383 201.314 221.888 195.74 224.997 203.14C228.105 210.55 223.674 211.409 223.846 213.708C224.018 216.006 228.729 212.333 230.632 209.573C232.536 206.813 236.44 204.117 236.612 204.579C236.784 205.041 234.138 206.705 232.708 208.767C231.277 210.829 230.923 209.97 230.116 216.973C229.309 223.975 240.699 211.753 242.764 208.649C244.829 205.545 244.603 208.424 242.366 210.829C240.129 213.235 229.976 222.718 230.525 235.284C231.073 247.85 236.73 254.229 236.73 254.229C236.73 254.229 222.469 266.397 218.856 266.548C211.811 263.734 200.11 253.488 200.11 253.488Z" fill="#7E4D2C"/>
<path d="M218.898 215.92C216.704 215.63 213.553 209.487 214.855 205.578C216.231 201.443 218.07 196.363 214.973 201.443C211.865 206.523 213.596 217.005 208.477 211.205C205.907 208.295 201.583 204.321 199.626 203.516C197.926 202.817 196.238 203 199.679 204.718C203.121 206.437 211.123 216.661 206.928 215.05C202.734 213.439 195.195 208.51 195.195 208.51C195.195 208.51 186.139 202.957 194.162 209.712C222.878 226.81 204.767 248.15 200.11 253.488C200.11 253.488 213.876 265.57 218.855 266.548C218.866 266.548 218.888 266.548 218.898 266.548V215.92Z" fill="#633E23"/>
<path d="M101.918 310.141C101.81 314.243 101.713 318.346 101.606 322.449C101.606 322.578 101.574 322.696 101.606 322.814C101.843 323.942 101.186 324.564 100.294 324.983C99.0032 325.595 97.4868 325.66 96.1532 325.155C94.8196 324.65 94.142 323.877 94.185 322.578C94.3034 318.228 94.0022 313.878 94.056 309.529C94.1098 305.362 94.1958 302.634 94.2711 298.477C94.2711 298.295 94.2711 298.101 94.2818 297.919C94.3034 297.618 94.185 297.457 93.8516 297.457C93.6258 297.457 93.3999 297.457 93.1848 297.457C90.5069 297.457 87.8289 297.457 85.1402 297.5C84.4734 297.511 84.0647 297.253 83.7206 296.77C82.8172 295.492 82.6988 292.173 83.8926 291.121C84.3766 290.691 85.3015 290.562 85.7962 290.562C92.8837 290.562 99.9604 290.562 107.048 290.562C107.65 290.562 109.081 290.53 109.694 290.562C112.296 290.562 112.415 294.461 111.382 296.265C111.006 296.931 110.468 297.307 109.618 297.296C107.543 297.264 105.531 297.328 103.402 297.382C103.187 297.36 102.961 297.414 102.735 297.425C102.423 297.436 102.283 297.607 102.273 297.897C102.251 298.391 102.208 298.885 102.197 299.379C102.111 303.45 102.036 306.081 101.961 310.152H101.95L101.918 310.141Z" fill="#633E23"/>
<path d="M117.19 296.995C117.19 296.813 117.157 296.641 117.179 296.469C117.211 296.039 116.996 295.9 116.534 295.921C115.813 295.943 115.092 295.953 114.372 295.921C113.307 295.878 112.769 295.438 112.769 294.493C112.769 293.376 112.425 292.195 112.866 291.11C113.156 290.39 113.63 290.057 114.522 289.993C118.437 289.724 122.341 289.95 126.245 289.993C126.772 289.993 127.299 290.047 127.805 290.175C128.579 290.38 128.848 290.68 128.794 291.4C128.697 292.603 128.891 293.591 128.73 294.794C128.611 295.696 128.321 295.878 127.278 295.803C126.686 295.76 126.138 295.964 125.546 295.943C124.804 295.911 124.75 295.943 124.729 296.609C124.664 298.23 124.299 313.288 124.212 318.948C124.245 319.613 124.363 319.882 125.654 319.807C126.148 319.785 126.643 319.753 127.127 319.764C128.181 319.796 128.73 320.236 128.762 321.171C128.794 322.255 128.762 323.082 128.719 324.178C128.697 324.564 128.364 325.069 127.525 325.069C127.159 325.069 114.372 325.069 114.167 325.069C112.662 325.123 111.984 325.123 111.823 323.737C111.748 323.093 111.715 322.438 111.715 321.794C111.715 320.72 111.93 319.893 113.113 319.893C114.114 319.893 115.092 319.914 115.974 319.871C116.77 319.828 116.921 319.689 116.931 318.958C116.996 315.199 117.093 300.733 117.2 296.985L117.19 296.995Z" fill="#633E23"/>
<path d="M148.131 304.341C148.465 304.223 148.519 303.944 148.658 303.718C151.293 299.422 153.95 294.922 156.563 290.626C156.811 290.218 157.09 290.014 157.649 290.025C159.123 290.057 161.069 290.004 162.554 290.025C163.393 290.025 163.511 290.122 163.522 290.852C163.565 292.699 163.565 294.751 163.575 296.609C163.597 305.426 163.608 314.072 163.618 322.889C163.618 324.178 163.618 324.146 162.123 324.156C160.295 324.188 158.133 324.156 156.402 324.156C154.875 324.113 155.8 323.888 155.262 320.43C154.617 316.295 154.767 312.074 155.606 307.971C155.746 307.262 155.724 307.069 155.724 306.564C155.294 306.607 155.283 306.93 155.165 307.123C153.928 309.271 152.573 311.376 151.25 313.492C150.809 314.2 150.261 314.351 149.046 314.136C148.164 313.975 147.26 313.996 146.389 314.168C145.324 314.383 144.862 314.029 144.475 313.438C143.539 311.977 142.582 310.527 141.635 309.067C141.108 308.251 140.581 307.434 140.054 306.629C139.71 306.715 139.818 306.93 139.818 307.08C139.818 312.31 139.775 316.488 139.947 321.718C139.968 322.363 139.893 323.007 139.882 323.651C139.882 324.06 139.657 324.242 139.216 324.253C139.087 324.253 138.947 324.253 138.818 324.253C136.774 324.21 134.064 324.188 132.021 324.135C130.956 324.103 130.881 324.038 130.913 323.093C130.913 317.433 131.031 296.995 131.182 292.334C131.246 290.465 131.472 290.079 133.58 290.025C134.817 289.993 137.29 290.046 138.527 290.025C139.108 290.025 139.409 290.218 139.689 290.669C142.324 294.965 144.969 299.444 147.626 303.729C147.766 303.955 147.852 304.223 148.142 304.352L148.131 304.341Z" fill="#633E23"/>
<path d="M186.236 304.803C186.451 305.072 186.698 305.082 186.903 305.157C190.796 306.704 192.743 309.561 193.011 313.395C193.463 319.71 188.193 325.961 181.654 327.303C179.858 327.668 178.041 327.808 176.223 327.41C175.234 327.196 174.287 326.852 173.459 326.294C173.061 326.025 172.674 325.918 172.19 325.961C171.577 326.014 170.953 325.993 170.329 325.918C169.523 325.821 168.953 325.456 168.576 324.768C168.125 323.952 167.824 323.082 167.587 322.191C166.952 319.839 166.716 317.433 166.598 315.017C166.382 310.366 166.619 305.694 167.275 301.087C167.727 297.908 168.275 294.74 168.985 291.604C169.125 291.013 169.394 290.669 170.039 290.476C174.76 288.994 179.45 288.93 184.106 290.637C186.085 291.368 187.774 292.495 189.075 294.085C190.828 296.233 191 298.552 189.828 300.969C189.269 302.118 188.408 303.074 187.376 303.901C187.01 304.202 186.623 304.481 186.225 304.782L186.236 304.803ZM173.674 312.364H173.728C173.836 313.578 173.911 314.791 174.061 316.005C174.212 317.218 174.481 318.41 174.621 319.613C174.696 320.215 175.158 320.687 175.75 320.816C178.525 321.407 180.902 320.709 182.934 318.98C184.612 317.551 185.483 315.736 185.289 313.599C185.064 311.204 183.709 309.486 181.321 308.605C178.815 307.671 176.417 308.036 174.19 309.432C173.846 309.647 173.631 310.055 173.663 310.463C173.696 311.097 173.663 311.73 173.663 312.375L173.674 312.364ZM173.857 302.913C173.836 303.214 173.825 303.525 173.803 303.826C173.75 304.62 173.771 304.674 174.653 304.545C177.245 304.159 179.579 303.214 181.59 301.603C182.214 301.109 182.741 300.529 183.192 299.884C185.107 297.167 184.085 294.6 180.74 293.741C179.105 293.322 177.46 293.43 175.804 293.698C175.212 293.795 174.986 294.042 174.89 294.568C174.363 297.328 174.029 300.11 173.857 302.913Z" fill="#633E23"/>
<path d="M194.711 306.865C194.754 303.01 195.033 298.81 195.937 294.654C196.087 293.967 196.292 293.29 196.496 292.613C197.12 290.605 198.615 289.52 201.024 289.434C203.153 289.37 205.283 289.434 207.401 289.434C209.219 289.445 211.026 289.585 212.822 289.8C213.542 289.885 213.951 290.208 214.156 290.798C214.65 292.227 214.65 293.687 214.532 295.148C214.489 295.674 214.166 295.9 213.542 295.889C212.983 295.889 212.435 295.792 211.875 295.749C209.681 295.567 207.487 295.545 205.315 295.986C204.412 296.168 204.412 296.179 204.272 296.985C203.928 298.907 203.659 300.84 203.519 302.784C203.433 303.955 203.315 303.965 204.379 303.933C205.638 303.89 206.896 303.869 208.144 303.955C209.692 304.062 209.983 304.352 210.208 305.662C210.359 306.586 210.176 307.488 210.101 308.401C210.036 309.067 209.574 309.658 208.391 309.733C206.96 309.819 205.541 309.926 204.11 310.023C203.067 310.098 203.196 310.087 203.196 311.236C203.196 313.116 203.315 314.995 203.594 316.843C203.713 317.648 203.723 317.691 204.476 317.863C205.466 318.078 206.487 318.153 207.498 318.078C208.671 317.992 209.843 317.927 211.026 317.992C212.897 318.088 213.338 318.464 213.532 320.075C213.629 320.87 213.564 321.665 213.424 322.449C213.231 323.48 212.768 323.856 211.596 324.049C210.359 324.253 209.101 324.285 207.842 324.35C205.057 324.489 202.261 324.564 199.497 324.081C199.152 324.017 198.819 323.931 198.486 323.856C197.754 323.684 197.313 323.286 197.034 322.664C196.13 320.623 195.679 318.496 195.356 316.348C194.894 313.32 194.743 310.27 194.721 306.865H194.711Z" fill="#633E23"/>
<path d="M230.707 313.685C230.858 314.125 231.32 314.351 231.503 314.737C232.503 316.81 233.858 318.679 235.719 320.032C238.666 322.18 239.537 323.308 237.806 324.597C236.246 325.757 234.45 326.057 232.493 325.499C232.073 325.381 231.804 325.112 231.546 324.811C230.707 323.834 229.858 322.878 229.04 321.89C227.728 320.311 226.427 318.733 225.115 317.154C224.943 316.939 224.803 316.681 224.491 316.563C224.265 316.875 224.33 317.186 224.33 317.476C224.287 319.227 224.265 320.977 224.233 322.728C224.222 323.276 224.233 323.845 223.91 324.339C223.437 325.048 222.695 325.413 221.813 325.542C220.135 325.778 218.619 325.348 217.199 324.597C216.791 324.382 216.629 324.027 216.522 323.619C216.134 322.084 216.081 320.516 216.059 318.948C216.016 315.908 215.973 312.869 216.005 309.829C216.059 304.481 216.586 299.165 217.414 293.859C217.629 292.463 218.307 291.615 219.866 291.163C224.211 289.907 228.492 289.746 232.718 291.464C238.515 293.816 241.193 299.208 239.3 304.642C238.031 308.294 235.396 311 231.826 313.03C231.449 313.245 231.03 313.384 230.718 313.685H230.707ZM224.502 309.722C224.857 309.786 225.029 309.679 225.212 309.593C227.438 308.594 229.266 307.187 230.632 305.329C231.406 304.266 231.987 303.117 232.181 301.85C232.525 299.573 231.901 297.629 229.643 296.319C228.341 295.556 226.857 295.32 225.319 295.341C224.867 295.341 224.706 295.524 224.728 295.9C224.749 296.372 224.663 296.845 224.792 297.317C225.373 299.433 225.706 301.646 225.061 303.751C224.416 305.856 224.502 307.714 224.502 309.722Z" fill="#633E23"/>
<path d="M273.404 310.141C273.297 314.243 273.2 318.346 273.092 322.449C273.092 322.578 273.06 322.696 273.092 322.814C273.329 323.942 272.673 324.564 271.78 324.983C270.49 325.595 268.973 325.66 267.64 325.155C266.306 324.65 265.628 323.877 265.661 322.578C265.779 318.228 265.478 313.878 265.532 309.529C265.585 305.362 265.671 302.634 265.747 298.477C265.747 298.295 265.747 298.101 265.757 297.919C265.779 297.618 265.661 297.457 265.327 297.457C265.101 297.457 264.876 297.457 264.66 297.457C261.982 297.457 259.304 297.457 256.616 297.5C255.949 297.511 255.54 297.253 255.196 296.77C254.293 295.492 254.174 292.173 255.368 291.121C255.852 290.691 256.777 290.562 257.272 290.562C264.359 290.562 271.436 290.562 278.523 290.562C279.126 290.562 280.556 290.53 281.169 290.562C283.772 290.562 283.89 294.461 282.858 296.265C282.481 296.931 281.944 297.307 281.094 297.296C279.018 297.264 277.007 297.328 274.878 297.382C274.652 297.36 274.437 297.414 274.211 297.425C273.899 297.436 273.759 297.607 273.748 297.897C273.727 298.391 273.684 298.885 273.673 299.379C273.587 303.45 273.512 306.081 273.436 310.152H273.426L273.404 310.141Z" fill="#633E23"/>
<path d="M305.067 309.84C304.97 313.567 304.583 317.97 302.916 322.202C302.507 323.265 301.969 324.264 301.27 325.198C301.023 325.52 300.743 325.799 300.345 325.971C298.893 326.605 297.398 326.734 295.871 326.251C294.957 325.961 294.86 325.703 295.204 324.887C296.775 321.203 297.635 317.369 298.076 313.459C298.162 312.718 298.14 312.686 297.291 312.761C294.559 313.008 291.817 313.288 289.085 313.535C288.45 313.588 288.364 313.9 288.364 314.372C288.396 318.12 288.88 321.804 290.16 325.381C290.59 326.573 290.182 327.7 288.988 328.356C287.429 329.215 285.805 329.172 284.181 328.474C283.729 328.28 283.525 327.915 283.309 327.539C282.03 325.295 281.341 322.889 281.051 320.408C280.04 311.945 281.567 303.847 285.74 296.179C286.6 294.6 287.654 293.118 288.913 291.765C290.827 289.703 293.268 289.101 296.118 289.724C297.807 290.089 299.151 290.949 300.281 292.13C301.765 293.687 302.733 295.481 303.367 297.425C304.626 301.248 305.034 305.168 305.067 309.84ZM294.419 294.589C293.935 294.933 293.752 295.32 293.516 295.674C290.784 299.734 289.461 304.202 288.773 308.852C288.644 309.679 288.719 309.711 289.666 309.657C292.268 309.475 294.871 309.303 297.474 309.11C298.248 309.056 298.259 309.056 298.248 308.304C298.194 305.007 297.667 301.774 296.495 298.638C295.979 297.253 295.355 295.9 294.43 294.6L294.419 294.589Z" fill="#633E23"/>
<path d="M327.168 323.566C327.114 323.995 326.791 324.242 326.415 324.393C326.017 324.554 325.598 324.607 325.167 324.607C323.931 324.607 313.326 324.607 309.336 324.661C308.551 324.661 307.906 324.07 307.841 323.286C307.777 322.341 307.809 321.547 307.809 320.591C307.798 316.166 307.788 311.741 307.766 307.316H307.734C307.734 304.685 307.766 302.054 307.755 299.422C307.744 296.791 307.68 294.214 307.648 291.615C307.648 290.992 307.992 290.379 308.573 290.143C309.68 289.703 310.842 289.746 312.003 289.821C312.724 289.864 313.531 289.971 314.208 290.272C314.875 290.573 315.639 291.099 315.639 291.926C315.639 296.415 315.51 313.825 315.542 318.185C315.542 318.368 315.553 318.539 315.563 318.722C315.563 318.98 315.714 319.076 315.972 319.076C316.381 319.076 322.855 319.055 325.78 319.055C326.479 319.055 326.856 319.334 327.028 319.989C327.34 321.16 327.297 322.363 327.146 323.555L327.168 323.566Z" fill="#633E23"/>
<path d="M328.104 306.865C328.147 303.01 328.426 298.81 329.33 294.654C329.48 293.967 329.684 293.29 329.889 292.613C330.513 290.605 332.008 289.52 334.417 289.434C336.546 289.37 338.676 289.434 340.794 289.434C342.612 289.445 344.419 289.585 346.215 289.8C346.935 289.885 347.344 290.208 347.548 290.798C348.043 292.227 348.043 293.687 347.925 295.148C347.882 295.674 347.559 295.9 346.935 295.889C346.376 295.889 345.828 295.792 345.268 295.749C343.074 295.567 340.88 295.545 338.708 295.986C337.804 296.168 337.804 296.179 337.665 296.985C337.32 298.907 337.052 300.84 336.912 302.784C336.826 303.955 336.707 303.965 337.772 303.933C339.03 303.89 340.289 303.869 341.536 303.955C343.085 304.062 343.375 304.352 343.601 305.662C343.752 306.586 343.569 307.488 343.494 308.401C343.429 309.067 342.967 309.658 341.784 309.733C340.353 309.819 338.934 309.926 337.503 310.023C336.46 310.098 336.589 310.087 336.589 311.236C336.589 313.116 336.707 314.995 336.987 316.843C337.105 317.648 337.116 317.691 337.869 317.863C338.858 318.078 339.88 318.153 340.891 318.078C342.063 317.992 343.236 317.927 344.419 317.992C346.29 318.088 346.731 318.464 346.925 320.075C347.021 320.87 346.957 321.665 346.817 322.449C346.623 323.48 346.161 323.856 344.989 324.049C343.752 324.253 342.494 324.285 341.235 324.35C338.45 324.489 335.653 324.564 332.889 324.081C332.545 324.017 332.212 323.931 331.878 323.856C331.147 323.684 330.706 323.286 330.427 322.664C329.523 320.623 329.071 318.496 328.749 316.348C328.286 313.32 328.136 310.27 328.114 306.865H328.104Z" fill="#633E23"/>
</g>
<path d="M330 123H384V370H330" stroke="black" stroke-width="2"/>
<path d="M409.14 236.8V234.31H414.78V256H412.02V236.8H409.14ZM433.299 236.68H422.769V243.52C423.229 242.88 423.909 242.36 424.809 241.96C425.709 241.54 426.679 241.33 427.719 241.33C429.379 241.33 430.729 241.68 431.769 242.38C432.809 243.06 433.549 243.95 433.989 245.05C434.449 246.13 434.679 247.28 434.679 248.5C434.679 249.94 434.409 251.23 433.869 252.37C433.329 253.51 432.499 254.41 431.379 255.07C430.279 255.73 428.909 256.06 427.269 256.06C425.169 256.06 423.469 255.52 422.169 254.44C420.869 253.36 420.079 251.92 419.799 250.12H422.469C422.729 251.26 423.279 252.15 424.119 252.79C424.959 253.43 426.019 253.75 427.299 253.75C428.879 253.75 430.069 253.28 430.869 252.34C431.669 251.38 432.069 250.12 432.069 248.56C432.069 247 431.669 245.8 430.869 244.96C430.069 244.1 428.889 243.67 427.329 243.67C426.269 243.67 425.339 243.93 424.539 244.45C423.759 244.95 423.189 245.64 422.829 246.52H420.249V234.28H433.299V236.68ZM452.137 236.68H441.607V243.52C442.067 242.88 442.747 242.36 443.647 241.96C444.547 241.54 445.517 241.33 446.557 241.33C448.217 241.33 449.567 241.68 450.607 242.38C451.647 243.06 452.387 243.95 452.827 245.05C453.287 246.13 453.517 247.28 453.517 248.5C453.517 249.94 453.247 251.23 452.707 252.37C452.167 253.51 451.337 254.41 450.217 255.07C449.117 255.73 447.747 256.06 446.107 256.06C444.007 256.06 442.307 255.52 441.007 254.44C439.707 253.36 438.917 251.92 438.637 250.12H441.307C441.567 251.26 442.117 252.15 442.957 252.79C443.797 253.43 444.857 253.75 446.137 253.75C447.717 253.75 448.907 253.28 449.707 252.34C450.507 251.38 450.907 250.12 450.907 248.56C450.907 247 450.507 245.8 449.707 244.96C448.907 244.1 447.727 243.67 446.167 243.67C445.107 243.67 444.177 243.93 443.377 244.45C442.597 244.95 442.027 245.64 441.667 246.52H439.087V234.28H452.137V236.68ZM460.325 242.59C460.865 241.65 461.665 240.87 462.725 240.25C463.805 239.61 465.055 239.29 466.475 239.29C467.935 239.29 469.255 239.64 470.435 240.34C471.635 241.04 472.575 242.03 473.255 243.31C473.935 244.57 474.275 246.04 474.275 247.72C474.275 249.38 473.935 250.86 473.255 252.16C472.575 253.46 471.635 254.47 470.435 255.19C469.255 255.91 467.935 256.27 466.475 256.27C465.075 256.27 463.835 255.96 462.755 255.34C461.695 254.7 460.885 253.91 460.325 252.97V263.8H457.595V239.56H460.325V242.59ZM471.485 247.72C471.485 246.48 471.235 245.4 470.735 244.48C470.235 243.56 469.555 242.86 468.695 242.38C467.855 241.9 466.925 241.66 465.905 241.66C464.905 241.66 463.975 241.91 463.115 242.41C462.275 242.89 461.595 243.6 461.075 244.54C460.575 245.46 460.325 246.53 460.325 247.75C460.325 248.99 460.575 250.08 461.075 251.02C461.595 251.94 462.275 252.65 463.115 253.15C463.975 253.63 464.905 253.87 465.905 253.87C466.925 253.87 467.855 253.63 468.695 253.15C469.555 252.65 470.235 251.94 470.735 251.02C471.235 250.08 471.485 248.98 471.485 247.72ZM486.449 256L482.549 249.88L478.799 256H475.949L481.259 247.84L475.949 239.56H479.039L482.939 245.65L486.659 239.56H489.509L484.229 247.69L489.539 256H486.449Z" fill="black"/>
<defs>
<linearGradient id="paint0_linear_203_786" x1="218.845" y1="181.853" x2="218.845" y2="314.329" gradientUnits="userSpaceOnUse">
<stop offset="0.33" stop-color="white"/>
<stop offset="0.78" stop-color="#4C8FB5"/>
</linearGradient>
<clipPath id="clip0_203_786">
<rect width="265" height="180" fill="white" transform="translate(83 149)"/>
</clipPath>
</defs>
</svg>
