<svg width="117" height="70" viewBox="0 0 117 70" fill="none" xmlns="http://www.w3.org/2000/svg">
<g filter="url(#filter0_ddiiii_104_872)">
<rect x="3" y="3" width="110.429" height="63.5897" rx="12" fill="#EB6A00"/>
</g>
<path d="M25.982 38.768H21.266L20.51 41H17.288L21.86 28.364H25.424L29.996 41H26.738L25.982 38.768ZM25.19 36.392L23.624 31.766L22.076 36.392H25.19ZM37.5075 30.848C38.6835 30.848 39.6195 31.232 40.3155 32C41.0235 32.756 41.3775 33.8 41.3775 35.132V41H38.3175V35.546C38.3175 34.874 38.1435 34.352 37.7955 33.98C37.4475 33.608 36.9795 33.422 36.3915 33.422C35.8035 33.422 35.3355 33.608 34.9875 33.98C34.6395 34.352 34.4655 34.874 34.4655 35.546V41H31.3875V30.956H34.4655V32.288C34.7775 31.844 35.1975 31.496 35.7255 31.244C36.2535 30.98 36.8475 30.848 37.5075 30.848ZM47.6024 41.144C46.7264 41.144 45.9464 40.994 45.2624 40.694C44.5784 40.394 44.0384 39.986 43.6424 39.47C43.2464 38.942 43.0244 38.354 42.9764 37.706H46.0184C46.0544 38.054 46.2164 38.336 46.5044 38.552C46.7924 38.768 47.1464 38.876 47.5664 38.876C47.9504 38.876 48.2444 38.804 48.4484 38.66C48.6644 38.504 48.7724 38.306 48.7724 38.066C48.7724 37.778 48.6224 37.568 48.3224 37.436C48.0224 37.292 47.5364 37.136 46.8644 36.968C46.1444 36.8 45.5444 36.626 45.0644 36.446C44.5844 36.254 44.1704 35.96 43.8224 35.564C43.4744 35.156 43.3004 34.61 43.3004 33.926C43.3004 33.35 43.4564 32.828 43.7684 32.36C44.0924 31.88 44.5604 31.502 45.1724 31.226C45.7964 30.95 46.5344 30.812 47.3864 30.812C48.6464 30.812 49.6364 31.124 50.3564 31.748C51.0884 32.372 51.5084 33.2 51.6164 34.232H48.7724C48.7244 33.884 48.5684 33.608 48.3044 33.404C48.0524 33.2 47.7164 33.098 47.2964 33.098C46.9364 33.098 46.6604 33.17 46.4684 33.314C46.2764 33.446 46.1804 33.632 46.1804 33.872C46.1804 34.16 46.3304 34.376 46.6304 34.52C46.9424 34.664 47.4224 34.808 48.0704 34.952C48.8144 35.144 49.4204 35.336 49.8884 35.528C50.3564 35.708 50.7644 36.008 51.1124 36.428C51.4724 36.836 51.6584 37.388 51.6704 38.084C51.6704 38.672 51.5024 39.2 51.1664 39.668C50.8424 40.124 50.3684 40.484 49.7444 40.748C49.1324 41.012 48.4184 41.144 47.6024 41.144ZM67.9715 30.956L65.2535 41H61.8515L60.2675 34.484L58.6295 41H55.2455L52.5095 30.956H55.5875L57.0095 38.138L58.7015 30.956H61.9595L63.6695 38.102L65.0735 30.956H67.9715ZM78.6133 35.816C78.6133 36.104 78.5953 36.404 78.5593 36.716H71.5933C71.6413 37.34 71.8393 37.82 72.1873 38.156C72.5473 38.48 72.9853 38.642 73.5013 38.642C74.2693 38.642 74.8033 38.318 75.1033 37.67H78.3793C78.2113 38.33 77.9053 38.924 77.4613 39.452C77.0293 39.98 76.4833 40.394 75.8233 40.694C75.1633 40.994 74.4253 41.144 73.6093 41.144C72.6253 41.144 71.7493 40.934 70.9813 40.514C70.2133 40.094 69.6133 39.494 69.1813 38.714C68.7493 37.934 68.5333 37.022 68.5333 35.978C68.5333 34.934 68.7433 34.022 69.1633 33.242C69.5953 32.462 70.1953 31.862 70.9633 31.442C71.7313 31.022 72.6133 30.812 73.6093 30.812C74.5813 30.812 75.4453 31.016 76.2013 31.424C76.9573 31.832 77.5453 32.414 77.9653 33.17C78.3973 33.926 78.6133 34.808 78.6133 35.816ZM75.4633 35.006C75.4633 34.478 75.2833 34.058 74.9233 33.746C74.5633 33.434 74.1133 33.278 73.5733 33.278C73.0573 33.278 72.6193 33.428 72.2593 33.728C71.9113 34.028 71.6953 34.454 71.6113 35.006H75.4633ZM83.3151 32.63C83.6751 32.078 84.1251 31.646 84.6651 31.334C85.2051 31.01 85.8051 30.848 86.4651 30.848V34.106H85.6191C84.8511 34.106 84.2751 34.274 83.8911 34.61C83.5071 34.934 83.3151 35.51 83.3151 36.338V41H80.2371V30.956H83.3151V32.63ZM91.1208 30.722V27.86H96.1068V41H92.9028V30.722H91.1208Z" fill="white"/>
<defs>
<filter id="filter0_ddiiii_104_872" x="-2" y="-2" width="120.429" height="73.5897" filterUnits="userSpaceOnUse" color-interpolation-filters="sRGB">
<feFlood flood-opacity="0" result="BackgroundImageFix"/>
<feColorMatrix in="SourceAlpha" type="matrix" values="0 0 0 0 0 0 0 0 0 0 0 0 0 0 0 0 0 0 127 0" result="hardAlpha"/>
<feOffset dx="-1" dy="-1"/>
<feGaussianBlur stdDeviation="1"/>
<feColorMatrix type="matrix" values="0 0 0 0 0.831373 0 0 0 0 0.372549 0 0 0 0 0 0 0 0 0.5 0"/>
<feBlend mode="normal" in2="BackgroundImageFix" result="effect1_dropShadow_104_872"/>
<feColorMatrix in="SourceAlpha" type="matrix" values="0 0 0 0 0 0 0 0 0 0 0 0 0 0 0 0 0 0 127 0" result="hardAlpha"/>
<feOffset dx="1" dy="1"/>
<feGaussianBlur stdDeviation="1"/>
<feColorMatrix type="matrix" values="0 0 0 0 1 0 0 0 0 0.458824 0 0 0 0 0 0 0 0 0.3 0"/>
<feBlend mode="normal" in2="effect1_dropShadow_104_872" result="effect2_dropShadow_104_872"/>
<feBlend mode="normal" in="SourceGraphic" in2="effect2_dropShadow_104_872" result="shape"/>
<feColorMatrix in="SourceAlpha" type="matrix" values="0 0 0 0 0 0 0 0 0 0 0 0 0 0 0 0 0 0 127 0" result="hardAlpha"/>
<feOffset dx="5" dy="5"/>
<feGaussianBlur stdDeviation="6.5"/>
<feComposite in2="hardAlpha" operator="arithmetic" k2="-1" k3="1"/>
<feColorMatrix type="matrix" values="0 0 0 0 0.831373 0 0 0 0 0.372549 0 0 0 0 0 0 0 0 0.9 0"/>
<feBlend mode="normal" in2="shape" result="effect3_innerShadow_104_872"/>
<feColorMatrix in="SourceAlpha" type="matrix" values="0 0 0 0 0 0 0 0 0 0 0 0 0 0 0 0 0 0 127 0" result="hardAlpha"/>
<feOffset dx="-5" dy="-5"/>
<feGaussianBlur stdDeviation="5"/>
<feComposite in2="hardAlpha" operator="arithmetic" k2="-1" k3="1"/>
<feColorMatrix type="matrix" values="0 0 0 0 1 0 0 0 0 0.458824 0 0 0 0 0 0 0 0 0.9 0"/>
<feBlend mode="normal" in2="effect3_innerShadow_104_872" result="effect4_innerShadow_104_872"/>
<feColorMatrix in="SourceAlpha" type="matrix" values="0 0 0 0 0 0 0 0 0 0 0 0 0 0 0 0 0 0 127 0" result="hardAlpha"/>
<feOffset dx="5" dy="-5"/>
<feGaussianBlur stdDeviation="5"/>
<feComposite in2="hardAlpha" operator="arithmetic" k2="-1" k3="1"/>
<feColorMatrix type="matrix" values="0 0 0 0 0.831373 0 0 0 0 0.372549 0 0 0 0 0 0 0 0 0.2 0"/>
<feBlend mode="normal" in2="effect4_innerShadow_104_872" result="effect5_innerShadow_104_872"/>
<feColorMatrix in="SourceAlpha" type="matrix" values="0 0 0 0 0 0 0 0 0 0 0 0 0 0 0 0 0 0 127 0" result="hardAlpha"/>
<feOffset dx="-5" dy="5"/>
<feGaussianBlur stdDeviation="5"/>
<feComposite in2="hardAlpha" operator="arithmetic" k2="-1" k3="1"/>
<feColorMatrix type="matrix" values="0 0 0 0 0.831373 0 0 0 0 0.372549 0 0 0 0 0 0 0 0 0.2 0"/>
<feBlend mode="normal" in2="effect5_innerShadow_104_872" result="effect6_innerShadow_104_872"/>
</filter>
</defs>
</svg>
