<svg width="274" height="61" viewBox="0 0 274 61" fill="none" xmlns="http://www.w3.org/2000/svg">
<g filter="url(#filter0_ddiiii_104_875)">
<rect x="3" y="3" width="268" height="54.6294" rx="12" fill="#EB6A00"/>
</g>
<path d="M94.9583 30.664C94.9583 29.416 95.2283 28.306 95.7683 27.334C96.3083 26.35 97.0583 25.588 98.0183 25.048C98.9903 24.496 100.088 24.22 101.312 24.22C102.812 24.22 104.096 24.616 105.164 25.408C106.232 26.2 106.946 27.28 107.306 28.648H103.922C103.67 28.12 103.31 27.718 102.842 27.442C102.386 27.166 101.864 27.028 101.276 27.028C100.328 27.028 99.5603 27.358 98.9723 28.018C98.3843 28.678 98.0903 29.56 98.0903 30.664C98.0903 31.768 98.3843 32.65 98.9723 33.31C99.5603 33.97 100.328 34.3 101.276 34.3C101.864 34.3 102.386 34.162 102.842 33.886C103.31 33.61 103.67 33.208 103.922 32.68H107.306C106.946 34.048 106.232 35.128 105.164 35.92C104.096 36.7 102.812 37.09 101.312 37.09C100.088 37.09 98.9903 36.82 98.0183 36.28C97.0583 35.728 96.3083 34.966 95.7683 33.994C95.2283 33.022 94.9583 31.912 94.9583 30.664ZM113.763 37.144C112.779 37.144 111.891 36.934 111.099 36.514C110.319 36.094 109.701 35.494 109.245 34.714C108.801 33.934 108.579 33.022 108.579 31.978C108.579 30.946 108.807 30.04 109.263 29.26C109.719 28.468 110.343 27.862 111.135 27.442C111.927 27.022 112.815 26.812 113.799 26.812C114.783 26.812 115.671 27.022 116.463 27.442C117.255 27.862 117.879 28.468 118.335 29.26C118.791 30.04 119.019 30.946 119.019 31.978C119.019 33.01 118.785 33.922 118.317 34.714C117.861 35.494 117.231 36.094 116.427 36.514C115.635 36.934 114.747 37.144 113.763 37.144ZM113.763 34.48C114.351 34.48 114.849 34.264 115.257 33.832C115.677 33.4 115.887 32.782 115.887 31.978C115.887 31.174 115.683 30.556 115.275 30.124C114.879 29.692 114.387 29.476 113.799 29.476C113.199 29.476 112.701 29.692 112.305 30.124C111.909 30.544 111.711 31.162 111.711 31.978C111.711 32.782 111.903 33.4 112.287 33.832C112.683 34.264 113.175 34.48 113.763 34.48ZM126.772 26.848C127.948 26.848 128.884 27.232 129.58 28C130.288 28.756 130.642 29.8 130.642 31.132V37H127.582V31.546C127.582 30.874 127.408 30.352 127.06 29.98C126.712 29.608 126.244 29.422 125.656 29.422C125.068 29.422 124.6 29.608 124.252 29.98C123.904 30.352 123.73 30.874 123.73 31.546V37H120.652V26.956H123.73V28.288C124.042 27.844 124.462 27.496 124.99 27.244C125.518 26.98 126.112 26.848 126.772 26.848ZM138.379 34.39V37H136.813C135.697 37 134.827 36.73 134.203 36.19C133.579 35.638 133.267 34.744 133.267 33.508V29.512H132.043V26.956H133.267V24.508H136.345V26.956H138.361V29.512H136.345V33.544C136.345 33.844 136.417 34.06 136.561 34.192C136.705 34.324 136.945 34.39 137.281 34.39H138.379ZM141.642 25.912C141.102 25.912 140.658 25.756 140.31 25.444C139.974 25.12 139.806 24.724 139.806 24.256C139.806 23.776 139.974 23.38 140.31 23.068C140.658 22.744 141.102 22.582 141.642 22.582C142.17 22.582 142.602 22.744 142.938 23.068C143.286 23.38 143.46 23.776 143.46 24.256C143.46 24.724 143.286 25.12 142.938 25.444C142.602 25.756 142.17 25.912 141.642 25.912ZM143.172 26.956V37H140.094V26.956H143.172ZM151.522 26.848C152.698 26.848 153.634 27.232 154.33 28C155.038 28.756 155.392 29.8 155.392 31.132V37H152.332V31.546C152.332 30.874 152.158 30.352 151.81 29.98C151.462 29.608 150.994 29.422 150.406 29.422C149.818 29.422 149.35 29.608 149.002 29.98C148.654 30.352 148.48 30.874 148.48 31.546V37H145.402V26.956H148.48V28.288C148.792 27.844 149.212 27.496 149.74 27.244C150.268 26.98 150.862 26.848 151.522 26.848ZM167.449 26.956V37H164.371V35.632C164.059 36.076 163.633 36.436 163.093 36.712C162.565 36.976 161.977 37.108 161.329 37.108C160.561 37.108 159.883 36.94 159.295 36.604C158.707 36.256 158.251 35.758 157.927 35.11C157.603 34.462 157.441 33.7 157.441 32.824V26.956H160.501V32.41C160.501 33.082 160.675 33.604 161.023 33.976C161.371 34.348 161.839 34.534 162.427 34.534C163.027 34.534 163.501 34.348 163.849 33.976C164.197 33.604 164.371 33.082 164.371 32.41V26.956H167.449ZM179.128 31.816C179.128 32.104 179.11 32.404 179.074 32.716H172.108C172.156 33.34 172.354 33.82 172.702 34.156C173.062 34.48 173.5 34.642 174.016 34.642C174.784 34.642 175.318 34.318 175.618 33.67H178.894C178.726 34.33 178.42 34.924 177.976 35.452C177.544 35.98 176.998 36.394 176.338 36.694C175.678 36.994 174.94 37.144 174.124 37.144C173.14 37.144 172.264 36.934 171.496 36.514C170.728 36.094 170.128 35.494 169.696 34.714C169.264 33.934 169.048 33.022 169.048 31.978C169.048 30.934 169.258 30.022 169.678 29.242C170.11 28.462 170.71 27.862 171.478 27.442C172.246 27.022 173.128 26.812 174.124 26.812C175.096 26.812 175.96 27.016 176.716 27.424C177.472 27.832 178.06 28.414 178.48 29.17C178.912 29.926 179.128 30.808 179.128 31.816ZM175.978 31.006C175.978 30.478 175.798 30.058 175.438 29.746C175.078 29.434 174.628 29.278 174.088 29.278C173.572 29.278 173.134 29.428 172.774 29.728C172.426 30.028 172.21 30.454 172.126 31.006H175.978Z" fill="white"/>
<defs>
<filter id="filter0_ddiiii_104_875" x="-2" y="-2" width="278" height="64.6294" filterUnits="userSpaceOnUse" color-interpolation-filters="sRGB">
<feFlood flood-opacity="0" result="BackgroundImageFix"/>
<feColorMatrix in="SourceAlpha" type="matrix" values="0 0 0 0 0 0 0 0 0 0 0 0 0 0 0 0 0 0 127 0" result="hardAlpha"/>
<feOffset dx="-1" dy="-1"/>
<feGaussianBlur stdDeviation="1"/>
<feColorMatrix type="matrix" values="0 0 0 0 0.831373 0 0 0 0 0.372549 0 0 0 0 0 0 0 0 0.5 0"/>
<feBlend mode="normal" in2="BackgroundImageFix" result="effect1_dropShadow_104_875"/>
<feColorMatrix in="SourceAlpha" type="matrix" values="0 0 0 0 0 0 0 0 0 0 0 0 0 0 0 0 0 0 127 0" result="hardAlpha"/>
<feOffset dx="1" dy="1"/>
<feGaussianBlur stdDeviation="1"/>
<feColorMatrix type="matrix" values="0 0 0 0 1 0 0 0 0 0.458824 0 0 0 0 0 0 0 0 0.3 0"/>
<feBlend mode="normal" in2="effect1_dropShadow_104_875" result="effect2_dropShadow_104_875"/>
<feBlend mode="normal" in="SourceGraphic" in2="effect2_dropShadow_104_875" result="shape"/>
<feColorMatrix in="SourceAlpha" type="matrix" values="0 0 0 0 0 0 0 0 0 0 0 0 0 0 0 0 0 0 127 0" result="hardAlpha"/>
<feOffset dx="5" dy="5"/>
<feGaussianBlur stdDeviation="6.5"/>
<feComposite in2="hardAlpha" operator="arithmetic" k2="-1" k3="1"/>
<feColorMatrix type="matrix" values="0 0 0 0 0.831373 0 0 0 0 0.372549 0 0 0 0 0 0 0 0 0.9 0"/>
<feBlend mode="normal" in2="shape" result="effect3_innerShadow_104_875"/>
<feColorMatrix in="SourceAlpha" type="matrix" values="0 0 0 0 0 0 0 0 0 0 0 0 0 0 0 0 0 0 127 0" result="hardAlpha"/>
<feOffset dx="-5" dy="-5"/>
<feGaussianBlur stdDeviation="5"/>
<feComposite in2="hardAlpha" operator="arithmetic" k2="-1" k3="1"/>
<feColorMatrix type="matrix" values="0 0 0 0 1 0 0 0 0 0.458824 0 0 0 0 0 0 0 0 0.9 0"/>
<feBlend mode="normal" in2="effect3_innerShadow_104_875" result="effect4_innerShadow_104_875"/>
<feColorMatrix in="SourceAlpha" type="matrix" values="0 0 0 0 0 0 0 0 0 0 0 0 0 0 0 0 0 0 127 0" result="hardAlpha"/>
<feOffset dx="5" dy="-5"/>
<feGaussianBlur stdDeviation="5"/>
<feComposite in2="hardAlpha" operator="arithmetic" k2="-1" k3="1"/>
<feColorMatrix type="matrix" values="0 0 0 0 0.831373 0 0 0 0 0.372549 0 0 0 0 0 0 0 0 0.2 0"/>
<feBlend mode="normal" in2="effect4_innerShadow_104_875" result="effect5_innerShadow_104_875"/>
<feColorMatrix in="SourceAlpha" type="matrix" values="0 0 0 0 0 0 0 0 0 0 0 0 0 0 0 0 0 0 127 0" result="hardAlpha"/>
<feOffset dx="-5" dy="5"/>
<feGaussianBlur stdDeviation="5"/>
<feComposite in2="hardAlpha" operator="arithmetic" k2="-1" k3="1"/>
<feColorMatrix type="matrix" values="0 0 0 0 0.831373 0 0 0 0 0.372549 0 0 0 0 0 0 0 0 0.2 0"/>
<feBlend mode="normal" in2="effect5_innerShadow_104_875" result="effect6_innerShadow_104_875"/>
</filter>
</defs>
</svg>
