<svg width="252" height="80" viewBox="0 0 252 80" fill="none" xmlns="http://www.w3.org/2000/svg">
<rect width="252" height="80" rx="12" fill="#FFF8EC"/>
<path d="M51.82 51.21C49.84 51.21 48.02 50.75 46.36 49.83C44.72 48.91 43.41 47.63 42.43 45.99C41.47 44.33 40.99 42.47 40.99 40.41C40.99 38.35 41.47 36.5 42.43 34.86C43.41 33.22 44.72 31.94 46.36 31.02C48.02 30.1 49.84 29.64 51.82 29.64C53.8 29.64 55.61 30.1 57.25 31.02C58.91 31.94 60.21 33.22 61.15 34.86C62.11 36.5 62.59 38.35 62.59 40.41C62.59 42.47 62.11 44.33 61.15 45.99C60.19 47.63 58.89 48.91 57.25 49.83C55.61 50.75 53.8 51.21 51.82 51.21ZM51.82 46.53C53.5 46.53 54.84 45.97 55.84 44.85C56.86 43.73 57.37 42.25 57.37 40.41C57.37 38.55 56.86 37.07 55.84 35.97C54.84 34.85 53.5 34.29 51.82 34.29C50.12 34.29 48.76 34.84 47.74 35.94C46.74 37.04 46.24 38.53 46.24 40.41C46.24 42.27 46.74 43.76 47.74 44.88C48.76 45.98 50.12 46.53 51.82 46.53ZM70.574 28.8V51H65.444V28.8H70.574ZM73.2716 42.6C73.2716 40.88 73.5916 39.37 74.2316 38.07C74.8916 36.77 75.7816 35.77 76.9016 35.07C78.0216 34.37 79.2716 34.02 80.6516 34.02C81.7516 34.02 82.7516 34.25 83.6516 34.71C84.5716 35.17 85.2916 35.79 85.8116 36.57V28.8H90.9416V51H85.8116V48.6C85.3316 49.4 84.6416 50.04 83.7416 50.52C82.8616 51 81.8316 51.24 80.6516 51.24C79.2716 51.24 78.0216 50.89 76.9016 50.19C75.7816 49.47 74.8916 48.46 74.2316 47.16C73.5916 45.84 73.2716 44.32 73.2716 42.6ZM85.8116 42.63C85.8116 41.35 85.4516 40.34 84.7316 39.6C84.0316 38.86 83.1716 38.49 82.1516 38.49C81.1316 38.49 80.2616 38.86 79.5416 39.6C78.8416 40.32 78.4916 41.32 78.4916 42.6C78.4916 43.88 78.8416 44.9 79.5416 45.66C80.2616 46.4 81.1316 46.77 82.1516 46.77C83.1716 46.77 84.0316 46.4 84.7316 45.66C85.4516 44.92 85.8116 43.91 85.8116 42.63ZM114.99 36.6C114.61 35.9 114.06 35.37 113.34 35.01C112.64 34.63 111.81 34.44 110.85 34.44C109.19 34.44 107.86 34.99 106.86 36.09C105.86 37.17 105.36 38.62 105.36 40.44C105.36 42.38 105.88 43.9 106.92 45C107.98 46.08 109.43 46.62 111.27 46.62C112.53 46.62 113.59 46.3 114.45 45.66C115.33 45.02 115.97 44.1 116.37 42.9H109.86V39.12H121.02V43.89C120.64 45.17 119.99 46.36 119.07 47.46C118.17 48.56 117.02 49.45 115.62 50.13C114.22 50.81 112.64 51.15 110.88 51.15C108.8 51.15 106.94 50.7 105.3 49.8C103.68 48.88 102.41 47.61 101.49 45.99C100.59 44.37 100.14 42.52 100.14 40.44C100.14 38.36 100.59 36.51 101.49 34.89C102.41 33.25 103.68 31.98 105.3 31.08C106.92 30.16 108.77 29.7 110.85 29.7C113.37 29.7 115.49 30.31 117.21 31.53C118.95 32.75 120.1 34.44 120.66 36.6H114.99ZM128.992 37.05C129.592 36.13 130.342 35.41 131.242 34.89C132.142 34.35 133.142 34.08 134.242 34.08V39.51H132.832C131.552 39.51 130.592 39.79 129.952 40.35C129.312 40.89 128.992 41.85 128.992 43.23V51H123.862V34.26H128.992V37.05ZM144.314 51.24C142.674 51.24 141.194 50.89 139.874 50.19C138.574 49.49 137.544 48.49 136.784 47.19C136.044 45.89 135.674 44.37 135.674 42.63C135.674 40.91 136.054 39.4 136.814 38.1C137.574 36.78 138.614 35.77 139.934 35.07C141.254 34.37 142.734 34.02 144.374 34.02C146.014 34.02 147.494 34.37 148.814 35.07C150.134 35.77 151.174 36.78 151.934 38.1C152.694 39.4 153.074 40.91 153.074 42.63C153.074 44.35 152.684 45.87 151.904 47.19C151.144 48.49 150.094 49.49 148.754 50.19C147.434 50.89 145.954 51.24 144.314 51.24ZM144.314 46.8C145.294 46.8 146.124 46.44 146.804 45.72C147.504 45 147.854 43.97 147.854 42.63C147.854 41.29 147.514 40.26 146.834 39.54C146.174 38.82 145.354 38.46 144.374 38.46C143.374 38.46 142.544 38.82 141.884 39.54C141.224 40.24 140.894 41.27 140.894 42.63C140.894 43.97 141.214 45 141.854 45.72C142.514 46.44 143.334 46.8 144.314 46.8ZM179.826 34.26L175.296 51H169.626L166.986 40.14L164.256 51H158.616L154.056 34.26H159.186L161.556 46.23L164.376 34.26H169.806L172.656 46.17L174.996 34.26H179.826ZM191.112 46.65V51H188.502C186.642 51 185.192 50.55 184.152 49.65C183.112 48.73 182.592 47.24 182.592 45.18V38.52H180.552V34.26H182.592V30.18H187.722V34.26H191.082V38.52H187.722V45.24C187.722 45.74 187.842 46.1 188.082 46.32C188.322 46.54 188.722 46.65 189.282 46.65H191.112ZM204.259 34.08C206.179 34.08 207.719 34.72 208.879 36C210.039 37.26 210.619 39 210.619 41.22V51H205.519V41.91C205.519 40.79 205.229 39.92 204.649 39.3C204.069 38.68 203.289 38.37 202.309 38.37C201.329 38.37 200.549 38.68 199.969 39.3C199.389 39.92 199.099 40.79 199.099 41.91V51H193.969V28.8H199.099V36.51C199.619 35.77 200.329 35.18 201.229 34.74C202.129 34.3 203.139 34.08 204.259 34.08Z" fill="#999529"/>
</svg>
