<svg width="323" height="113" viewBox="0 0 323 113" fill="none" xmlns="http://www.w3.org/2000/svg">
<g filter="url(#filter0_ddddii_104_832)">
<rect width="290" height="80" transform="translate(15 15)" fill="white"/>
<rect x="15" y="15" width="290" height="80" rx="12" fill="#EB6A00"/>
<path d="M91.1 43.94V65H85.97V56.33H77.99V65H72.86V43.94H77.99V52.19H85.97V43.94H91.1ZM102.423 65.24C100.783 65.24 99.3034 64.89 97.9834 64.19C96.6834 63.49 95.6534 62.49 94.8934 61.19C94.1534 59.89 93.7834 58.37 93.7834 56.63C93.7834 54.91 94.1634 53.4 94.9234 52.1C95.6834 50.78 96.7234 49.77 98.0434 49.07C99.3634 48.37 100.843 48.02 102.483 48.02C104.123 48.02 105.603 48.37 106.923 49.07C108.243 49.77 109.283 50.78 110.043 52.1C110.803 53.4 111.183 54.91 111.183 56.63C111.183 58.35 110.793 59.87 110.013 61.19C109.253 62.49 108.203 63.49 106.863 64.19C105.543 64.89 104.063 65.24 102.423 65.24ZM102.423 60.8C103.403 60.8 104.233 60.44 104.913 59.72C105.613 59 105.963 57.97 105.963 56.63C105.963 55.29 105.623 54.26 104.943 53.54C104.283 52.82 103.463 52.46 102.483 52.46C101.483 52.46 100.653 52.82 99.9934 53.54C99.3334 54.24 99.0034 55.27 99.0034 56.63C99.0034 57.97 99.3234 59 99.9634 59.72C100.623 60.44 101.443 60.8 102.423 60.8ZM137.935 48.26L133.405 65H127.735L125.095 54.14L122.365 65H116.725L112.165 48.26H117.295L119.665 60.23L122.485 48.26H127.915L130.765 60.17L133.105 48.26H137.935ZM155.579 60.65V65H152.969C151.109 65 149.659 64.55 148.619 63.65C147.579 62.73 147.059 61.24 147.059 59.18V52.52H145.019V48.26H147.059V44.18H152.189V48.26H155.549V52.52H152.189V59.24C152.189 59.74 152.309 60.1 152.549 60.32C152.789 60.54 153.189 60.65 153.749 60.65H155.579ZM166.056 65.24C164.416 65.24 162.936 64.89 161.616 64.19C160.316 63.49 159.286 62.49 158.526 61.19C157.786 59.89 157.416 58.37 157.416 56.63C157.416 54.91 157.796 53.4 158.556 52.1C159.316 50.78 160.356 49.77 161.676 49.07C162.996 48.37 164.476 48.02 166.116 48.02C167.756 48.02 169.236 48.37 170.556 49.07C171.876 49.77 172.916 50.78 173.676 52.1C174.436 53.4 174.816 54.91 174.816 56.63C174.816 58.35 174.426 59.87 173.646 61.19C172.886 62.49 171.836 63.49 170.496 64.19C169.176 64.89 167.696 65.24 166.056 65.24ZM166.056 60.8C167.036 60.8 167.866 60.44 168.546 59.72C169.246 59 169.596 57.97 169.596 56.63C169.596 55.29 169.256 54.26 168.576 53.54C167.916 52.82 167.096 52.46 166.116 52.46C165.116 52.46 164.286 52.82 163.626 53.54C162.966 54.24 162.636 55.27 162.636 56.63C162.636 57.97 162.956 59 163.596 59.72C164.256 60.44 165.076 60.8 166.056 60.8ZM199.945 50.72C199.945 51.94 199.665 53.06 199.105 54.08C198.545 55.08 197.685 55.89 196.525 56.51C195.365 57.13 193.925 57.44 192.205 57.44H189.025V65H183.895V43.94H192.205C193.885 43.94 195.305 44.23 196.465 44.81C197.625 45.39 198.495 46.19 199.075 47.21C199.655 48.23 199.945 49.4 199.945 50.72ZM191.815 53.36C192.795 53.36 193.525 53.13 194.005 52.67C194.485 52.21 194.725 51.56 194.725 50.72C194.725 49.88 194.485 49.23 194.005 48.77C193.525 48.31 192.795 48.08 191.815 48.08H189.025V53.36H191.815ZM207.746 42.8V65H202.616V42.8H207.746ZM210.444 56.6C210.444 54.88 210.764 53.37 211.404 52.07C212.064 50.77 212.954 49.77 214.074 49.07C215.194 48.37 216.444 48.02 217.824 48.02C219.004 48.02 220.034 48.26 220.914 48.74C221.814 49.22 222.504 49.85 222.984 50.63V48.26H228.114V65H222.984V62.63C222.484 63.41 221.784 64.04 220.884 64.52C220.004 65 218.974 65.24 217.794 65.24C216.434 65.24 215.194 64.89 214.074 64.19C212.954 63.47 212.064 62.46 211.404 61.16C210.764 59.84 210.444 58.32 210.444 56.6ZM222.984 56.63C222.984 55.35 222.624 54.34 221.904 53.6C221.204 52.86 220.344 52.49 219.324 52.49C218.304 52.49 217.434 52.86 216.714 53.6C216.014 54.32 215.664 55.32 215.664 56.6C215.664 57.88 216.014 58.9 216.714 59.66C217.434 60.4 218.304 60.77 219.324 60.77C220.344 60.77 221.204 60.4 221.904 59.66C222.624 58.92 222.984 57.91 222.984 56.63ZM248.925 48.26L238.425 72.95H232.905L236.745 64.43L229.935 48.26H235.665L239.535 58.73L243.375 48.26H248.925Z" fill="white"/>
</g>
<defs>
<filter id="filter0_ddddii_104_832" x="0" y="0" width="323" height="113" filterUnits="userSpaceOnUse" color-interpolation-filters="sRGB">
<feFlood flood-opacity="0" result="BackgroundImageFix"/>
<feColorMatrix in="SourceAlpha" type="matrix" values="0 0 0 0 0 0 0 0 0 0 0 0 0 0 0 0 0 0 127 0" result="hardAlpha"/>
<feOffset dx="5" dy="5"/>
<feGaussianBlur stdDeviation="6.5"/>
<feColorMatrix type="matrix" values="0 0 0 0 0.901961 0 0 0 0 0.901961 0 0 0 0 0.901961 0 0 0 0.9 0"/>
<feBlend mode="normal" in2="BackgroundImageFix" result="effect1_dropShadow_104_832"/>
<feColorMatrix in="SourceAlpha" type="matrix" values="0 0 0 0 0 0 0 0 0 0 0 0 0 0 0 0 0 0 127 0" result="hardAlpha"/>
<feOffset dx="-5" dy="-5"/>
<feGaussianBlur stdDeviation="5"/>
<feColorMatrix type="matrix" values="0 0 0 0 1 0 0 0 0 1 0 0 0 0 1 0 0 0 0.9 0"/>
<feBlend mode="normal" in2="effect1_dropShadow_104_832" result="effect2_dropShadow_104_832"/>
<feColorMatrix in="SourceAlpha" type="matrix" values="0 0 0 0 0 0 0 0 0 0 0 0 0 0 0 0 0 0 127 0" result="hardAlpha"/>
<feOffset dx="5" dy="-5"/>
<feGaussianBlur stdDeviation="5"/>
<feColorMatrix type="matrix" values="0 0 0 0 0.901961 0 0 0 0 0.901961 0 0 0 0 0.901961 0 0 0 0.2 0"/>
<feBlend mode="normal" in2="effect2_dropShadow_104_832" result="effect3_dropShadow_104_832"/>
<feColorMatrix in="SourceAlpha" type="matrix" values="0 0 0 0 0 0 0 0 0 0 0 0 0 0 0 0 0 0 127 0" result="hardAlpha"/>
<feOffset dx="-5" dy="5"/>
<feGaussianBlur stdDeviation="5"/>
<feColorMatrix type="matrix" values="0 0 0 0 0.901961 0 0 0 0 0.901961 0 0 0 0 0.901961 0 0 0 0.2 0"/>
<feBlend mode="normal" in2="effect3_dropShadow_104_832" result="effect4_dropShadow_104_832"/>
<feBlend mode="normal" in="SourceGraphic" in2="effect4_dropShadow_104_832" result="shape"/>
<feColorMatrix in="SourceAlpha" type="matrix" values="0 0 0 0 0 0 0 0 0 0 0 0 0 0 0 0 0 0 127 0" result="hardAlpha"/>
<feOffset dx="-1" dy="-1"/>
<feGaussianBlur stdDeviation="1"/>
<feComposite in2="hardAlpha" operator="arithmetic" k2="-1" k3="1"/>
<feColorMatrix type="matrix" values="0 0 0 0 0.901961 0 0 0 0 0.901961 0 0 0 0 0.901961 0 0 0 0.5 0"/>
<feBlend mode="normal" in2="shape" result="effect5_innerShadow_104_832"/>
<feColorMatrix in="SourceAlpha" type="matrix" values="0 0 0 0 0 0 0 0 0 0 0 0 0 0 0 0 0 0 127 0" result="hardAlpha"/>
<feOffset dx="1" dy="1"/>
<feGaussianBlur stdDeviation="1"/>
<feComposite in2="hardAlpha" operator="arithmetic" k2="-1" k3="1"/>
<feColorMatrix type="matrix" values="0 0 0 0 1 0 0 0 0 1 0 0 0 0 1 0 0 0 0.3 0"/>
<feBlend mode="normal" in2="effect5_innerShadow_104_832" result="effect6_innerShadow_104_832"/>
</filter>
</defs>
</svg>
