<svg width="321" height="163" viewBox="0 0 321 163" fill="none" xmlns="http://www.w3.org/2000/svg">
<g filter="url(#filter0_ddddii_104_835)">
<rect width="288" height="130" transform="translate(15 15)" fill="white"/>
<rect x="15" y="15" width="288" height="130" rx="12" fill="#999529"/>
<path d="M78.1267 70.04H84.8467V74H72.9967V52.94H78.1267V70.04ZM103.074 65.36C103.074 65.84 103.044 66.34 102.984 66.86H91.3736C91.4536 67.9 91.7836 68.7 92.3636 69.26C92.9636 69.8 93.6936 70.07 94.5536 70.07C95.8336 70.07 96.7236 69.53 97.2236 68.45H102.684C102.404 69.55 101.894 70.54 101.154 71.42C100.434 72.3 99.5236 72.99 98.4236 73.49C97.3236 73.99 96.0936 74.24 94.7336 74.24C93.0936 74.24 91.6336 73.89 90.3536 73.19C89.0736 72.49 88.0736 71.49 87.3536 70.19C86.6336 68.89 86.2736 67.37 86.2736 65.63C86.2736 63.89 86.6236 62.37 87.3236 61.07C88.0436 59.77 89.0436 58.77 90.3236 58.07C91.6036 57.37 93.0736 57.02 94.7336 57.02C96.3536 57.02 97.7936 57.36 99.0536 58.04C100.314 58.72 101.294 59.69 101.994 60.95C102.714 62.21 103.074 63.68 103.074 65.36ZM97.8236 64.01C97.8236 63.13 97.5236 62.43 96.9236 61.91C96.3236 61.39 95.5736 61.13 94.6736 61.13C93.8136 61.13 93.0836 61.38 92.4836 61.88C91.9036 62.38 91.5436 63.09 91.4036 64.01H97.8236ZM104.76 65.6C104.76 63.88 105.08 62.37 105.72 61.07C106.38 59.77 107.27 58.77 108.39 58.07C109.51 57.37 110.76 57.02 112.14 57.02C113.32 57.02 114.35 57.26 115.23 57.74C116.13 58.22 116.82 58.85 117.3 59.63V57.26H122.43V74H117.3V71.63C116.8 72.41 116.1 73.04 115.2 73.52C114.32 74 113.29 74.24 112.11 74.24C110.75 74.24 109.51 73.89 108.39 73.19C107.27 72.47 106.38 71.46 105.72 70.16C105.08 68.84 104.76 67.32 104.76 65.6ZM117.3 65.63C117.3 64.35 116.94 63.34 116.22 62.6C115.52 61.86 114.66 61.49 113.64 61.49C112.62 61.49 111.75 61.86 111.03 62.6C110.33 63.32 109.98 64.32 109.98 65.6C109.98 66.88 110.33 67.9 111.03 68.66C111.75 69.4 112.62 69.77 113.64 69.77C114.66 69.77 115.52 69.4 116.22 68.66C116.94 67.92 117.3 66.91 117.3 65.63ZM131.271 60.05C131.871 59.13 132.621 58.41 133.521 57.89C134.421 57.35 135.421 57.08 136.521 57.08V62.51H135.111C133.831 62.51 132.871 62.79 132.231 63.35C131.591 63.89 131.271 64.85 131.271 66.23V74H126.141V57.26H131.271V60.05ZM149.173 57.08C151.133 57.08 152.693 57.72 153.853 59C155.033 60.26 155.623 62 155.623 64.22V74H150.523V64.91C150.523 63.79 150.233 62.92 149.653 62.3C149.073 61.68 148.293 61.37 147.313 61.37C146.333 61.37 145.553 61.68 144.973 62.3C144.393 62.92 144.103 63.79 144.103 64.91V74H138.973V57.26H144.103V59.48C144.623 58.74 145.323 58.16 146.203 57.74C147.083 57.3 148.073 57.08 149.173 57.08ZM186.906 57.08C188.986 57.08 190.636 57.71 191.856 58.97C193.096 60.23 193.716 61.98 193.716 64.22V74H188.616V64.91C188.616 63.83 188.326 63 187.746 62.42C187.186 61.82 186.406 61.52 185.406 61.52C184.406 61.52 183.616 61.82 183.036 62.42C182.476 63 182.196 63.83 182.196 64.91V74H177.096V64.91C177.096 63.83 176.806 63 176.226 62.42C175.666 61.82 174.886 61.52 173.886 61.52C172.886 61.52 172.096 61.82 171.516 62.42C170.956 63 170.676 63.83 170.676 64.91V74H165.546V57.26H170.676V59.36C171.196 58.66 171.876 58.11 172.716 57.71C173.556 57.29 174.506 57.08 175.566 57.08C176.826 57.08 177.946 57.35 178.926 57.89C179.926 58.43 180.706 59.2 181.266 60.2C181.846 59.28 182.636 58.53 183.636 57.95C184.636 57.37 185.726 57.08 186.906 57.08ZM204.923 74.24C203.283 74.24 201.803 73.89 200.483 73.19C199.183 72.49 198.153 71.49 197.393 70.19C196.653 68.89 196.283 67.37 196.283 65.63C196.283 63.91 196.663 62.4 197.423 61.1C198.183 59.78 199.223 58.77 200.543 58.07C201.863 57.37 203.343 57.02 204.983 57.02C206.623 57.02 208.103 57.37 209.423 58.07C210.743 58.77 211.783 59.78 212.543 61.1C213.303 62.4 213.683 63.91 213.683 65.63C213.683 67.35 213.293 68.87 212.513 70.19C211.753 71.49 210.703 72.49 209.363 73.19C208.043 73.89 206.563 74.24 204.923 74.24ZM204.923 69.8C205.903 69.8 206.733 69.44 207.413 68.72C208.113 68 208.463 66.97 208.463 65.63C208.463 64.29 208.123 63.26 207.443 62.54C206.783 61.82 205.963 61.46 204.983 61.46C203.983 61.46 203.153 61.82 202.493 62.54C201.833 63.24 201.503 64.27 201.503 65.63C201.503 66.97 201.823 68 202.463 68.72C203.123 69.44 203.943 69.8 204.923 69.8ZM221.535 60.05C222.135 59.13 222.885 58.41 223.785 57.89C224.685 57.35 225.685 57.08 226.785 57.08V62.51H225.375C224.095 62.51 223.135 62.79 222.495 63.35C221.855 63.89 221.535 64.85 221.535 66.23V74H216.405V57.26H221.535V60.05ZM245.017 65.36C245.017 65.84 244.987 66.34 244.927 66.86H233.317C233.397 67.9 233.727 68.7 234.307 69.26C234.907 69.8 235.637 70.07 236.497 70.07C237.777 70.07 238.667 69.53 239.167 68.45H244.627C244.347 69.55 243.837 70.54 243.097 71.42C242.377 72.3 241.467 72.99 240.367 73.49C239.267 73.99 238.037 74.24 236.677 74.24C235.037 74.24 233.577 73.89 232.297 73.19C231.017 72.49 230.017 71.49 229.297 70.19C228.577 68.89 228.217 67.37 228.217 65.63C228.217 63.89 228.567 62.37 229.267 61.07C229.987 59.77 230.987 58.77 232.267 58.07C233.547 57.37 235.017 57.02 236.677 57.02C238.297 57.02 239.737 57.36 240.997 58.04C242.257 58.72 243.237 59.69 243.937 60.95C244.657 62.21 245.017 63.68 245.017 65.36ZM239.767 64.01C239.767 63.13 239.467 62.43 238.867 61.91C238.267 61.39 237.517 61.13 236.617 61.13C235.757 61.13 235.027 61.38 234.427 61.88C233.847 62.38 233.487 63.09 233.347 64.01H239.767ZM62.1769 98.6C62.1769 96.88 62.4969 95.37 63.1369 94.07C63.7969 92.77 64.6869 91.77 65.8069 91.07C66.9269 90.37 68.1769 90.02 69.5569 90.02C70.7369 90.02 71.7669 90.26 72.6469 90.74C73.5469 91.22 74.2369 91.85 74.7169 92.63V90.26H79.8469V107H74.7169V104.63C74.2169 105.41 73.5169 106.04 72.6169 106.52C71.7369 107 70.7069 107.24 69.5269 107.24C68.1669 107.24 66.9269 106.89 65.8069 106.19C64.6869 105.47 63.7969 104.46 63.1369 103.16C62.4969 101.84 62.1769 100.32 62.1769 98.6ZM74.7169 98.63C74.7169 97.35 74.3569 96.34 73.6369 95.6C72.9369 94.86 72.0769 94.49 71.0569 94.49C70.0369 94.49 69.1669 94.86 68.4469 95.6C67.7469 96.32 67.3969 97.32 67.3969 98.6C67.3969 99.88 67.7469 100.9 68.4469 101.66C69.1669 102.4 70.0369 102.77 71.0569 102.77C72.0769 102.77 72.9369 102.4 73.6369 101.66C74.3569 100.92 74.7169 99.91 74.7169 98.63ZM88.6882 92.63C89.1682 91.85 89.8582 91.22 90.7582 90.74C91.6582 90.26 92.6882 90.02 93.8482 90.02C95.2282 90.02 96.4782 90.37 97.5982 91.07C98.7182 91.77 99.5982 92.77 100.238 94.07C100.898 95.37 101.228 96.88 101.228 98.6C101.228 100.32 100.898 101.84 100.238 103.16C99.5982 104.46 98.7182 105.47 97.5982 106.19C96.4782 106.89 95.2282 107.24 93.8482 107.24C92.6682 107.24 91.6382 107.01 90.7582 106.55C89.8782 106.07 89.1882 105.44 88.6882 104.66V107H83.5582V84.8H88.6882V92.63ZM96.0082 98.6C96.0082 97.32 95.6482 96.32 94.9282 95.6C94.2282 94.86 93.3582 94.49 92.3182 94.49C91.2982 94.49 90.4282 94.86 89.7082 95.6C89.0082 96.34 88.6582 97.35 88.6582 98.63C88.6582 99.91 89.0082 100.92 89.7082 101.66C90.4282 102.4 91.2982 102.77 92.3182 102.77C93.3382 102.77 94.2082 102.4 94.9282 101.66C95.6482 100.9 96.0082 99.88 96.0082 98.6ZM111.54 107.24C109.9 107.24 108.42 106.89 107.1 106.19C105.8 105.49 104.77 104.49 104.01 103.19C103.27 101.89 102.9 100.37 102.9 98.63C102.9 96.91 103.28 95.4 104.04 94.1C104.8 92.78 105.84 91.77 107.16 91.07C108.48 90.37 109.96 90.02 111.6 90.02C113.24 90.02 114.72 90.37 116.04 91.07C117.36 91.77 118.4 92.78 119.16 94.1C119.92 95.4 120.3 96.91 120.3 98.63C120.3 100.35 119.91 101.87 119.13 103.19C118.37 104.49 117.32 105.49 115.98 106.19C114.66 106.89 113.18 107.24 111.54 107.24ZM111.54 102.8C112.52 102.8 113.35 102.44 114.03 101.72C114.73 101 115.08 99.97 115.08 98.63C115.08 97.29 114.74 96.26 114.06 95.54C113.4 94.82 112.58 94.46 111.6 94.46C110.6 94.46 109.77 94.82 109.11 95.54C108.45 96.24 108.12 97.27 108.12 98.63C108.12 99.97 108.44 101 109.08 101.72C109.74 102.44 110.56 102.8 111.54 102.8ZM139.551 90.26V107H134.421V104.72C133.901 105.46 133.191 106.06 132.291 106.52C131.411 106.96 130.431 107.18 129.351 107.18C128.071 107.18 126.941 106.9 125.961 106.34C124.981 105.76 124.221 104.93 123.681 103.85C123.141 102.77 122.871 101.5 122.871 100.04V90.26H127.971V99.35C127.971 100.47 128.261 101.34 128.841 101.96C129.421 102.58 130.201 102.89 131.181 102.89C132.181 102.89 132.971 102.58 133.551 101.96C134.131 101.34 134.421 100.47 134.421 99.35V90.26H139.551ZM152.566 102.65V107H149.956C148.096 107 146.646 106.55 145.606 105.65C144.566 104.73 144.046 103.24 144.046 101.18V94.52H142.006V90.26H144.046V86.18H149.176V90.26H152.536V94.52H149.176V101.24C149.176 101.74 149.296 102.1 149.536 102.32C149.776 102.54 150.176 102.65 150.736 102.65H152.566ZM175.491 85.94V90.05H166.911V94.49H173.331V98.48H166.911V107H161.781V85.94H175.491ZM185.807 107.24C184.167 107.24 182.687 106.89 181.367 106.19C180.067 105.49 179.037 104.49 178.277 103.19C177.537 101.89 177.167 100.37 177.167 98.63C177.167 96.91 177.547 95.4 178.307 94.1C179.067 92.78 180.107 91.77 181.427 91.07C182.747 90.37 184.227 90.02 185.867 90.02C187.507 90.02 188.987 90.37 190.307 91.07C191.627 91.77 192.667 92.78 193.427 94.1C194.187 95.4 194.567 96.91 194.567 98.63C194.567 100.35 194.177 101.87 193.397 103.19C192.637 104.49 191.587 105.49 190.247 106.19C188.927 106.89 187.447 107.24 185.807 107.24ZM185.807 102.8C186.787 102.8 187.617 102.44 188.297 101.72C188.997 101 189.347 99.97 189.347 98.63C189.347 97.29 189.007 96.26 188.327 95.54C187.667 94.82 186.847 94.46 185.867 94.46C184.867 94.46 184.037 94.82 183.377 95.54C182.717 96.24 182.387 97.27 182.387 98.63C182.387 99.97 182.707 101 183.347 101.72C184.007 102.44 184.827 102.8 185.807 102.8ZM202.419 93.05C203.019 92.13 203.769 91.41 204.669 90.89C205.569 90.35 206.569 90.08 207.669 90.08V95.51H206.259C204.979 95.51 204.019 95.79 203.379 96.35C202.739 96.89 202.419 97.85 202.419 99.23V107H197.289V90.26H202.419V93.05ZM225.901 98.36C225.901 98.84 225.871 99.34 225.811 99.86H214.201C214.281 100.9 214.611 101.7 215.191 102.26C215.791 102.8 216.521 103.07 217.381 103.07C218.661 103.07 219.551 102.53 220.051 101.45H225.511C225.231 102.55 224.721 103.54 223.981 104.42C223.261 105.3 222.351 105.99 221.251 106.49C220.151 106.99 218.921 107.24 217.561 107.24C215.921 107.24 214.461 106.89 213.181 106.19C211.901 105.49 210.901 104.49 210.181 103.19C209.461 101.89 209.101 100.37 209.101 98.63C209.101 96.89 209.451 95.37 210.151 94.07C210.871 92.77 211.871 91.77 213.151 91.07C214.431 90.37 215.901 90.02 217.561 90.02C219.181 90.02 220.621 90.36 221.881 91.04C223.141 91.72 224.121 92.69 224.821 93.95C225.541 95.21 225.901 96.68 225.901 98.36ZM220.651 97.01C220.651 96.13 220.351 95.43 219.751 94.91C219.151 94.39 218.401 94.13 217.501 94.13C216.641 94.13 215.911 94.38 215.311 94.88C214.731 95.38 214.371 96.09 214.231 97.01H220.651ZM235.417 107.24C233.957 107.24 232.657 106.99 231.517 106.49C230.377 105.99 229.477 105.31 228.817 104.45C228.157 103.57 227.787 102.59 227.707 101.51H232.777C232.837 102.09 233.107 102.56 233.587 102.92C234.067 103.28 234.657 103.46 235.357 103.46C235.997 103.46 236.487 103.34 236.827 103.1C237.187 102.84 237.367 102.51 237.367 102.11C237.367 101.63 237.117 101.28 236.617 101.06C236.117 100.82 235.307 100.56 234.187 100.28C232.987 100 231.987 99.71 231.187 99.41C230.387 99.09 229.697 98.6 229.117 97.94C228.537 97.26 228.247 96.35 228.247 95.21C228.247 94.25 228.507 93.38 229.027 92.6C229.567 91.8 230.347 91.17 231.367 90.71C232.407 90.25 233.637 90.02 235.057 90.02C237.157 90.02 238.807 90.54 240.007 91.58C241.227 92.62 241.927 94 242.107 95.72H237.367C237.287 95.14 237.027 94.68 236.587 94.34C236.167 94 235.607 93.83 234.907 93.83C234.307 93.83 233.847 93.95 233.527 94.19C233.207 94.41 233.047 94.72 233.047 95.12C233.047 95.6 233.297 95.96 233.797 96.2C234.317 96.44 235.117 96.68 236.197 96.92C237.437 97.24 238.447 97.56 239.227 97.88C240.007 98.18 240.687 98.68 241.267 99.38C241.867 100.06 242.177 100.98 242.197 102.14C242.197 103.12 241.917 104 241.357 104.78C240.817 105.54 240.027 106.14 238.987 106.58C237.967 107.02 236.777 107.24 235.417 107.24ZM254.666 102.65V107H252.056C250.196 107 248.746 106.55 247.706 105.65C246.666 104.73 246.146 103.24 246.146 101.18V94.52H244.106V90.26H246.146V86.18H251.276V90.26H254.636V94.52H251.276V101.24C251.276 101.74 251.396 102.1 251.636 102.32C251.876 102.54 252.276 102.65 252.836 102.65H254.666Z" fill="white"/>
</g>
<defs>
<filter id="filter0_ddddii_104_835" x="0" y="0" width="321" height="163" filterUnits="userSpaceOnUse" color-interpolation-filters="sRGB">
<feFlood flood-opacity="0" result="BackgroundImageFix"/>
<feColorMatrix in="SourceAlpha" type="matrix" values="0 0 0 0 0 0 0 0 0 0 0 0 0 0 0 0 0 0 127 0" result="hardAlpha"/>
<feOffset dx="5" dy="5"/>
<feGaussianBlur stdDeviation="6.5"/>
<feColorMatrix type="matrix" values="0 0 0 0 0.901961 0 0 0 0 0.901961 0 0 0 0 0.901961 0 0 0 0.9 0"/>
<feBlend mode="normal" in2="BackgroundImageFix" result="effect1_dropShadow_104_835"/>
<feColorMatrix in="SourceAlpha" type="matrix" values="0 0 0 0 0 0 0 0 0 0 0 0 0 0 0 0 0 0 127 0" result="hardAlpha"/>
<feOffset dx="-5" dy="-5"/>
<feGaussianBlur stdDeviation="5"/>
<feColorMatrix type="matrix" values="0 0 0 0 1 0 0 0 0 1 0 0 0 0 1 0 0 0 0.9 0"/>
<feBlend mode="normal" in2="effect1_dropShadow_104_835" result="effect2_dropShadow_104_835"/>
<feColorMatrix in="SourceAlpha" type="matrix" values="0 0 0 0 0 0 0 0 0 0 0 0 0 0 0 0 0 0 127 0" result="hardAlpha"/>
<feOffset dx="5" dy="-5"/>
<feGaussianBlur stdDeviation="5"/>
<feColorMatrix type="matrix" values="0 0 0 0 0.901961 0 0 0 0 0.901961 0 0 0 0 0.901961 0 0 0 0.2 0"/>
<feBlend mode="normal" in2="effect2_dropShadow_104_835" result="effect3_dropShadow_104_835"/>
<feColorMatrix in="SourceAlpha" type="matrix" values="0 0 0 0 0 0 0 0 0 0 0 0 0 0 0 0 0 0 127 0" result="hardAlpha"/>
<feOffset dx="-5" dy="5"/>
<feGaussianBlur stdDeviation="5"/>
<feColorMatrix type="matrix" values="0 0 0 0 0.901961 0 0 0 0 0.901961 0 0 0 0 0.901961 0 0 0 0.2 0"/>
<feBlend mode="normal" in2="effect3_dropShadow_104_835" result="effect4_dropShadow_104_835"/>
<feBlend mode="normal" in="SourceGraphic" in2="effect4_dropShadow_104_835" result="shape"/>
<feColorMatrix in="SourceAlpha" type="matrix" values="0 0 0 0 0 0 0 0 0 0 0 0 0 0 0 0 0 0 127 0" result="hardAlpha"/>
<feOffset dx="-1" dy="-1"/>
<feGaussianBlur stdDeviation="1"/>
<feComposite in2="hardAlpha" operator="arithmetic" k2="-1" k3="1"/>
<feColorMatrix type="matrix" values="0 0 0 0 0.901961 0 0 0 0 0.901961 0 0 0 0 0.901961 0 0 0 0.5 0"/>
<feBlend mode="normal" in2="shape" result="effect5_innerShadow_104_835"/>
<feColorMatrix in="SourceAlpha" type="matrix" values="0 0 0 0 0 0 0 0 0 0 0 0 0 0 0 0 0 0 127 0" result="hardAlpha"/>
<feOffset dx="1" dy="1"/>
<feGaussianBlur stdDeviation="1"/>
<feComposite in2="hardAlpha" operator="arithmetic" k2="-1" k3="1"/>
<feColorMatrix type="matrix" values="0 0 0 0 1 0 0 0 0 1 0 0 0 0 1 0 0 0 0.3 0"/>
<feBlend mode="normal" in2="effect5_innerShadow_104_835" result="effect6_innerShadow_104_835"/>
</filter>
</defs>
</svg>
