<svg width="294" height="136" viewBox="0 0 294 136" fill="none" xmlns="http://www.w3.org/2000/svg">
<g filter="url(#filter0_ddiiii_104_866)">
<rect x="3" y="3" width="288" height="130" rx="12" fill="white"/>
<rect x="3" y="3" width="288" height="130" rx="12" fill="#999529"/>
<path d="M66.1267 58.04H72.8467V62H60.9967V40.94H66.1267V58.04ZM91.0736 53.36C91.0736 53.84 91.0436 54.34 90.9836 54.86H79.3736C79.4536 55.9 79.7836 56.7 80.3636 57.26C80.9636 57.8 81.6936 58.07 82.5536 58.07C83.8336 58.07 84.7236 57.53 85.2236 56.45H90.6836C90.4036 57.55 89.8936 58.54 89.1536 59.42C88.4336 60.3 87.5236 60.99 86.4236 61.49C85.3236 61.99 84.0936 62.24 82.7336 62.24C81.0936 62.24 79.6336 61.89 78.3536 61.19C77.0736 60.49 76.0736 59.49 75.3536 58.19C74.6336 56.89 74.2736 55.37 74.2736 53.63C74.2736 51.89 74.6236 50.37 75.3236 49.07C76.0436 47.77 77.0436 46.77 78.3236 46.07C79.6036 45.37 81.0736 45.02 82.7336 45.02C84.3536 45.02 85.7936 45.36 87.0536 46.04C88.3136 46.72 89.2936 47.69 89.9936 48.95C90.7136 50.21 91.0736 51.68 91.0736 53.36ZM85.8236 52.01C85.8236 51.13 85.5236 50.43 84.9236 49.91C84.3236 49.39 83.5736 49.13 82.6736 49.13C81.8136 49.13 81.0836 49.38 80.4836 49.88C79.9036 50.38 79.5436 51.09 79.4036 52.01H85.8236ZM92.7599 53.6C92.7599 51.88 93.0799 50.37 93.7199 49.07C94.3799 47.77 95.2699 46.77 96.3899 46.07C97.5099 45.37 98.7599 45.02 100.14 45.02C101.32 45.02 102.35 45.26 103.23 45.74C104.13 46.22 104.82 46.85 105.3 47.63V45.26H110.43V62H105.3V59.63C104.8 60.41 104.1 61.04 103.2 61.52C102.32 62 101.29 62.24 100.11 62.24C98.7499 62.24 97.5099 61.89 96.3899 61.19C95.2699 60.47 94.3799 59.46 93.7199 58.16C93.0799 56.84 92.7599 55.32 92.7599 53.6ZM105.3 53.63C105.3 52.35 104.94 51.34 104.22 50.6C103.52 49.86 102.66 49.49 101.64 49.49C100.62 49.49 99.7499 49.86 99.0299 50.6C98.3299 51.32 97.9799 52.32 97.9799 53.6C97.9799 54.88 98.3299 55.9 99.0299 56.66C99.7499 57.4 100.62 57.77 101.64 57.77C102.66 57.77 103.52 57.4 104.22 56.66C104.94 55.92 105.3 54.91 105.3 53.63ZM119.271 48.05C119.871 47.13 120.621 46.41 121.521 45.89C122.421 45.35 123.421 45.08 124.521 45.08V50.51H123.111C121.831 50.51 120.871 50.79 120.231 51.35C119.591 51.89 119.271 52.85 119.271 54.23V62H114.141V45.26H119.271V48.05ZM137.173 45.08C139.133 45.08 140.693 45.72 141.853 47C143.033 48.26 143.623 50 143.623 52.22V62H138.523V52.91C138.523 51.79 138.233 50.92 137.653 50.3C137.073 49.68 136.293 49.37 135.313 49.37C134.333 49.37 133.553 49.68 132.973 50.3C132.393 50.92 132.103 51.79 132.103 52.91V62H126.973V45.26H132.103V47.48C132.623 46.74 133.323 46.16 134.203 45.74C135.083 45.3 136.073 45.08 137.173 45.08ZM174.906 45.08C176.986 45.08 178.636 45.71 179.856 46.97C181.096 48.23 181.716 49.98 181.716 52.22V62H176.616V52.91C176.616 51.83 176.326 51 175.746 50.42C175.186 49.82 174.406 49.52 173.406 49.52C172.406 49.52 171.616 49.82 171.036 50.42C170.476 51 170.196 51.83 170.196 52.91V62H165.096V52.91C165.096 51.83 164.806 51 164.226 50.42C163.666 49.82 162.886 49.52 161.886 49.52C160.886 49.52 160.096 49.82 159.516 50.42C158.956 51 158.676 51.83 158.676 52.91V62H153.546V45.26H158.676V47.36C159.196 46.66 159.876 46.11 160.716 45.71C161.556 45.29 162.506 45.08 163.566 45.08C164.826 45.08 165.946 45.35 166.926 45.89C167.926 46.43 168.706 47.2 169.266 48.2C169.846 47.28 170.636 46.53 171.636 45.95C172.636 45.37 173.726 45.08 174.906 45.08ZM192.923 62.24C191.283 62.24 189.803 61.89 188.483 61.19C187.183 60.49 186.153 59.49 185.393 58.19C184.653 56.89 184.283 55.37 184.283 53.63C184.283 51.91 184.663 50.4 185.423 49.1C186.183 47.78 187.223 46.77 188.543 46.07C189.863 45.37 191.343 45.02 192.983 45.02C194.623 45.02 196.103 45.37 197.423 46.07C198.743 46.77 199.783 47.78 200.543 49.1C201.303 50.4 201.683 51.91 201.683 53.63C201.683 55.35 201.293 56.87 200.513 58.19C199.753 59.49 198.703 60.49 197.363 61.19C196.043 61.89 194.563 62.24 192.923 62.24ZM192.923 57.8C193.903 57.8 194.733 57.44 195.413 56.72C196.113 56 196.463 54.97 196.463 53.63C196.463 52.29 196.123 51.26 195.443 50.54C194.783 49.82 193.963 49.46 192.983 49.46C191.983 49.46 191.153 49.82 190.493 50.54C189.833 51.24 189.503 52.27 189.503 53.63C189.503 54.97 189.823 56 190.463 56.72C191.123 57.44 191.943 57.8 192.923 57.8ZM209.535 48.05C210.135 47.13 210.885 46.41 211.785 45.89C212.685 45.35 213.685 45.08 214.785 45.08V50.51H213.375C212.095 50.51 211.135 50.79 210.495 51.35C209.855 51.89 209.535 52.85 209.535 54.23V62H204.405V45.26H209.535V48.05ZM233.017 53.36C233.017 53.84 232.987 54.34 232.927 54.86H221.317C221.397 55.9 221.727 56.7 222.307 57.26C222.907 57.8 223.637 58.07 224.497 58.07C225.777 58.07 226.667 57.53 227.167 56.45H232.627C232.347 57.55 231.837 58.54 231.097 59.42C230.377 60.3 229.467 60.99 228.367 61.49C227.267 61.99 226.037 62.24 224.677 62.24C223.037 62.24 221.577 61.89 220.297 61.19C219.017 60.49 218.017 59.49 217.297 58.19C216.577 56.89 216.217 55.37 216.217 53.63C216.217 51.89 216.567 50.37 217.267 49.07C217.987 47.77 218.987 46.77 220.267 46.07C221.547 45.37 223.017 45.02 224.677 45.02C226.297 45.02 227.737 45.36 228.997 46.04C230.257 46.72 231.237 47.69 231.937 48.95C232.657 50.21 233.017 51.68 233.017 53.36ZM227.767 52.01C227.767 51.13 227.467 50.43 226.867 49.91C226.267 49.39 225.517 49.13 224.617 49.13C223.757 49.13 223.027 49.38 222.427 49.88C221.847 50.38 221.487 51.09 221.347 52.01H227.767ZM50.1769 86.6C50.1769 84.88 50.4969 83.37 51.1369 82.07C51.7969 80.77 52.6869 79.77 53.8069 79.07C54.9269 78.37 56.1769 78.02 57.5569 78.02C58.7369 78.02 59.7669 78.26 60.6469 78.74C61.5469 79.22 62.2369 79.85 62.7169 80.63V78.26H67.8469V95H62.7169V92.63C62.2169 93.41 61.5169 94.04 60.6169 94.52C59.7369 95 58.7069 95.24 57.5269 95.24C56.1669 95.24 54.9269 94.89 53.8069 94.19C52.6869 93.47 51.7969 92.46 51.1369 91.16C50.4969 89.84 50.1769 88.32 50.1769 86.6ZM62.7169 86.63C62.7169 85.35 62.3569 84.34 61.6369 83.6C60.9369 82.86 60.0769 82.49 59.0569 82.49C58.0369 82.49 57.1669 82.86 56.4469 83.6C55.7469 84.32 55.3969 85.32 55.3969 86.6C55.3969 87.88 55.7469 88.9 56.4469 89.66C57.1669 90.4 58.0369 90.77 59.0569 90.77C60.0769 90.77 60.9369 90.4 61.6369 89.66C62.3569 88.92 62.7169 87.91 62.7169 86.63ZM76.6882 80.63C77.1682 79.85 77.8582 79.22 78.7582 78.74C79.6582 78.26 80.6882 78.02 81.8482 78.02C83.2282 78.02 84.4782 78.37 85.5982 79.07C86.7182 79.77 87.5982 80.77 88.2382 82.07C88.8982 83.37 89.2282 84.88 89.2282 86.6C89.2282 88.32 88.8982 89.84 88.2382 91.16C87.5982 92.46 86.7182 93.47 85.5982 94.19C84.4782 94.89 83.2282 95.24 81.8482 95.24C80.6682 95.24 79.6382 95.01 78.7582 94.55C77.8782 94.07 77.1882 93.44 76.6882 92.66V95H71.5582V72.8H76.6882V80.63ZM84.0082 86.6C84.0082 85.32 83.6482 84.32 82.9282 83.6C82.2282 82.86 81.3582 82.49 80.3182 82.49C79.2982 82.49 78.4282 82.86 77.7082 83.6C77.0082 84.34 76.6582 85.35 76.6582 86.63C76.6582 87.91 77.0082 88.92 77.7082 89.66C78.4282 90.4 79.2982 90.77 80.3182 90.77C81.3382 90.77 82.2082 90.4 82.9282 89.66C83.6482 88.9 84.0082 87.88 84.0082 86.6ZM99.5396 95.24C97.8996 95.24 96.4196 94.89 95.0996 94.19C93.7996 93.49 92.7696 92.49 92.0096 91.19C91.2696 89.89 90.8996 88.37 90.8996 86.63C90.8996 84.91 91.2796 83.4 92.0396 82.1C92.7996 80.78 93.8396 79.77 95.1596 79.07C96.4796 78.37 97.9596 78.02 99.5996 78.02C101.24 78.02 102.72 78.37 104.04 79.07C105.36 79.77 106.4 80.78 107.16 82.1C107.92 83.4 108.3 84.91 108.3 86.63C108.3 88.35 107.91 89.87 107.13 91.19C106.37 92.49 105.32 93.49 103.98 94.19C102.66 94.89 101.18 95.24 99.5396 95.24ZM99.5396 90.8C100.52 90.8 101.35 90.44 102.03 89.72C102.73 89 103.08 87.97 103.08 86.63C103.08 85.29 102.74 84.26 102.06 83.54C101.4 82.82 100.58 82.46 99.5996 82.46C98.5996 82.46 97.7696 82.82 97.1096 83.54C96.4496 84.24 96.1196 85.27 96.1196 86.63C96.1196 87.97 96.4396 89 97.0796 89.72C97.7396 90.44 98.5596 90.8 99.5396 90.8ZM127.551 78.26V95H122.421V92.72C121.901 93.46 121.191 94.06 120.291 94.52C119.411 94.96 118.431 95.18 117.351 95.18C116.071 95.18 114.941 94.9 113.961 94.34C112.981 93.76 112.221 92.93 111.681 91.85C111.141 90.77 110.871 89.5 110.871 88.04V78.26H115.971V87.35C115.971 88.47 116.261 89.34 116.841 89.96C117.421 90.58 118.201 90.89 119.181 90.89C120.181 90.89 120.971 90.58 121.551 89.96C122.131 89.34 122.421 88.47 122.421 87.35V78.26H127.551ZM140.566 90.65V95H137.956C136.096 95 134.646 94.55 133.606 93.65C132.566 92.73 132.046 91.24 132.046 89.18V82.52H130.006V78.26H132.046V74.18H137.176V78.26H140.536V82.52H137.176V89.24C137.176 89.74 137.296 90.1 137.536 90.32C137.776 90.54 138.176 90.65 138.736 90.65H140.566ZM163.491 73.94V78.05H154.911V82.49H161.331V86.48H154.911V95H149.781V73.94H163.491ZM173.807 95.24C172.167 95.24 170.687 94.89 169.367 94.19C168.067 93.49 167.037 92.49 166.277 91.19C165.537 89.89 165.167 88.37 165.167 86.63C165.167 84.91 165.547 83.4 166.307 82.1C167.067 80.78 168.107 79.77 169.427 79.07C170.747 78.37 172.227 78.02 173.867 78.02C175.507 78.02 176.987 78.37 178.307 79.07C179.627 79.77 180.667 80.78 181.427 82.1C182.187 83.4 182.567 84.91 182.567 86.63C182.567 88.35 182.177 89.87 181.397 91.19C180.637 92.49 179.587 93.49 178.247 94.19C176.927 94.89 175.447 95.24 173.807 95.24ZM173.807 90.8C174.787 90.8 175.617 90.44 176.297 89.72C176.997 89 177.347 87.97 177.347 86.63C177.347 85.29 177.007 84.26 176.327 83.54C175.667 82.82 174.847 82.46 173.867 82.46C172.867 82.46 172.037 82.82 171.377 83.54C170.717 84.24 170.387 85.27 170.387 86.63C170.387 87.97 170.707 89 171.347 89.72C172.007 90.44 172.827 90.8 173.807 90.8ZM190.419 81.05C191.019 80.13 191.769 79.41 192.669 78.89C193.569 78.35 194.569 78.08 195.669 78.08V83.51H194.259C192.979 83.51 192.019 83.79 191.379 84.35C190.739 84.89 190.419 85.85 190.419 87.23V95H185.289V78.26H190.419V81.05ZM213.901 86.36C213.901 86.84 213.871 87.34 213.811 87.86H202.201C202.281 88.9 202.611 89.7 203.191 90.26C203.791 90.8 204.521 91.07 205.381 91.07C206.661 91.07 207.551 90.53 208.051 89.45H213.511C213.231 90.55 212.721 91.54 211.981 92.42C211.261 93.3 210.351 93.99 209.251 94.49C208.151 94.99 206.921 95.24 205.561 95.24C203.921 95.24 202.461 94.89 201.181 94.19C199.901 93.49 198.901 92.49 198.181 91.19C197.461 89.89 197.101 88.37 197.101 86.63C197.101 84.89 197.451 83.37 198.151 82.07C198.871 80.77 199.871 79.77 201.151 79.07C202.431 78.37 203.901 78.02 205.561 78.02C207.181 78.02 208.621 78.36 209.881 79.04C211.141 79.72 212.121 80.69 212.821 81.95C213.541 83.21 213.901 84.68 213.901 86.36ZM208.651 85.01C208.651 84.13 208.351 83.43 207.751 82.91C207.151 82.39 206.401 82.13 205.501 82.13C204.641 82.13 203.911 82.38 203.311 82.88C202.731 83.38 202.371 84.09 202.231 85.01H208.651ZM223.417 95.24C221.957 95.24 220.657 94.99 219.517 94.49C218.377 93.99 217.477 93.31 216.817 92.45C216.157 91.57 215.787 90.59 215.707 89.51H220.777C220.837 90.09 221.107 90.56 221.587 90.92C222.067 91.28 222.657 91.46 223.357 91.46C223.997 91.46 224.487 91.34 224.827 91.1C225.187 90.84 225.367 90.51 225.367 90.11C225.367 89.63 225.117 89.28 224.617 89.06C224.117 88.82 223.307 88.56 222.187 88.28C220.987 88 219.987 87.71 219.187 87.41C218.387 87.09 217.697 86.6 217.117 85.94C216.537 85.26 216.247 84.35 216.247 83.21C216.247 82.25 216.507 81.38 217.027 80.6C217.567 79.8 218.347 79.17 219.367 78.71C220.407 78.25 221.637 78.02 223.057 78.02C225.157 78.02 226.807 78.54 228.007 79.58C229.227 80.62 229.927 82 230.107 83.72H225.367C225.287 83.14 225.027 82.68 224.587 82.34C224.167 82 223.607 81.83 222.907 81.83C222.307 81.83 221.847 81.95 221.527 82.19C221.207 82.41 221.047 82.72 221.047 83.12C221.047 83.6 221.297 83.96 221.797 84.2C222.317 84.44 223.117 84.68 224.197 84.92C225.437 85.24 226.447 85.56 227.227 85.88C228.007 86.18 228.687 86.68 229.267 87.38C229.867 88.06 230.177 88.98 230.197 90.14C230.197 91.12 229.917 92 229.357 92.78C228.817 93.54 228.027 94.14 226.987 94.58C225.967 95.02 224.777 95.24 223.417 95.24ZM242.666 90.65V95H240.056C238.196 95 236.746 94.55 235.706 93.65C234.666 92.73 234.146 91.24 234.146 89.18V82.52H232.106V78.26H234.146V74.18H239.276V78.26H242.636V82.52H239.276V89.24C239.276 89.74 239.396 90.1 239.636 90.32C239.876 90.54 240.276 90.65 240.836 90.65H242.666Z" fill="white"/>
</g>
<defs>
<filter id="filter0_ddiiii_104_866" x="-2" y="-2" width="298" height="140" filterUnits="userSpaceOnUse" color-interpolation-filters="sRGB">
<feFlood flood-opacity="0" result="BackgroundImageFix"/>
<feColorMatrix in="SourceAlpha" type="matrix" values="0 0 0 0 0 0 0 0 0 0 0 0 0 0 0 0 0 0 127 0" result="hardAlpha"/>
<feOffset dx="-1" dy="-1"/>
<feGaussianBlur stdDeviation="1"/>
<feColorMatrix type="matrix" values="0 0 0 0 0.901961 0 0 0 0 0.901961 0 0 0 0 0.901961 0 0 0 0.5 0"/>
<feBlend mode="normal" in2="BackgroundImageFix" result="effect1_dropShadow_104_866"/>
<feColorMatrix in="SourceAlpha" type="matrix" values="0 0 0 0 0 0 0 0 0 0 0 0 0 0 0 0 0 0 127 0" result="hardAlpha"/>
<feOffset dx="1" dy="1"/>
<feGaussianBlur stdDeviation="1"/>
<feColorMatrix type="matrix" values="0 0 0 0 1 0 0 0 0 1 0 0 0 0 1 0 0 0 0.3 0"/>
<feBlend mode="normal" in2="effect1_dropShadow_104_866" result="effect2_dropShadow_104_866"/>
<feBlend mode="normal" in="SourceGraphic" in2="effect2_dropShadow_104_866" result="shape"/>
<feColorMatrix in="SourceAlpha" type="matrix" values="0 0 0 0 0 0 0 0 0 0 0 0 0 0 0 0 0 0 127 0" result="hardAlpha"/>
<feOffset dx="5" dy="5"/>
<feGaussianBlur stdDeviation="6.5"/>
<feComposite in2="hardAlpha" operator="arithmetic" k2="-1" k3="1"/>
<feColorMatrix type="matrix" values="0 0 0 0 0.901961 0 0 0 0 0.901961 0 0 0 0 0.901961 0 0 0 0.9 0"/>
<feBlend mode="normal" in2="shape" result="effect3_innerShadow_104_866"/>
<feColorMatrix in="SourceAlpha" type="matrix" values="0 0 0 0 0 0 0 0 0 0 0 0 0 0 0 0 0 0 127 0" result="hardAlpha"/>
<feOffset dx="-5" dy="-5"/>
<feGaussianBlur stdDeviation="5"/>
<feComposite in2="hardAlpha" operator="arithmetic" k2="-1" k3="1"/>
<feColorMatrix type="matrix" values="0 0 0 0 1 0 0 0 0 1 0 0 0 0 1 0 0 0 0.9 0"/>
<feBlend mode="normal" in2="effect3_innerShadow_104_866" result="effect4_innerShadow_104_866"/>
<feColorMatrix in="SourceAlpha" type="matrix" values="0 0 0 0 0 0 0 0 0 0 0 0 0 0 0 0 0 0 127 0" result="hardAlpha"/>
<feOffset dx="5" dy="-5"/>
<feGaussianBlur stdDeviation="5"/>
<feComposite in2="hardAlpha" operator="arithmetic" k2="-1" k3="1"/>
<feColorMatrix type="matrix" values="0 0 0 0 0.901961 0 0 0 0 0.901961 0 0 0 0 0.901961 0 0 0 0.2 0"/>
<feBlend mode="normal" in2="effect4_innerShadow_104_866" result="effect5_innerShadow_104_866"/>
<feColorMatrix in="SourceAlpha" type="matrix" values="0 0 0 0 0 0 0 0 0 0 0 0 0 0 0 0 0 0 127 0" result="hardAlpha"/>
<feOffset dx="-5" dy="5"/>
<feGaussianBlur stdDeviation="5"/>
<feComposite in2="hardAlpha" operator="arithmetic" k2="-1" k3="1"/>
<feColorMatrix type="matrix" values="0 0 0 0 0.901961 0 0 0 0 0.901961 0 0 0 0 0.901961 0 0 0 0.2 0"/>
<feBlend mode="normal" in2="effect5_innerShadow_104_866" result="effect6_innerShadow_104_866"/>
</filter>
</defs>
</svg>
